<svg width="600" height="400" viewBox="0 0 600 400" fill="none" xmlns="http://www.w3.org/2000/svg">
<g clip-path="url(#clip0_1899_69250)">
<rect width="600" height="400" fill="#EEF8F8"/>
<path d="M228.48 92.6396L230.16 92.7097C238.305 93.0265 246.033 96.3976 251.807 102.153C257.581 107.908 260.977 115.625 261.32 123.77C261.97 139.48 262.49 156.84 262.06 165.24C261.17 182.63 243.67 184.66 243.67 184.66L243.6 191.76C243.5 203.48 241.7 216.36 229.98 216.19L222.15 212.77C216.579 212.699 211.261 210.432 207.351 206.463C203.441 202.493 201.256 197.141 201.27 191.57L201.33 126.73C200.5 108.6 210.34 92.9996 228.48 92.6396Z" fill="#FFBF9D"/>
<path d="M243.81 184.66C235.727 184.353 227.903 181.729 221.27 177.1C221.27 177.1 226.15 189.83 243.57 188.94L243.81 184.66Z" fill="#FF9A6C"/>
<path d="M254.919 139.4C254.901 140.047 254.63 140.661 254.165 141.112C253.699 141.562 253.077 141.813 252.429 141.81C252.112 141.823 251.795 141.773 251.498 141.662C251.201 141.55 250.929 141.381 250.699 141.162C250.468 140.944 250.284 140.682 250.157 140.391C250.03 140.1 249.963 139.787 249.959 139.47C249.977 138.822 250.248 138.208 250.713 137.758C251.179 137.307 251.801 137.057 252.449 137.06C252.766 137.046 253.083 137.097 253.38 137.208C253.677 137.319 253.949 137.489 254.179 137.707C254.409 137.925 254.594 138.188 254.721 138.478C254.848 138.769 254.915 139.082 254.919 139.4Z" fill="#263238"/>
<path d="M257.269 132.15C256.949 132.46 255.119 130.99 252.449 130.9C249.779 130.81 247.759 132.06 247.449 131.72C247.319 131.57 247.649 131 248.529 130.41C249.721 129.651 251.118 129.281 252.529 129.35C253.919 129.397 255.258 129.888 256.349 130.75C257.149 131.41 257.409 132.01 257.269 132.15Z" fill="#263238"/>
<path d="M231.769 138.77C231.751 139.417 231.48 140.032 231.015 140.482C230.549 140.932 229.926 141.183 229.279 141.18C228.961 141.193 228.644 141.143 228.347 141.032C228.049 140.921 227.776 140.751 227.545 140.533C227.314 140.315 227.129 140.053 227.001 139.762C226.873 139.471 226.804 139.158 226.799 138.84C226.829 138.204 227.103 137.604 227.562 137.163C228.021 136.722 228.632 136.474 229.269 136.47C229.585 136.454 229.901 136.501 230.198 136.608C230.496 136.716 230.769 136.881 231.001 137.095C231.234 137.309 231.422 137.568 231.554 137.855C231.685 138.143 231.759 138.454 231.769 138.77Z" fill="#263238"/>
<path d="M230.948 131.62C230.628 131.94 228.798 130.47 226.118 130.37C223.438 130.27 221.438 131.54 221.118 131.2C220.978 131.05 221.318 130.47 222.198 129.89C223.388 129.126 224.786 128.751 226.198 128.82C227.589 128.875 228.926 129.369 230.018 130.23C230.848 130.89 231.098 131.48 230.948 131.62Z" fill="#263238"/>
<path d="M239.879 151.83C239.879 151.68 241.549 151.46 244.249 151.22C244.939 151.22 245.589 151.06 245.719 150.6C245.799 149.911 245.67 149.214 245.349 148.6C244.769 146.92 244.162 145.16 243.529 143.32C241.009 135.81 239.219 129.64 239.529 129.55C239.839 129.46 242.119 135.45 244.639 142.97C245.239 144.82 245.819 146.58 246.369 148.27C246.768 149.109 246.856 150.062 246.619 150.96C246.517 151.206 246.359 151.424 246.158 151.598C245.957 151.772 245.717 151.896 245.459 151.96C245.076 152.049 244.683 152.089 244.289 152.08C241.569 152.04 239.879 151.98 239.879 151.83Z" fill="#263238"/>
<path d="M232.039 121.17C231.749 121.89 229.099 121.44 225.949 121.7C222.799 121.96 220.219 122.7 219.829 122.04C219.659 121.72 220.129 121.04 221.179 120.39C222.578 119.582 224.142 119.103 225.753 118.989C227.364 118.875 228.98 119.128 230.479 119.73C231.609 120.24 232.169 120.83 232.039 121.17Z" fill="#263238"/>
<path d="M256.569 124.37C256.069 124.96 254.259 124.26 252.039 124.14C249.819 124.02 247.939 124.39 247.529 123.74C247.349 123.42 247.669 122.83 248.529 122.28C249.658 121.635 250.954 121.339 252.251 121.43C253.549 121.52 254.79 121.994 255.819 122.79C256.549 123.45 256.789 124.08 256.569 124.37Z" fill="#263238"/>
<path d="M259.96 115.77C259.96 115.77 255.789 104.69 250.639 101.94C244.399 98.6199 241.389 105.49 235.389 103.56C229.389 101.63 223.44 98.4399 217.06 102.89C210.06 107.75 213.12 111.47 212.4 119.18C209.48 150.41 203.4 159.04 202.4 144.24C202.28 142.61 197.85 141.15 197.4 134.3C196.88 125.42 196.96 114.66 199.18 108.46C201.05 103.23 204.18 99.6899 209.78 95.8699C218.57 89.8699 230.31 90.1599 238.25 91.2699C246.19 92.3799 261.21 102.12 259.96 115.77Z" fill="#263238"/>
<path d="M203.499 143.77C203.502 143.13 203.376 142.497 203.126 141.908C202.877 141.319 202.511 140.786 202.05 140.343C201.589 139.9 201.043 139.555 200.444 139.329C199.846 139.103 199.208 139.002 198.569 139.03C195.319 139.21 191.629 140.91 191.569 147.62C191.479 159.53 203.459 157.16 203.479 156.82C203.499 156.48 203.509 148.77 203.499 143.77Z" fill="#FFBF9D"/>
<path d="M200.939 152.32C200.889 152.32 200.729 152.46 200.379 152.62C200.133 152.723 199.87 152.776 199.604 152.776C199.337 152.776 199.074 152.723 198.829 152.62C197.579 152.15 196.529 150.15 196.489 148C196.458 146.967 196.663 145.941 197.089 145C197.205 144.63 197.408 144.293 197.681 144.018C197.954 143.743 198.29 143.538 198.659 143.42C198.898 143.357 199.151 143.381 199.374 143.487C199.597 143.593 199.776 143.775 199.879 144C200.039 144.33 199.959 144.57 200.019 144.59C200.079 144.61 200.279 144.39 200.189 143.9C200.122 143.603 199.956 143.339 199.719 143.15C199.393 142.904 198.984 142.793 198.579 142.84C198.09 142.934 197.633 143.152 197.251 143.472C196.87 143.792 196.577 144.204 196.399 144.67C195.883 145.699 195.629 146.839 195.659 147.99C195.719 150.39 196.929 152.64 198.659 153.15C198.977 153.246 199.314 153.269 199.643 153.217C199.972 153.165 200.285 153.04 200.559 152.85C200.919 152.61 200.979 152.34 200.939 152.32Z" fill="#FF9A6C"/>
<path d="M263.699 103.17C262.019 101.63 259.539 101.17 257.859 99.6399C254.859 96.7999 255.239 91.0599 251.519 89.1899C249.319 88.0799 246.639 88.9299 244.219 88.4399C240.319 87.6499 239.079 84.5199 233.079 83.9199C225.299 83.1499 222.229 88.7099 222.229 88.7099C220.861 87.92 219.309 87.5041 217.729 87.5041C216.149 87.5041 214.597 87.92 213.229 88.7099C209.469 90.7099 208.779 95.5099 208.779 95.5099C208.779 95.5099 207.609 94.7699 203.579 97.3599C201.019 99.0099 198.689 102.88 197.579 105.7C195.879 109.9 197.319 114.7 198.759 118.96C199.549 121.28 200.539 123.86 202.759 124.86C205.489 126.09 208.809 124.18 210.179 121.52C211.549 118.86 213.569 116.24 215.179 113.7C217.959 109.31 220.759 105.23 219.089 102.08C221.873 101.446 224.786 101.712 227.409 102.84C230.039 104 232.239 105.96 234.839 107.18C237.439 108.4 240.839 108.66 242.899 106.65C243.208 107.471 243.699 108.212 244.335 108.816C244.971 109.421 245.736 109.874 246.572 110.141C247.408 110.408 248.293 110.483 249.162 110.36C250.031 110.237 250.86 109.919 251.589 109.43C253.369 113.12 258.209 115.21 261.899 113.43C265.589 111.65 266.719 105.94 263.699 103.17Z" fill="#263238"/>
<path d="M197.758 116.04C198.223 116.947 198.595 117.898 198.868 118.88C199.19 119.881 199.782 120.773 200.578 121.46C201.651 122.158 202.943 122.436 204.208 122.24C205.508 122.13 206.768 121.734 207.898 121.08C208.81 120.51 209.656 119.839 210.418 119.08C211.089 118.315 211.825 117.609 212.618 116.97C212.129 117.876 211.509 118.705 210.778 119.43C210.031 120.278 209.173 121.021 208.228 121.64C207.016 122.383 205.645 122.829 204.228 122.94C202.787 123.147 201.321 122.789 200.138 121.94C199.27 121.161 198.648 120.147 198.348 119.02C198.026 118.056 197.828 117.054 197.758 116.04Z" fill="#455A64"/>
<path d="M197.318 125.21C197.982 125.819 198.73 126.331 199.538 126.73C200.424 127.101 201.378 127.278 202.338 127.25C203.511 127.187 204.657 126.874 205.698 126.33C207.602 125.25 209.271 123.802 210.608 122.07C211.139 121.313 211.749 120.616 212.428 119.99C212.074 120.854 211.592 121.659 210.998 122.38C209.716 124.279 208.003 125.849 205.998 126.96C204.861 127.553 203.601 127.875 202.318 127.9C201.277 127.897 200.25 127.654 199.318 127.19C197.708 126.34 197.268 125.22 197.318 125.21Z" fill="#455A64"/>
<path d="M197.098 132.04C197.788 132.523 198.533 132.922 199.318 133.23C200.279 133.514 201.289 133.596 202.284 133.47C203.279 133.345 204.237 133.014 205.098 132.5C206.847 131.432 208.388 130.057 209.648 128.44C210.145 127.727 210.726 127.075 211.378 126.5C211.052 127.311 210.604 128.066 210.048 128.74C208.855 130.524 207.28 132.02 205.438 133.12C204.387 133.696 203.223 134.037 202.028 134.12C201.045 134.186 200.061 134.029 199.148 133.66C197.578 133.04 197.028 132.06 197.098 132.04Z" fill="#455A64"/>
<path d="M231.91 155.45C231.383 156.703 231.03 158.021 230.86 159.37C230.757 160.008 230.793 160.661 230.966 161.284C231.139 161.907 231.443 162.485 231.86 162.98C232.276 163.583 232.819 164.087 233.451 164.457C234.084 164.827 234.79 165.053 235.52 165.12C236.84 165.246 238.163 164.895 239.247 164.13C240.331 163.365 241.106 162.237 241.43 160.95L242.18 158.06C239.46 157.04 232.1 155.66 231.91 155.45Z" fill="#FF9A6C"/>
<path d="M238.368 164.54C238.368 164.48 238.018 164.54 237.368 164.54C236.529 164.595 235.685 164.521 234.868 164.32C233.687 164.012 232.663 163.274 231.998 162.25C231.409 161.245 231.105 160.099 231.117 158.935C231.129 157.771 231.458 156.632 232.068 155.64L231.688 155.79C234.308 156.44 236.598 156.99 238.238 157.35C239.105 157.601 239.997 157.752 240.898 157.8C240.093 157.393 239.24 157.09 238.358 156.9C236.748 156.42 234.468 155.79 231.858 155.1L231.618 155.03L231.478 155.25C230.779 156.352 230.408 157.63 230.408 158.935C230.408 160.24 230.779 161.518 231.478 162.62C232.258 163.751 233.443 164.539 234.788 164.82C235.664 164.989 236.563 164.989 237.438 164.82C238.058 164.77 238.378 164.58 238.368 164.54Z" fill="#263238"/>
<path d="M418.469 129.2C422.469 126.77 423.469 121.01 421.389 116.86C419.309 112.71 414.859 110.13 410.289 109.33C406.968 108.772 403.562 109.009 400.35 110.021C397.138 111.032 394.211 112.79 391.809 115.15C389.239 117.72 387.149 121.08 383.699 122.23C380.699 123.23 377.359 122.23 374.189 122.6C369.939 123.09 366.259 126.05 364.029 129.7C361.799 133.35 360.839 137.63 360.279 141.87C359.759 145.76 359.389 150.03 356.649 152.87C353.909 155.71 349.799 156.14 346.489 158.06C340.269 161.64 338.129 170.77 342.119 176.77C343.389 178.68 345.229 180.44 345.339 182.77C345.449 184.86 344.069 186.7 343.409 188.69C341.699 193.81 345.819 199.98 351.209 200.37C353.919 200.57 356.849 199.55 359.269 200.8C361.689 202.05 362.539 204.98 364.049 207.22C365.605 209.391 367.861 210.96 370.437 211.665C373.014 212.369 375.754 212.166 378.199 211.09C380.199 210.14 382.129 208.55 384.349 208.73C386.569 208.91 388.279 210.83 390.459 211.29C393.309 211.88 396.049 209.82 397.789 207.48C399.529 205.14 400.789 202.37 402.949 200.48C405.829 197.99 409.839 197.42 413.459 196.24C417.47 194.922 421.152 192.759 424.256 189.896C427.36 187.033 429.812 183.537 431.449 179.645C433.085 175.752 433.867 171.554 433.741 167.333C433.615 163.112 432.584 158.968 430.719 155.18" fill="#263238"/>
<path d="M376.269 179.77C375.408 178.819 374.331 178.088 373.129 177.64H373.369C373.145 177.585 372.918 177.545 372.689 177.52C372.277 177.393 371.844 177.351 371.416 177.398C370.988 177.444 370.573 177.578 370.199 177.79C368.81 178.269 367.651 179.25 366.949 180.54C366.397 181.687 366.172 182.963 366.297 184.23C366.423 185.496 366.894 186.703 367.659 187.72C368.209 188.645 369.026 189.381 370.003 189.832C370.98 190.282 372.071 190.426 373.131 190.244C374.191 190.062 375.172 189.563 375.943 188.812C376.713 188.062 377.239 187.095 377.449 186.04C377.798 184.98 377.873 183.849 377.667 182.753C377.46 181.656 376.979 180.63 376.269 179.77Z" fill="#455A64"/>
<path d="M427.269 223.46L432.549 147.12C432.649 145.499 432.138 143.898 431.116 142.636C430.094 141.373 428.636 140.54 427.029 140.3L393.029 130.12C382.029 128.49 374.159 141.73 373.029 152.75C371.719 165 370.619 180 371.679 189.23C373.739 207.77 388.869 210.77 388.869 210.77C388.869 210.77 388.699 229.63 388.489 236.33L383.979 257.04L427.269 223.46Z" fill="#AE7461"/>
<path d="M376.568 166.45C376.535 167.065 376.743 167.668 377.148 168.131C377.554 168.595 378.124 168.881 378.738 168.93C379.036 168.966 379.337 168.943 379.626 168.862C379.915 168.781 380.185 168.643 380.42 168.457C380.655 168.271 380.851 168.041 380.997 167.778C381.142 167.516 381.234 167.228 381.268 166.93C381.299 166.316 381.089 165.714 380.684 165.251C380.28 164.788 379.711 164.501 379.098 164.45C378.8 164.412 378.498 164.434 378.208 164.515C377.919 164.596 377.649 164.733 377.413 164.919C377.178 165.105 376.982 165.337 376.837 165.599C376.691 165.862 376.6 166.151 376.568 166.45Z" fill="#263238"/>
<path d="M375.978 159.46C376.258 159.78 378.108 158.54 380.648 158.65C383.188 158.76 384.998 160.12 385.288 159.82C385.438 159.69 385.158 159.12 384.368 158.49C383.303 157.683 382.014 157.225 380.678 157.18C379.356 157.105 378.045 157.455 376.938 158.18C376.128 158.77 375.848 159.32 375.978 159.46Z" fill="#263238"/>
<path d="M399.509 168.23C399.478 168.845 399.689 169.449 400.096 169.912C400.503 170.375 401.074 170.661 401.689 170.71C401.986 170.746 402.287 170.723 402.575 170.641C402.863 170.56 403.132 170.423 403.367 170.236C403.601 170.05 403.796 169.82 403.941 169.558C404.086 169.295 404.177 169.007 404.209 168.71C404.242 168.095 404.034 167.492 403.628 167.028C403.223 166.565 402.652 166.278 402.039 166.23C401.741 166.192 401.439 166.214 401.149 166.295C400.86 166.375 400.59 166.513 400.354 166.699C400.119 166.885 399.923 167.116 399.777 167.379C399.632 167.642 399.541 167.931 399.509 168.23Z" fill="#263238"/>
<path d="M400.96 161.01C401.24 161.34 403.09 160.09 405.63 160.2C408.17 160.31 409.98 161.67 410.27 161.37C410.41 161.24 410.14 160.67 409.35 160.04C408.279 159.234 406.988 158.777 405.65 158.73C404.331 158.655 403.024 159.005 401.92 159.73C401.11 160.32 400.82 160.87 400.96 161.01Z" fill="#263238"/>
<path d="M390.919 179.47C390.919 179.33 389.369 178.99 386.819 178.55C386.169 178.46 385.559 178.3 385.469 177.85C385.446 177.178 385.627 176.516 385.989 175.95L388.119 171.09C391.119 164.16 393.269 158.46 392.989 158.34C392.709 158.22 390.079 163.74 387.109 170.66C386.389 172.366 385.723 174 385.109 175.56C384.664 176.323 384.504 177.22 384.659 178.09C384.74 178.321 384.871 178.531 385.045 178.705C385.218 178.878 385.428 179.01 385.659 179.09C386.014 179.197 386.38 179.264 386.749 179.29C389.269 179.54 390.899 179.62 390.919 179.47Z" fill="#263238"/>
<path d="M388.759 210.77C388.759 210.77 400.009 212.03 412.609 205.18C412.609 205.18 407.079 218.81 388.709 216.29L388.759 210.77Z" fill="#6F4439"/>
<path d="M391.028 185.54C391.636 184.724 392.433 184.069 393.352 183.632C394.27 183.194 395.281 182.988 396.298 183.03C396.967 183.063 397.617 183.263 398.188 183.613C398.759 183.962 399.234 184.449 399.568 185.03C399.952 185.687 400.125 186.446 400.065 187.205C400.006 187.963 399.715 188.686 399.233 189.274C398.751 189.863 398.1 190.29 397.368 190.499C396.636 190.707 395.858 190.687 395.138 190.44C393.744 189.92 392.496 189.073 391.498 187.97C391.173 187.695 390.911 187.354 390.728 186.97C390.639 186.76 390.607 186.53 390.635 186.303C390.663 186.077 390.75 185.862 390.888 185.68" fill="#6F4439"/>
<path d="M398.318 181.55C397.908 181.55 397.788 184.27 395.318 186.13C392.848 187.99 389.948 187.56 389.908 187.94C389.908 188.11 390.538 188.51 391.778 188.59C393.394 188.686 394.991 188.208 396.288 187.24C397.535 186.307 398.37 184.927 398.618 183.39C398.788 182.24 398.508 181.55 398.318 181.55Z" fill="#263238"/>
<path d="M400.269 150.5C400.489 151.2 403.049 150.98 406.009 151.5C408.969 152.02 411.359 152.91 411.779 152.3C411.969 152.01 411.579 151.3 410.639 150.63C409.374 149.758 407.928 149.184 406.409 148.95C404.89 148.716 403.338 148.829 401.869 149.28C400.759 149.65 400.189 150.17 400.269 150.5Z" fill="#263238"/>
<path d="M377.269 150.77C377.689 151.37 379.469 150.85 381.569 150.91C383.669 150.97 385.449 151.46 385.879 150.91C386.079 150.62 385.819 150.03 385.059 149.45C384.046 148.735 382.838 148.35 381.599 148.35C380.363 148.317 379.148 148.666 378.119 149.35C377.339 149.88 377.069 150.46 377.269 150.77Z" fill="#263238"/>
<path d="M360.688 147.45C361.508 144.642 363.275 142.204 365.688 140.55C367.104 139.845 368.482 139.067 369.818 138.22C372.518 136.11 373.188 132.38 374.878 129.4C375.987 127.484 377.537 125.86 379.4 124.663C381.263 123.466 383.384 122.732 385.588 122.52C389.248 122.2 392.988 123.35 396.588 122.52C399.228 121.89 401.588 120.22 404.228 119.75C409.428 118.84 414.228 122.63 417.908 126.4C417.908 130.12 414.908 132.56 411.988 134.9C410.532 136.064 408.842 136.9 407.033 137.348C405.224 137.797 403.339 137.849 401.508 137.5C398.688 136.94 395.598 135.5 393.118 136.94C390.638 138.38 390.348 142.38 388.028 144.34C384.718 147.13 379.548 144.39 375.378 145.56C372.158 146.46 370.108 149.5 367.938 152.05C365.768 154.6 362.538 157.05 359.338 156.05C359.456 153.141 359.909 150.255 360.688 147.45Z" fill="#263238"/>
<path d="M399.91 132.32C402.25 131.68 407.03 130.25 408.31 128.25C411.08 123.9 415.91 120.98 420.79 121.31C423.325 121.54 425.717 122.587 427.607 124.292C429.497 125.998 430.782 128.271 431.27 130.77C434.694 130.978 437.977 132.207 440.696 134.297C443.416 136.388 445.448 139.245 446.53 142.5C447.425 144.141 447.951 145.957 448.072 147.823C448.193 149.688 447.905 151.557 447.23 153.3C446.4 155.39 444.99 157.71 446.04 159.7C447.09 161.69 449.89 161.83 452.04 162.61C453.899 163.343 455.441 164.706 456.397 166.461C457.353 168.215 457.662 170.251 457.27 172.21C456.95 173.61 456.27 175 456.53 176.4C456.79 177.8 458.05 178.91 458.99 180.06C460.166 181.501 460.943 183.226 461.243 185.062C461.543 186.898 461.355 188.78 460.699 190.521C460.043 192.262 458.941 193.799 457.504 194.98C456.067 196.161 454.344 196.944 452.51 197.25C450.85 197.53 449.06 197.43 447.61 198.25C445.95 199.25 445.21 201.25 444.02 202.73C442.859 204.192 441.279 205.264 439.491 205.8C437.703 206.337 435.793 206.312 434.02 205.73C433.31 205.491 432.637 205.154 432.02 204.73C430.88 206.25 429.13 207.27 426.15 207.23L427.4 168.37C427.181 168.843 426.85 169.256 426.435 169.571C426.02 169.887 425.534 170.096 425.02 170.18C418.76 171.5 418.02 158.64 419.48 155.18C417.154 153.224 415.084 150.983 413.32 148.51C411.64 145.94 410.22 138.98 410.63 135.86C408.41 135.9 398.88 132.59 399.91 132.32Z" fill="#263238"/>
<path d="M425.668 171.46C425.928 167.51 430.768 166.74 434.168 168.77C436.028 169.88 437.438 172.09 437.168 176.28C436.548 187.45 425.458 184.52 425.448 184.2C425.438 183.88 425.368 176.08 425.668 171.46Z" fill="#AE7461"/>
<path d="M429.138 180.16C429.188 180.16 429.318 180.3 429.638 180.47C430.092 180.693 430.613 180.736 431.098 180.59C432.298 180.22 433.398 178.4 433.568 176.39C433.644 175.433 433.511 174.47 433.178 173.57C433.093 173.215 432.922 172.885 432.682 172.61C432.442 172.335 432.138 172.122 431.798 171.99C431.577 171.919 431.339 171.928 431.124 172.014C430.908 172.099 430.73 172.257 430.618 172.46C430.448 172.77 430.508 172.99 430.448 173.01C430.388 173.03 430.218 172.81 430.338 172.35C430.41 172.078 430.577 171.841 430.808 171.68C430.967 171.57 431.146 171.494 431.335 171.454C431.523 171.415 431.718 171.413 431.908 171.45C432.361 171.567 432.777 171.799 433.115 172.123C433.453 172.447 433.702 172.852 433.838 173.3C434.264 174.292 434.436 175.375 434.338 176.45C434.148 178.7 432.878 180.74 431.238 181.12C430.932 181.192 430.613 181.194 430.307 181.124C430 181.055 429.713 180.917 429.468 180.72C429.138 180.43 429.098 180.18 429.138 180.16Z" fill="#6F4439"/>
<path d="M415.348 129.52C416.211 129.985 416.962 130.634 417.548 131.42C418.638 132.96 419.008 135.89 418.258 139.17L418.198 139.45L418.468 139.52C420.072 139.976 421.549 140.796 422.784 141.917C424.019 143.037 424.978 144.428 425.588 145.98C425.914 146.855 426.096 147.777 426.128 148.71C426.084 149.703 425.95 150.691 425.728 151.66C425.495 152.707 425.338 153.77 425.258 154.84C425.161 156.006 425.457 157.171 426.098 158.15C427.458 160.29 429.678 161.36 431.588 162.4C433.482 163.267 435.219 164.443 436.728 165.88C439.204 168.405 440.633 171.774 440.728 175.31C440.775 177.702 440.232 180.068 439.148 182.2C438.388 183.72 437.748 184.44 437.818 184.48C437.888 184.52 437.998 184.33 438.298 183.99C438.718 183.477 439.093 182.928 439.418 182.35C440.645 180.203 441.29 177.773 441.288 175.3C441.275 171.596 439.835 168.04 437.268 165.37C435.717 163.866 433.926 162.633 431.968 161.72C430.058 160.72 427.968 159.62 426.788 157.72C425.568 156.01 426.158 153.8 426.508 151.8C426.738 150.782 426.868 149.744 426.898 148.7C426.869 147.672 426.663 146.657 426.288 145.7C425.632 144.052 424.599 142.581 423.27 141.407C421.941 140.232 420.354 139.387 418.638 138.94L418.848 139.29C419.558 135.85 419.078 132.82 417.848 131.22C417.398 130.6 416.804 130.099 416.118 129.76C415.875 129.64 415.615 129.558 415.348 129.52Z" fill="#455A64"/>
<path d="M433.269 184.4C432.405 183.447 431.325 182.717 430.119 182.27H430.369C430.146 182.208 429.919 182.165 429.689 182.14C429.277 182.012 428.844 181.97 428.416 182.017C427.987 182.063 427.573 182.197 427.199 182.41C425.808 182.885 424.647 183.867 423.949 185.16C423.397 186.307 423.172 187.583 423.297 188.85C423.423 190.116 423.894 191.323 424.659 192.34C425.209 193.265 426.026 194.001 427.003 194.452C427.98 194.902 429.071 195.046 430.131 194.864C431.191 194.682 432.172 194.183 432.943 193.432C433.713 192.682 434.239 191.715 434.449 190.66C434.793 189.601 434.866 188.473 434.66 187.379C434.454 186.285 433.975 185.26 433.269 184.4Z" fill="#455A64"/>
<path d="M300.619 285.12C300.619 285.12 303.619 283.55 306.359 284.12C309.099 284.69 318.849 291.12 318.849 291.12L332.459 295.64L326.519 321.08L316.959 316.77L300.619 324.66V285.12Z" fill="#AE7461"/>
<path d="M275.739 291.12C275.739 291.12 283.179 290.18 285.879 288.83C288.579 287.48 294.999 281.78 296.339 281.89C297.679 282 305.549 284 305.549 284L300.549 288.83C300.549 288.83 310.289 294.74 313.199 296.91C316.109 299.08 325.199 308.83 325.629 311.22C326.059 313.61 325.319 316.4 324.179 317.33C323.039 318.26 318.899 316.4 318.899 316.4C319.06 317.134 319.059 317.894 318.897 318.628C318.735 319.362 318.415 320.052 317.959 320.65C316.409 322.72 312.779 322 312.779 322C312.779 322 312.469 325.42 310.779 326C309.089 326.58 305.389 324.75 305.389 324.75C305.389 324.75 304.269 327.66 302.909 327.97C301.549 328.28 297.719 325.97 297.719 325.97C297.719 325.97 281.139 314.05 277.409 312.29C273.679 310.53 272.539 310.42 272.539 310.42L275.739 291.12Z" fill="#FFBF9D"/>
<path d="M305.459 324.77C305.389 324.77 305.339 324.48 305.169 324.05C304.927 323.478 304.646 322.923 304.329 322.39C303.8 321.663 303.37 320.869 303.049 320.03C303.78 320.586 304.366 321.309 304.759 322.14C305.105 322.698 305.359 323.31 305.509 323.95C305.609 324.47 305.529 324.77 305.459 324.77Z" fill="#FF9A6C"/>
<path d="M312.349 322.77C311.583 321.774 310.885 320.728 310.259 319.64C309.129 317.91 307.909 316.76 307.999 316.64C309.112 317.292 310.033 318.227 310.669 319.35C311.443 320.371 312.013 321.533 312.349 322.77Z" fill="#FF9A6C"/>
<path d="M319.008 316.77C318.858 316.77 318.398 315.01 317.248 313.08C316.098 311.15 314.788 309.85 314.888 309.74C316.073 310.503 317.036 311.565 317.678 312.82C318.459 313.998 318.917 315.36 319.008 316.77Z" fill="#FF9A6C"/>
<path d="M314.148 303.86C314.551 304.729 314.739 305.683 314.698 306.64C314.825 307.59 314.722 308.557 314.398 309.46C314.233 308.536 314.169 307.597 314.208 306.66C314.082 305.732 314.062 304.792 314.148 303.86Z" fill="#FF9A6C"/>
<path d="M290.02 294.53C290.02 294.53 292.61 286.24 293.54 285.2C294.47 284.16 305.54 284 305.54 284L305.82 288.83L303.9 290.83L299.75 290.56C299.75 290.56 297.17 297.43 290.02 294.53Z" fill="#AE7461"/>
<path d="M277.729 312.28C277.729 312.28 276.659 313.11 277.729 315.08C278.799 317.05 281.729 315.64 282.649 315.08C282.649 315.08 281.239 318.36 283.029 319.39C284.241 320.022 285.61 320.286 286.969 320.15C286.969 320.15 286.869 322.15 289.409 323.43C291.949 324.71 292.599 323.43 292.599 323.43C292.599 323.43 292.879 326.67 295.789 326.99C296.837 327.211 297.926 327.102 298.909 326.68L297.789 326.04C297.789 326.04 300.099 320.9 298.789 319.39C298.338 318.937 297.794 318.586 297.196 318.36C296.598 318.134 295.958 318.038 295.319 318.08C295.319 318.08 295.889 315.03 294.219 314.18C293.845 313.949 293.425 313.801 292.989 313.746C292.553 313.691 292.109 313.729 291.689 313.859C291.269 313.989 290.881 314.207 290.552 314.498C290.222 314.79 289.959 315.148 289.779 315.55C289.779 315.55 289.589 312.21 287.149 312.28C285.742 312.301 284.397 312.867 283.399 313.86L277.729 312.28Z" fill="#AE7461"/>
<path d="M289.78 315.55C289.57 316.447 289.189 317.296 288.66 318.05C288.262 318.881 287.705 319.625 287.02 320.24C287.326 319.381 287.746 318.567 288.27 317.82C288.667 316.998 289.175 316.234 289.78 315.55Z" fill="#6F4439"/>
<path d="M295.389 318.17C294.947 320.077 293.96 321.814 292.549 323.17C292.935 322.293 293.401 321.453 293.939 320.66C294.343 319.787 294.829 318.953 295.389 318.17Z" fill="#6F4439"/>
<path d="M262.779 356.03H247.059L243.209 410.83L259.259 410.52C261.949 401.82 265.939 357.84 265.939 357.84L262.779 356.03Z" fill="#263238"/>
<path d="M173.749 356.03C173.749 356.03 163.689 379.62 164.689 389.17C165.689 398.72 170.469 410.83 170.469 410.83L249.829 410.71C251.246 405.019 252.324 399.248 253.059 393.43C254.739 381.63 259.259 356.03 259.259 356.03H173.749Z" fill="#263238"/>
<path d="M246.498 209.77C246.498 209.77 256.148 249.09 257.498 258.24C260.008 275.02 269.498 345.69 268.168 351.91C266.838 358.13 266.028 364.62 266.028 364.62C266.028 364.62 186.908 359.62 178.408 360.39C169.908 361.16 166.298 360.89 164.238 351.17C162.178 341.45 164.298 290.98 162.488 278.78C160.678 266.58 160.668 260.66 159.978 242.53C159.368 226.82 162.978 214.21 170.418 205.12C177.858 196.03 194.418 186.82 194.418 186.82L200.278 178.26L242.798 199.51L243.518 192.96L245.278 203.01L246.498 209.77Z" fill="#455A64"/>
<g opacity="0.3">
<path d="M265.77 318.65C265.07 316.89 262.83 316.45 260.95 316.24C243.36 314.24 225.04 309.89 212.19 297.72C207.19 292.96 203.19 287.2 199.38 281.42C191.03 268.8 183.18 255.85 175.33 242.9L169.27 245.21C173 263.49 176.68 276.72 182.77 291.7C188.86 306.68 193.58 321.22 209.01 326.13C219.01 329.3 237.92 326.87 248.36 326.05C252.725 325.847 257.057 325.177 261.28 324.05C262.568 323.736 263.767 323.126 264.78 322.27C265.274 321.825 265.631 321.247 265.806 320.605C265.982 319.963 265.969 319.285 265.77 318.65Z" fill="black"/>
</g>
<path d="M178.688 201.24C164.968 203.34 155.038 223 156.538 234.84C156.658 235.76 150.008 318.12 164.618 324.69C176.188 329.89 218.408 325.96 237.998 324.84C243.406 324.53 248.713 323.239 253.658 321.03L265.938 315.55C265.938 315.62 276.328 313.28 276.328 313.28C276.328 313.28 279.848 304.96 275.588 289.75L255.588 290.6H205.758C205.118 289.577 204.16 288.791 203.032 288.364C201.903 287.936 200.666 287.889 199.508 288.23L204.838 233.23" fill="#455A64"/>
<path d="M204.859 233.2C204.859 233.2 204.859 233.53 204.799 234.2C204.739 234.87 204.659 235.78 204.549 237.01C204.319 239.5 203.979 243.16 203.549 247.88C202.649 257.35 201.349 271.1 199.719 288.24L199.509 288.05C200.668 287.777 201.879 287.815 203.019 288.16C204.231 288.587 205.264 289.412 205.949 290.5L205.789 290.41H238.129C243.979 290.41 250.049 290.41 256.299 290.41L275.589 289.59H275.779L275.839 289.78C276.907 293.546 277.577 297.414 277.839 301.32C278.207 305.414 277.772 309.542 276.559 313.47V313.59H276.419L270.909 314.77L268.139 315.38L266.739 315.68L266.019 315.82C265.965 315.823 265.912 315.811 265.866 315.784C265.82 315.757 265.782 315.718 265.759 315.67C265.739 315.633 265.729 315.591 265.729 315.55C265.729 315.508 265.739 315.467 265.759 315.43H265.679L265.509 315.51L265.179 315.65C263.378 316.424 261.622 317.299 259.919 318.27C259.149 318.766 258.344 319.204 257.509 319.58L254.909 320.75C251.329 322.448 247.544 323.675 243.649 324.4C241.667 324.765 239.662 324.996 237.649 325.09L231.649 325.47C217.649 326.41 204.019 327.38 190.799 327.53C184.305 327.696 177.807 327.385 171.359 326.6C169.78 326.377 168.22 326.043 166.689 325.6C165.922 325.381 165.173 325.104 164.449 324.77C163.726 324.402 163.076 323.908 162.529 323.31C161.505 322.113 160.675 320.763 160.069 319.31C159.466 317.896 158.961 316.443 158.559 314.96C157.116 309.208 156.195 303.337 155.809 297.42C155.339 291.68 155.139 286.09 155.049 280.69C154.889 269.9 155.179 259.84 155.589 250.69C155.789 246.1 156.039 241.74 156.299 237.61C156.349 236.61 156.469 235.54 156.439 234.61C156.332 233.614 156.295 232.611 156.329 231.61C156.397 229.713 156.652 227.827 157.089 225.98C158.533 219.866 161.393 214.176 165.439 209.37C167.944 206.286 171.154 203.851 174.799 202.27C175.75 201.883 176.734 201.582 177.739 201.37L178.739 201.2L177.739 201.42C176.745 201.658 175.772 201.976 174.829 202.37C171.222 203.977 168.051 206.422 165.579 209.5C161.547 214.302 158.7 219.985 157.269 226.09C156.839 227.918 156.592 229.783 156.529 231.66C156.499 232.638 156.539 233.617 156.649 234.59C156.649 235.65 156.559 236.59 156.519 237.67C156.272 241.796 156.045 246.153 155.839 250.74C155.459 259.91 155.189 269.96 155.369 280.74C155.469 286.13 155.679 291.74 156.149 297.43C156.55 303.317 157.474 309.156 158.909 314.88C159.749 317.75 160.769 320.74 162.779 323.02C163.284 323.577 163.888 324.038 164.559 324.38C165.256 324.702 165.978 324.967 166.719 325.17C168.227 325.61 169.764 325.945 171.319 326.17C177.745 326.944 184.218 327.248 190.689 327.08C203.889 326.92 217.529 325.95 231.509 325.01C235.509 324.69 239.569 324.69 243.449 323.95C247.316 323.231 251.074 322.014 254.629 320.33L257.369 319.12C258.31 318.709 259.275 318.355 260.259 318.06C262.053 317.475 263.81 316.78 265.519 315.98L265.849 315.84L266.009 315.77H266.089C265.999 315.71 266.289 315.9 265.899 315.63C265.949 315.63 266.079 315.71 266.119 315.53C266.107 315.481 266.078 315.439 266.038 315.409C265.998 315.38 265.948 315.366 265.899 315.37L266.589 315.23L267.979 314.94L270.749 314.33L276.229 313.11L276.049 313.26C277.229 309.404 277.653 305.356 277.299 301.34C277.035 297.467 276.365 293.632 275.299 289.9L275.539 290.07L256.269 290.77C250.019 290.82 243.949 290.77 238.099 290.77H205.749H205.649L205.599 290.68C204.96 289.662 203.999 288.887 202.869 288.48C201.786 288.158 200.639 288.124 199.539 288.38L199.299 288.43V288.19C200.989 271.05 202.349 257.31 203.299 247.84C203.779 243.12 204.149 239.47 204.399 236.98L204.699 234.17C204.819 233.52 204.859 233.2 204.859 233.2Z" fill="#263238"/>
<path d="M242.839 202.77C242.511 202.628 242.194 202.464 241.889 202.28L239.269 200.77L239.459 200.69C238.939 203.31 238.459 207.16 237.559 211.78L237.499 212.08L237.239 211.92C233.379 209.49 228.749 206.71 223.819 203.73C220.139 201.52 216.699 199.3 213.529 197.38C210.359 195.46 207.439 193.82 204.989 192.45L199.179 189.22L197.599 188.33C197.408 188.234 197.228 188.12 197.059 187.99C197.263 188.054 197.46 188.138 197.649 188.24L199.269 189.04C200.669 189.76 202.689 190.81 205.159 192.14C207.629 193.47 210.559 195.14 213.769 196.98L224.079 203.3C229.009 206.3 233.629 209.08 237.469 211.55L237.139 211.69C238.059 207.11 238.619 203.25 239.219 200.64V200.47L239.359 200.56L241.919 202.15C242.243 202.329 242.551 202.537 242.839 202.77Z" fill="#263238"/>
<g opacity="0.3">
<path d="M202.898 191.08L224.568 207.23C229.338 210.78 234.218 214.4 239.878 216.23C239.778 211.21 239.675 206.19 239.568 201.17L237.348 211.77L202.898 191.08Z" fill="black"/>
</g>
<path d="M264.999 316.22C264.919 315.893 264.885 315.556 264.898 315.22C264.898 314.45 264.838 313.53 264.798 312.45C264.718 310.12 264.628 306.89 264.328 303.35C264.028 299.81 263.579 296.62 263.159 294.35C262.739 292.08 262.389 290.66 262.469 290.64C262.631 290.937 262.749 291.258 262.818 291.59C263.018 292.22 263.248 293.14 263.518 294.28C264.168 297.266 264.612 300.293 264.848 303.34C265.148 306.9 265.188 310.14 265.168 312.48C265.168 313.65 265.168 314.59 265.098 315.25C265.109 315.576 265.076 315.902 264.999 316.22Z" fill="#263238"/>
<path d="M195.658 223.13C195.568 223.13 195.188 221.89 194.328 219.96C192.077 214.899 188.531 210.522 184.048 207.27C182.338 206.03 181.178 205.39 181.228 205.27C181.528 205.352 181.814 205.477 182.078 205.64C182.836 206.036 183.568 206.48 184.268 206.97C188.949 210.112 192.576 214.589 194.678 219.82C194.997 220.602 195.264 221.404 195.478 222.22C195.576 222.515 195.636 222.82 195.658 223.13Z" fill="#263238"/>
<path d="M332.919 293.29C328.799 292.39 383.299 306.76 383.759 306.84L409.639 298.54L387.409 344.54L325.789 324.02L332.919 293.29Z" fill="#92E3A9"/>
<g opacity="0.3">
<path d="M357.408 299.91L352.748 298.67L347.408 331.19L356.658 334.27L357.408 299.91Z" fill="black"/>
</g>
<path d="M385.129 244.72L386.809 223.57L428.999 207.5L430.499 215.39L401.759 228.74L385.129 244.72Z" fill="#E0E0E0"/>
<path d="M432.669 219.1C432.669 219.1 443.439 235.98 446.749 248.67C450.309 262.34 447.229 286.49 447.229 286.49L435.079 341.04C436.696 343.157 437.768 345.64 438.199 348.27C438.679 352.21 434.359 356.6 434.359 356.6C434.359 356.6 432.469 355.47 439.679 368.4C446.889 381.33 447.269 410.83 447.269 410.83H340.059C345.159 385.83 355.599 346.08 355.599 345.42C355.599 344.76 355.649 317.86 355.649 317.86C355.649 317.86 355.179 291.79 357.579 282.36C359.979 272.93 382.399 238.36 393.189 229.6C404.649 220.28 430.499 210.73 430.499 210.73L432.669 219.1Z" fill="#92E3A9"/>
<path d="M361.488 371.56C361.158 370.42 369.488 356.95 369.488 356.95L417.128 364.26L420.448 376.48L361.488 371.56Z" fill="#92E3A9"/>
<path d="M361.488 371.56C361.588 371.551 361.688 371.551 361.788 371.56L362.678 371.62L366.048 371.87L378.508 372.87L420.448 376.29L420.218 376.53C419.408 373.53 418.568 370.47 417.708 367.3C417.428 366.3 417.158 365.3 416.898 364.3L417.078 364.46L369.438 357.09L369.598 357.02C366.838 361.48 364.708 365.08 363.328 367.59C362.628 368.84 362.128 369.82 361.818 370.5C361.699 370.751 361.602 371.012 361.528 371.28C361.512 371.373 361.512 371.467 361.528 371.56C361.528 371.56 361.478 371.15 361.788 370.47C362.098 369.79 362.548 368.79 363.218 367.52C364.568 364.99 366.648 361.37 369.378 356.89L369.428 356.81H369.528L417.188 364.05H417.328V364.18C417.588 365.18 417.858 366.18 418.138 367.18C418.998 370.34 419.838 373.45 420.638 376.41L420.708 376.68H420.408L378.358 373.09L365.948 371.99L362.618 371.68L361.768 371.6L361.488 371.56Z" fill="#263238"/>
<path d="M432.668 219.1L432.378 219.19L431.498 219.4C430.738 219.58 429.598 219.85 428.148 220.23C425.248 220.98 421.048 222.11 416.048 223.93C414.798 224.39 413.498 224.93 412.178 225.48C411.508 225.76 410.838 226.06 410.178 226.4C409.848 226.56 409.498 226.72 409.178 226.9C408.858 227.08 408.518 227.27 408.178 227.49C405.601 229.422 403.213 231.595 401.048 233.98C396.388 238.9 391.628 244.6 386.748 250.65C381.868 256.7 377.378 262.58 373.348 267.95C371.348 270.64 369.438 273.21 367.688 275.63C366.026 277.82 364.516 280.123 363.168 282.52C361.306 285.993 359.721 289.607 358.428 293.33C357.968 294.64 357.638 295.66 357.428 296.33C357.328 296.66 357.248 296.92 357.178 297.12C357.154 297.212 357.124 297.302 357.088 297.39C357.093 297.295 357.11 297.201 357.138 297.11C357.188 296.91 357.258 296.64 357.348 296.31C357.538 295.6 357.848 294.57 358.288 293.25C359.515 289.495 361.06 285.851 362.908 282.36C364.245 279.944 365.745 277.621 367.398 275.41C369.138 272.99 371.018 270.41 373.028 267.71C377.028 262.33 381.538 256.45 386.408 250.38C391.278 244.31 396.068 238.63 400.758 233.7C402.953 231.302 405.374 229.122 407.988 227.19C408.298 226.96 408.658 226.78 408.988 226.58C409.318 226.38 409.678 226.25 409.988 226.08C410.668 225.75 411.348 225.45 411.988 225.17C413.328 224.59 414.628 224.09 415.888 223.64C419.881 222.226 423.947 221.027 428.068 220.05C429.518 219.69 430.668 219.45 431.438 219.29L432.328 219.12L432.668 219.1Z" fill="#263238"/>
<path d="M425.979 351.93C425.526 351.737 425.088 351.509 424.669 351.25C423.829 350.8 422.669 350.09 421.219 349.18C417.529 346.807 414.044 344.131 410.799 341.18C407.602 338.278 404.659 335.11 401.999 331.71C400.999 330.42 400.219 329.34 399.719 328.58C399.433 328.203 399.182 327.802 398.969 327.38C399.288 327.735 399.585 328.109 399.859 328.5C400.409 329.23 401.219 330.28 402.259 331.55C404.974 334.881 407.932 338.006 411.109 340.9C414.346 343.805 417.785 346.479 421.399 348.9C422.799 349.84 423.949 350.58 424.759 351.07C425.186 351.326 425.594 351.614 425.979 351.93Z" fill="#263238"/>
<g opacity="0.3">
<path d="M363.02 371.69L364.46 376.48L418.41 376.31L363.02 371.69Z" fill="black"/>
</g>
<path d="M388.089 258.77L389.089 336.77L375.859 410.77H410.629C410.629 410.77 425.979 355.02 429.629 342.9C433.159 331.12 438.439 271.9 438.909 268.95C439.099 267.81 442.819 247.35 431.909 237.69" fill="#92E3A9"/>
<path d="M431.878 237.77L432.528 238.41C432.748 238.62 433.018 238.89 433.328 239.21C433.488 239.37 433.668 239.53 433.838 239.73L434.338 240.4C436.458 243.154 437.931 246.35 438.648 249.75C439.854 255.103 440.132 260.623 439.468 266.07C439.318 267.67 438.998 269.3 438.848 270.99C438.698 272.68 438.508 274.44 438.328 276.25L437.188 287.68C436.378 295.68 435.468 304.48 434.368 313.9C433.818 318.61 433.218 323.48 432.508 328.49C432.168 331 431.768 333.54 431.338 336.1C431.118 337.39 430.858 338.68 430.608 339.97C430.358 341.26 430.008 342.57 429.608 343.85C423.858 364.43 417.528 387.09 410.878 410.92L410.818 411.11H375.578L375.638 410.81C380.528 383.52 385.048 358.33 388.908 336.81C388.628 313.18 388.408 293.68 388.248 280.07C388.188 273.28 388.128 267.97 388.098 264.33C388.098 262.53 388.098 261.15 388.098 260.2C388.098 259.25 388.098 258.79 388.098 258.79C388.098 258.79 388.098 259.27 388.148 260.2C388.198 261.13 388.198 262.53 388.238 264.33C388.298 267.97 388.388 273.28 388.498 280.07C388.708 293.68 388.988 313.18 389.348 336.81C385.508 358.37 381.028 383.56 376.158 410.86L375.908 410.56H410.678L410.428 410.75C417.108 386.92 423.428 364.26 429.208 343.69C429.568 342.4 429.878 341.13 430.208 339.85C430.538 338.57 430.718 337.28 430.938 336C431.368 333.43 431.768 330.9 432.118 328.4C432.838 323.4 433.438 318.53 434.008 313.82C435.118 304.4 436.058 295.62 436.888 287.61L438.058 276.18C438.248 274.38 438.428 272.63 438.608 270.93C438.788 269.23 439.088 267.59 439.248 266.01C439.921 260.591 439.674 255.097 438.518 249.76C437.82 246.379 436.386 243.194 434.318 240.43L433.828 239.76C433.668 239.56 433.488 239.39 433.338 239.23L432.558 238.41C432.078 237.99 431.878 237.77 431.878 237.77Z" fill="#263238"/>
<path d="M422.579 235.49C422.579 235.59 420.919 235.19 418.239 235.17C414.743 235.136 411.284 235.892 408.121 237.381C404.957 238.87 402.171 241.054 399.969 243.77C398.279 245.85 397.539 247.37 397.459 247.32C397.568 246.939 397.729 246.576 397.939 246.24C398.446 245.295 399.028 244.392 399.679 243.54C401.848 240.695 404.668 238.413 407.904 236.887C411.139 235.36 414.694 234.634 418.269 234.77C419.344 234.812 420.413 234.935 421.469 235.14C421.852 235.212 422.224 235.329 422.579 235.49Z" fill="#263238"/>
</g>
<defs>
<clipPath id="clip0_1899_69250">
<rect width="600" height="400" fill="white"/>
</clipPath>
</defs>
</svg>
