<svg width="201" height="40" viewBox="0 0 201 40" fill="none" xmlns="http://www.w3.org/2000/svg">
<path d="M199.468 24.6845C199.173 25.6026 198.73 26.4879 198.14 27.3404C197.55 28.1929 196.812 28.9635 195.927 29.652C195.041 30.3078 194.008 30.8324 192.828 31.2259C191.68 31.6194 190.369 31.8161 188.893 31.8161C187.352 31.8161 185.893 31.521 184.516 30.9308C183.172 30.3078 181.975 29.4717 180.926 28.4224C179.909 27.3404 179.089 26.0944 178.466 24.6845C177.876 23.2418 177.581 21.6843 177.581 20.0121C177.581 18.3398 177.876 16.7987 178.466 15.3888C179.089 13.9461 179.925 12.7001 180.975 11.6509C182.024 10.5688 183.237 9.7327 184.614 9.14249C186.024 8.5195 187.533 8.20801 189.139 8.20801C190.68 8.20801 192.123 8.48671 193.467 9.04413C194.812 9.60154 195.976 10.4049 196.959 11.4541C197.976 12.4706 198.763 13.7166 199.32 15.1921C199.91 16.6348 200.205 18.2414 200.205 20.0121C200.205 20.2744 200.189 20.5367 200.156 20.799C200.124 21.0285 200.091 21.258 200.058 21.4876C200.025 21.7499 199.992 21.9958 199.96 22.2253H184.467C184.729 23.0778 185.254 23.8648 186.041 24.5861C186.86 25.3075 187.893 25.6682 189.139 25.6682C189.762 25.6682 190.287 25.6026 190.713 25.4714C191.172 25.3075 191.533 25.1271 191.795 24.9304C192.123 24.7337 192.385 24.4878 192.582 24.1927L199.468 24.6845ZM189.139 14.3559C187.893 14.3559 186.86 14.733 186.041 15.4872C185.254 16.2085 184.729 17.061 184.467 18.0447H193.812C193.549 17.061 193.008 16.2085 192.189 15.4872C191.402 14.733 190.385 14.3559 189.139 14.3559Z" fill="#27B2B2"/>
<path d="M162.558 14.8482H159.115V9.19206H160.837C162.64 9.19206 163.542 8.29036 163.542 6.48697V3.29004H169.198V8.70023H173.87V14.8482H169.198V22.2257C169.198 23.2094 169.477 23.9963 170.034 24.5865C170.591 25.1439 171.296 25.4226 172.149 25.4226C172.411 25.4226 172.641 25.4226 172.837 25.4226C173.034 25.3898 173.215 25.357 173.378 25.3243C173.542 25.2915 173.706 25.2423 173.87 25.1767V31.0787C173.608 31.1771 173.313 31.2591 172.985 31.3246C172.329 31.4886 171.559 31.5706 170.673 31.5706C168.083 31.5706 166.083 30.8656 164.673 29.4557C163.263 28.013 162.558 25.9309 162.558 23.2094V14.8482Z" fill="#27B2B2"/>
<path d="M146.544 8.20801C147.888 8.20801 149.134 8.43753 150.282 8.89658C151.43 9.35562 152.413 10.0114 153.233 10.8639C154.085 11.6836 154.741 12.6673 155.2 13.8149C155.659 14.9625 155.889 16.2085 155.889 17.5529V31.3243H150.971L149.987 29.111C149.429 29.5701 148.806 29.9799 148.118 30.3406C147.528 30.6685 146.823 30.9636 146.003 31.2259C145.216 31.4554 144.331 31.5702 143.347 31.5702C140.888 31.5702 139.003 30.98 137.691 29.7996C136.379 28.5864 135.724 27.0453 135.724 25.1763C135.724 24.0615 135.937 23.045 136.363 22.1269C136.822 21.1761 137.576 20.3727 138.625 19.717C139.675 19.0284 141.052 18.5038 142.757 18.1431C144.495 17.7496 146.659 17.5529 149.249 17.5529C149.249 16.4381 148.97 15.5855 148.413 14.9953C147.856 14.4051 147.151 14.11 146.298 14.11C145.675 14.11 145.167 14.2412 144.773 14.5035C144.413 14.733 144.118 14.9789 143.888 15.2413C143.626 15.5691 143.445 15.9298 143.347 16.3233L136.707 15.8315C136.904 14.7166 137.248 13.7002 137.74 12.7821C138.232 11.8312 138.871 11.0279 139.658 10.3721C140.478 9.68351 141.462 9.15889 142.609 8.79821C143.757 8.40474 145.069 8.20801 146.544 8.20801ZM145.069 26.6518C146.314 26.6518 147.315 26.2748 148.069 25.5206C148.856 24.7337 149.249 23.7172 149.249 22.4712V21.4876C147.839 21.4876 146.675 21.5695 145.757 21.7335C144.872 21.8646 144.167 22.0614 143.642 22.3237C143.15 22.586 142.806 22.8975 142.609 23.2582C142.445 23.6188 142.363 24.0123 142.363 24.4386C142.363 25.0616 142.593 25.5862 143.052 26.0124C143.544 26.4387 144.216 26.6518 145.069 26.6518Z" fill="#27B2B2"/>
<path d="M124.41 0.338867H130.804V31.3245H123.672V15.8317L116.54 31.3245H112.114L104.982 15.8317V31.3245H97.8506V0.338867H104.244L114.327 22.2255L124.41 0.338867Z" fill="#27B2B2"/>
<path d="M82.3613 8.4541C83.7712 8.4541 85.1156 8.7492 86.3944 9.33941C87.6731 9.89682 88.788 10.7002 89.7388 11.7494C90.7225 12.7659 91.493 13.9791 92.0505 15.389C92.6407 16.7989 92.9358 18.34 92.9358 20.0122C92.9358 21.6845 92.6407 23.2256 92.0505 24.6355C91.493 26.0454 90.7225 27.275 89.7388 28.3242C88.788 29.3407 87.6731 30.144 86.3944 30.7342C85.1156 31.2916 83.7712 31.5704 82.3613 31.5704C81.5088 31.5704 80.7219 31.472 80.0005 31.2753C79.3119 31.0785 78.7217 30.849 78.2299 30.5867C77.6397 30.2916 77.1315 29.9637 76.7052 29.603V39.1938H70.0654V8.70002H74.9838L75.9674 10.9133C76.4593 10.4542 77.0331 10.0444 77.6889 9.68369C78.2463 9.38859 78.9185 9.10988 79.7054 8.84757C80.4923 8.58526 81.3776 8.4541 82.3613 8.4541ZM86.296 20.0122C86.296 18.4056 85.8206 17.1104 84.8697 16.1267C83.9188 15.1103 82.7548 14.602 81.3776 14.602C80.0005 14.602 78.8365 15.1103 77.8856 16.1267C76.9347 17.1104 76.4593 18.4056 76.4593 20.0122C76.4593 21.6189 76.9347 22.9305 77.8856 23.9469C78.8365 24.9306 80.0005 25.4224 81.3776 25.4224C82.7548 25.4224 83.9188 24.9306 84.8697 23.9469C85.8206 22.9305 86.296 21.6189 86.296 20.0122Z" fill="#27B2B2"/>
<path d="M64.6388 31.3245H57.999V0.338867H64.6388V31.3245Z" fill="#27B2B2"/>
<path d="M53.0976 24.6845C52.8025 25.6026 52.3599 26.4879 51.7697 27.3404C51.1795 28.1929 50.4417 28.9635 49.5564 29.652C48.6711 30.3078 47.6382 30.8324 46.4578 31.2259C45.3102 31.6194 43.9987 31.8161 42.5231 31.8161C40.9821 31.8161 39.523 31.521 38.1458 30.9308C36.8015 30.3078 35.6047 29.4717 34.5554 28.4224C33.539 27.3404 32.7192 26.0944 32.0962 24.6845C31.506 23.2418 31.2109 21.6843 31.2109 20.0121C31.2109 18.3398 31.506 16.7987 32.0962 15.3888C32.7192 13.9461 33.5554 12.7001 34.6046 11.6509C35.6539 10.5688 36.867 9.7327 38.2442 9.14249C39.6541 8.5195 41.1624 8.20801 42.7691 8.20801C44.3102 8.20801 45.7529 8.48671 47.0972 9.04413C48.4416 9.60154 49.6056 10.4049 50.5892 11.4541C51.6057 12.4706 52.3926 13.7166 52.9501 15.1921C53.5403 16.6348 53.8354 18.2414 53.8354 20.0121C53.8354 20.2744 53.819 20.5367 53.7862 20.799C53.7534 21.0285 53.7206 21.258 53.6878 21.4876C53.655 21.7499 53.6222 21.9958 53.5894 22.2253H38.0966C38.3589 23.0778 38.8836 23.8648 39.6705 24.5861C40.4902 25.3075 41.5231 25.6682 42.7691 25.6682C43.3921 25.6682 43.9167 25.6026 44.3429 25.4714C44.802 25.3075 45.1627 25.1271 45.425 24.9304C45.7529 24.7337 46.0152 24.4878 46.2119 24.1927L53.0976 24.6845ZM42.7691 14.3559C41.5231 14.3559 40.4902 14.733 39.6705 15.4872C38.8836 16.2085 38.3589 17.061 38.0966 18.0447H47.4415C47.1792 17.061 46.6382 16.2085 45.8184 15.4872C45.0315 14.733 44.015 14.3559 42.7691 14.3559Z" fill="#27B2B2"/>
<path d="M26.2733 0.338867V31.3245H19.1417V19.0286H7.33767V31.3245H0.206055V0.338867H7.33767V12.1429H19.1417V0.338867H26.2733Z" fill="#27B2B2"/>
</svg>
