<svg width="600" height="400" viewBox="0 0 600 400" fill="none" xmlns="http://www.w3.org/2000/svg">
<rect width="600" height="400" fill="#EEF8F8"/>
<path d="M448.537 270.968C434.296 261.025 431.071 242.56 431.63 225.966C431.726 223.195 431.421 220.275 432.739 217.839C434.058 215.404 437.134 213.75 439.614 214.92C441.67 215.888 442.593 218.279 443.718 220.26C445.256 222.899 447.507 225.049 450.213 226.465C451.978 227.381 454.161 227.954 455.904 226.979C458.294 225.66 458.577 222.361 458.555 219.605C458.525 214.465 458.493 209.328 458.458 204.194C458.458 201.438 458.458 198.63 459.293 196.001C460.127 193.372 462.041 190.958 464.663 190.229C467.285 189.499 470.525 190.973 471.083 193.699C471.186 194.841 471.211 195.988 471.158 197.133C471.24 198.273 471.768 199.539 472.856 199.859C473.943 200.179 475.09 199.397 475.88 198.593C478.725 195.815 480.654 192.225 482.457 188.664C484.259 185.104 486.01 181.447 488.594 178.416C491.179 175.384 494.747 172.978 498.687 172.755C502.627 172.531 506.843 174.989 507.841 178.84C508.839 182.691 506.574 186.668 504.117 189.811C500.454 194.474 496.139 198.585 491.305 202.019C490.441 202.63 489.495 203.3 489.168 204.321C488.564 206.16 490.307 207.985 492.147 208.589C494.203 209.266 496.43 209.058 498.582 209.333C500.735 209.609 503.051 210.533 503.871 212.566C504.995 215.381 502.642 218.331 500.325 220.268C495.682 224.14 490.405 227.184 484.729 229.265C482.703 230.01 480.572 230.658 478.934 232.081C477.295 233.503 476.319 235.984 477.303 237.928C478.286 239.872 480.826 240.49 482.948 240.095C485.071 239.7 486.97 238.546 488.996 237.786C492.78 236.356 497.674 236.617 500.102 239.886C501.696 242.039 501.83 245.033 501.025 247.603C500.102 250.129 498.681 252.444 496.847 254.411C490.784 261.531 483.008 267.266 474.226 270.305C465.445 273.344 457.304 274.178 448.574 270.983" fill="#92E3A9"/>
<path d="M448.322 283.295C449.08 275.599 450.576 267.994 452.791 260.585C455.546 251.543 458.819 242.668 462.593 234.002L465.52 227.164C466.489 224.93 467.442 222.695 468.5 220.58C470.565 216.522 472.853 212.581 475.352 208.775C477.713 205.125 480.082 201.743 482.324 198.6C484.566 195.457 486.726 192.582 488.804 190.035C492.077 185.99 495.666 182.212 499.537 178.735C500.9 177.514 501.987 176.59 502.732 175.98L503.581 175.287L503.879 175.063C503.8 175.163 503.71 175.252 503.611 175.332L502.792 176.076C502.047 176.71 501.012 177.655 499.671 178.899C495.873 182.413 492.343 186.205 489.109 190.243C487.061 192.798 484.931 195.695 482.696 198.838C480.462 201.982 478.116 205.371 475.769 209.02C473.299 212.819 471.039 216.75 468.999 220.796C467.941 222.904 466.995 225.101 466.019 227.351L463.092 234.188C459.328 242.837 456.05 251.689 453.275 260.704C451.04 268.074 449.499 275.638 448.672 283.295" fill="#263238"/>
<path d="M468.684 220.55C468.557 220.168 468.468 219.774 468.416 219.374C468.275 218.629 468.103 217.504 467.91 216.134C467.515 213.385 467.105 209.579 466.673 205.378C466.241 201.177 465.779 197.386 465.347 194.66C465.139 193.297 464.953 192.187 464.819 191.428C464.725 191.037 464.673 190.637 464.662 190.236C464.822 190.606 464.94 190.993 465.012 191.39C465.206 192.135 465.444 193.238 465.697 194.601C466.219 197.319 466.74 201.118 467.187 205.326C467.634 209.534 467.984 213.221 468.267 216.081C468.409 217.378 468.528 218.472 468.617 219.344C468.686 219.742 468.709 220.147 468.684 220.55Z" fill="#263238"/>
<path d="M504.118 213.929C503.651 214.023 503.178 214.077 502.702 214.093C501.794 214.175 500.468 214.287 498.859 214.473C495.612 214.823 491.15 215.464 486.249 216.387C481.348 217.311 476.961 218.354 473.803 219.188C472.224 219.597 470.95 219.933 470.079 220.208C469.628 220.364 469.165 220.479 468.693 220.551C469.117 220.33 469.561 220.15 470.019 220.015C470.883 219.717 472.142 219.27 473.743 218.838C476.879 217.907 481.281 216.819 486.189 215.858C490.377 215.056 494.604 214.466 498.852 214.093C500.483 213.952 501.831 213.892 502.725 213.877C503.19 213.85 503.656 213.867 504.118 213.929Z" fill="#263238"/>
<path d="M453.261 259.915C453.261 259.915 453.156 259.773 453.015 259.483C452.873 259.193 452.65 258.738 452.411 258.202C451.89 257.085 451.175 255.453 450.319 253.42C448.613 249.368 446.43 243.685 444.099 237.384C441.768 231.083 439.63 225.385 438.021 221.303L436.092 216.462L435.571 215.143C435.502 214.991 435.451 214.831 435.422 214.667C435.52 214.799 435.6 214.945 435.66 215.099C435.824 215.449 436.025 215.843 436.271 216.38C436.792 217.497 437.5 219.128 438.357 221.161C440.062 225.221 442.252 230.896 444.576 237.205C446.9 243.514 449.045 249.197 450.654 253.286L452.59 258.12L453.104 259.438C453.177 259.589 453.23 259.75 453.261 259.915Z" fill="#263238"/>
<path d="M500.333 244.743C500.186 244.827 500.028 244.892 499.864 244.936L498.501 245.391L493.458 247.029C489.198 248.407 483.344 250.381 476.878 252.571C470.413 254.761 464.529 256.682 460.239 257.971C458.094 258.619 456.358 259.125 455.144 259.461L453.751 259.826C453.592 259.879 453.427 259.912 453.26 259.922C453.405 259.839 453.56 259.774 453.722 259.729L455.092 259.274L460.135 257.636C464.388 256.258 470.242 254.284 476.714 252.094C483.187 249.904 489.064 247.983 493.354 246.687C495.492 246.039 497.235 245.532 498.441 245.197L499.834 244.832C499.996 244.78 500.163 244.75 500.333 244.743Z" fill="#263238"/>
<path d="M440.143 100H162.395C156.402 100 151.543 104.859 151.543 110.852V287.169C151.543 293.162 156.402 298.021 162.395 298.021H440.143C446.136 298.021 450.995 293.162 450.995 287.169V110.852C450.995 104.859 446.136 100 440.143 100Z" fill="#263238"/>
<path d="M139.037 283.377H463.448V287.452C463.448 290.968 462.052 294.34 459.565 296.827C457.079 299.313 453.707 300.71 450.19 300.71H152.258C148.742 300.71 145.37 299.313 142.883 296.827C140.397 294.34 139 290.968 139 287.452V283.377H139.037Z" fill="#263238"/>
<path d="M442.117 107.873H159.58V275.102H442.117V107.873Z" fill="#455A64"/>
<path d="M271.744 283.377L275.774 289.783H332.418L336.157 283.377H271.744Z" fill="#455A64"/>
<path d="M434.437 113.534H167.832C166.487 113.534 165.396 114.624 165.396 115.969V272.131C165.396 273.476 166.487 274.566 167.832 274.566H434.437C435.782 274.566 436.873 273.476 436.873 272.131V115.969C436.873 114.624 435.782 113.534 434.437 113.534Z" fill="#EBEBEB"/>
<path d="M436.873 125.332H165.396V274.566H436.873V125.332Z" fill="#FAFAFA"/>
<path d="M187.668 119.753C187.668 120.183 187.541 120.604 187.302 120.961C187.063 121.319 186.723 121.598 186.326 121.762C185.928 121.927 185.491 121.97 185.069 121.886C184.647 121.802 184.26 121.595 183.955 121.291C183.651 120.987 183.444 120.599 183.36 120.177C183.276 119.755 183.319 119.318 183.484 118.921C183.649 118.523 183.927 118.184 184.285 117.945C184.643 117.706 185.063 117.578 185.493 117.578C186.07 117.578 186.623 117.807 187.031 118.215C187.439 118.623 187.668 119.176 187.668 119.753Z" fill="#263238"/>
<path d="M174.52 119.753C174.519 120.181 174.391 120.6 174.152 120.955C173.913 121.311 173.573 121.587 173.177 121.75C172.781 121.913 172.346 121.955 171.926 121.87C171.506 121.786 171.12 121.579 170.818 121.276C170.515 120.972 170.31 120.586 170.227 120.166C170.144 119.745 170.187 119.31 170.351 118.914C170.516 118.519 170.793 118.181 171.15 117.943C171.506 117.705 171.925 117.578 172.353 117.578C172.638 117.578 172.921 117.634 173.184 117.744C173.448 117.853 173.687 118.014 173.888 118.216C174.09 118.418 174.249 118.657 174.358 118.921C174.466 119.185 174.521 119.468 174.52 119.753Z" fill="#263238"/>
<path d="M180.829 119.753C180.828 120.181 180.699 120.6 180.46 120.955C180.221 121.311 179.882 121.587 179.486 121.75C179.09 121.913 178.654 121.955 178.234 121.87C177.814 121.786 177.429 121.579 177.126 121.276C176.824 120.972 176.618 120.586 176.535 120.166C176.452 119.745 176.496 119.31 176.66 118.914C176.824 118.519 177.102 118.181 177.458 117.943C177.814 117.705 178.233 117.578 178.662 117.578C178.947 117.578 179.229 117.634 179.493 117.744C179.756 117.853 179.995 118.014 180.197 118.216C180.398 118.418 180.558 118.657 180.666 118.921C180.775 119.185 180.83 119.468 180.829 119.753Z" fill="#263238"/>
<path d="M448.418 283.377C448.418 283.489 381.957 283.571 299.988 283.571C218.019 283.571 151.543 283.489 151.543 283.377C151.543 283.266 217.989 283.184 299.988 283.184C381.986 283.184 448.418 283.295 448.418 283.377Z" fill="#455A64"/>
<path d="M246.159 200.507H184.211V204.649H246.159V200.507Z" fill="#E0E0E0"/>
<path d="M326.176 142.969H264.229V147.11H326.176V142.969Z" fill="#E0E0E0"/>
<path d="M418.349 158.402C418.349 158.506 383.848 158.596 341.311 158.596C298.773 158.596 264.258 158.506 264.258 158.402C264.258 158.298 298.751 158.208 341.311 158.208C383.87 158.208 418.349 158.298 418.349 158.402Z" fill="#E0E0E0"/>
<path d="M418.349 167.452C418.349 167.556 383.848 167.646 341.311 167.646C298.773 167.646 264.258 167.556 264.258 167.452C264.258 167.348 298.751 167.258 341.311 167.258C383.87 167.258 418.349 167.348 418.349 167.452Z" fill="#E0E0E0"/>
<path d="M418.349 176.502C418.349 176.606 383.848 176.695 341.311 176.695C298.773 176.695 264.258 176.606 264.258 176.502C264.258 176.397 298.751 176.308 341.311 176.308C383.87 176.308 418.349 176.39 418.349 176.502Z" fill="#E0E0E0"/>
<path d="M418.349 185.552C418.349 185.656 383.848 185.745 341.311 185.745C298.773 185.745 264.258 185.656 264.258 185.552C264.258 185.447 298.751 185.358 341.311 185.358C383.87 185.358 418.349 185.44 418.349 185.552Z" fill="#E0E0E0"/>
<path d="M418.349 194.601C418.349 194.705 383.848 194.795 341.311 194.795C298.773 194.795 264.258 194.705 264.258 194.601C264.258 194.497 298.751 194.407 341.311 194.407C383.87 194.407 418.349 194.489 418.349 194.601Z" fill="#E0E0E0"/>
<path d="M324.381 203.651C324.381 203.755 310.915 203.844 294.305 203.844C277.695 203.844 264.229 203.755 264.229 203.651C264.229 203.546 277.695 203.457 294.305 203.457C310.915 203.457 324.381 203.539 324.381 203.651Z" fill="#E0E0E0"/>
<path d="M417.194 221.214C417.194 221.318 394.513 221.407 366.545 221.407C338.577 221.407 315.896 221.318 315.896 221.214C315.896 221.109 338.569 221.02 366.545 221.02C394.521 221.02 417.194 221.102 417.194 221.214Z" fill="#E0E0E0"/>
<path d="M417.194 230.815C417.194 230.926 394.513 231.008 366.545 231.008C338.577 231.008 315.896 230.926 315.896 230.815C315.896 230.703 338.569 230.621 366.545 230.621C394.521 230.621 417.194 230.71 417.194 230.815Z" fill="#E0E0E0"/>
<path d="M417.194 240.423C417.194 240.527 394.513 240.617 366.545 240.617C338.577 240.617 315.896 240.527 315.896 240.423C315.896 240.319 338.569 240.229 366.545 240.229C394.521 240.229 417.194 240.319 417.194 240.423Z" fill="#E0E0E0"/>
<path d="M417.194 250.032C417.194 250.136 394.513 250.225 366.545 250.225C338.577 250.225 315.896 250.136 315.896 250.032C315.896 249.927 338.569 249.838 366.545 249.838C394.521 249.838 417.194 249.92 417.194 250.032Z" fill="#E0E0E0"/>
<path d="M246.294 220.29C246.294 220.402 232.775 220.484 216.106 220.484C199.437 220.484 185.918 220.402 185.918 220.29C185.918 220.179 199.429 220.097 216.106 220.097C232.783 220.097 246.294 220.186 246.294 220.29Z" fill="#E0E0E0"/>
<path d="M246.294 227.835C246.294 227.94 232.775 228.029 216.106 228.029C199.437 228.029 185.918 227.94 185.918 227.835C185.918 227.731 199.429 227.642 216.106 227.642C232.783 227.642 246.294 227.731 246.294 227.835Z" fill="#E0E0E0"/>
<path d="M246.294 235.381C246.294 235.485 232.775 235.574 216.106 235.574C199.437 235.574 185.918 235.485 185.918 235.381C185.918 235.276 199.429 235.187 216.106 235.187C232.783 235.187 246.294 235.269 246.294 235.381Z" fill="#E0E0E0"/>
<path d="M246.294 242.926C246.294 243.03 232.776 243.119 216.106 243.119C199.437 243.119 185.963 243.03 185.963 242.926C185.963 242.821 199.474 242.732 216.151 242.732C232.828 242.732 246.294 242.814 246.294 242.926Z" fill="#E0E0E0"/>
<path d="M246.294 250.463C246.294 250.575 232.775 250.664 216.106 250.664C199.437 250.664 185.918 250.575 185.918 250.463C185.918 250.351 199.429 250.27 216.106 250.27C232.783 250.27 246.294 250.359 246.294 250.463Z" fill="#E0E0E0"/>
<path d="M308.144 216.626H264.191V259.148H308.144V216.626Z" fill="#F5F5F5"/>
<path d="M267.604 255.514L279.759 233.63L289.703 247.618L295.751 240.192L304.741 255.514H267.604Z" fill="#EBEBEB"/>
<path d="M293.962 229.377C293.962 230.004 293.776 230.616 293.428 231.136C293.081 231.657 292.586 232.062 292.008 232.302C291.429 232.542 290.793 232.604 290.179 232.482C289.565 232.36 289.001 232.059 288.558 231.616C288.115 231.173 287.814 230.609 287.692 229.995C287.57 229.381 287.632 228.744 287.872 228.166C288.111 227.588 288.517 227.093 289.038 226.745C289.558 226.398 290.17 226.212 290.796 226.212C291.212 226.211 291.624 226.292 292.009 226.451C292.393 226.61 292.743 226.843 293.037 227.137C293.331 227.431 293.564 227.78 293.723 228.165C293.882 228.549 293.963 228.961 293.962 229.377Z" fill="#EBEBEB"/>
<path d="M304.739 255.632C304.734 255.573 304.734 255.513 304.739 255.454C304.739 255.327 304.739 255.163 304.739 254.962C304.739 254.508 304.739 253.867 304.739 253.048C304.739 251.357 304.739 248.921 304.695 245.823C304.695 239.611 304.643 230.77 304.605 220.149L304.784 220.327H267.647C267.595 220.372 268.042 219.933 267.855 220.126V224.93C267.855 226.524 267.855 228.103 267.855 229.668V238.829C267.855 244.788 267.855 250.411 267.855 255.595L267.677 255.409L294.528 255.506L302.103 255.55H304.106H304.628H304.814H304.65H304.151H302.177L294.639 255.603L267.677 255.692H267.49V255.513C267.49 250.299 267.49 244.698 267.49 238.747C267.49 235.768 267.49 232.707 267.49 229.586V220.164C267.297 220.342 267.744 219.903 267.699 219.948H304.836H305.015V220.126C305.015 230.792 304.94 239.678 304.926 245.92C304.926 248.996 304.926 251.424 304.873 253.1C304.873 253.904 304.873 254.53 304.873 254.977C304.873 255.178 304.873 255.334 304.873 255.454C304.834 255.517 304.789 255.577 304.739 255.632Z" fill="#EBEBEB"/>
<path d="M244.997 135.894H185.381V193.566H244.997V135.894Z" fill="#F5F5F5"/>
<path d="M190.006 188.635L206.496 158.953L219.985 177.924L228.178 167.846L240.371 188.635H190.006Z" fill="#E0E0E0"/>
<path d="M225.729 153.181C225.729 154.029 225.477 154.859 225.006 155.564C224.534 156.27 223.864 156.82 223.08 157.145C222.297 157.469 221.434 157.554 220.602 157.389C219.769 157.223 219.005 156.814 218.405 156.215C217.805 155.615 217.396 154.85 217.231 154.018C217.065 153.186 217.15 152.323 217.475 151.539C217.8 150.755 218.35 150.085 219.055 149.614C219.761 149.142 220.59 148.891 221.439 148.891C222.577 148.891 223.668 149.343 224.472 150.147C225.277 150.952 225.729 152.043 225.729 153.181Z" fill="#E0E0E0"/>
<path d="M240.371 188.791C240.371 188.791 240.371 188.709 240.371 188.56C240.371 188.411 240.371 188.166 240.371 187.883C240.371 187.272 240.371 186.393 240.371 185.291C240.371 183.004 240.334 179.697 240.304 175.496C240.304 167.072 240.229 155.073 240.177 140.668L240.423 140.914H190.058L190.341 140.638V147.17C190.341 149.33 190.341 151.468 190.341 153.591C190.341 157.829 190.341 161.977 190.341 166.014C190.341 174.096 190.341 181.73 190.341 188.754L190.095 188.508L226.51 188.635L236.781 188.702H239.507H240.252H240.498C240.426 188.715 240.353 188.715 240.282 188.702H239.596H236.922L226.703 188.769L190.132 188.896H189.879V188.642C189.879 181.619 189.879 173.984 189.879 165.903C189.879 161.866 189.879 157.71 189.879 153.479V140.675L190.169 140.385L240.535 140.422H240.781V140.66C240.729 155.132 240.684 167.176 240.654 175.667C240.654 179.838 240.609 183.116 240.594 185.402C240.594 186.497 240.594 187.354 240.594 187.95C240.594 188.225 240.594 188.434 240.594 188.598C240.53 188.673 240.455 188.738 240.371 188.791Z" fill="#E0E0E0"/>
<path d="M331.073 178.877L325.114 178.795L325.338 162.573C325.335 159.723 324.771 156.903 323.678 154.271C322.584 151.64 320.984 149.25 318.967 147.237C316.95 145.225 314.557 143.629 311.923 142.541C309.29 141.453 306.468 140.895 303.618 140.898C300.769 140.901 297.948 141.465 295.317 142.558C292.686 143.651 290.296 145.252 288.283 147.269C284.218 151.342 281.938 156.863 281.944 162.617L281.72 178.877L275.762 178.795L275.985 162.573C275.991 155.238 278.91 148.206 284.101 143.024C289.292 137.842 296.328 134.934 303.663 134.939C310.998 134.945 318.03 137.865 323.212 143.055C328.394 148.246 331.302 155.283 331.296 162.617L331.073 178.877Z" fill="#263238"/>
<path d="M331.623 170.974H276.297C268.773 170.974 262.674 177.073 262.674 184.597V238.024C262.674 245.548 268.773 251.647 276.297 251.647H331.623C339.147 251.647 345.246 245.548 345.246 238.024V184.597C345.246 177.073 339.147 170.974 331.623 170.974Z" fill="#92E3A9"/>
<g opacity="0.3">
<path d="M312.181 207.054C312.187 205.619 311.816 204.207 311.107 202.959C310.398 201.711 309.374 200.67 308.139 199.939C306.903 199.209 305.497 198.815 304.062 198.795C302.627 198.776 301.211 199.132 299.956 199.829C298.701 200.526 297.65 201.539 296.908 202.767C296.165 203.996 295.757 205.397 295.723 206.832C295.689 208.267 296.032 209.686 296.716 210.948C297.4 212.21 298.403 213.271 299.624 214.026L297.516 223.776H311.012C311.012 223.776 309.522 217.646 308.539 213.869C309.657 213.118 310.574 212.103 311.209 210.915C311.844 209.727 312.178 208.401 312.181 207.054Z" fill="black"/>
</g>
<g opacity="0.2">
<path d="M267.955 227.187C267.418 227.187 267.21 217.764 267.426 206.167C267.642 194.57 268.297 185.171 268.834 185.186C269.37 185.2 269.578 194.608 269.362 206.205C269.146 217.802 268.491 227.194 267.955 227.187Z" fill="white"/>
</g>
<g opacity="0.2">
<path d="M268.014 236.519C267.478 236.519 267.039 235.611 267.024 234.471C267.009 233.331 267.426 232.408 267.962 232.4C268.499 232.393 268.945 233.309 268.96 234.449C268.975 235.588 268.551 236.512 268.014 236.519Z" fill="white"/>
</g>
<g opacity="0.2">
<path d="M293.921 225.116C293.496 224.975 294.502 220.684 296.252 214.979L296.475 215.918C295.678 215.128 294.852 214.301 293.988 213.385C292.651 211.862 291.865 209.934 291.753 207.911C291.663 206.285 292.046 204.668 292.856 203.255C293.369 202.323 294.084 201.516 294.948 200.894C295.559 200.47 295.969 200.358 296.036 200.462C296.23 200.693 294.971 201.691 294.084 203.859C293.529 205.214 293.36 206.697 293.595 208.143C293.83 209.589 294.461 210.942 295.418 212.052L297.816 214.584L298.211 215.009L298.032 215.53C296.073 221.198 294.345 225.25 293.921 225.116Z" fill="white"/>
</g>
<g opacity="0.2">
<path d="M328.003 176.576C328.003 176.844 324.704 177.067 319.378 177.201C314.052 177.335 306.716 177.388 298.523 177.328C294.456 177.328 290.583 177.239 287.06 177.164C283.537 177.09 280.356 176.874 277.816 177.164C275.801 177.31 273.855 177.966 272.163 179.071C270.979 179.883 270.495 180.56 270.361 180.471C270.227 180.382 270.547 179.57 271.686 178.49C273.366 177.029 275.438 176.097 277.645 175.808C279.124 175.579 280.618 175.462 282.114 175.458L287.119 175.406C290.642 175.406 294.516 175.406 298.582 175.406C306.716 175.466 314.075 175.637 319.4 175.853C324.726 176.069 328.003 176.308 328.003 176.576Z" fill="white"/>
</g>
</svg>
