<svg width="314" height="207" viewBox="0 0 314 207" fill="none" xmlns="http://www.w3.org/2000/svg">
<rect width="313.149" height="206.426" rx="4" fill="white"/>
<rect opacity="0.3" x="70" y="147" width="52" height="16" fill="#C4C4C4"/>
<rect opacity="0.3" x="70" y="120" width="52" height="16" fill="#C4C4C4"/>
<rect opacity="0.3" x="70" y="95" width="52" height="16" fill="#C4C4C4"/>
<rect opacity="0.3" x="70" y="70" width="52" height="16" fill="#C4C4C4"/>
<rect opacity="0.3" x="40.5" y="70.5" width="15" height="15" rx="1.5" stroke="black"/>
<rect opacity="0.3" x="40.5" y="41.5" width="15" height="15" rx="1.5" stroke="black"/>
<rect opacity="0.3" x="40.5" y="95.5" width="15" height="15" rx="1.5" stroke="black"/>
<rect opacity="0.3" x="40.5" y="120.5" width="15" height="15" rx="1.5" stroke="black"/>
<rect opacity="0.3" x="40.5" y="147.5" width="15" height="15" rx="1.5" stroke="black"/>
<rect opacity="0.3" x="70" y="41" width="52" height="16" fill="#222222"/>
<rect opacity="0.3" x="128" y="41" width="52" height="16" fill="#222222"/>
<rect opacity="0.3" x="184" y="41" width="52" height="16" fill="#222222"/>
<rect opacity="0.3" x="240" y="41" width="54" height="16" fill="#222222"/>
<rect opacity="0.3" x="128" y="147" width="52" height="16" fill="#C4C4C4"/>
<rect opacity="0.3" x="128" y="120" width="52" height="16" fill="#C4C4C4"/>
<rect opacity="0.3" x="128" y="95" width="52" height="16" fill="#C4C4C4"/>
<rect opacity="0.3" x="128" y="70" width="52" height="16" fill="#C4C4C4"/>
<rect opacity="0.3" x="184" y="147" width="52" height="16" fill="#C4C4C4"/>
<rect opacity="0.3" x="184" y="120" width="52" height="16" fill="#C4C4C4"/>
<rect opacity="0.3" x="184" y="95" width="52" height="16" fill="#C4C4C4"/>
<rect opacity="0.3" x="184" y="70" width="52" height="16" fill="#C4C4C4"/>
<rect opacity="0.3" x="240" y="147" width="54" height="16" fill="#C4C4C4"/>
<rect opacity="0.3" x="240" y="120" width="54" height="16" fill="#C4C4C4"/>
<rect opacity="0.3" x="240" y="95" width="54" height="16" fill="#C4C4C4"/>
<rect opacity="0.3" x="240" y="70" width="54" height="16" fill="#C4C4C4"/>
<line x1="29" y1="176" x2="311" y2="176" stroke="#414141" stroke-width="2"/>
<rect x="240" y="182" width="62" height="18" rx="4" fill="#124192"/>
<path d="M260.762 186.469H263.943C264.596 186.469 265.156 186.566 265.625 186.762C266.098 186.957 266.461 187.246 266.715 187.629C266.969 188.012 267.096 188.482 267.096 189.041C267.096 189.498 267.018 189.891 266.861 190.219C266.709 190.543 266.492 190.814 266.211 191.033C265.934 191.248 265.607 191.42 265.232 191.549L264.676 191.842H261.91L261.898 190.471H263.955C264.264 190.471 264.52 190.416 264.723 190.307C264.926 190.197 265.078 190.045 265.18 189.85C265.285 189.654 265.338 189.428 265.338 189.17C265.338 188.896 265.287 188.66 265.186 188.461C265.084 188.262 264.93 188.109 264.723 188.004C264.516 187.898 264.256 187.846 263.943 187.846H262.52V195H260.762V186.469ZM265.531 195L263.586 191.197L265.443 191.186L267.412 194.918V195H265.531ZM272.094 193.482V188.66H273.781V195H272.193L272.094 193.482ZM272.281 192.182L272.779 192.17C272.779 192.592 272.73 192.984 272.633 193.348C272.535 193.707 272.389 194.02 272.193 194.285C271.998 194.547 271.752 194.752 271.455 194.9C271.158 195.045 270.809 195.117 270.406 195.117C270.098 195.117 269.812 195.074 269.551 194.988C269.293 194.898 269.07 194.76 268.883 194.572C268.699 194.381 268.555 194.137 268.449 193.84C268.348 193.539 268.297 193.178 268.297 192.756V188.66H269.984V192.768C269.984 192.955 270.006 193.113 270.049 193.242C270.096 193.371 270.16 193.477 270.242 193.559C270.324 193.641 270.42 193.699 270.529 193.734C270.643 193.77 270.768 193.787 270.904 193.787C271.252 193.787 271.525 193.717 271.725 193.576C271.928 193.436 272.07 193.244 272.152 193.002C272.238 192.756 272.281 192.482 272.281 192.182ZM276.723 190.014V195H275.035V188.66H276.617L276.723 190.014ZM276.477 191.607H276.02C276.02 191.139 276.08 190.717 276.201 190.342C276.322 189.963 276.492 189.641 276.711 189.375C276.93 189.105 277.189 188.9 277.49 188.76C277.795 188.615 278.135 188.543 278.51 188.543C278.807 188.543 279.078 188.586 279.324 188.672C279.57 188.758 279.781 188.895 279.957 189.082C280.137 189.27 280.273 189.518 280.367 189.826C280.465 190.135 280.514 190.512 280.514 190.957V195H278.814V190.951C278.814 190.67 278.775 190.451 278.697 190.295C278.619 190.139 278.504 190.029 278.352 189.967C278.203 189.9 278.02 189.867 277.801 189.867C277.574 189.867 277.377 189.912 277.209 190.002C277.045 190.092 276.908 190.217 276.799 190.377C276.693 190.533 276.613 190.717 276.559 190.928C276.504 191.139 276.477 191.365 276.477 191.607Z" fill="white"/>
<path d="M0 4C0 1.79086 1.79086 0 4 0H309.149C311.358 0 313.149 1.79086 313.149 4V29.4894H0V4Z" fill="#124192"/>
<path d="M0 29.4894H29.4894V206.426H4C1.79086 206.426 0 204.635 0 202.426V29.4894Z" fill="#5879B2"/>
<rect x="1" y="1" width="311.149" height="204.426" rx="3" stroke="#414141" stroke-width="2"/>
<path d="M45.4 103.8V71.8L68.6 95H55L54.2 95.2L45.4 103.8Z" fill="white"/>
<path d="M63.6 105.2L56.4 108.2L47 86L54.4 83L63.6 105.2Z" fill="white"/>
<path d="M54.7491 89.037L51.0607 90.5854L57.2543 105.339L60.9427 103.791L54.7491 89.037Z" fill="black"/>
<path d="M47.4 76.6V99L53.4 93.2L54.2 93H63.8L47.4 76.6Z" fill="black"/>
</svg>
