<svg width="314" height="207" viewBox="0 0 314 207" fill="none" xmlns="http://www.w3.org/2000/svg">
<rect width="313.149" height="206.426" rx="4" fill="white"/>
<mask id="mask0_4_424" style="mask-type:alpha" maskUnits="userSpaceOnUse" x="0" y="0" width="314" height="207">
<mask id="path-2-inside-1_4_424" fill="white">
<rect width="313.149" height="206.426" rx="4"/>
</mask>
<rect width="313.149" height="206.426" rx="4" fill="#C4C4C4" stroke="#969696" stroke-width="11.234" mask="url(#path-2-inside-1_4_424)"/>
</mask>
<g mask="url(#mask0_4_424)">
<rect width="313.149" height="29.4894" fill="#3264AE"/>
<rect width="313.149" height="29.4894" fill="#124192"/>
<rect y="29.4894" width="29.4894" height="176.936" fill="#5879B2"/>
</g>
<rect x="1" y="1" width="311.149" height="204.426" rx="3" fill="black" fill-opacity="0.5" stroke="#414141" stroke-width="2"/>
<rect x="68.8085" y="61.7874" width="178.34" height="88.4681" rx="7.02128" fill="white"/>
<g opacity="0.4">
<rect x="91.2766" y="110.936" width="133.404" height="19.6596" fill="#C4C4C4"/>
<rect x="91.2766" y="110.936" width="133.404" height="19.6596" stroke="black"/>
</g>
<rect x="91.2766" y="110.936" width="66" height="19.6596" fill="#3264AE"/>
<path opacity="0.3" d="M92.7028 82.2607H98.6599C99.8813 82.2607 100.931 82.4436 101.809 82.8093C102.693 83.175 103.374 83.7162 103.849 84.4329C104.324 85.1497 104.562 86.031 104.562 87.0769C104.562 87.9326 104.416 88.6676 104.123 89.282C103.838 89.8891 103.432 90.3974 102.906 90.8069C102.386 91.2092 101.776 91.531 101.073 91.7724L100.031 92.3209H94.8531L94.8311 89.7537H98.6819C99.2597 89.7537 99.7387 89.6514 100.119 89.4466C100.499 89.2418 100.785 88.9565 100.975 88.5908C101.172 88.2252 101.271 87.801 101.271 87.3182C101.271 86.8063 101.176 86.3638 100.986 85.9908C100.796 85.6178 100.507 85.3325 100.119 85.1351C99.7314 84.9376 99.245 84.8389 98.6599 84.8389H95.994V98.2341H92.7028V82.2607ZM101.633 98.2341L97.9907 91.1141L101.468 91.0922L105.155 98.0805V98.2341H101.633ZM113.92 95.3927V86.3638H117.08V98.2341H114.107L113.92 95.3927ZM114.271 92.9572L115.204 92.9353C115.204 93.7252 115.112 94.4602 114.93 95.1404C114.747 95.8133 114.472 96.3984 114.107 96.8957C113.741 97.3857 113.28 97.7697 112.724 98.0476C112.169 98.3182 111.514 98.4535 110.761 98.4535C110.183 98.4535 109.649 98.3731 109.159 98.2122C108.676 98.044 108.259 97.7843 107.908 97.4333C107.565 97.0749 107.294 96.6178 107.096 96.0619C106.906 95.4988 106.811 94.8222 106.811 94.0323V86.3638H109.971V94.0543C109.971 94.4053 110.011 94.7016 110.091 94.9429C110.179 95.1843 110.3 95.3817 110.453 95.5353C110.607 95.6889 110.786 95.7986 110.991 95.8645C111.203 95.9303 111.437 95.9632 111.693 95.9632C112.344 95.9632 112.856 95.8315 113.229 95.5682C113.609 95.3049 113.876 94.9466 114.03 94.4931C114.191 94.0323 114.271 93.5204 114.271 92.9572ZM122.587 88.898V98.2341H119.428V86.3638H122.39L122.587 88.898ZM122.126 91.8821H121.271C121.271 91.0044 121.384 90.2145 121.611 89.5124C121.837 88.8029 122.156 88.1996 122.565 87.7022C122.975 87.1976 123.461 86.8136 124.024 86.5503C124.595 86.2797 125.231 86.1444 125.933 86.1444C126.489 86.1444 126.997 86.2248 127.458 86.3857C127.919 86.5466 128.314 86.8026 128.643 87.1537C128.979 87.5047 129.235 87.9692 129.411 88.547C129.594 89.1248 129.685 89.8305 129.685 90.6643V98.2341H126.504V90.6533C126.504 90.1268 126.431 89.7172 126.284 89.4246C126.138 89.1321 125.922 88.9273 125.637 88.8103C125.359 88.6859 125.015 88.6238 124.606 88.6238C124.182 88.6238 123.812 88.7079 123.498 88.8761C123.191 89.0443 122.935 89.2783 122.73 89.5782C122.532 89.8708 122.382 90.2145 122.28 90.6095C122.178 91.0044 122.126 91.4286 122.126 91.8821ZM135.182 88.898V98.2341H132.022V86.3638H134.984L135.182 88.898ZM134.721 91.8821H133.865C133.865 91.0044 133.978 90.2145 134.205 89.5124C134.432 88.8029 134.75 88.1996 135.16 87.7022C135.569 87.1976 136.056 86.8136 136.619 86.5503C137.189 86.2797 137.825 86.1444 138.528 86.1444C139.083 86.1444 139.592 86.2248 140.053 86.3857C140.513 86.5466 140.908 86.8026 141.237 87.1537C141.574 87.5047 141.83 87.9692 142.005 88.547C142.188 89.1248 142.28 89.8305 142.28 90.6643V98.2341H139.098V90.6533C139.098 90.1268 139.025 89.7172 138.879 89.4246C138.732 89.1321 138.517 88.9273 138.231 88.8103C137.953 88.6859 137.61 88.6238 137.2 88.6238C136.776 88.6238 136.407 88.7079 136.092 88.8761C135.785 89.0443 135.529 89.2783 135.324 89.5782C135.127 89.8708 134.977 90.2145 134.874 90.6095C134.772 91.0044 134.721 91.4286 134.721 91.8821ZM148.017 86.3638V98.2341H144.847V86.3638H148.017ZM144.649 83.27C144.649 82.8093 144.81 82.4289 145.132 82.1291C145.454 81.8292 145.885 81.6793 146.427 81.6793C146.96 81.6793 147.388 81.8292 147.71 82.1291C148.039 82.4289 148.204 82.8093 148.204 83.27C148.204 83.7308 148.039 84.1111 147.71 84.411C147.388 84.7109 146.96 84.8608 146.427 84.8608C145.885 84.8608 145.454 84.7109 145.132 84.411C144.81 84.1111 144.649 83.7308 144.649 83.27ZM153.722 88.898V98.2341H150.563V86.3638H153.525L153.722 88.898ZM153.261 91.8821H152.406C152.406 91.0044 152.519 90.2145 152.746 89.5124C152.972 88.8029 153.291 88.1996 153.7 87.7022C154.11 87.1976 154.596 86.8136 155.159 86.5503C155.73 86.2797 156.366 86.1444 157.068 86.1444C157.624 86.1444 158.132 86.2248 158.593 86.3857C159.054 86.5466 159.449 86.8026 159.778 87.1537C160.114 87.5047 160.37 87.9692 160.546 88.547C160.729 89.1248 160.82 89.8305 160.82 90.6643V98.2341H157.639V90.6533C157.639 90.1268 157.566 89.7172 157.419 89.4246C157.273 89.1321 157.057 88.9273 156.772 88.8103C156.494 88.6859 156.15 88.6238 155.741 88.6238C155.317 88.6238 154.947 88.7079 154.633 88.8761C154.325 89.0443 154.069 89.2783 153.865 89.5782C153.667 89.8708 153.517 90.2145 153.415 90.6095C153.313 91.0044 153.261 91.4286 153.261 91.8821ZM170.738 86.3638H173.601V97.8392C173.601 98.9216 173.36 99.8395 172.877 100.593C172.402 101.353 171.736 101.928 170.88 102.315C170.025 102.71 169.03 102.908 167.896 102.908C167.399 102.908 166.872 102.842 166.317 102.71C165.768 102.579 165.241 102.374 164.737 102.096C164.239 101.818 163.822 101.467 163.486 101.043L164.879 99.1776C165.245 99.6018 165.669 99.9309 166.152 100.165C166.635 100.406 167.169 100.527 167.754 100.527C168.324 100.527 168.807 100.421 169.202 100.209C169.597 100.004 169.9 99.7006 170.112 99.2983C170.324 98.9033 170.431 98.4243 170.431 97.8611V89.1065L170.738 86.3638ZM162.751 92.4416V92.2112C162.751 91.3043 162.861 90.4815 163.08 89.7428C163.307 88.9968 163.625 88.3568 164.035 87.8229C164.451 87.289 164.956 86.8758 165.549 86.5832C166.141 86.2906 166.81 86.1444 167.556 86.1444C168.346 86.1444 169.008 86.2906 169.542 86.5832C170.076 86.8758 170.515 87.2926 170.858 87.8339C171.202 88.3678 171.469 89.0004 171.659 89.7318C171.857 90.4559 172.01 91.2494 172.12 92.1125V92.6171C172.01 93.4436 171.846 94.2115 171.626 94.921C171.407 95.6304 171.118 96.2521 170.76 96.786C170.401 97.3126 169.955 97.7222 169.421 98.0147C168.895 98.3073 168.266 98.4535 167.534 98.4535C166.803 98.4535 166.141 98.3036 165.549 98.0037C164.963 97.7039 164.462 97.2833 164.046 96.7421C163.629 96.2009 163.307 95.5646 163.08 94.8332C162.861 94.1018 162.751 93.3046 162.751 92.4416ZM165.911 92.2112V92.4416C165.911 92.9316 165.958 93.3887 166.053 93.8129C166.148 94.2371 166.295 94.6138 166.492 94.9429C166.697 95.2647 166.949 95.517 167.249 95.6999C167.556 95.8754 167.918 95.9632 168.335 95.9632C168.913 95.9632 169.385 95.8425 169.75 95.6012C170.116 95.3525 170.39 95.0124 170.573 94.5809C170.756 94.1494 170.862 93.652 170.891 93.0889V91.6517C170.877 91.1909 170.815 90.7777 170.705 90.412C170.595 90.039 170.442 89.7208 170.244 89.4575C170.047 89.1942 169.791 88.9895 169.476 88.8432C169.162 88.6969 168.789 88.6238 168.357 88.6238C167.94 88.6238 167.578 88.7188 167.271 88.909C166.971 89.0918 166.719 89.3442 166.514 89.666C166.317 89.9878 166.167 90.3681 166.064 90.8069C165.962 91.2385 165.911 91.7065 165.911 92.2112ZM176.212 96.7092C176.212 96.2411 176.373 95.8498 176.695 95.5353C177.024 95.2208 177.459 95.0636 178 95.0636C178.542 95.0636 178.973 95.2208 179.295 95.5353C179.624 95.8498 179.789 96.2411 179.789 96.7092C179.789 97.1773 179.624 97.5686 179.295 97.8831C178.973 98.1976 178.542 98.3548 178 98.3548C177.459 98.3548 177.024 98.1976 176.695 97.8831C176.373 97.5686 176.212 97.1773 176.212 96.7092ZM182.729 96.7092C182.729 96.2411 182.89 95.8498 183.211 95.5353C183.541 95.2208 183.976 95.0636 184.517 95.0636C185.058 95.0636 185.49 95.2208 185.812 95.5353C186.141 95.8498 186.305 96.2411 186.305 96.7092C186.305 97.1773 186.141 97.5686 185.812 97.8831C185.49 98.1976 185.058 98.3548 184.517 98.3548C183.976 98.3548 183.541 98.1976 183.211 97.8831C182.89 97.5686 182.729 97.1773 182.729 96.7092ZM189.245 96.7092C189.245 96.2411 189.406 95.8498 189.728 95.5353C190.057 95.2208 190.492 95.0636 191.034 95.0636C191.575 95.0636 192.006 95.2208 192.328 95.5353C192.657 95.8498 192.822 96.2411 192.822 96.7092C192.822 97.1773 192.657 97.5686 192.328 97.8831C192.006 98.1976 191.575 98.3548 191.034 98.3548C190.492 98.3548 190.057 98.1976 189.728 97.8831C189.406 97.5686 189.245 97.1773 189.245 96.7092Z" fill="black"/>
</svg>
