<?xml version="1.0" encoding="UTF-8"?>
<svg width="156px" height="127px" viewBox="0 0 156 127" version="1.1" xmlns="http://www.w3.org/2000/svg" xmlns:xlink="http://www.w3.org/1999/xlink">
    <!-- Generator: Sketch 61 (89581) - https://sketch.com -->
    <title>undraw_tutorial_video_7dns</title>
    <desc>Created with Sketch.</desc>
    <g id="Final-with-Visuals" stroke="none" stroke-width="1" fill="none" fill-rule="evenodd">
        <g id="Artboard-Copy" transform="translate(-360.000000, -1106.000000)" fill-rule="nonzero">
            <g id="undraw_tutorial_video_7dns" transform="translate(360.000000, 1106.000000)">
                <polygon id="Path" fill="#EED4B2" points="120.676933 105.697959 117.795918 117.51356 118.672823 118.432653 123.933567 112.918634 125.436735 107.535966"></polygon>
                <polygon id="Path" fill="#EED4B2" points="143.599382 105.697959 140.718367 117.51356 141.595272 118.432653 146.856188 112.918634 148.359184 107.535966"></polygon>
                <path d="M147.625975,44.5714286 L128.987012,47.8836258 L128.851949,49.6059648 L120.342857,106.178168 C120.342857,106.178168 130.202598,111.080211 136.55065,108.695435 L138.746544,108.695435 L142.628571,108.695435 C142.628571,108.695435 150.597402,112.80255 156,107.238075 C156,107.23807 152.623377,47.7511307 147.625975,44.5714286 Z" id="Path" fill="#2F2E41"></path>
                <path d="M126.073469,110.691964 L120.073609,110.155102 L117.407011,119.013329 C117.407011,119.013329 115.731883,121.281057 114.776874,123.405336 C114.50044,124.025984 114.575944,124.748201 114.974672,125.297324 C115.3734,125.846446 116.034081,126.138094 116.705455,126.061351 C118.517303,125.859744 120.701613,125.476126 121.00693,124.784597 C121.419112,123.776335 121.77521,122.745755 122.073572,121.69764 L123.5402,122.637149 L124.60684,122.100286 L125.273492,116.865879 C125.273492,116.865879 126.473463,115.523724 125.406821,113.107845 L126.073469,110.691964 Z" id="Path" fill="#2F2E41"></path>
                <path d="M148.995918,110.691964 L142.996063,110.155102 L140.32946,119.013329 C140.32946,119.013329 138.654333,121.281056 137.699324,123.405336 C137.422889,124.025984 137.498392,124.748201 137.89712,125.297325 C138.295849,125.846448 138.95653,126.138095 139.627904,126.06135 C141.439751,125.859743 143.624059,125.476125 143.929377,124.784597 C144.341558,123.776334 144.697656,122.745754 144.996019,121.69764 L146.462646,122.637149 L147.529288,122.100285 L148.195938,116.865879 C148.195938,116.865879 149.39591,115.523724 148.329268,113.107845 L148.995918,110.691964 Z" id="Path" fill="#2F2E41"></path>
                <circle id="Oval" fill="#EED4B2" cx="135.62449" cy="10.8244898" r="6.36734694"></circle>
                <path d="M135.590071,16.0821073 C135.590071,16.0821073 136.978263,20.2299783 135.211471,21.1978152 C134.123475,21.7893464 132.981293,22.2528125 131.804082,22.5804401 L132.05648,28.9405103 L138.366464,38.2040816 L145.812245,22.5804326 C145.812245,22.5804326 141.773856,23.8247929 141.142856,14.0081633 L135.590071,16.0821073 Z" id="Path" fill="#EED4B2"></path>
                <path d="M122.86987,45.844898 L121.389563,62.9163883 C121.389563,62.9163883 118.428942,73.0525844 122.466153,71.8522465 C126.503365,70.6519085 124.350185,62.3829032 124.350185,62.3829032 L127.983673,45.844898 L122.86987,45.844898 Z" id="Path" fill="#EED4B2"></path>
                <path d="M137.392103,33.4205617 L134.608585,24.1858152 L133.813294,25.1506395 C133.813294,25.1506395 129.379077,22.9054598 133.186763,20.3755102 C133.186763,20.3755102 124.8,21.0156888 124.8,23.7723296 C124.8,26.5289703 128.511356,35.0745551 128.511356,35.0745551 C128.511356,35.0745551 127.450969,47.755102 128.113711,47.755102 C128.776453,47.755102 146.405399,44.033637 146.405399,44.033637 L146.935592,37.5555331 C146.935592,37.5555331 152.104982,25.4263136 150.646949,23.4966649 C149.188917,21.5670162 144.082266,20.305727 143.65325,20.7296288 C143.65325,20.7296288 146.405399,23.083168 139.247782,26.391138 L139.777975,27.4937946 L137.392103,33.4205617 Z" id="Path" fill="#D0CDE1"></path>
                <path d="M126.652804,22.922449 C126.652804,22.922449 125.1476,24.461803 125.1476,28.8000004 C125.1476,33.1381978 124.269563,41.9545155 124.269563,41.9545155 L122.889796,46.9924189 L128.03258,47.2723028 L129.537785,48.3918367 C129.537785,48.3918367 131.544726,32.8583101 131.795594,32.4384841 C132.046462,32.0186582 126.652804,22.922449 126.652804,22.922449 Z" id="Path" fill="#D0CDE1"></path>
                <path d="M149.826944,22.934557 C149.826944,22.934557 152.279622,22.5225473 152.712449,26.5053184 C153.145275,30.4880895 153.433824,44.3591162 153.433824,44.3591162 C153.433824,44.3591162 155.453678,45.3204747 154.443751,46.9685173 C153.433824,48.6165598 152.279622,49.0285714 152.279622,49.0285714 L147.951366,46.5565057 L147.085714,33.92151 L149.826944,22.934557 Z" id="Path" fill="#D0CDE1"></path>
                <path d="M147.927929,46.4816327 C147.927929,46.4816327 142.592013,48.8421631 143.336559,49.8912884 C144.081105,50.9404136 145.942473,49.6290066 145.942473,49.6290066 C145.942473,49.6290066 147.927931,55.1369128 149.044756,53.9566467 C150.161581,52.7763806 150.906122,48.1864605 150.906122,48.1864605 L147.927929,46.4816327 Z" id="Path" fill="#EED4B2"></path>
                <path d="M147.722449,44.5714286 C147.722449,44.5714286 150.099158,41.7061224 153.453061,44.5714286 C153.453061,44.5714286 149.903326,43.1720922 147.722449,44.5714286 Z" id="Path" fill="#000000" opacity="0.2"></path>
                <path d="M134.779381,11.9590966 C134.333039,11.365032 134.528696,10.5395613 134.209237,9.88106666 C133.707607,8.8470241 132.228358,8.63483662 130.989974,8.56681742 C130.16682,8.52160252 129.331267,8.47720856 128.524355,8.62725578 C127.794206,8.75449541 127.172047,9.18689654 126.844261,9.79492337 C126.670293,10.1331321 126.68861,9.08508952 126.770024,7.73844607 C126.938584,4.91893304 129.085739,2.52124687 132.083075,1.80546598 C132.100437,1.8013466 132.117642,1.79729313 132.134692,1.79330557 C133.630967,1.44376974 135.176266,1.17673684 136.714282,1.30707989 C138.252299,1.43742295 139.797006,2.00699545 140.783486,3.0901828 C141.23435,3.58524631 141.559491,4.17359789 142.06016,4.62718219 C142.939823,5.42411621 144.219657,5.69292162 145.398089,6.04569529 C146.730844,6.44466191 148.030996,7.0036276 149.065212,7.8673397 C150.099429,8.73105179 150.848071,9.92937463 150.903197,11.2067737 C150.967501,12.6968404 149.967873,14.2581253 148.29907,14.5890197 C148.008755,14.6417879 147.736183,14.7561943 147.50348,14.9229525 C145.932634,16.0894673 147.790322,17.2333084 147.811509,18.5070406 C147.829188,19.5698811 146.549517,20.2910809 145.386022,20.3663367 C143.219058,20.5064992 141.065478,19.023459 140.621761,17.0854768 C140.422995,16.2173052 140.534777,15.3186531 140.625618,14.4356588 C140.7296,13.4249025 138.284791,11.1042576 139.90433,12.8090364 C140.220168,13.1328778 140.438042,13.5260771 140.536513,13.9499433 C140.835301,15.3338024 139.460052,15.8318584 138.605438,16.6211762 C137.648863,17.5313446 137.343501,18.8580285 137.818123,20.0417661 C136.311493,18.9249205 135.909416,16.7533536 136.930505,15.2478339 C137.201919,14.8476473 137.556,14.4968898 137.812621,14.0886758 C138.213059,13.451702 138.291794,12.0837001 137.125286,12.146965 C136.292664,12.1921075 135.443823,12.843445 134.779381,11.9590966 Z" id="Path" fill="#2F2E41"></path>
                <rect id="Rectangle" fill="#D0CDE1" x="134.35102" y="0" width="3.82040816" height="10.1877551" rx="1.91020408"></rect>
                <circle id="Oval" fill="#38D39F" cx="137.534694" cy="12.7346939" r="3.18367347"></circle>
                <circle id="Oval" fill="#D0CDE1" cx="136.261224" cy="12.0979592" r="1.91020408"></circle>
                <circle id="Oval" fill="#38D39F" cx="137.534694" cy="12.0979592" r="1"></circle>
                <rect id="Rectangle" fill="#3F3D56" x="0" y="19.7387755" width="110.155102" height="57.9428571"></rect>
                <rect id="Rectangle" fill="#D0CDE1" x="5.73061224" y="71.9510204" width="99.3306122" height="2.54693878"></rect>
                <rect id="Rectangle" fill="#38D39F" x="5.09387755" y="71.9510204" width="57.9428571" height="2.54693878"></rect>
                <polygon id="Path" fill="#38D39F" points="6.37221943 69.4040816 6.36734694 65.5836735 10.1877551 67.4877252"></polygon>
                <rect id="Rectangle" fill="#38D39F" x="10.8244898" y="65.5836735" width="1.27346939" height="3.82040816"></rect>
                <rect id="Rectangle" fill="#38D39F" x="13.3714286" y="65.5836735" width="1.27346939" height="3.82040816"></rect>
                <path d="M104.42449,65.5836735 L7.00408163,65.5836735 L7.00408163,24.1959184 L104.42449,24.1959184 L104.42449,65.5836735 Z M7.37032377,65.2091236 L104.058248,65.2091236 L104.058248,24.5704682 L7.37032377,24.5704682 L7.37032377,65.2091236 Z" id="Shape" fill="#D0CDE1"></path>
                <circle id="Oval" fill="#38D39F" cx="55.077551" cy="45.5265306" r="8.59591837"></circle>
                <rect id="Rectangle" fill="#D0CDE1" x="66.2204082" y="37.5673469" width="10.1877551" height="1.27346939"></rect>
                <rect id="Rectangle" fill="#D0CDE1" x="33.1102041" y="52.8489796" width="10.1877551" height="1.27346939"></rect>
                <path d="M80.8653061,40.1142857 C79.8103295,40.1142857 78.955102,39.2590582 78.955102,38.2040816 C78.955102,37.149105 79.8103295,36.2938776 80.8653061,36.2938776 C81.9202827,36.2938776 82.7755102,37.149105 82.7755102,38.2040816 C82.7743218,39.2585656 81.9197901,40.1130973 80.8653061,40.1142857 Z M80.8653061,36.7183673 C80.0447688,36.7183673 79.3795918,37.3835443 79.3795918,38.2040816 C79.3795918,39.024619 80.0447688,39.6897959 80.8653061,39.6897959 C81.6858435,39.6897959 82.3510204,39.024619 82.3510204,38.2040816 C82.3500637,37.3839409 81.6854469,36.7193241 80.8653061,36.7183673 L80.8653061,36.7183673 Z" id="Shape" fill="#D0CDE1"></path>
                <path d="M80.8653061,56.6693878 C79.8103295,56.6693878 78.955102,55.8141603 78.955102,54.7591837 C78.955102,53.7042071 79.8103295,52.8489796 80.8653061,52.8489796 C81.9202827,52.8489796 82.7755102,53.7042071 82.7755102,54.7591837 C82.7743592,55.8136831 81.9198056,56.6682367 80.8653061,56.6693878 Z M80.8653061,53.2734694 C80.0447688,53.2734694 79.3795918,53.9386463 79.3795918,54.7591837 C79.3795918,55.579721 80.0447688,56.244898 80.8653061,56.244898 C81.6858435,56.244898 82.3510204,55.579721 82.3510204,54.7591837 C82.3500264,53.9390584 81.6854314,53.2744634 80.8653061,53.2734694 Z" id="Shape" fill="#D0CDE1"></path>
                <path d="M85.9591837,56.6693878 C84.9042071,56.6693878 84.0489796,55.8141603 84.0489796,54.7591837 C84.0489796,53.7042071 84.9042071,52.8489796 85.9591837,52.8489796 C87.0141603,52.8489796 87.8693878,53.7042071 87.8693878,54.7591837 C87.8682367,55.8136831 87.0136831,56.6682367 85.9591837,56.6693878 Z M85.9591837,53.2734694 C85.1386463,53.2734694 84.4734694,53.9386463 84.4734694,54.7591837 C84.4734694,55.579721 85.1386463,56.244898 85.9591837,56.244898 C86.779721,56.244898 87.444898,55.579721 87.444898,54.7591837 C87.4439039,53.9390584 86.7793089,53.2744634 85.9591837,53.2734694 Z" id="Shape" fill="#D0CDE1"></path>
                <path d="M73.2244898,56.6693878 C72.1695132,56.6693878 71.3142857,55.8141603 71.3142857,54.7591837 C71.3142857,53.7042071 72.1695132,52.8489796 73.2244898,52.8489796 C74.2794664,52.8489796 75.1346939,53.7042071 75.1346939,54.7591837 C75.1335055,55.8136676 74.2789737,56.6681994 73.2244898,56.6693878 Z M73.2244898,53.2734694 C72.4039525,53.2734694 71.7387755,53.9386463 71.7387755,54.7591837 C71.7387755,55.579721 72.4039525,56.244898 73.2244898,56.244898 C74.0450271,56.244898 74.7102041,55.579721 74.7102041,54.7591837 C74.7092474,53.9390429 74.0446305,53.2744261 73.2244898,53.2734694 L73.2244898,53.2734694 Z" id="Shape" fill="#D0CDE1"></path>
                <path d="M28.0163265,55.3959184 C26.9613499,55.3959184 26.1061224,54.5406909 26.1061224,53.4857143 C26.1061224,52.4307377 26.9613499,51.5755102 28.0163265,51.5755102 C29.0713031,51.5755102 29.9265306,52.4307377 29.9265306,53.4857143 C29.9253422,54.5401982 29.0708105,55.39473 28.0163265,55.3959184 Z M28.0163265,52 C27.1957892,52 26.5306122,52.6651769 26.5306122,53.4857143 C26.5306122,54.3062516 27.1957892,54.9714286 28.0163265,54.9714286 C28.8368639,54.9714286 29.5020408,54.3062516 29.5020408,53.4857143 C29.5010841,52.6655736 28.8364673,52.0009567 28.0163265,52 Z" id="Shape" fill="#D0CDE1"></path>
                <path d="M21.6489796,55.3959184 C20.594003,55.3959184 19.7387755,54.5406909 19.7387755,53.4857143 C19.7387755,52.4307377 20.594003,51.5755102 21.6489796,51.5755102 C22.7039562,51.5755102 23.5591837,52.4307377 23.5591837,53.4857143 C23.5579953,54.5401982 22.7034635,55.39473 21.6489796,55.3959184 L21.6489796,55.3959184 Z M21.6489796,52 C20.8284422,52 20.1632653,52.6651769 20.1632653,53.4857143 C20.1632653,54.3062516 20.8284422,54.9714286 21.6489796,54.9714286 C22.4695169,54.9714286 23.1346939,54.3062516 23.1346939,53.4857143 C23.1337372,52.6655736 22.4691203,52.0009567 21.6489796,52 Z" id="Shape" fill="#D0CDE1"></path>
                <rect id="Rectangle" fill="#D0CDE1" x="80.2285714" y="41.3877551" width="1.27346939" height="8.91428571"></rect>
            </g>
        </g>
    </g>
</svg>