<?xml version="1.0" encoding="UTF-8"?>
<svg width="256px" height="217px" viewBox="0 0 256 217" version="1.1" xmlns="http://www.w3.org/2000/svg" xmlns:xlink="http://www.w3.org/1999/xlink">
    <!-- Generator: Sketch 61 (89581) - https://sketch.com -->
    <title>undraw_process_e90d</title>
    <desc>Created with Sketch.</desc>
    <g id="Final-with-Visuals" stroke="none" stroke-width="1" fill="none" fill-rule="evenodd">
        <g id="Artboard-Copy" transform="translate(-350.000000, -530.000000)">
            <g id="undraw_process_e90d" transform="translate(350.000000, 530.000000)">
                <circle id="Oval" fill="#F1F1F1" fill-rule="nonzero" cx="207.5" cy="14.2608696" r="4.5"></circle>
                <circle id="Oval" fill="#F1F1F1" fill-rule="nonzero" cx="182.5" cy="169.26087" r="4.5"></circle>
                <circle id="Oval" fill="#F1F1F1" fill-rule="nonzero" cx="79.5" cy="54.2608696" r="4.5"></circle>
                <ellipse id="Oval" fill="#F1F1F1" fill-rule="nonzero" cx="43.5" cy="209.76087" rx="43.5" ry="7"></ellipse>
                <circle id="Oval" fill="#2F2E41" fill-rule="nonzero" cx="41" cy="73.7608696" r="10"></circle>
                <polygon id="Path" fill="#EED4B2" fill-rule="nonzero" points="30.4583333 199.172634 29 209.76087 32.5416667 209.76087 34 197.76087"></polygon>
                <polygon id="Path" fill="#EED4B2" fill-rule="nonzero" points="51 198.76087 51 207.16087 56 207.76087 56 198.76087"></polygon>
                <path d="M28,112.050362 C28,112.050362 28.5454545,124.534621 29.0909091,125.405616 C29.6363636,126.276611 34.5454545,138.76087 34.5454545,138.76087 L37,130.631585 C37,130.631585 33.1818182,123.953958 33.7272727,120.179647 C34.2727273,116.405336 33.9290909,111.76087 33.9290909,111.76087 L28,112.050362 Z" id="Path" fill="#EED4B2" fill-rule="nonzero"></path>
                <circle id="Oval" fill="#EED4B2" fill-rule="nonzero" cx="43.5" cy="77.2608696" r="7.5"></circle>
                <path d="M35.9781166,77.7608696 C35.9781166,77.7608696 36.2728779,89.2003844 34.2095489,90.9163116 C32.14622,92.6322389 46,91.2022995 46,91.2022995 C46,91.2022995 43.0523872,83.1946391 45.4104774,81.4787119 C47.7685677,79.7627847 35.9781166,77.7608696 35.9781166,77.7608696 Z" id="Path" fill="#EED4B2" fill-rule="nonzero"></path>
                <path d="M48.7822587,89.537552 C48.7822587,89.537552 47.156763,86.5027069 44.9894354,86.7786019 C42.8221078,87.054497 35.778293,87.606287 35.5073771,88.158077 C35.2364611,88.709867 34.4237133,90.641132 33.8818814,91.1929221 C33.3400495,91.7447121 29.2763102,92.5723971 29.0053942,95.8831372 C28.7344783,99.1938772 38.7583685,119.334213 38.7583685,119.334213 C38.7583685,119.334213 37.4037887,124.024428 37.6747047,125.128008 C37.9456207,126.231588 36.3201249,129.542328 36.5910409,130.921803 C36.8619568,132.301278 32.5273016,140.578128 34.6946292,151.338034 L34.6946292,168.719419 C34.6946292,168.719419 27.3798985,198.791975 29.5472261,200.999135 C31.7145538,203.206295 39.0292845,201.82682 40.3838642,200.999135 C41.738444,200.17145 47.427679,158.511304 47.427679,158.511304 L50.1368385,144.440658 L50.4077544,175.340899 C50.4077544,175.340899 49.8659225,201.27503 51.7623342,202.102715 C53.6587459,202.9304 60.9734766,203.206295 61.5153085,201.550925 C61.937894,200.259871 64.0083854,165.90841 64.8992709,150.850684 C65.2079027,145.653184 64.8064698,140.437214 63.7064686,135.352147 C62.5788947,130.143889 60.9419149,124.024842 59.0770649,121.541373 C55.5551575,116.851158 53.3878299,101.952827 53.3878299,101.952827 L57.9934011,93.4000821 C57.9934011,93.4000821 55.2842416,90.641132 53.6587459,90.641132 C52.0332502,90.641132 48.7822587,89.537552 48.7822587,89.537552 Z" id="Path" fill="#2F2E41" fill-rule="nonzero"></path>
                <path d="M30.4179239,94.7608696 L28.6390221,95.7280426 C28.6390221,95.7280426 27.3820078,113.083798 28.3939798,114.161617 C29.4059519,115.239436 36.4416132,114.713396 36.9716707,113.76387 C37.5017281,112.814343 30.4179239,94.7608696 30.4179239,94.7608696 Z" id="Path" fill="#2F2E41" fill-rule="nonzero"></path>
                <path d="M51,110.069904 C51,110.069904 51.2735922,121.563765 52.9151451,124.847725 C54.556698,128.131686 60.5757254,141.814853 60.5757254,141.814853 C60.5757254,141.814853 60.2263482,156.874958 63.273749,153.176193 C66.3211497,149.477427 64.4060156,140.7202 64.4060156,140.7202 L59.2077647,120.469112 C59.2077647,120.469112 56.4718431,111.438221 56.7454353,108.701587 C57.0190274,105.964954 51,110.069904 51,110.069904 Z" id="Path" fill="#EED4B2" fill-rule="nonzero"></path>
                <path d="M55.6130464,201.789026 C55.6130464,201.789026 55.9244892,201.555996 56.8588176,202.430723 C57.793146,203.30545 60.2846885,204.471752 59.9732457,207.679085 C59.6618029,210.886417 57.793146,211.469569 57.793146,211.469569 L57.793146,210.594842 L56.8588176,210.594842 L56.8588176,212.05272 C56.8588176,212.05272 55.3016036,216.717931 48.138419,213.802174 C48.138419,213.802174 47.8269762,211.469569 48.138419,210.01169 C48.4498618,208.553812 48.4498618,201.555996 49.3841903,201.847571 C50.3185187,202.139147 52.8100611,202.430723 53.4329467,203.597025 C54.0558324,204.763328 55.9244892,204.354664 55.6130464,201.789026 Z" id="Path" fill="#2F2E41" fill-rule="nonzero"></path>
                <path d="M26.3869536,201.789026 C26.3869536,201.789026 26.0755108,201.555996 25.1411824,202.430723 C24.206854,203.30545 21.7153115,204.471752 22.0267543,207.679085 C22.3381971,210.886417 24.206854,211.469569 24.206854,211.469569 L24.206854,210.594842 L25.1411824,210.594842 L25.1411824,212.05272 C25.1411824,212.05272 26.6983964,216.717931 33.861581,213.802174 C33.861581,213.802174 34.1730238,211.469569 33.861581,210.01169 C33.5501382,208.553812 33.5501382,201.555996 32.6158097,201.847571 C31.6814813,202.139147 29.1899389,202.430723 28.5670533,203.597025 C27.9441676,204.763328 26.0755108,204.354664 26.3869536,201.789026 Z" id="Path" fill="#2F2E41" fill-rule="nonzero"></path>
                <path d="M51.15273,92.7608696 L55.7870745,93.5666898 C55.7870745,93.5666898 55.7870745,99.4760385 57.1111729,101.893499 C58.4352713,104.31096 60.7524435,109.951702 59.7593697,110.220309 C58.7662959,110.488916 49.497607,114.24941 48.8355578,112.100556 C48.1735086,109.951702 46.5183856,92.7608696 51.15273,92.7608696 Z" id="Path" fill="#2F2E41" fill-rule="nonzero"></path>
                <circle id="Oval" fill="#2F2E41" fill-rule="nonzero" cx="34.5" cy="81.2608696" r="6.5"></circle>
                <circle id="Oval" fill="#2F2E41" fill-rule="nonzero" cx="36.5" cy="75.2608696" r="7.5"></circle>
                <ellipse id="Oval" fill="#2F2E41" fill-rule="nonzero" cx="43" cy="72.7608696" rx="7" ry="6"></ellipse>
                <ellipse id="Oval" fill="#A0616A" fill-rule="nonzero" cx="45" cy="76.2608696" rx="1" ry="2.5"></ellipse>
                <polygon id="Rectangle" fill="#F1F1F1" fill-rule="nonzero" transform="translate(165.225361, 84.100202) rotate(16.714336) translate(-165.225361, -84.100202) " points="91.8664033 25.5138796 238.784894 25.2642137 238.584319 142.686525 91.665829 142.936191"></polygon>
                <line x1="169" y1="37.7608696" x2="203" y2="51.7608696" id="Path" stroke="#3F3D56" stroke-width="2"></line>
                <polygon id="Path" fill="#3F3D56" fill-rule="nonzero" points="169.132445 42.7608696 169.892268 42.4816081 168.140571 39.5369988 172 38.3770911 171.700092 37.7608696 167 39.1743216"></polygon>
                <polygon id="Path" fill="#3F3D56" fill-rule="nonzero" points="198.299933 54.7608696 198 54.144648 201.859333 52.98507 200.107909 50.040131 200.867795 49.7608696 203 53.348077"></polygon>
                <circle id="Oval" fill="#3F3D56" fill-rule="nonzero" cx="184.5" cy="45.2608696" r="2.5"></circle>
                <line x1="167" y1="131.76087" x2="196" y2="114.76087" id="Path" stroke="#3F3D56" stroke-width="2"></line>
                <polygon id="Path" fill="#3F3D56" fill-rule="nonzero" points="168.834415 135.76087 169 135.059109 165.030487 134.351622 166.130824 130.954829 165.339058 130.76087 164 134.898073"></polygon>
                <polygon id="Path" fill="#3F3D56" fill-rule="nonzero" points="196.66034 116.76087 195.868704 116.566896 196.969271 113.170575 193 112.462323 193.165968 111.76087 198 112.624086"></polygon>
                <circle id="Oval" fill="#3F3D56" fill-rule="nonzero" cx="182.5" cy="122.26087" r="2.5"></circle>
                <line x1="126.994557" y1="73.7608696" x2="127.005443" y2="109.76087" id="Path" stroke="#3F3D56" stroke-width="2"></line>
                <polygon id="Path" fill="#3F3D56" fill-rule="nonzero" points="125 76.0898079 125.447821 76.7608696 127.499236 73.2058169 129.552485 76.7589016 130 76.087348 127.49893 71.7608696"></polygon>
                <polygon id="Path" fill="#3F3D56" fill-rule="nonzero" points="125 106.434457 125.447793 105.762838 127.500306 109.316272 129.552207 105.76087 130 106.431997 127.500611 110.76087"></polygon>
                <circle id="Oval" fill="#3F3D56" fill-rule="nonzero" cx="127.5" cy="92.2608696" r="2.5"></circle>
                <rect id="Rectangle" fill="#3F3D56" fill-rule="nonzero" x="103" y="0.760869565" width="49" height="63"></rect>
                <path d="M124,25.7608696 L111.632963,25.7608696 C110.789012,21.1285994 110.789012,16.3931397 111.632963,11.7608696 L124,11.7608696 C122.606757,16.333794 122.606757,21.1879451 124,25.7608696 L124,25.7608696 Z" id="Path" fill="#FF6584" fill-rule="nonzero"></path>
                <path d="M130,29.7608696 L142.367037,29.7608696 C143.210988,25.1285994 143.210988,20.3931397 142.367037,15.7608696 L130,15.7608696 C131.393243,20.333794 131.393243,25.1879451 130,29.7608696 Z" id="Path" fill="#38D39F" fill-rule="nonzero"></path>
                <path d="M118,51.7608696 L130.367037,51.7608696 C131.210988,47.1285994 131.210988,42.3931397 130.367037,37.7608696 L118,37.7608696 C119.393243,42.333794 119.393243,47.1879451 118,51.7608696 L118,51.7608696 Z" id="Path" fill="#38D39F" fill-rule="nonzero"></path>
                <rect id="Rectangle" fill="#3F3D56" fill-rule="nonzero" x="207" y="60.7608696" width="49" height="63"></rect>
                <rect id="Rectangle" fill="#38D39F" fill-rule="nonzero" x="211" y="73.7608696" width="36" height="2"></rect>
                <rect id="Rectangle" fill="#38D39F" fill-rule="nonzero" x="211" y="76.7608696" width="36" height="2"></rect>
                <rect id="Rectangle" fill="#38D39F" fill-rule="nonzero" x="211" y="85.7608696" width="36" height="2"></rect>
                <rect id="Rectangle" fill="#38D39F" fill-rule="nonzero" x="211" y="90.7608696" width="36" height="2"></rect>
                <rect id="Rectangle" fill="#38D39F" fill-rule="nonzero" x="211" y="93.7608696" width="36" height="2"></rect>
                <rect id="Rectangle" fill="#38D39F" fill-rule="nonzero" x="223" y="102.76087" width="17" height="5"></rect>
                <rect id="Rectangle" fill="#3F3D56" fill-rule="nonzero" x="106" y="122.76087" width="49" height="63"></rect>
                <rect id="Rectangle" fill="#38D39F" fill-rule="nonzero" x="115" y="156.76087" width="36" height="2"></rect>
                <rect id="Rectangle" fill="#38D39F" fill-rule="nonzero" x="115" y="163.76087" width="36" height="2"></rect>
                <rect id="Rectangle" fill="#38D39F" fill-rule="nonzero" x="115" y="170.76087" width="36" height="2"></rect>
                <rect id="Rectangle" fill="#38D39F" fill-rule="nonzero" x="115" y="174.76087" width="36" height="2"></rect>
                <path d="M124,145.76087 L111.632963,145.76087 C110.789012,141.128599 110.789012,136.39314 111.632963,131.76087 L124,131.76087 C122.606757,136.333794 122.606757,141.187945 124,145.76087 L124,145.76087 Z" id="Path" fill="#38D39F" fill-rule="nonzero" opacity="0.3"></path>
                <rect id="Rectangle" fill="#38D39F" fill-rule="nonzero" opacity="0.3" x="131" y="131.76087" width="20" height="2"></rect>
                <rect id="Rectangle" fill="#38D39F" fill-rule="nonzero" opacity="0.3" x="131" y="138.76087" width="20" height="2"></rect>
                <rect id="Rectangle" fill="#38D39F" fill-rule="nonzero" opacity="0.3" x="131" y="141.76087" width="20" height="2"></rect>
                <rect id="Rectangle" fill="#38D39F" fill-rule="nonzero" opacity="0.3" x="131" y="147.76087" width="20" height="2"></rect>
            </g>
        </g>
    </g>
</svg>