<svg width="200" height="48" viewBox="0 0 200 48" fill="none" xmlns="http://www.w3.org/2000/svg">
<g clip-path="url(#clip0_1_61)">
<path d="M138.252 1.43113V45.6276H144.88V1.43113H138.252ZM67.4378 0.676153C54.5251 0.676095 44.5062 10.0745 44.5062 23.5294C44.5062 37.5902 54.5251 46.3829 67.4378 46.3827C80.3505 46.3825 90.3899 37.5902 90.3693 23.5294C90.3506 10.7814 80.3505 0.676211 67.4378 0.676153ZM83.7531 23.5294C83.7531 33.4901 76.4485 40.0911 67.4378 40.0911C58.4271 40.0911 51.1225 33.4901 51.1225 23.5294C51.1225 13.7494 58.4271 6.96782 67.4378 6.96782C76.4485 6.96782 83.7531 13.7494 83.7531 23.5294ZM0 3.98825e-06V45.6276H6.76461V15.4742L41.9174 47.0588V37.5989L0 3.98825e-06ZM95.3545 23.5294L119.954 45.6278H129.818L105.181 23.5294L129.818 1.43111H119.954L95.3545 23.5294ZM200 45.6276H192.708L187.376 35.8405H163.226L157.893 45.6276H150.601L159.432 29.3148H183.908L171.704 6.64458L175.301 0L200 45.6276Z" fill="#005AFF"/>
</g>
<defs>
<clipPath id="clip0_1_61">
<rect width="200" height="47.0588" fill="white"/>
</clipPath>
</defs>
</svg>
