<svg width="225" height="125" viewBox="0 0 225 125" fill="none" xmlns="http://www.w3.org/2000/svg">
<rect width="225" height="125" fill="#E0EBFF"/>
<path d="M126 69.0352L124.575 81.7551H134.1L135.225 69.0352H126Z" fill="#005AFF"/>
<path opacity="0.3" d="M126 69.0352L124.575 81.7551H132.993L134.118 69.0352H126Z" fill="white"/>
<path opacity="0.1" d="M134.117 69.0352L132.992 81.7551H134.1L135.225 69.0352H134.117Z" fill="white"/>
<path d="M138.412 71.6151H123.522C123.412 71.6153 123.303 71.593 123.202 71.5497C123.1 71.5064 123.009 71.443 122.933 71.3633C122.856 71.2836 122.797 71.1893 122.758 71.0861C122.72 70.9828 122.702 70.8728 122.707 70.7626L123.607 51.9876C123.617 51.7787 123.707 51.5816 123.858 51.4372C124.01 51.2929 124.211 51.2124 124.42 51.2126H139.39L138.412 71.6151Z" fill="#005AFF"/>
<path opacity="0.2" d="M138.152 51.2126L137.175 71.6151H138.412L139.39 51.2126H138.152Z" fill="white"/>
<path opacity="0.1" d="M136.787 52.0851L135.9 70.6551C135.894 70.7789 135.914 70.9026 135.957 71.0187C136 71.1348 136.067 71.241 136.152 71.3307C136.238 71.4204 136.341 71.4918 136.455 71.5407C136.568 71.5896 136.691 71.6149 136.815 71.6151H137.175L138.152 51.2126H137.705C137.469 51.213 137.243 51.3036 137.072 51.466C136.902 51.6283 136.8 51.8499 136.787 52.0851Z" fill="black"/>
<path d="M123.31 82.21L123.427 86.1025L123.957 103.71H125.707L126.235 86.1025L126.353 82.21H123.31Z" fill="#005AFF"/>
<path opacity="0.4" d="M123.31 82.21L123.427 86.1025L123.957 103.71H125.707L126.235 86.1025L126.353 82.21H123.31Z" fill="white"/>
<path opacity="0.2" d="M123.31 82.21L123.427 86.21H126.235L126.353 82.21H123.31Z" fill="black"/>
<path d="M113.805 103.648L115.422 82.4851H118.065L115.802 103.648H113.805Z" fill="#005AFF"/>
<path opacity="0.5" d="M115.807 103.647H113.807L115.275 84.385L115.422 82.46H118.065L117.86 84.385L115.807 103.647Z" fill="white"/>
<path opacity="0.2" d="M118.065 82.46L117.86 84.46H115.275L115.422 82.46H118.065Z" fill="black"/>
<path d="M133.863 103.648L131.598 82.4851H134.24L135.857 103.648H133.863Z" fill="#005AFF"/>
<path opacity="0.5" d="M133.858 103.647L131.803 84.385L131.6 82.46H134.243L134.388 84.385L135.855 103.647H133.858Z" fill="white"/>
<path opacity="0.2" d="M131.6 82.46L131.803 84.46H134.388L134.243 82.46H131.6Z" fill="black"/>
<path d="M135.663 83.2151H114.013V81.5426C114.013 81.2111 114.144 80.8931 114.379 80.6587C114.613 80.4243 114.931 80.2926 115.263 80.2926H134.413C134.744 80.2926 135.062 80.4243 135.296 80.6587C135.531 80.8931 135.663 81.2111 135.663 81.5426V83.2151Z" fill="#005AFF"/>
<path d="M113.47 83.2175H136.19C136.468 83.2175 136.693 82.9925 136.693 82.715V82.26C136.693 81.9825 136.468 81.7575 136.19 81.7575H113.47C113.192 81.7575 112.968 81.9825 112.968 82.26V82.715C112.968 82.9925 113.192 83.2175 113.47 83.2175Z" fill="#005AFF"/>
<path opacity="0.6" d="M113.47 83.2175H136.19C136.468 83.2175 136.693 82.9925 136.693 82.715V82.26C136.693 81.9825 136.468 81.7575 136.19 81.7575H113.47C113.192 81.7575 112.968 81.9825 112.968 82.26V82.715C112.968 82.9925 113.192 83.2175 113.47 83.2175Z" fill="white"/>
<path opacity="0.1" d="M132.183 80.295H128.52L121.283 80L121.398 80.48L115.798 80.525L115.51 80.605L115.798 83.215H122.28L121.813 80.8625C124.323 80.8475 130.7 81.4275 132.183 80.295Z" fill="black"/>
<path d="M117.405 60.1775C117.405 60.1775 110.307 61.6775 109.905 61.7425C109.502 61.8075 107.605 61.2425 107.24 61.295C106.875 61.3475 106.278 63.06 106.24 63.4425C106.203 63.825 109.218 64.1075 109.49 64.0025C109.783 63.8454 110.06 63.6604 110.318 63.45L117.74 62.6675L117.405 60.1775Z" fill="#E6AE76"/>
<path d="M131.262 50.49L127.32 50.6875L126.432 51.73L131.452 51.62L131.262 50.49Z" fill="#005AFF"/>
<path d="M123.61 56.9001C123.61 56.9001 123.54 57.0901 123.412 57.4001C123.285 57.7101 123.09 58.1826 122.852 58.6976C122.277 59.9476 121.442 61.5376 120.57 62.3951C120.351 62.6257 120.087 62.8094 119.795 62.9351C118.865 63.2926 116.577 63.4601 114.495 63.4351C112.412 63.4101 110.587 63.6051 110.587 63.6051V61.3951L117.435 59.8051C117.435 59.8051 121.045 53.3376 123.185 52.3726L123.61 56.9001Z" fill="#263238"/>
<path opacity="0.2" d="M123.412 57.4026C123.282 57.7276 123.09 58.1851 122.852 58.7001C122.277 59.9501 121.442 61.5401 120.57 62.3976C119.682 59.1276 122.965 56.0151 122.965 56.0151L123.412 57.4026Z" fill="black"/>
<path d="M122.528 102.22L120.538 101.945L120.26 97.2126L122.25 97.4876L122.528 102.22Z" fill="#E6AE76"/>
<path opacity="0.2" d="M122.25 97.4876L120.26 97.2151L120.42 99.9201L122.405 100.095L122.25 97.4876Z" fill="black"/>
<path d="M122.448 74.39L122.935 71.345L134.1 70.6775C134.1 70.6775 135.288 77.0125 134.375 78.7C132.745 81.7125 123.97 80.2 121.403 80.4875C122.938 86.765 122.788 99.0325 122.788 99.0325L119.12 99.3125C119.12 99.3125 116.298 86.095 115.728 79.8125C115.343 75.575 118.853 75.68 122.448 74.39Z" fill="#005AFF"/>
<path d="M117.935 100.453L115.93 100.598L114.673 96.0251L116.675 95.8801L117.935 100.453Z" fill="#E6AE76"/>
<path d="M115.658 100.668H115.625C115.625 100.638 115.525 100.078 115.28 99.9425C115.249 99.9276 115.215 99.9199 115.18 99.9199C115.145 99.9199 115.111 99.9276 115.08 99.9425C115.042 99.9544 115.009 99.9789 114.987 100.012C114.964 100.045 114.954 100.085 114.958 100.125C115.007 100.291 115.112 100.435 115.255 100.533C115.072 100.47 114.872 100.475 114.693 100.548C114.669 100.566 114.651 100.589 114.639 100.616C114.627 100.643 114.622 100.673 114.625 100.703C114.621 100.75 114.631 100.797 114.653 100.839C114.675 100.882 114.709 100.916 114.75 100.94C114.875 100.99 115.015 100.99 115.14 100.94C115.314 100.89 115.482 100.819 115.64 100.73C115.643 100.732 115.646 100.733 115.649 100.733C115.652 100.733 115.655 100.732 115.658 100.73C115.658 100.73 115.658 100.73 115.658 100.715C115.662 100.713 115.665 100.709 115.667 100.705C115.67 100.701 115.671 100.696 115.671 100.691C115.671 100.686 115.67 100.682 115.667 100.678C115.665 100.673 115.662 100.67 115.658 100.668ZM115.055 100.108C115.055 100.08 115.055 100.045 115.123 100.018H115.145C115.163 100.013 115.182 100.011 115.2 100.014C115.219 100.017 115.237 100.023 115.253 100.033C115.398 100.11 115.503 100.413 115.545 100.598L115.5 100.585C115.303 100.468 115.073 100.25 115.055 100.108ZM114.793 100.84C114.768 100.824 114.748 100.801 114.734 100.775C114.721 100.749 114.714 100.72 114.715 100.69C114.714 100.675 114.716 100.66 114.722 100.647C114.728 100.633 114.738 100.621 114.75 100.613C114.863 100.528 115.23 100.6 115.5 100.68C115.168 100.845 114.91 100.905 114.793 100.84Z" fill="#005AFF"/>
<path opacity="0.2" d="M116.675 95.8801L114.673 96.0276L115.393 98.6426L117.37 98.4001L116.675 95.8801Z" fill="black"/>
<path d="M114 98.3201L117.53 97.2826C117.53 97.2826 115.422 85.3876 113.28 81.2626C113.44 81.2101 113.652 81.1426 113.915 81.0651C114.387 80.9226 115.015 80.7451 115.752 80.5401C120.882 79.1176 131.28 76.4501 131.28 76.4501L126.53 72.0176C126.53 72.0176 107.61 74.9026 107.217 79.8876C107.03 82.2851 114 98.3201 114 98.3201Z" fill="#005AFF"/>
<path opacity="0.2" d="M113.915 81.065C114.388 80.9225 115.06 80.7325 115.798 80.5275C115.65 79.3175 115.602 77.9425 116.185 77.235C117.342 75.825 120.32 74.9975 122.015 74.6975C123.432 74.4475 128.195 73.9475 128.195 73.9475C128.195 73.9475 122.015 73.355 115.695 75.1975C112.575 76.1125 113.183 79.165 113.915 81.065Z" fill="black"/>
<path d="M134.72 73.8601C135.47 73.2876 134.747 67.9626 135.13 62.7226C135.712 54.7501 135.13 52.1876 134.543 51.9401C133.459 51.7507 132.362 51.6421 131.262 51.6151C129.652 51.5555 128.039 51.5897 126.433 51.7176C125.334 51.8544 124.247 52.0759 123.183 52.3801C123.183 52.3801 120.552 60.7526 122.232 72.8176L134.72 73.8601Z" fill="#263238"/>
<path opacity="0.1" d="M134.72 73.8601C135.47 73.2876 134.747 67.9626 135.13 62.7226C135.712 54.7501 135.13 52.1876 134.543 51.9401C133.459 51.7507 132.362 51.6421 131.262 51.6151C129.652 51.5555 128.039 51.5897 126.433 51.7176C125.334 51.8544 124.247 52.0759 123.183 52.3801C123.183 52.3801 120.552 60.7526 122.232 72.8176L134.72 73.8601Z" fill="white"/>
<path d="M130.667 46.2C130.395 47.76 130.152 50.6124 131.262 51.6274C130.813 52.1098 130.272 52.4985 129.671 52.7709C129.07 53.0434 128.422 53.1943 127.762 53.215C125.762 53.3025 126.435 51.7299 126.435 51.7299C128.16 51.2799 128.087 49.9949 127.76 48.7924L130.667 46.2Z" fill="#E6AE76"/>
<path opacity="0.2" d="M129.482 47.25L127.75 48.7925C127.83 49.0723 127.886 49.3583 127.918 49.6475C128.578 49.5375 129.998 48.1275 130.055 47.4325C130.098 47.1525 129.55 47.5325 129.482 47.25Z" fill="black"/>
<path d="M126.888 42.1626C127.75 42.7476 127.358 43.7401 125.408 45.2901C124.615 44.2626 124.483 42.2701 125.113 41.7676C125.743 41.2651 126.135 41.6576 126.888 42.1626Z" fill="#263238"/>
<path d="M130.595 43.77C130.5 45.8775 130.552 47.1125 129.51 48.2125C127.937 49.8625 125.325 48.945 124.785 46.8525C124.305 44.9725 124.535 41.8525 126.582 40.97C127.033 40.776 127.525 40.7001 128.012 40.7496C128.5 40.799 128.967 40.9722 129.369 41.2526C129.77 41.5331 130.094 41.9115 130.309 42.3521C130.523 42.7926 130.622 43.2807 130.595 43.77Z" fill="#E6AE76"/>
<path d="M127.463 44.4002C127.463 44.5727 127.375 44.7127 127.262 44.7127C127.15 44.7127 127.06 44.5802 127.058 44.4077C127.055 44.2352 127.143 44.0977 127.253 44.0927C127.363 44.0877 127.448 44.2327 127.463 44.4002Z" fill="#263238"/>
<path d="M125.515 44.4351C125.515 44.6076 125.428 44.7476 125.318 44.7501C125.208 44.7526 125.11 44.6151 125.108 44.4426C125.105 44.2701 125.193 44.1301 125.305 44.1301C125.418 44.1301 125.513 44.2651 125.515 44.4351Z" fill="#263238"/>
<path d="M126.15 44.5C125.955 45.0272 125.688 45.5251 125.357 45.98C125.477 46.0608 125.612 46.1148 125.754 46.1386C125.896 46.1623 126.041 46.1551 126.18 46.1175L126.15 44.5Z" fill="#D08245"/>
<path d="M127.983 43.7775C128.005 43.7801 128.028 43.7748 128.048 43.7625C128.069 43.7458 128.082 43.7215 128.085 43.6949C128.089 43.6682 128.081 43.6413 128.065 43.62C127.969 43.4924 127.845 43.3895 127.701 43.3199C127.558 43.2503 127.399 43.2161 127.24 43.22C127.227 43.2203 127.215 43.2232 127.203 43.2284C127.192 43.2337 127.181 43.2412 127.173 43.2505C127.164 43.2598 127.157 43.2708 127.153 43.2827C127.149 43.2947 127.147 43.3073 127.148 43.32C127.151 43.3463 127.164 43.3703 127.185 43.3874C127.205 43.4044 127.231 43.4134 127.258 43.4125C127.383 43.411 127.508 43.4395 127.62 43.4956C127.733 43.5517 127.83 43.6337 127.905 43.735C127.914 43.7475 127.926 43.7577 127.939 43.7651C127.952 43.7724 127.967 43.7767 127.983 43.7775Z" fill="#263238"/>
<path d="M124.617 43.795C124.637 43.7941 124.655 43.788 124.671 43.7774C124.687 43.7669 124.699 43.7522 124.707 43.735C124.757 43.6194 124.834 43.5174 124.931 43.437C125.028 43.3566 125.142 43.3003 125.265 43.2725C125.292 43.2681 125.315 43.2538 125.332 43.2324C125.348 43.211 125.355 43.1842 125.353 43.1575C125.348 43.1314 125.334 43.1079 125.313 43.0917C125.293 43.0755 125.266 43.0677 125.24 43.07C125.083 43.1025 124.936 43.1725 124.811 43.2739C124.687 43.3752 124.589 43.5051 124.525 43.6525C124.514 43.6763 124.513 43.7037 124.521 43.7285C124.53 43.7533 124.549 43.7736 124.573 43.785C124.587 43.7912 124.602 43.7946 124.617 43.795Z" fill="#263238"/>
<path d="M129.725 41.9201C128.745 42.2726 128.885 43.3326 130.395 45.3126C131.415 44.5101 132.033 42.6051 131.543 41.9676C131.053 41.3301 130.577 41.6126 129.725 41.9201Z" fill="#263238"/>
<path d="M131.625 45.4376C131.557 45.6914 131.44 45.9294 131.28 46.1379C131.12 46.3463 130.92 46.5212 130.692 46.6526C130.08 46.9976 129.607 46.4901 129.637 45.8251C129.662 45.2276 130.015 44.3251 130.695 44.2526C131.375 44.1801 131.792 44.8076 131.625 45.4376Z" fill="#E6AE76"/>
<path d="M127.75 46.4727C127.75 46.4727 127.385 47.1627 126.365 47.1302" stroke="#263238" stroke-width="0.526291" stroke-linecap="round" stroke-linejoin="round"/>
<path d="M127.588 41.5851C127.588 41.5851 127.9 43.6951 129.933 43.8351C131.965 43.9751 131.9 42.7501 131.9 42.7501C132.05 42.4354 132.128 42.0912 132.128 41.7426C132.128 41.3939 132.05 41.0497 131.9 40.7351C131.433 39.8101 128.943 40.0976 127.76 39.8726C122.733 38.5401 122.76 40.0601 123.775 42.1226C123.775 42.1226 123.445 42.9101 124.665 43.5026C124.665 43.5001 124.898 41.3626 127.588 41.5851Z" fill="#263238"/>
<path d="M124.13 61.525C124.13 61.525 116.88 61.36 116.47 61.3175C116.06 61.275 114.345 60.3175 113.97 60.2675C113.595 60.2175 112.625 61.7675 112.505 62.1275C112.385 62.4875 115.255 63.46 115.53 63.42C115.851 63.3344 116.164 63.2181 116.463 63.0725L123.865 64.025L124.13 61.525Z" fill="#E6AE76"/>
<path opacity="0.2" d="M135.348 58.62C134.27 60.37 132.763 62.2325 131.26 62.145C129.688 62.0525 131.26 58.8425 132.963 56.0475C133.025 56.1752 133.081 56.3062 133.13 56.44C133.512 57.51 134.68 56.19 135.275 54.47C135.376 55.8509 135.4 57.2364 135.348 58.62Z" fill="black"/>
<path d="M115.732 100.395L117.902 99.7902C117.92 99.7839 117.939 99.7813 117.958 99.7825C117.976 99.7837 117.995 99.7886 118.012 99.797C118.028 99.8054 118.043 99.8171 118.055 99.8314C118.068 99.8457 118.077 99.8622 118.082 99.8802L118.667 101.57C118.68 101.615 118.683 101.662 118.678 101.709C118.672 101.755 118.657 101.8 118.634 101.841C118.61 101.882 118.579 101.917 118.542 101.946C118.505 101.975 118.463 101.996 118.417 102.008C117.667 102.205 117.282 102.258 116.325 102.523C115.737 102.685 114.595 103.06 113.757 103.155C112.92 103.25 112.847 102.42 113.195 102.305C114.012 102.033 114.995 101.178 115.42 100.598C115.498 100.497 115.608 100.425 115.732 100.395Z" fill="#263238"/>
<path d="M120.338 101.95C120.338 101.915 120.305 101.348 120.088 101.165C120.023 101.119 119.943 101.101 119.865 101.113C119.824 101.117 119.786 101.134 119.755 101.161C119.725 101.189 119.704 101.225 119.695 101.265C119.702 101.438 119.772 101.601 119.893 101.725C119.725 101.626 119.527 101.589 119.335 101.623C119.307 101.635 119.284 101.654 119.266 101.679C119.248 101.704 119.238 101.733 119.235 101.763C119.223 101.807 119.223 101.854 119.236 101.898C119.249 101.942 119.274 101.982 119.308 102.013C119.422 102.083 119.558 102.11 119.69 102.088C119.867 102.07 120.042 102.035 120.213 101.983H120.25C120.25 101.983 120.25 101.983 120.25 101.968C120.25 101.953 120.3 101.968 120.3 101.948H120.343L120.338 101.95ZM119.785 101.283C119.785 101.255 119.803 101.223 119.87 101.21H119.893C119.911 101.209 119.93 101.211 119.947 101.217C119.965 101.223 119.981 101.233 119.995 101.245C120.115 101.427 120.174 101.642 120.165 101.86L120.123 101.838C119.948 101.698 119.828 101.502 119.785 101.283ZM119.375 101.945C119.354 101.925 119.339 101.898 119.331 101.87C119.324 101.841 119.324 101.811 119.333 101.783C119.334 101.768 119.339 101.754 119.347 101.741C119.355 101.729 119.367 101.719 119.38 101.713C119.508 101.655 119.853 101.8 120.095 101.935C119.75 102.028 119.475 102.033 119.375 101.945Z" fill="#005AFF"/>
<path d="M120.387 101.705L122.637 101.565C122.656 101.563 122.675 101.565 122.693 101.57C122.711 101.575 122.727 101.584 122.742 101.596C122.756 101.608 122.768 101.623 122.777 101.639C122.786 101.656 122.791 101.674 122.793 101.693L123.015 103.468C123.021 103.561 122.989 103.652 122.928 103.722C122.867 103.792 122.78 103.836 122.688 103.843C121.9 103.88 121.523 103.858 120.533 103.91C119.925 103.948 118.728 104.078 117.89 103.995C117.053 103.913 117.153 103.088 117.515 103.048C118.375 102.95 119.515 102.32 120.05 101.84C120.144 101.759 120.263 101.711 120.387 101.705Z" fill="#263238"/>
<path d="M134.542 51.9399C133.348 52.5312 132.365 53.4779 131.73 54.6499C130.585 56.6699 128.597 60.9499 127.76 61.1624C126.922 61.3749 116.95 60.9449 116.95 60.9449L116.557 63.5124C116.557 63.5124 127.7 65.3849 129.722 64.3499C131.745 63.3149 138.25 53.2749 134.542 51.9399Z" fill="#263238"/>
<path opacity="0.3" d="M126.432 51.7301C125.007 52.7151 124.507 56.6501 124.507 56.6501C124.257 58.3001 124.31 58.8076 125.357 59.0126C127.972 59.6126 129.157 58.3101 129.382 56.9876C129.382 56.9876 130.182 52.6401 131.455 51.6201L127.882 53.2201L126.432 51.7301Z" fill="white"/>
<path d="M126.432 51.7301C125.007 52.7151 124.507 56.6501 124.507 56.6501C124.257 58.3001 124.31 58.8076 125.357 59.0126C127.972 59.6126 129.157 58.3101 129.382 56.9876C129.382 56.9876 130.182 52.6401 131.455 51.6201L127.882 53.2201L126.432 51.7301Z" fill="#005AFF"/>
<path opacity="0.5" d="M126.432 51.7301C125.007 52.7151 124.507 56.6501 124.507 56.6501C124.257 58.3001 124.31 58.8076 125.357 59.0126C127.972 59.6126 129.157 58.3101 129.382 56.9876C129.382 56.9876 130.182 52.6401 131.455 51.6201L127.882 53.2201L126.432 51.7301Z" fill="white"/>
<path d="M127.883 53.22L128.52 51.4475L131.263 50.49L131.453 51.62L127.883 53.22Z" fill="#005AFF"/>
<path opacity="0.05" d="M127.883 53.22L128.52 51.4475L131.263 50.49L131.453 51.62L127.883 53.22Z" fill="white"/>
<path d="M128.52 51.4475L129.287 53.22L131.452 51.62L131.262 50.49L128.52 51.4475Z" fill="#005AFF"/>
<path opacity="0.2" d="M128.52 51.4475L129.287 53.22L131.452 51.62L131.262 50.49L128.52 51.4475Z" fill="white"/>
<path d="M127.882 53.22L127.147 51.4425L127.32 50.6875L126.432 51.73L127.882 53.22Z" fill="#005AFF"/>
<path opacity="0.05" d="M127.882 53.22L127.147 51.4425L127.32 50.6875L126.432 51.73L127.882 53.22Z" fill="white"/>
<path d="M127.147 51.4425L126.375 53.3875L126.433 51.73L127.32 50.6875L127.147 51.4425Z" fill="#005AFF"/>
<path opacity="0.2" d="M127.147 51.4425L126.375 53.3875L126.433 51.73L127.32 50.6875L127.147 51.4425Z" fill="white"/>
<path d="M82.3592 53.7463L81.8091 53.864L82.7812 58.4062L83.3312 58.2884L82.3592 53.7463Z" fill="#005AFF"/>
<path opacity="0.3" d="M82.3592 53.7463L81.8091 53.864L82.7812 58.4062L83.3312 58.2884L82.3592 53.7463Z" fill="white"/>
<path d="M84.23 53.3025H83.6675V57.9475H84.23V53.3025Z" fill="#005AFF"/>
<path opacity="0.3" d="M84.23 53.3025H83.6675V57.9475H84.23V53.3025Z" fill="white"/>
<path d="M86.789 54.3731L86.2537 54.2004L84.8275 58.6211L85.3629 58.7938L86.789 54.3731Z" fill="#005AFF"/>
<path opacity="0.3" d="M86.789 54.3731L86.2537 54.2004L84.8275 58.6211L85.3629 58.7938L86.789 54.3731Z" fill="white"/>
<path d="M82.25 57.95H86.195V63.2324C86.195 63.3365 86.1745 63.4396 86.1347 63.5357C86.0948 63.6319 86.0365 63.7192 85.9629 63.7928C85.8893 63.8664 85.8019 63.9248 85.7058 63.9646C85.6096 64.0045 85.5066 64.025 85.4025 64.025H83.05C82.8398 64.025 82.6382 63.9415 82.4896 63.7928C82.341 63.6442 82.2575 63.4426 82.2575 63.2324V57.95H82.25Z" fill="#005AFF"/>
<path opacity="0.1" d="M82.25 57.95H86.195V63.2324C86.195 63.3365 86.1745 63.4396 86.1347 63.5357C86.0948 63.6319 86.0365 63.7192 85.9629 63.7928C85.8893 63.8664 85.8019 63.9248 85.7058 63.9646C85.6096 64.0045 85.5066 64.025 85.4025 64.025H83.05C82.8398 64.025 82.6382 63.9415 82.4896 63.7928C82.341 63.6442 82.2575 63.4426 82.2575 63.2324V57.95H82.25Z" fill="white"/>
<path d="M137.715 90.6599L137.323 91.3924V92.1049L138.165 92.4049L139.29 92.2924L139.048 91.4299L137.715 90.6599Z" fill="#005AFF"/>
<path opacity="0.3" d="M137.715 90.6599L137.323 91.3924V92.1049L138.165 92.4049L139.29 92.2924L139.048 91.4299L137.715 90.6599Z" fill="white"/>
<path opacity="0.3" d="M137.527 91.335L138.09 91.5325V92.18L137.94 91.7575L137.677 91.86L137.81 91.635L137.527 91.335Z" fill="#263238"/>
<path opacity="0.3" d="M138.503 91.5325H138.912L139.177 92.18L138.84 91.7575L138.503 91.5325Z" fill="#263238"/>
<path d="M136.32 92.9374L135.475 92.3099L136 91.3824L137.125 91.1199L137.763 91.6249L137.65 92.9374H136.32Z" fill="#005AFF"/>
<path opacity="0.2" d="M136.32 92.9374L135.475 92.3099L136 91.3824L137.125 91.1199L137.763 91.6249L137.65 92.9374H136.32Z" fill="white"/>
<path opacity="0.3" d="M135.645 92.265L136.375 92.03L137.088 92.265L137.538 92.845L136.845 92.405L136.358 92.545V92.1875L135.645 92.265Z" fill="#263238"/>
<path opacity="0.3" d="M136.225 91.5325L136.62 91.8325H137.033L137.425 91.6825H136.825L136.225 91.5325Z" fill="#263238"/>
<path d="M139.693 90.9375L139.073 91.8175L139.693 92.775L140.235 92.6425L140.968 92.6625L141.268 91.855L140.17 90.9375H139.693Z" fill="#005AFF"/>
<path opacity="0.2" d="M139.693 90.9375L139.073 91.8175L139.693 92.775L140.235 92.6425L140.968 92.6625L141.268 91.855L140.17 90.9375H139.693Z" fill="white"/>
<path opacity="0.3" d="M139.28 91.7375H139.935L139.768 92.5675L139.73 91.95L139.28 91.7375Z" fill="#263238"/>
<path opacity="0.3" d="M140.11 92.475L140.17 91.7375L141.06 91.95L140.585 92.0625L140.797 92.475L140.347 91.95L140.11 92.475Z" fill="#263238"/>
<path opacity="0.3" d="M139.607 91.415L139.935 91.2175L140.347 91.415L140.78 91.7375L139.935 91.415H139.607Z" fill="#263238"/>
<path d="M140.193 91.2701L140.683 92.7501L141.543 92.9376L142.743 92.6951L143.343 91.8901L142.78 90.6701L141.038 90.5376L140.193 91.2701Z" fill="#005AFF"/>
<path opacity="0.1" d="M140.193 91.2701L140.683 92.7501L141.543 92.9376L142.743 92.6951L143.343 91.8901L142.78 90.6701L141.038 90.5376L140.193 91.2701Z" fill="white"/>
<path opacity="0.3" d="M140.828 92.4399L141.35 91.8474L142.068 91.8774L142.165 92.4749L141.94 92.0874L141.43 92.0374L140.828 92.4399Z" fill="#263238"/>
<path opacity="0.3" d="M142.275 91.8125L142.93 91.7075L143.225 91.8475L142.75 92.565L143.058 91.92L142.883 91.8475L142.275 91.8125Z" fill="#263238"/>
<path opacity="0.3" d="M140.793 92.0876L140.342 91.3226L140.963 90.9351L142.165 91.2301L141.092 91.1176L140.59 91.4126L140.793 92.0876Z" fill="#263238"/>
<path opacity="0.3" d="M141.497 90.6951L142.603 90.7951L143.043 91.5126L142.522 90.9351L141.497 90.6951Z" fill="#263238"/>
<path d="M135.09 92.7H143.728V102.862C143.728 103.172 143.605 103.469 143.386 103.688C143.167 103.907 142.87 104.03 142.56 104.03H136.25C135.94 104.03 135.643 103.907 135.424 103.688C135.206 103.469 135.083 103.172 135.083 102.862V92.7H135.09Z" fill="#005AFF"/>
<path opacity="0.3" d="M135.09 92.7H143.728V102.862C143.728 103.172 143.605 103.469 143.386 103.688C143.167 103.907 142.87 104.03 142.56 104.03H136.25C135.94 104.03 135.643 103.907 135.424 103.688C135.206 103.469 135.083 103.172 135.083 102.862V92.7H135.09Z" fill="white"/>
<path d="M135.283 92.1599H143.533C143.617 92.1599 143.697 92.1934 143.757 92.2529C143.817 92.3124 143.85 92.3932 143.85 92.4774V92.8199H134.965V92.4774C134.965 92.3932 134.998 92.3124 135.058 92.2529C135.118 92.1934 135.198 92.1599 135.283 92.1599Z" fill="#005AFF"/>
<path opacity="0.4" d="M135.283 92.1599H143.533C143.617 92.1599 143.697 92.1934 143.757 92.2529C143.817 92.3124 143.85 92.3932 143.85 92.4774V92.8199H134.965V92.4774C134.965 92.3932 134.998 92.3124 135.058 92.2529C135.118 92.1934 135.198 92.1599 135.283 92.1599Z" fill="white"/>
<path d="M94.44 70.3274H91.3275V104.06H94.44V70.3274Z" fill="#005AFF"/>
<path opacity="0.4" d="M94.4425 70.3101H92.8275V104.043H94.4425V70.3101Z" fill="black"/>
<path d="M146.57 70.3101H144.955V104.043H146.57V70.3101Z" fill="#005AFF"/>
<path d="M76.12 70.3101H74.505V104.043H76.12V70.3101Z" fill="#005AFF"/>
<path d="M148.228 104.032H146.613V70.3174H120.888V104.032H117.935V70.3174H74.6125V104.032H73.1325V64.0249H148.228V104.032Z" fill="#005AFF"/>
<path opacity="0.1" d="M148.228 104.033H146.613V70.3175H120.888V104.033H119.29V65.9875H148.228V104.033Z" fill="white"/>
<path opacity="0.3" d="M148.228 64.0249H119.29V65.9874H148.228V64.0249Z" fill="black"/>
<path opacity="0.1" d="M119.308 64.0249H73.1325V65.9874H119.308V64.0249Z" fill="black"/>
<path opacity="0.4" d="M119.31 104.033L117.89 103.998L117.935 70.3175H74.6125V104.033H73.1325V65.9875H119.31V104.033Z" fill="white"/>
<path opacity="0.4" d="M76.12 70.3101H74.505V104.043H76.12V70.3101Z" fill="black"/>
<path opacity="0.4" d="M146.57 70.3101H144.955V104.043H146.57V70.3101Z" fill="black"/>
<path d="M98.12 63.0251V63.6851C98.12 63.8851 98.4625 64.0251 98.6575 64.0251H114.107C114.305 64.0251 114.62 63.8851 114.62 63.6851V63.0251H98.12Z" fill="#263238"/>
<path opacity="0.6" d="M98.12 63.0251V63.6851C98.12 63.8851 98.4625 64.0251 98.6575 64.0251H114.107C114.305 64.0251 114.62 63.8851 114.62 63.6851V63.0251H98.12Z" fill="white"/>
<path opacity="0.2" d="M98.12 63.0251V63.6851C98.12 63.8851 98.4625 64.0251 98.6575 64.0251H108.847C109.045 64.0251 109.37 63.8851 109.37 63.6851V63.0251H98.12Z" fill="black"/>
<path d="M95.645 54.9026L97.4825 63.2726C97.5151 63.4091 97.5908 63.5315 97.6984 63.6216C97.8061 63.7116 97.9399 63.7646 98.08 63.7726H108.125C108.189 63.7669 108.252 63.7468 108.308 63.7139C108.363 63.681 108.411 63.6361 108.447 63.5825C108.483 63.5288 108.507 63.4678 108.517 63.4038C108.526 63.3398 108.521 63.2745 108.502 63.2126L106.667 54.9326C106.63 54.8061 106.55 54.6963 106.441 54.6216C106.333 54.547 106.202 54.512 106.07 54.5226H96.0225C95.75 54.5251 95.585 54.6301 95.645 54.9026Z" fill="#263238"/>
<path opacity="0.6" d="M95.645 54.9026L97.4825 63.2726C97.5151 63.4091 97.5908 63.5315 97.6984 63.6216C97.8061 63.7116 97.9399 63.7646 98.08 63.7726H108.125C108.189 63.7669 108.252 63.7468 108.308 63.7139C108.363 63.681 108.411 63.6361 108.447 63.5825C108.483 63.5288 108.507 63.4678 108.517 63.4038C108.526 63.3398 108.521 63.2745 108.502 63.2126L106.667 54.9326C106.63 54.8061 106.55 54.6963 106.441 54.6216C106.333 54.547 106.202 54.512 106.07 54.5226H96.0225C95.75 54.5251 95.585 54.6301 95.645 54.9026Z" fill="white"/>
<path opacity="0.4" d="M95.645 54.9026L97.4825 63.2726C97.5151 63.4091 97.5908 63.5315 97.6984 63.6216C97.8061 63.7116 97.9399 63.7646 98.08 63.7726H107.785C107.849 63.7668 107.912 63.7467 107.968 63.7138C108.023 63.681 108.071 63.6361 108.108 63.5826C108.144 63.529 108.168 63.468 108.178 63.404C108.188 63.3401 108.183 63.2747 108.165 63.2126L106.325 54.9326C106.288 54.8061 106.208 54.6963 106.099 54.6216C105.99 54.547 105.859 54.512 105.727 54.5226H96.0225C95.75 54.5251 95.585 54.6301 95.645 54.9026Z" fill="white"/>
<path opacity="0.2" d="M101.552 60.2676C101.085 60.2676 100.605 59.7676 100.482 59.1476C100.36 58.5276 100.642 58.0251 101.112 58.0251C101.198 58.027 101.283 58.0439 101.362 58.0751C101.406 58.2962 101.501 58.504 101.639 58.6816C101.778 58.8593 101.956 59.0018 102.16 59.0976C102.161 59.1143 102.161 59.131 102.16 59.1476C102.305 59.7651 102.022 60.2676 101.552 60.2676Z" fill="black"/>
<path d="M139.878 48.6974L145.448 49.9799C145.526 52.0413 146.388 53.9951 147.857 55.4428C149.327 56.8904 151.294 57.7228 153.356 57.7702C155.418 57.8175 157.421 57.0762 158.955 55.6975C160.49 54.3187 161.44 52.4065 161.613 50.3509C161.786 48.2953 161.168 46.2512 159.885 44.6356C158.603 43.0201 156.752 41.9548 154.711 41.6571C152.669 41.3594 150.591 41.8517 148.901 43.0337C147.21 44.2156 146.034 45.9981 145.613 48.0175L139.878 48.6974Z" fill="#005AFF"/>
<path opacity="0.7" d="M139.878 48.6974L145.448 49.9799C145.526 52.0413 146.388 53.9951 147.857 55.4428C149.327 56.8904 151.294 57.7228 153.356 57.7702C155.418 57.8175 157.421 57.0762 158.955 55.6975C160.49 54.3187 161.44 52.4065 161.613 50.3509C161.786 48.2953 161.168 46.2512 159.885 44.6356C158.603 43.0201 156.752 41.9548 154.711 41.6571C152.669 41.3594 150.591 41.8517 148.901 43.0337C147.21 44.2156 146.034 45.9981 145.613 48.0175L139.878 48.6974Z" fill="white"/>
<path d="M158.607 44.2499C157.995 44.2495 157.387 44.3684 156.82 44.5999C156.556 43.6278 155.948 42.7845 155.109 42.2271C154.27 41.6697 153.257 41.4361 152.259 41.5697C151.261 41.7033 150.345 42.195 149.682 42.9534C149.019 43.7117 148.654 44.6851 148.655 45.6924C148.655 45.7774 148.655 45.8624 148.667 45.9424H148.655C147.679 45.9562 146.744 46.3352 146.034 47.0046C145.324 47.6741 144.891 48.5853 144.82 49.5584C144.749 50.5316 145.046 51.496 145.651 52.2613C146.256 53.0266 147.127 53.5373 148.09 53.6924V53.7499H158.607C159.867 53.7499 161.075 53.2495 161.966 52.3587C162.857 51.4679 163.357 50.2597 163.357 48.9999C163.357 47.7401 162.857 46.5319 161.966 45.6411C161.075 44.7503 159.867 44.2499 158.607 44.2499Z" fill="#005AFF"/>
<path opacity="0.9" d="M158.607 44.2499C157.995 44.2495 157.387 44.3684 156.82 44.5999C156.556 43.6278 155.948 42.7845 155.109 42.2271C154.27 41.6697 153.257 41.4361 152.259 41.5697C151.261 41.7033 150.345 42.195 149.682 42.9534C149.019 43.7117 148.654 44.6851 148.655 45.6924C148.655 45.7774 148.655 45.8624 148.667 45.9424H148.655C147.679 45.9562 146.744 46.3352 146.034 47.0046C145.324 47.6741 144.891 48.5853 144.82 49.5584C144.749 50.5316 145.046 51.496 145.651 52.2613C146.256 53.0266 147.127 53.5373 148.09 53.6924V53.7499H158.607C159.867 53.7499 161.075 53.2495 161.966 52.3587C162.857 51.4679 163.357 50.2597 163.357 48.9999C163.357 47.7401 162.857 46.5319 161.966 45.6411C161.075 44.7503 159.867 44.2499 158.607 44.2499Z" fill="white"/>
<path d="M156.045 55.4825V51.4575H151.692V55.4825H150.295L153.745 58.5225L157.195 55.4825H156.045Z" fill="#005AFF"/>
<path d="M132.675 37.69L136.735 33.4075C138.608 34.4158 140.795 34.6717 142.85 34.1229C144.905 33.5741 146.673 32.2619 147.794 30.4541C148.914 28.6462 149.303 26.4789 148.881 24.3943C148.458 22.3096 147.256 20.4646 145.52 19.2358C143.784 18.0069 141.645 17.4866 139.538 17.7812C137.432 18.0757 135.517 19.1629 134.184 20.8208C132.852 22.4788 132.202 24.5826 132.368 26.7032C132.533 28.8238 133.501 30.8013 135.075 32.2325L132.675 37.69Z" fill="#005AFF"/>
<path opacity="0.7" d="M132.675 37.69L136.735 33.4075C138.608 34.4158 140.795 34.6717 142.85 34.1229C144.905 33.5741 146.673 32.2619 147.794 30.4541C148.914 28.6462 149.303 26.4789 148.881 24.3943C148.458 22.3096 147.256 20.4646 145.52 19.2358C143.784 18.0069 141.645 17.4866 139.538 17.7812C137.432 18.0757 135.517 19.1629 134.184 20.8208C132.852 22.4788 132.202 24.5826 132.368 26.7032C132.533 28.8238 133.501 30.8013 135.075 32.2325L132.675 37.69Z" fill="white"/>
<path d="M133.71 20.4925L141.357 14.3525L149.217 20.4925L142.19 27.4425L133.71 20.4925Z" fill="#005AFF"/>
<path d="M148.517 17.175H134.242V25.6101H148.517V17.175Z" fill="#005AFF"/>
<path opacity="0.5" d="M148.517 17.175H134.242V25.6101H148.517V17.175Z" fill="white"/>
<path d="M147.797 19.1125H136.585V19.3825H147.797V19.1125Z" fill="white"/>
<path d="M147.795 19.9226H134.917V20.2376H147.795V19.9226Z" fill="white"/>
<path d="M147.795 20.7776H134.917V21.0926H147.795V20.7776Z" fill="white"/>
<path d="M147.795 21.5876H134.917V21.9026H147.795V21.5876Z" fill="white"/>
<path d="M147.795 22.4299H134.917V22.7449H147.795V22.4299Z" fill="white"/>
<path d="M147.817 23.165H134.94V23.48H147.817V23.165Z" fill="white"/>
<path d="M147.817 23.9751H134.94V24.2901H147.817V23.9751Z" fill="white"/>
<path d="M147.795 24.605H134.917V24.92H147.795V24.605Z" fill="white"/>
<path d="M149.217 29.5874H133.71V20.4924L141.462 25.6249L149.217 20.4924V29.5874Z" fill="#005AFF"/>
<path opacity="0.2" d="M149.217 29.5874H133.71V20.4924L141.462 25.6249L149.217 20.4924V29.5874Z" fill="white"/>
<path d="M118.643 39.0125L116.393 32.91C118.302 31.5547 119.622 29.522 120.084 27.2266C120.547 24.9312 120.116 22.546 118.879 20.5574C117.643 18.5688 115.695 17.1268 113.432 16.5253C111.169 15.9239 108.762 16.2084 106.702 17.3208C104.641 18.4333 103.083 20.2898 102.345 22.5118C101.606 24.7337 101.743 27.1537 102.728 29.2781C103.712 31.4026 105.47 33.0713 107.643 33.9441C109.816 34.8169 112.239 34.828 114.42 33.975L118.643 39.0125Z" fill="#005AFF"/>
<path opacity="0.7" d="M118.643 39.0125L116.393 32.91C118.302 31.5547 119.622 29.522 120.084 27.2266C120.547 24.9312 120.116 22.546 118.879 20.5574C117.643 18.5688 115.695 17.1268 113.432 16.5253C111.169 15.9239 108.762 16.2084 106.702 17.3208C104.641 18.4333 103.083 20.2898 102.345 22.5118C101.606 24.7337 101.743 27.1537 102.728 29.2781C103.712 31.4026 105.47 33.0713 107.643 33.9441C109.816 34.8169 112.239 34.828 114.42 33.975L118.643 39.0125Z" fill="white"/>
<path d="M117.705 16.2749H105.197V32.4199H117.705V16.2749Z" fill="#005AFF"/>
<path opacity="0.4" d="M117.705 17.135H105.197V32.42H117.705V17.135Z" fill="white"/>
<path opacity="0.7" d="M111.643 18.1575H107.143C107.063 18.1571 106.984 18.1726 106.91 18.2028C106.837 18.2331 106.77 18.2776 106.713 18.3338C106.657 18.39 106.612 18.4568 106.581 18.5304C106.551 18.6039 106.535 18.6828 106.535 18.7625V19.655C106.535 19.8161 106.599 19.9706 106.713 20.0845C106.827 20.1985 106.981 20.2625 107.143 20.2625H107.303C107.246 20.4327 107.145 20.5847 107.01 20.7025C106.875 20.8204 106.711 20.8998 106.535 20.9325C107.113 20.9075 107.49 20.6825 107.673 20.2625H111.64C111.72 20.2628 111.799 20.2473 111.873 20.217C111.947 20.1866 112.015 20.1419 112.071 20.0854C112.128 20.029 112.173 19.9619 112.204 19.888C112.234 19.8142 112.25 19.735 112.25 19.655V18.7625C112.25 18.6828 112.234 18.6039 112.204 18.5304C112.173 18.4568 112.128 18.39 112.072 18.3338C112.015 18.2776 111.948 18.2331 111.875 18.2028C111.801 18.1726 111.722 18.1571 111.643 18.1575Z" fill="white"/>
<path opacity="0.7" d="M111.75 23.835H107.048C106.915 23.835 106.788 23.8876 106.694 23.9814C106.6 24.0752 106.548 24.2024 106.548 24.335V24.78C106.548 24.9126 106.6 25.0397 106.694 25.1335C106.788 25.2273 106.915 25.28 107.048 25.28H107.318C107.268 25.4606 107.168 25.6237 107.03 25.7505C106.892 25.8774 106.722 25.963 106.538 25.9975C107.135 25.97 107.518 25.73 107.693 25.28H111.75C111.884 25.28 112.012 25.2277 112.108 25.1343C112.204 25.0409 112.259 24.9137 112.263 24.78V24.3475C112.263 24.2115 112.209 24.0812 112.112 23.9851C112.016 23.889 111.886 23.835 111.75 23.835Z" fill="white"/>
<path opacity="0.7" d="M115.847 26.4849H113.167C113.03 26.4849 112.898 26.5393 112.801 26.6363C112.703 26.7333 112.648 26.8649 112.647 27.0024V27.2524C112.648 27.3898 112.703 27.5215 112.801 27.6184C112.898 27.7154 113.03 27.7699 113.167 27.7699H115.05C115.225 28.2199 115.607 28.4624 116.205 28.4899C116.021 28.4547 115.851 28.3686 115.713 28.2413C115.576 28.114 115.477 27.9507 115.427 27.7699H115.847C115.985 27.7699 116.116 27.7153 116.213 27.6183C116.31 27.5212 116.365 27.3896 116.365 27.2524V27.0024C116.365 26.8651 116.31 26.7335 116.213 26.6364C116.116 26.5394 115.985 26.4849 115.847 26.4849Z" fill="white"/>
<path opacity="0.7" d="M115.855 20.645H109.442C109.309 20.645 109.18 20.6973 109.084 20.7907C108.989 20.8841 108.933 21.0113 108.93 21.145V22.3275C108.933 22.4613 108.989 22.5884 109.084 22.6819C109.18 22.7753 109.309 22.8276 109.442 22.8275H115.032C115.197 23.3075 115.587 23.5775 116.205 23.5925C116.013 23.5557 115.837 23.4637 115.697 23.3278C115.557 23.1918 115.46 23.0179 115.417 22.8275H115.855C115.988 22.8275 116.115 22.7748 116.209 22.6811C116.302 22.5873 116.355 22.4601 116.355 22.3275V21.155C116.356 21.0885 116.344 21.0224 116.32 20.9606C116.295 20.8988 116.259 20.8425 116.212 20.795C116.166 20.7475 116.11 20.7098 116.049 20.684C115.987 20.6583 115.922 20.645 115.855 20.645Z" fill="white"/>
<path opacity="0.8" d="M116.383 30.4299H106.52C106.271 30.4299 106.07 30.6314 106.07 30.8799V31.0849C106.07 31.3335 106.271 31.5349 106.52 31.5349H116.383C116.631 31.5349 116.833 31.3335 116.833 31.0849V30.8799C116.833 30.6314 116.631 30.4299 116.383 30.4299Z" fill="white"/>
</svg>
