<svg width="462" height="384" viewBox="0 0 462 384" fill="none" xmlns="http://www.w3.org/2000/svg">
<rect x="158.681" y="185.362" width="303.319" height="198" rx="14.0426" fill="#C4C4C4"/>
<rect width="313.149" height="206.426" rx="7.02128" fill="white"/>
<mask id="mask0" mask-type="alpha" maskUnits="userSpaceOnUse" x="0" y="0" width="314" height="207">
<rect x="2.80851" y="2.80851" width="307.532" height="200.809" rx="11.234" fill="#C4C4C4" stroke="#969696" stroke-width="5.61702"/>
</mask>
<g mask="url(#mask0)">
<rect width="313.149" height="29.4894" fill="#3264AE"/>
<rect width="313.149" height="29.4894" fill="#3264AE"/>
<rect y="29.4895" width="29.4894" height="176.936" fill="#E3E3E3"/>
</g>
<rect x="2.80851" y="2.80851" width="307.532" height="200.809" rx="4.21277" fill="black" fill-opacity="0.5" stroke="#414141" stroke-width="5.61702"/>
<rect x="68.8085" y="61.7874" width="178.34" height="88.4681" rx="7.02128" fill="white"/>
<g opacity="0.4">
<rect x="91.2766" y="110.936" width="133.404" height="19.6596" fill="#C4C4C4"/>
<rect x="91.2766" y="110.936" width="133.404" height="19.6596" stroke="black"/>
</g>
<rect x="91.2766" y="110.936" width="66" height="19.6596" fill="#3264AE"/>
<path opacity="0.3" d="M100.986 94.0433C100.986 93.4216 100.766 92.9462 100.327 92.6171C99.8886 92.2807 99.0987 91.9296 97.9578 91.5639C96.8168 91.1909 95.9136 90.8252 95.248 90.4668C93.4342 89.4868 92.5273 88.1666 92.5273 86.5064C92.5273 85.6434 92.7686 84.8754 93.2513 84.2025C93.7413 83.5224 94.4398 82.9921 95.3467 82.6118C96.261 82.2315 97.2849 82.0413 98.4185 82.0413C99.5595 82.0413 100.576 82.2498 101.468 82.6666C102.361 83.0762 103.052 83.6577 103.542 84.411C104.039 85.1643 104.288 86.02 104.288 86.9781H100.997C100.997 86.2468 100.766 85.6799 100.306 85.2777C99.8447 84.8681 99.1975 84.6633 98.3637 84.6633C97.5592 84.6633 96.9338 84.8352 96.4877 85.1789C96.0415 85.5154 95.8185 85.9615 95.8185 86.5174C95.8185 87.0367 96.0781 87.4718 96.5974 87.8229C97.124 88.174 97.8956 88.5031 98.9122 88.8103C100.785 89.3734 102.149 90.0719 103.004 90.9057C103.86 91.7395 104.288 92.778 104.288 94.0214C104.288 95.4037 103.765 96.4898 102.719 97.2797C101.673 98.0623 100.265 98.4535 98.4953 98.4535C97.2666 98.4535 96.1476 98.2305 95.1383 97.7843C94.129 97.3309 93.3574 96.7129 92.8235 95.9303C92.2969 95.1477 92.0336 94.2408 92.0336 93.2095H95.3358C95.3358 94.9722 96.389 95.8535 98.4953 95.8535C99.2779 95.8535 99.8886 95.6962 100.327 95.3817C100.766 95.0599 100.986 94.6138 100.986 94.0433ZM109.664 98.2341H106.482V86.3638H109.664V98.2341ZM106.296 83.292C106.296 82.8166 106.453 82.4253 106.767 82.1181C107.089 81.8109 107.524 81.6573 108.073 81.6573C108.614 81.6573 109.046 81.8109 109.367 82.1181C109.689 82.4253 109.85 82.8166 109.85 83.292C109.85 83.7747 109.685 84.1696 109.356 84.4768C109.035 84.784 108.607 84.9376 108.073 84.9376C107.539 84.9376 107.107 84.784 106.778 84.4768C106.456 84.1696 106.296 83.7747 106.296 83.292ZM115.259 86.3638L115.357 87.6912C116.198 86.66 117.336 86.1444 118.769 86.1444C120.298 86.1444 121.347 86.7478 121.918 87.9545C122.752 86.7478 123.94 86.1444 125.483 86.1444C126.771 86.1444 127.729 86.521 128.358 87.2744C128.987 88.0204 129.301 89.1467 129.301 90.6533V98.2341H126.12V90.6643C126.12 89.9914 125.988 89.5014 125.725 89.1942C125.461 88.8797 124.997 88.7225 124.331 88.7225C123.381 88.7225 122.722 89.176 122.357 90.0829L122.368 98.2341H119.197V90.6753C119.197 89.9878 119.062 89.4904 118.791 89.1833C118.521 88.8761 118.06 88.7225 117.409 88.7225C116.509 88.7225 115.858 89.0955 115.456 89.8415V98.2341H112.286V86.3638H115.259ZM138.857 97.0273C138.074 97.9781 136.992 98.4535 135.609 98.4535C134.337 98.4535 133.364 98.0879 132.691 97.3565C132.026 96.6251 131.685 95.5536 131.671 94.142V86.3638H134.841V94.0323C134.841 95.2684 135.405 95.8864 136.531 95.8864C137.606 95.8864 138.345 95.5134 138.747 94.7674V86.3638H141.929V98.2341H138.944L138.857 97.0273ZM147.666 98.2341H144.485V81.3831H147.666V98.2341ZM157.167 98.2341C157.021 97.9489 156.915 97.5942 156.849 97.17C156.081 98.0257 155.082 98.4535 153.854 98.4535C152.691 98.4535 151.725 98.1171 150.957 97.4442C150.197 96.7714 149.816 95.923 149.816 94.899C149.816 93.641 150.281 92.6756 151.21 92.0027C152.146 91.3299 153.495 90.9898 155.258 90.9825H156.717V90.3023C156.717 89.7537 156.574 89.3149 156.289 88.9858C156.011 88.6567 155.569 88.4921 154.962 88.4921C154.428 88.4921 154.007 88.6201 153.7 88.8761C153.4 89.1321 153.25 89.4831 153.25 89.9293H150.08C150.08 89.2418 150.292 88.6055 150.716 88.0204C151.14 87.4353 151.74 86.9781 152.515 86.649C153.291 86.3126 154.161 86.1444 155.126 86.1444C156.589 86.1444 157.748 86.5137 158.604 87.2524C159.467 87.9838 159.899 89.015 159.899 90.3462V95.4914C159.906 96.6178 160.063 97.4698 160.37 98.0476V98.2341H157.167ZM154.545 96.029C155.013 96.029 155.444 95.9266 155.839 95.7218C156.234 95.5097 156.527 95.2281 156.717 94.8771V92.8365H155.532C153.945 92.8365 153.1 93.3851 152.998 94.4821L152.987 94.6686C152.987 95.0636 153.126 95.3891 153.404 95.645C153.682 95.901 154.062 96.029 154.545 96.029ZM166.13 83.4456V86.3638H168.16V88.6896H166.13V94.6138C166.13 95.0526 166.214 95.3671 166.382 95.5573C166.551 95.7474 166.872 95.8425 167.348 95.8425C167.699 95.8425 168.01 95.8169 168.28 95.7657V98.1683C167.659 98.3585 167.019 98.4535 166.36 98.4535C164.137 98.4535 163.003 97.3309 162.959 95.0855V88.6896H161.226V86.3638H162.959V83.4456H166.13ZM173.272 98.2341H170.09V86.3638H173.272V98.2341ZM169.904 83.292C169.904 82.8166 170.061 82.4253 170.376 82.1181C170.697 81.8109 171.133 81.6573 171.681 81.6573C172.222 81.6573 172.654 81.8109 172.976 82.1181C173.298 82.4253 173.458 82.8166 173.458 83.292C173.458 83.7747 173.294 84.1696 172.965 84.4768C172.643 84.784 172.215 84.9376 171.681 84.9376C171.147 84.9376 170.716 84.784 170.387 84.4768C170.065 84.1696 169.904 83.7747 169.904 83.292ZM178.812 86.3638L178.911 87.7351C179.759 86.6746 180.897 86.1444 182.323 86.1444C183.581 86.1444 184.517 86.5137 185.131 87.2524C185.746 87.9911 186.06 89.0955 186.075 90.5656V98.2341H182.904V90.6424C182.904 89.9695 182.758 89.4831 182.465 89.1833C182.173 88.8761 181.686 88.7225 181.006 88.7225C180.114 88.7225 179.445 89.1028 178.999 89.8635V98.2341H175.828V86.3638H178.812ZM188.028 92.2112C188.028 90.39 188.459 88.9236 189.322 87.8119C190.192 86.7002 191.363 86.1444 192.833 86.1444C194.135 86.1444 195.148 86.5905 195.872 87.4828L196.003 86.3638H198.878V97.8392C198.878 98.8777 198.64 99.781 198.165 100.549C197.696 101.317 197.035 101.902 196.179 102.304C195.323 102.707 194.321 102.908 193.173 102.908C192.303 102.908 191.454 102.732 190.628 102.381C189.801 102.037 189.176 101.591 188.752 101.043L190.156 99.1118C190.946 99.9968 191.904 100.439 193.03 100.439C193.871 100.439 194.526 100.213 194.994 99.7591C195.462 99.3129 195.696 98.6766 195.696 97.8502V97.2139C194.965 98.0403 194.003 98.4535 192.811 98.4535C191.385 98.4535 190.229 97.8977 189.344 96.786C188.466 95.667 188.028 94.1859 188.028 92.3428V92.2112ZM191.198 92.4416C191.198 93.5167 191.414 94.3615 191.845 94.9758C192.277 95.5829 192.869 95.8864 193.623 95.8864C194.588 95.8864 195.279 95.5244 195.696 94.8003V89.8086C195.272 89.0845 194.588 88.7225 193.645 88.7225C192.884 88.7225 192.284 89.0333 191.845 89.655C191.414 90.2767 191.198 91.2055 191.198 92.4416ZM201.489 96.6763C201.489 96.1716 201.657 95.7621 201.993 95.4476C202.337 95.1331 202.765 94.9758 203.277 94.9758C203.796 94.9758 204.224 95.1331 204.56 95.4476C204.904 95.7621 205.076 96.1716 205.076 96.6763C205.076 97.1736 204.908 97.5795 204.571 97.894C204.235 98.2012 203.804 98.3548 203.277 98.3548C202.758 98.3548 202.33 98.2012 201.993 97.894C201.657 97.5795 201.489 97.1736 201.489 96.6763ZM208.027 96.6763C208.027 96.1716 208.195 95.7621 208.532 95.4476C208.876 95.1331 209.304 94.9758 209.815 94.9758C210.335 94.9758 210.763 95.1331 211.099 95.4476C211.443 95.7621 211.615 96.1716 211.615 96.6763C211.615 97.1736 211.446 97.5795 211.11 97.894C210.774 98.2012 210.342 98.3548 209.815 98.3548C209.296 98.3548 208.868 98.2012 208.532 97.894C208.195 97.5795 208.027 97.1736 208.027 96.6763ZM214.566 96.6763C214.566 96.1716 214.734 95.7621 215.07 95.4476C215.414 95.1331 215.842 94.9758 216.354 94.9758C216.873 94.9758 217.301 95.1331 217.638 95.4476C217.981 95.7621 218.153 96.1716 218.153 96.6763C218.153 97.1736 217.985 97.5795 217.649 97.894C217.312 98.2012 216.881 98.3548 216.354 98.3548C215.835 98.3548 215.407 98.2012 215.07 97.894C214.734 97.5795 214.566 97.1736 214.566 96.6763Z" fill="black"/>
<rect x="136.213" y="167.106" width="307.532" height="200.809" rx="4.21277" fill="white" stroke="#797979" stroke-width="5.61702"/>
<mask id="mask1" mask-type="alpha" maskUnits="userSpaceOnUse" x="133" y="164" width="314" height="207">
<rect x="136.213" y="167.106" width="307.532" height="200.809" rx="11.234" fill="#C4C4C4" stroke="#969696" stroke-width="5.61702"/>
</mask>
<g mask="url(#mask1)">
<rect x="133.404" y="164.298" width="313.149" height="29.4894" fill="#3264AE"/>
<rect x="133.404" y="164.298" width="313.149" height="29.4894" fill="#3264AE"/>
<rect x="133.404" y="193.787" width="29.4894" height="176.936" fill="#E3E3E3"/>
</g>
<mask id="path-17-inside-1" fill="white">
<rect x="133.404" y="164.298" width="313.149" height="206.426" rx="7.02128"/>
</mask>
<rect x="133.404" y="164.298" width="313.149" height="206.426" rx="7.02128" stroke="#414141" stroke-width="16.8511" mask="url(#path-17-inside-1)"/>
<rect opacity="0.3" x="171.319" y="351.064" width="49.1489" height="8.42553" fill="#C4C4C4"/>
<rect opacity="0.3" x="171.319" y="335.617" width="49.1489" height="8.42553" fill="#C4C4C4"/>
<rect opacity="0.3" x="171.319" y="320.17" width="49.1489" height="8.42553" fill="#C4C4C4"/>
<rect opacity="0.3" x="171.319" y="304.724" width="49.1489" height="8.42553" fill="#C4C4C4"/>
<rect opacity="0.3" x="171.319" y="289.277" width="49.1489" height="8.42553" fill="#C4C4C4"/>
<rect opacity="0.3" x="171.319" y="275.234" width="49.1489" height="8.42553" fill="#C4C4C4"/>
<rect opacity="0.3" x="171.319" y="261.192" width="49.1489" height="8.42553" fill="#C4C4C4"/>
<rect opacity="0.3" x="171.319" y="247.149" width="49.1489" height="8.42553" fill="#C4C4C4"/>
<rect opacity="0.3" x="171.319" y="233.107" width="49.1489" height="8.42553" fill="#C4C4C4"/>
<rect opacity="0.3" x="171.319" y="220.468" width="49.1489" height="8.42553" fill="#C4C4C4"/>
<rect opacity="0.3" x="171.319" y="205.021" width="49.1489" height="8.42553" fill="#222222"/>
<rect opacity="0.3" x="224.681" y="205.021" width="49.1489" height="8.42553" fill="#222222"/>
<rect opacity="0.3" x="278.043" y="205.021" width="49.1489" height="8.42553" fill="#222222"/>
<rect opacity="0.3" x="331.404" y="205.021" width="49.1489" height="8.42553" fill="#222222"/>
<rect opacity="0.3" x="384.766" y="205.021" width="49.1489" height="8.42553" fill="#222222"/>
<rect opacity="0.3" x="224.681" y="351.064" width="49.1489" height="8.42553" fill="#C4C4C4"/>
<rect opacity="0.3" x="224.681" y="335.617" width="49.1489" height="8.42553" fill="#C4C4C4"/>
<rect opacity="0.3" x="224.681" y="320.17" width="49.1489" height="8.42553" fill="#C4C4C4"/>
<rect opacity="0.3" x="224.681" y="304.724" width="49.1489" height="8.42553" fill="#C4C4C4"/>
<rect opacity="0.3" x="224.681" y="289.277" width="49.1489" height="8.42553" fill="#C4C4C4"/>
<rect opacity="0.3" x="224.681" y="275.234" width="49.1489" height="8.42553" fill="#C4C4C4"/>
<rect opacity="0.3" x="224.681" y="261.192" width="49.1489" height="8.42553" fill="#C4C4C4"/>
<rect opacity="0.3" x="224.681" y="247.149" width="49.1489" height="8.42553" fill="#C4C4C4"/>
<rect opacity="0.3" x="224.681" y="233.107" width="49.1489" height="8.42553" fill="#C4C4C4"/>
<rect opacity="0.3" x="224.681" y="220.468" width="49.1489" height="8.42553" fill="#C4C4C4"/>
<rect opacity="0.3" x="278.043" y="351.064" width="49.1489" height="8.42553" fill="#C4C4C4"/>
<rect opacity="0.3" x="278.043" y="335.617" width="49.1489" height="8.42553" fill="#C4C4C4"/>
<rect opacity="0.3" x="278.043" y="320.17" width="49.1489" height="8.42553" fill="#C4C4C4"/>
<rect opacity="0.3" x="278.043" y="304.724" width="49.1489" height="8.42553" fill="#C4C4C4"/>
<rect opacity="0.3" x="278.043" y="289.277" width="49.1489" height="8.42553" fill="#C4C4C4"/>
<rect opacity="0.3" x="278.043" y="275.234" width="49.1489" height="8.42553" fill="#C4C4C4"/>
<rect opacity="0.3" x="278.043" y="261.192" width="49.1489" height="8.42553" fill="#C4C4C4"/>
<rect opacity="0.3" x="278.043" y="247.149" width="49.1489" height="8.42553" fill="#C4C4C4"/>
<rect opacity="0.3" x="278.043" y="233.107" width="49.1489" height="8.42553" fill="#C4C4C4"/>
<rect opacity="0.3" x="278.043" y="220.468" width="49.1489" height="8.42553" fill="#C4C4C4"/>
<rect opacity="0.3" x="331.404" y="351.064" width="49.1489" height="8.42553" fill="#C4C4C4"/>
<rect opacity="0.3" x="331.404" y="335.617" width="49.1489" height="8.42553" fill="#C4C4C4"/>
<rect opacity="0.3" x="331.404" y="320.17" width="49.1489" height="8.42553" fill="#C4C4C4"/>
<rect opacity="0.3" x="331.404" y="304.724" width="49.1489" height="8.42553" fill="#C4C4C4"/>
<rect opacity="0.3" x="331.404" y="289.277" width="49.1489" height="8.42553" fill="#C4C4C4"/>
<rect opacity="0.3" x="331.404" y="275.234" width="49.1489" height="8.42553" fill="#C4C4C4"/>
<rect opacity="0.3" x="331.404" y="261.192" width="49.1489" height="8.42553" fill="#C4C4C4"/>
<rect opacity="0.3" x="331.404" y="247.149" width="49.1489" height="8.42553" fill="#C4C4C4"/>
<rect opacity="0.3" x="331.404" y="233.107" width="49.1489" height="8.42553" fill="#C4C4C4"/>
<rect opacity="0.3" x="331.404" y="220.468" width="49.1489" height="8.42553" fill="#C4C4C4"/>
<rect opacity="0.3" x="384.766" y="351.064" width="49.1489" height="8.42553" fill="#C4C4C4"/>
<rect opacity="0.3" x="384.766" y="335.617" width="49.1489" height="8.42553" fill="#C4C4C4"/>
<rect opacity="0.3" x="384.766" y="320.17" width="49.1489" height="8.42553" fill="#C4C4C4"/>
<rect opacity="0.3" x="384.766" y="304.724" width="49.1489" height="8.42553" fill="#C4C4C4"/>
<rect opacity="0.3" x="384.766" y="289.277" width="49.1489" height="8.42553" fill="#C4C4C4"/>
<rect opacity="0.3" x="384.766" y="275.234" width="49.1489" height="8.42553" fill="#C4C4C4"/>
<rect opacity="0.3" x="384.766" y="261.192" width="49.1489" height="8.42553" fill="#C4C4C4"/>
<rect opacity="0.3" x="384.766" y="247.149" width="49.1489" height="8.42553" fill="#C4C4C4"/>
<rect opacity="0.3" x="384.766" y="233.107" width="49.1489" height="8.42553" fill="#C4C4C4"/>
<rect opacity="0.3" x="384.766" y="220.468" width="49.1489" height="8.42553" fill="#C4C4C4"/>
<rect x="136.213" y="167.106" width="307.532" height="200.809" rx="4.21277" fill="white" stroke="#797979" stroke-width="5.61702"/>
<mask id="mask2" mask-type="alpha" maskUnits="userSpaceOnUse" x="133" y="164" width="314" height="207">
<rect x="136.213" y="167.106" width="307.532" height="200.809" rx="11.234" fill="#C4C4C4" stroke="#969696" stroke-width="5.61702"/>
</mask>
<g mask="url(#mask2)">
<rect x="133.404" y="164.298" width="313.149" height="29.4894" fill="#3264AE"/>
<rect x="133.404" y="164.298" width="313.149" height="29.4894" fill="#3264AE"/>
<rect x="133.404" y="193.787" width="29.4894" height="176.936" fill="#E3E3E3"/>
</g>
<mask id="path-78-inside-2" fill="white">
<rect x="133.404" y="164.298" width="313.149" height="206.426" rx="7.02128"/>
</mask>
<rect x="133.404" y="164.298" width="313.149" height="206.426" rx="7.02128" stroke="#414141" stroke-width="16.8511" mask="url(#path-78-inside-2)"/>
<rect opacity="0.3" x="171.319" y="351.064" width="49.1489" height="8.42553" fill="#C4C4C4"/>
<rect opacity="0.3" x="171.319" y="335.617" width="49.1489" height="8.42553" fill="#C4C4C4"/>
<rect opacity="0.3" x="171.319" y="320.17" width="49.1489" height="8.42553" fill="#C4C4C4"/>
<rect opacity="0.3" x="171.319" y="304.724" width="49.1489" height="8.42553" fill="#C4C4C4"/>
<rect opacity="0.3" x="171.319" y="289.277" width="49.1489" height="8.42553" fill="#C4C4C4"/>
<rect opacity="0.3" x="171.319" y="275.234" width="49.1489" height="8.42553" fill="#C4C4C4"/>
<rect opacity="0.3" x="171.319" y="261.192" width="49.1489" height="8.42553" fill="#C4C4C4"/>
<rect opacity="0.3" x="171.319" y="247.149" width="49.1489" height="8.42553" fill="#C4C4C4"/>
<rect opacity="0.3" x="171.319" y="233.107" width="49.1489" height="8.42553" fill="#C4C4C4"/>
<rect opacity="0.3" x="171.319" y="220.468" width="49.1489" height="8.42553" fill="#C4C4C4"/>
<rect opacity="0.3" x="171.319" y="205.021" width="49.1489" height="8.42553" fill="#222222"/>
<rect opacity="0.3" x="224.681" y="205.021" width="49.1489" height="8.42553" fill="#222222"/>
<rect opacity="0.3" x="278.043" y="205.021" width="49.1489" height="8.42553" fill="#222222"/>
<rect opacity="0.3" x="331.404" y="205.021" width="49.1489" height="8.42553" fill="#222222"/>
<rect opacity="0.3" x="384.766" y="205.021" width="49.1489" height="8.42553" fill="#222222"/>
<rect opacity="0.3" x="224.681" y="351.064" width="49.1489" height="8.42553" fill="#C4C4C4"/>
<rect opacity="0.3" x="224.681" y="335.617" width="49.1489" height="8.42553" fill="#C4C4C4"/>
<rect opacity="0.3" x="224.681" y="320.17" width="49.1489" height="8.42553" fill="#C4C4C4"/>
<rect opacity="0.3" x="224.681" y="304.724" width="49.1489" height="8.42553" fill="#C4C4C4"/>
<rect opacity="0.3" x="224.681" y="289.277" width="49.1489" height="8.42553" fill="#C4C4C4"/>
<rect opacity="0.3" x="224.681" y="275.234" width="49.1489" height="8.42553" fill="#C4C4C4"/>
<rect opacity="0.3" x="224.681" y="261.192" width="49.1489" height="8.42553" fill="#C4C4C4"/>
<rect opacity="0.3" x="224.681" y="247.149" width="49.1489" height="8.42553" fill="#C4C4C4"/>
<rect opacity="0.3" x="224.681" y="233.107" width="49.1489" height="8.42553" fill="#C4C4C4"/>
<rect opacity="0.3" x="224.681" y="220.468" width="49.1489" height="8.42553" fill="#C4C4C4"/>
<rect opacity="0.3" x="278.043" y="351.064" width="49.1489" height="8.42553" fill="#C4C4C4"/>
<rect opacity="0.3" x="278.043" y="335.617" width="49.1489" height="8.42553" fill="#C4C4C4"/>
<rect opacity="0.3" x="278.043" y="320.17" width="49.1489" height="8.42553" fill="#C4C4C4"/>
<rect opacity="0.3" x="278.043" y="304.724" width="49.1489" height="8.42553" fill="#C4C4C4"/>
<rect opacity="0.3" x="278.043" y="289.277" width="49.1489" height="8.42553" fill="#C4C4C4"/>
<rect opacity="0.3" x="278.043" y="275.234" width="49.1489" height="8.42553" fill="#C4C4C4"/>
<rect opacity="0.3" x="278.043" y="261.192" width="49.1489" height="8.42553" fill="#C4C4C4"/>
<rect opacity="0.3" x="278.043" y="247.149" width="49.1489" height="8.42553" fill="#C4C4C4"/>
<rect opacity="0.3" x="278.043" y="233.107" width="49.1489" height="8.42553" fill="#C4C4C4"/>
<rect opacity="0.3" x="278.043" y="220.468" width="49.1489" height="8.42553" fill="#C4C4C4"/>
<rect opacity="0.3" x="331.404" y="351.064" width="49.1489" height="8.42553" fill="#C4C4C4"/>
<rect opacity="0.3" x="331.404" y="335.617" width="49.1489" height="8.42553" fill="#C4C4C4"/>
<rect opacity="0.3" x="331.404" y="320.17" width="49.1489" height="8.42553" fill="#C4C4C4"/>
<rect opacity="0.3" x="331.404" y="304.724" width="49.1489" height="8.42553" fill="#C4C4C4"/>
<rect opacity="0.3" x="331.404" y="289.277" width="49.1489" height="8.42553" fill="#C4C4C4"/>
<rect opacity="0.3" x="331.404" y="275.234" width="49.1489" height="8.42553" fill="#C4C4C4"/>
<rect opacity="0.3" x="331.404" y="261.192" width="49.1489" height="8.42553" fill="#C4C4C4"/>
<rect opacity="0.3" x="331.404" y="247.149" width="49.1489" height="8.42553" fill="#C4C4C4"/>
<rect opacity="0.3" x="331.404" y="233.107" width="49.1489" height="8.42553" fill="#C4C4C4"/>
<rect opacity="0.3" x="331.404" y="220.468" width="49.1489" height="8.42553" fill="#C4C4C4"/>
<rect opacity="0.3" x="384.766" y="351.064" width="49.1489" height="8.42553" fill="#C4C4C4"/>
<rect opacity="0.3" x="384.766" y="335.617" width="49.1489" height="8.42553" fill="#C4C4C4"/>
<rect opacity="0.3" x="384.766" y="320.17" width="49.1489" height="8.42553" fill="#C4C4C4"/>
<rect opacity="0.3" x="384.766" y="304.724" width="49.1489" height="8.42553" fill="#C4C4C4"/>
<rect opacity="0.3" x="384.766" y="289.277" width="49.1489" height="8.42553" fill="#C4C4C4"/>
<rect opacity="0.3" x="384.766" y="275.234" width="49.1489" height="8.42553" fill="#C4C4C4"/>
<rect opacity="0.3" x="384.766" y="261.192" width="49.1489" height="8.42553" fill="#C4C4C4"/>
<rect opacity="0.3" x="384.766" y="247.149" width="49.1489" height="8.42553" fill="#C4C4C4"/>
<rect opacity="0.3" x="384.766" y="233.107" width="49.1489" height="8.42553" fill="#C4C4C4"/>
<rect opacity="0.3" x="384.766" y="220.468" width="49.1489" height="8.42553" fill="#C4C4C4"/>
<path d="M328.596 67.5504C352.702 65.9121 400.494 77.3802 398.809 136.359" stroke="#414141" stroke-width="7.02128"/>
<path d="M398.809 149.699L413.402 126.529H384.215L398.809 149.699Z" fill="#414141"/>
</svg>
