<svg width="225" height="125" viewBox="0 0 225 125" fill="none" xmlns="http://www.w3.org/2000/svg">
<rect width="225" height="125" fill="#E0EBFF"/>
<path d="M56.8779 52.3635C56.8425 52.3636 56.8083 52.3505 56.7821 52.3267C56.7558 52.3029 56.7395 52.2702 56.7362 52.2349L56.0046 43.4357C56.0027 43.4 56.0147 43.365 56.038 43.338C56.0614 43.311 56.0942 43.294 56.1298 43.2907C56.1669 43.2879 56.2035 43.2999 56.2319 43.3239C56.2603 43.3479 56.278 43.3822 56.2814 43.4192L57.013 52.2185C57.0158 52.2555 57.0038 52.2922 56.9798 52.3206C56.9557 52.3489 56.9215 52.3667 56.8845 52.3701L56.8779 52.3635Z" fill="#005AFF"/>
<path d="M57.3129 57.5904C57.2775 57.5905 57.2433 57.5774 57.2171 57.5536C57.1909 57.5298 57.1745 57.4971 57.1712 57.4618L56.9504 54.799C56.9486 54.7805 56.9505 54.7619 56.956 54.7442C56.9616 54.7265 56.9706 54.7101 56.9826 54.696C56.9946 54.6818 57.0093 54.6703 57.0258 54.6619C57.0424 54.6536 57.0604 54.6486 57.0789 54.6474C57.0974 54.6456 57.116 54.6475 57.1337 54.653C57.1514 54.6586 57.1678 54.6676 57.1819 54.6796C57.1961 54.6916 57.2077 54.7063 57.216 54.7228C57.2243 54.7394 57.2293 54.7574 57.2305 54.7759L57.4513 57.4388C57.4541 57.4758 57.4421 57.5125 57.4181 57.5409C57.3941 57.5692 57.3598 57.587 57.3228 57.5904H57.3129Z" fill="#005AFF"/>
<path d="M131.454 82.6306H63.4065C62.5492 82.6138 61.7278 82.2831 61.0979 81.7012C60.4681 81.1194 60.0735 80.3267 59.9889 79.4734L56.1562 33.4041C56.1152 33.0017 56.1598 32.5952 56.2872 32.2113C56.4145 31.8274 56.6216 31.4747 56.8949 31.1765C57.1681 30.8784 57.5014 30.6414 57.8728 30.4811C58.2442 30.3209 58.6453 30.2411 59.0497 30.2469H127.094C127.952 30.2636 128.774 30.5941 129.404 31.1759C130.034 31.7578 130.43 32.5505 130.515 33.4041L134.348 79.4668C134.389 79.8696 134.345 80.2766 134.218 80.6611C134.091 81.0455 133.884 81.3988 133.61 81.6976C133.337 81.9964 133.004 82.234 132.632 82.3948C132.261 82.5556 131.859 82.6359 131.454 82.6306Z" fill="white"/>
<path d="M131.454 82.7624H63.4066C62.5158 82.7479 61.6616 82.4059 61.0069 81.8017C60.3522 81.1974 59.943 80.3733 59.8572 79.4865L56.0245 33.4205C55.9858 33.0002 56.0352 32.5765 56.1697 32.1764C56.3042 31.7763 56.5208 31.4087 56.8055 31.0971C57.0888 30.7835 57.4352 30.5333 57.822 30.3629C58.2088 30.1925 58.6272 30.1058 59.0498 30.1085H127.094C127.989 30.1227 128.846 30.4671 129.502 31.0754C130.158 31.6838 130.566 32.5132 130.647 33.4041L134.476 79.4668C134.519 79.8869 134.472 80.3111 134.339 80.7118C134.205 81.1125 133.989 81.4805 133.704 81.7916C133.418 82.1028 133.07 82.3502 132.683 82.5175C132.295 82.6848 131.876 82.7682 131.454 82.7624ZM59.0498 30.3853C58.663 30.379 58.2792 30.4549 57.9238 30.6078C57.5685 30.7608 57.2496 30.9874 56.9883 31.2727C56.727 31.558 56.5291 31.8955 56.4079 32.2629C56.2866 32.6303 56.2447 33.0193 56.2848 33.4041L60.1176 79.4635C60.1991 80.2855 60.5799 81.0489 61.1875 81.6085C61.7952 82.1682 62.5873 82.485 63.4132 82.4987H131.454C131.84 82.5044 132.223 82.4284 132.578 82.2756C132.932 82.1228 133.25 81.8967 133.511 81.6122C133.772 81.3277 133.969 80.9912 134.091 80.6248C134.213 80.2585 134.255 79.8705 134.216 79.4865L130.383 33.4205C130.302 32.5982 129.922 31.8344 129.314 31.2746C128.706 30.7149 127.914 30.3983 127.088 30.3853H59.0498Z" fill="#005AFF"/>
<path d="M127.094 30.2535H59.0497C58.6459 30.2478 58.2454 30.3274 57.8745 30.4873C57.5037 30.6471 57.1707 30.8835 56.8975 31.1809C56.6244 31.4784 56.4171 31.8302 56.2893 32.2133C56.1616 32.5964 56.1162 33.0022 56.1562 33.4041H130.515C130.428 32.5516 130.032 31.7605 129.402 31.1801C128.772 30.5996 127.951 30.27 127.094 30.2535Z" fill="#005AFF"/>
<path d="M60.6415 31.8319C60.6508 31.9187 60.6416 32.0066 60.6144 32.0896C60.5873 32.1726 60.5428 32.2489 60.4839 32.3134C60.425 32.3779 60.353 32.4292 60.2728 32.4638C60.1926 32.4984 60.1059 32.5155 60.0186 32.5141C59.8335 32.5102 59.6562 32.4386 59.5202 32.3129C59.3842 32.1873 59.2989 32.0161 59.2804 31.8319C59.2716 31.7451 59.2812 31.6575 59.3085 31.5747C59.3359 31.4919 59.3804 31.4159 59.4392 31.3515C59.498 31.2871 59.5698 31.2358 59.6497 31.2011C59.7297 31.1663 59.8161 31.1488 59.9033 31.1497C60.0888 31.1522 60.2669 31.2232 60.4032 31.3492C60.5395 31.4751 60.6244 31.6471 60.6415 31.8319Z" fill="white"/>
<path d="M63.4098 31.8319C63.4191 31.9187 63.4099 32.0066 63.3828 32.0896C63.3556 32.1726 63.3111 32.2489 63.2522 32.3134C63.1933 32.3779 63.1213 32.4292 63.0411 32.4638C62.9609 32.4984 62.8743 32.5155 62.7869 32.5141C62.6041 32.507 62.43 32.4341 62.2967 32.3087C62.1635 32.1833 62.08 32.0139 62.0619 31.8319C62.0531 31.7451 62.0627 31.6575 62.09 31.5747C62.1174 31.4919 62.1619 31.4159 62.2207 31.3515C62.2795 31.2871 62.3512 31.2358 62.4312 31.2011C62.5112 31.1663 62.5976 31.1488 62.6848 31.1497C62.868 31.1554 63.0429 31.2278 63.1765 31.3535C63.31 31.4791 63.393 31.6493 63.4098 31.8319Z" fill="white"/>
<path d="M66.1781 31.8319C66.1875 31.9187 66.1782 32.0066 66.1511 32.0896C66.1239 32.1726 66.0794 32.2489 66.0205 32.3134C65.9616 32.3779 65.8896 32.4292 65.8094 32.4638C65.7292 32.4984 65.6426 32.5155 65.5552 32.5141C65.3701 32.5102 65.1928 32.4386 65.0568 32.3129C64.9208 32.1873 64.8355 32.0161 64.817 31.8319C64.8082 31.7451 64.8178 31.6575 64.8452 31.5747C64.8725 31.4919 64.9171 31.4159 64.9759 31.3515C65.0347 31.2871 65.1064 31.2358 65.1863 31.2011C65.2663 31.1663 65.3527 31.1488 65.4399 31.1497C65.6255 31.1522 65.8035 31.2232 65.9399 31.3492C66.0762 31.4751 66.161 31.6471 66.1781 31.8319Z" fill="white"/>
<path d="M125.548 76.593H68.3235C67.6419 76.5802 66.9887 76.3178 66.4876 75.8556C65.9865 75.3934 65.6723 74.7634 65.6047 74.085L62.9154 41.9726C62.8833 41.6524 62.9193 41.3289 63.0211 41.0236C63.1229 40.7182 63.2882 40.4379 63.5061 40.201C63.724 39.9641 63.9896 39.776 64.2854 39.6491C64.5812 39.5222 64.9005 39.4593 65.2224 39.4647H122.457C123.139 39.4774 123.792 39.7398 124.293 40.202C124.794 40.6643 125.108 41.2943 125.176 41.9726L127.849 74.1015C127.878 74.4199 127.841 74.741 127.738 75.0439C127.636 75.3468 127.471 75.6247 127.254 75.8596C127.037 76.0946 126.773 76.2813 126.479 76.4076C126.185 76.534 125.868 76.5971 125.548 76.593Z" fill="#F0F0F0"/>
<path opacity="0.1" d="M107.844 45.0736L90.1141 66.4225C89.5568 67.0929 89.1817 67.8956 89.025 68.7531C88.8684 69.6107 88.9353 70.4942 89.2196 71.3183C89.5038 72.1424 89.9956 72.8794 90.6476 73.4581C91.2995 74.0367 92.0897 74.4376 92.9417 74.622L121.712 80.8408C122.612 81.036 123.548 80.9825 124.42 80.6862C125.292 80.3898 126.066 79.8617 126.661 79.1585C127.255 78.4554 127.647 77.6036 127.794 76.6947C127.941 75.7858 127.838 74.8539 127.496 73.9991L116.466 46.4281C116.14 45.61 115.607 44.8908 114.918 44.3413C114.23 43.7919 113.411 43.431 112.541 43.2944C111.671 43.1577 110.781 43.2499 109.957 43.5618C109.134 43.8738 108.405 44.3948 107.844 45.0736Z" fill="#263238"/>
<path opacity="0.1" d="M68.3763 48.0663L62.2003 64.7124C62.0153 65.2206 61.9621 65.7674 62.0454 66.3018C62.1288 66.8361 62.3461 67.3407 62.6771 67.7684C63.0081 68.1961 63.442 68.5331 63.9383 68.7478C64.4347 68.9626 64.9773 69.0482 65.5157 68.9967L83.5525 67.227C84.1265 67.1709 84.6747 66.9609 85.1392 66.6192C85.6038 66.2775 85.9675 65.8167 86.1919 65.2855C86.4164 64.7543 86.4932 64.1723 86.4144 63.601C86.3356 63.0297 86.104 62.4903 85.7441 62.0397L73.8799 47.1765C73.5255 46.7341 73.06 46.3937 72.531 46.19C72.0019 45.9863 71.4283 45.9267 70.8687 46.0171C70.3091 46.1076 69.7835 46.345 69.3456 46.705C68.9078 47.065 68.5732 47.5348 68.3763 48.0663Z" fill="#263238"/>
<path d="M113.961 39.6986L97.3842 63.7565C96.8664 64.508 96.5502 65.3797 96.4658 66.2884C96.3813 67.197 96.5314 68.1121 96.9018 68.9461C97.2722 69.7801 97.8504 70.5051 98.5811 71.0517C99.3119 71.5984 100.171 71.9483 101.075 72.0681L131.546 76.125C132.505 76.2526 133.48 76.1173 134.367 75.7335C135.254 75.3498 136.021 74.732 136.584 73.9463C137.147 73.1605 137.487 72.2365 137.565 71.2729C137.644 70.3093 137.459 69.3425 137.03 68.4759L123.136 40.3511C122.724 39.518 122.101 38.8071 121.329 38.289C120.557 37.7709 119.663 37.4637 118.735 37.3977C117.808 37.3318 116.88 37.5094 116.042 37.913C115.205 38.3166 114.487 38.9322 113.961 39.6986Z" fill="#005AFF"/>
<path d="M101.797 69.9196C101.247 69.8448 100.723 69.635 100.274 69.309C99.8241 68.983 99.4621 68.5508 99.2199 68.051C98.9701 67.5785 98.8527 67.0474 98.88 66.5137C98.9072 65.98 99.0782 65.4636 99.3747 65.019L115.994 40.8886C116.295 40.4582 116.711 40.1211 117.194 39.9159C117.677 39.7107 118.208 39.6458 118.727 39.7285C119.277 39.8028 119.801 40.0124 120.25 40.3384C120.7 40.6645 121.062 41.097 121.304 41.5971L135.224 69.7911C135.474 70.2635 135.591 70.7947 135.564 71.3284C135.537 71.8621 135.366 72.3785 135.069 72.823C134.77 73.2543 134.354 73.5923 133.871 73.7981C133.388 74.0039 132.856 74.0692 132.337 73.9864L101.797 69.9196Z" fill="white"/>
<path d="M117.313 48.2573L119.254 48.5143C119.861 48.5999 120.415 48.9059 120.811 49.3739C121.206 49.842 121.416 50.4393 121.399 51.0519L121.267 53.583C121.264 53.6748 121.254 53.7662 121.238 53.8565L119.857 61.4858C119.758 62.0117 119.458 62.4781 119.02 62.7859C118.583 63.0937 118.042 63.2184 117.514 63.1336C116.953 63.0539 116.436 62.7868 116.046 62.3757C115.657 61.9646 115.418 61.4337 115.368 60.8696L114.811 52.9865C114.805 52.8954 114.805 52.804 114.811 52.7129L114.94 50.1786C114.954 49.8907 115.028 49.609 115.159 49.3519C115.289 49.0948 115.472 48.8681 115.696 48.6867C115.92 48.5054 116.18 48.3733 116.459 48.2993C116.737 48.2253 117.028 48.211 117.313 48.2573ZM117.158 65.2494L117.685 65.3186C118.228 65.3953 118.724 65.6691 119.079 66.0878C119.433 66.5065 119.621 67.041 119.606 67.5893C119.595 67.8479 119.529 68.1011 119.412 68.3323C119.296 68.5635 119.132 68.7675 118.931 68.9309C118.731 69.0942 118.498 69.2133 118.248 69.2803C117.998 69.3473 117.736 69.3606 117.481 69.3195L116.954 69.247C116.411 69.1711 115.915 68.898 115.56 68.4798C115.206 68.0616 115.018 67.5276 115.032 66.9796C115.043 66.7209 115.109 66.4674 115.225 66.2359C115.341 66.0045 115.505 65.8003 115.706 65.6368C115.907 65.4733 116.14 65.3542 116.39 65.2875C116.641 65.2207 116.902 65.2077 117.158 65.2494Z" fill="#005AFF"/>
<path d="M74.75 43.3764L70.1987 60.6355C70.0615 61.16 70.0596 61.7107 70.1932 62.2361C70.3268 62.7615 70.5916 63.2444 70.9627 63.6395C71.3338 64.0347 71.7992 64.3292 72.3151 64.4955C72.8311 64.6618 73.3809 64.6944 73.9129 64.5903L91.5675 61.1464C92.1276 61.0346 92.6477 60.7752 93.0738 60.3949C93.5 60.0145 93.8167 59.5272 93.9911 58.9833C94.1656 58.4394 94.1915 57.8588 94.066 57.3016C93.9406 56.7443 93.6685 56.2308 93.2779 55.8141L80.1877 41.989C79.7951 41.5718 79.2979 41.2674 78.7478 41.1075C78.1978 40.9476 77.6149 40.9379 77.0598 41.0795C76.5047 41.2212 75.9977 41.5089 75.5915 41.9128C75.1853 42.3168 74.8947 42.8222 74.75 43.3764Z" fill="#005AFF"/>
<path d="M73.8766 63.1996C73.5525 63.2582 73.2187 63.234 72.9065 63.1291C72.5942 63.0243 72.3135 62.8422 72.0904 62.5998C71.8603 62.3662 71.694 62.0775 71.6074 61.7613C71.5209 61.4451 71.517 61.1119 71.5961 60.7938L76.1572 43.4885C76.2363 43.1862 76.3997 42.9125 76.6285 42.6995C76.8572 42.4865 77.1418 42.343 77.4491 42.2856C77.7735 42.2277 78.1073 42.2526 78.4196 42.358C78.7318 42.4634 79.0124 42.646 79.2353 42.8887L92.3716 56.7303C92.602 56.9637 92.7687 57.2522 92.8559 57.5684C92.943 57.8846 92.9476 58.2178 92.8692 58.5363C92.7896 58.838 92.6259 59.111 92.3972 59.3234C92.1685 59.5357 91.8842 59.6788 91.5773 59.7359L73.8766 63.1996Z" fill="white"/>
<path d="M78.3059 47.5518L79.4297 47.331C79.7926 47.2725 80.1643 47.3501 80.4733 47.5491C80.7824 47.748 81.007 48.0542 81.1039 48.4087L81.506 49.9148C81.5212 49.9701 81.5333 50.0262 81.5422 50.0829L82.2574 54.8253C82.3131 55.1445 82.2405 55.4729 82.0553 55.7389C81.8702 56.0049 81.5874 56.1871 81.2687 56.2457C80.9344 56.3012 80.5912 56.2405 80.2962 56.0738C80.0012 55.9071 79.7722 55.6444 79.6472 55.3295L77.8215 50.8211C77.7993 50.7685 77.7806 50.7146 77.7654 50.6596L77.3502 49.1502C77.2962 48.9824 77.2786 48.8051 77.2986 48.6299C77.3186 48.4548 77.3758 48.286 77.4662 48.1347C77.5567 47.9834 77.6784 47.8532 77.8232 47.7527C77.968 47.6521 78.1326 47.5837 78.3059 47.5518ZM81.4862 57.5309L81.7927 57.4716C82.1177 57.4153 82.452 57.4829 82.7296 57.6611C83.0072 57.8393 83.208 58.115 83.2922 58.4339C83.3386 58.5825 83.3532 58.7391 83.3351 58.8937C83.3169 59.0482 83.2664 59.1972 83.1868 59.3309C83.1072 59.4646 83.0003 59.58 82.8731 59.6697C82.7459 59.7593 82.6012 59.8211 82.4485 59.8511L82.142 59.9104C81.8174 59.9668 81.4835 59.8997 81.206 59.7222C80.9284 59.5447 80.7274 59.2697 80.6425 58.9514C80.5961 58.8026 80.5814 58.6458 80.5996 58.491C80.6177 58.3363 80.6682 58.1871 80.7478 58.0531C80.8273 57.9191 80.9342 57.8034 81.0614 57.7135C81.1886 57.6235 81.3334 57.5613 81.4862 57.5309Z" fill="#005AFF"/>
<path d="M159.401 47.2458L156.844 48.0763L158.9 50.5085C159.484 50.0027 159.989 49.413 160.4 48.7585C160.506 48.5732 160.535 48.3537 160.48 48.1472C160.426 47.9407 160.293 47.7637 160.109 47.6545L159.401 47.2458Z" fill="#7F3E3B"/>
<path d="M155.667 50.0867L157.199 51.9488L158.903 50.5218L156.844 48.0896L155.667 50.0867Z" fill="#7F3E3B"/>
<path d="M160.228 27.3669C160.851 29.0807 161.424 30.7944 161.968 32.5312C162.512 34.2679 163.013 36.0113 163.451 37.8371L163.606 38.5391L163.679 38.9049L163.715 39.0894V39.1356V39.2048L163.735 39.3432C163.807 39.9702 163.776 40.6048 163.642 41.2217C163.432 42.2115 163.114 43.1752 162.693 44.0954C161.925 45.815 160.98 47.4497 159.872 48.9729L158.162 48.0271C158.768 46.3793 159.368 44.6952 159.81 43.0639C160.028 42.2995 160.18 41.5178 160.264 40.7273C160.292 40.4544 160.279 40.179 160.225 39.91L160.083 39.3959L159.899 38.7862C159.381 37.1384 158.791 35.4412 158.208 33.7538C157.625 32.0665 157.041 30.3627 156.481 28.672L160.228 27.3669Z" fill="#7F3E3B"/>
<path d="M145.994 17.1701C146.037 17.3777 145.965 17.5688 145.833 17.6051C145.701 17.6413 145.556 17.4963 145.503 17.2755C145.451 17.0547 145.53 16.8767 145.665 16.8438C145.8 16.8108 145.952 16.9657 145.994 17.1701Z" fill="#263238"/>
<path d="M145.985 17.5657C145.873 18.2559 145.671 18.9285 145.385 19.5661C145.547 19.6315 145.721 19.6601 145.896 19.6498C146.07 19.6396 146.24 19.5907 146.393 19.5068L145.985 17.5657Z" fill="#630F0F"/>
<path d="M145.441 15.9374C145.421 15.9375 145.401 15.9327 145.383 15.9235C145.365 15.9143 145.35 15.901 145.339 15.8847C145.329 15.8716 145.322 15.8567 145.319 15.8409C145.315 15.8251 145.315 15.8088 145.317 15.7928C145.32 15.7769 145.326 15.7616 145.335 15.748C145.344 15.7343 145.355 15.7226 145.368 15.7133C145.534 15.6108 145.722 15.5495 145.916 15.5346C146.111 15.5197 146.306 15.5516 146.485 15.6277C146.501 15.6338 146.514 15.6429 146.526 15.6543C146.537 15.6658 146.546 15.6795 146.552 15.6945C146.559 15.7096 146.562 15.7257 146.561 15.7419C146.561 15.7582 146.558 15.7742 146.551 15.7891C146.539 15.8196 146.515 15.8439 146.485 15.8568C146.455 15.8698 146.42 15.8703 146.39 15.8584C146.249 15.7964 146.096 15.7691 145.943 15.7788C145.79 15.7886 145.641 15.8351 145.51 15.9144C145.49 15.9298 145.466 15.938 145.441 15.9374Z" fill="#263238"/>
<path d="M153.057 17.823C153.288 20.2156 152.948 22.5324 153.482 24.612C153.482 24.612 152.889 26.5432 149.353 26.5432C145.464 26.5432 147.57 24.612 147.57 24.612C149.712 24.1077 149.715 22.5324 149.405 21.0527L153.057 17.823Z" fill="#7F3E3B"/>
<path d="M154.237 25.2741C154.54 24.6644 154.741 23.7977 154.115 23.5801C153.426 23.3396 149.745 23.2506 148.41 23.712C148.054 23.806 147.749 24.0355 147.56 24.3514C147.371 24.6672 147.313 25.0445 147.398 25.4026L154.237 25.2741Z" fill="#263238"/>
<path d="M162.182 112.067C162.425 112.004 162.66 111.914 162.881 111.797C162.893 111.791 162.903 111.782 162.91 111.771C162.917 111.76 162.921 111.747 162.921 111.734C162.92 111.721 162.916 111.707 162.907 111.697C162.899 111.686 162.888 111.678 162.875 111.675C162.759 111.635 161.738 111.296 161.467 111.526C161.438 111.552 161.416 111.585 161.404 111.622C161.392 111.66 161.39 111.699 161.398 111.737C161.403 111.806 161.426 111.873 161.464 111.93C161.502 111.988 161.554 112.035 161.616 112.067C161.799 112.131 161.999 112.131 162.182 112.067ZM162.67 111.737C162.222 111.942 161.859 112.011 161.682 111.919C161.64 111.898 161.605 111.868 161.58 111.829C161.554 111.791 161.539 111.747 161.536 111.701C161.531 111.686 161.531 111.67 161.535 111.655C161.539 111.64 161.548 111.626 161.56 111.615C161.695 111.51 162.248 111.625 162.67 111.751V111.737Z" fill="#005AFF"/>
<path d="M162.868 111.803C162.877 111.801 162.885 111.797 162.893 111.792C162.9 111.786 162.906 111.779 162.911 111.771C162.915 111.763 162.918 111.754 162.919 111.745C162.921 111.736 162.92 111.727 162.917 111.718C162.917 111.685 162.65 110.9 162.258 110.729C162.212 110.705 162.162 110.691 162.11 110.687C162.059 110.684 162.007 110.691 161.958 110.709C161.909 110.721 161.865 110.749 161.834 110.789C161.804 110.83 161.788 110.88 161.79 110.93C161.79 111.26 162.502 111.728 162.825 111.817L162.868 111.803ZM162.044 110.815C162.1 110.802 162.158 110.809 162.209 110.835C162.461 111.039 162.646 111.315 162.739 111.626C162.41 111.477 161.942 111.102 161.935 110.91C161.935 110.894 161.935 110.854 162.014 110.821L162.044 110.815Z" fill="#005AFF"/>
<path d="M144.182 114.081C144.432 114.074 144.681 114.04 144.923 113.979C144.936 113.975 144.948 113.968 144.957 113.958C144.967 113.948 144.973 113.936 144.976 113.923C144.977 113.909 144.975 113.896 144.969 113.884C144.963 113.871 144.954 113.861 144.943 113.854C144.841 113.791 143.925 113.227 143.608 113.389C143.573 113.407 143.544 113.434 143.523 113.468C143.503 113.502 143.492 113.541 143.493 113.58C143.486 113.646 143.495 113.713 143.519 113.775C143.543 113.837 143.582 113.892 143.631 113.936C143.794 114.043 143.987 114.094 144.182 114.081ZM144.729 113.883C144.248 113.979 143.875 113.962 143.72 113.83C143.686 113.801 143.659 113.763 143.643 113.72C143.627 113.678 143.622 113.632 143.628 113.587C143.628 113.534 143.651 113.517 143.671 113.507C143.832 113.425 144.356 113.666 144.729 113.883Z" fill="#005AFF"/>
<path d="M144.907 113.979C144.92 113.982 144.933 113.982 144.946 113.979C144.956 113.972 144.964 113.962 144.969 113.951C144.974 113.94 144.977 113.928 144.976 113.916C144.976 113.883 144.904 113.062 144.574 112.792C144.535 112.758 144.49 112.733 144.44 112.718C144.391 112.703 144.338 112.699 144.287 112.707C144.237 112.706 144.188 112.724 144.149 112.755C144.11 112.787 144.083 112.832 144.073 112.881C144.014 113.211 144.581 113.82 144.877 113.982L144.907 113.979ZM144.333 112.828C144.39 112.827 144.445 112.847 144.488 112.885C144.686 113.142 144.8 113.454 144.818 113.778C144.525 113.554 144.159 113.086 144.198 112.898C144.198 112.898 144.198 112.838 144.297 112.828H144.327H144.333Z" fill="#005AFF"/>
<path d="M147.968 113.877H145.365L145.339 107.852H147.942L147.968 113.877Z" fill="#7F3E3B"/>
<path d="M166.091 111.649L163.586 112.107L161.79 106.178L164.295 105.72L166.091 111.649Z" fill="#7F3E3B"/>
<path d="M163.112 111.441L165.956 110.782C166.005 110.77 166.057 110.775 166.103 110.797C166.149 110.82 166.185 110.857 166.206 110.904L167.149 113.056C167.172 113.109 167.182 113.168 167.18 113.226C167.178 113.284 167.163 113.341 167.136 113.393C167.109 113.445 167.071 113.49 167.025 113.526C166.979 113.562 166.926 113.587 166.869 113.599C165.88 113.817 165.379 113.87 164.127 114.166C163.359 114.348 161.79 114.806 160.726 115.056C159.661 115.307 159.319 114.278 159.737 114.067C161.602 113.174 162.222 112.42 162.733 111.695C162.825 111.568 162.959 111.478 163.112 111.441Z" fill="#263238"/>
<path d="M145.395 113.573H148.235C148.286 113.573 148.336 113.591 148.375 113.623C148.414 113.656 148.44 113.701 148.45 113.751L148.875 116.058C148.885 116.115 148.882 116.174 148.867 116.23C148.852 116.285 148.825 116.337 148.788 116.381C148.75 116.425 148.703 116.461 148.651 116.485C148.598 116.509 148.54 116.52 148.483 116.52C147.458 116.503 145.981 116.444 144.693 116.444C143.187 116.444 142.649 116.526 140.883 116.526C139.815 116.526 139.565 115.445 140.013 115.35C142.063 114.901 142.959 114.855 144.762 113.771C144.951 113.648 145.17 113.58 145.395 113.573Z" fill="#263238"/>
<path d="M159.282 25.2839C161.711 26.9943 162.443 31.3973 162.443 31.3973L156.939 34.1854C156.069 32.4452 155.395 30.6137 154.929 28.7245C154.339 26.121 157.555 24.0711 159.282 25.2839Z" fill="#005AFF"/>
<path opacity="0.2" d="M156.53 28.0918L158.699 33.2857L156.939 34.1854C156.394 33.0827 155.918 31.9468 155.515 30.7843L156.53 28.0918Z" fill="black"/>
<path d="M143.098 36.7C143.117 39.6034 143.292 43.2154 143.724 47.6974H157.634C157.803 45.6541 156.949 36.0211 159.022 26.3748C159.059 26.205 159.06 26.0294 159.026 25.8589C158.993 25.6885 158.925 25.5267 158.826 25.3835C158.728 25.2403 158.601 25.1187 158.454 25.0262C158.307 24.9337 158.142 24.8723 157.971 24.8457C156.879 24.671 155.779 24.5533 154.675 24.493C152.705 24.3793 150.73 24.3793 148.759 24.493C147.964 24.5619 147.174 24.6719 146.39 24.8226C145.807 24.941 145.27 25.2216 144.839 25.6321C144.409 26.0425 144.103 26.5662 143.958 27.1427C143.525 28.9201 143.27 30.7361 143.196 32.564C143.134 33.7504 143.088 35.1247 143.098 36.7Z" fill="#005AFF"/>
<path opacity="0.2" d="M147.487 31.2488C146.568 31.908 144.808 32.2375 143.203 32.3726C143.229 31.9475 143.262 31.5454 143.299 31.1665C143.73 30.9391 144.146 30.7314 144.538 30.5403L147.487 31.2488Z" fill="black"/>
<g opacity="0.2">
<path d="M145.339 107.852L145.355 111.2H147.955L147.942 107.852H145.339Z" fill="black"/>
<path d="M164.295 105.72L161.79 106.181L162.72 109.236L165.224 108.775L164.295 105.72Z" fill="black"/>
</g>
<path d="M152.691 15.0214C153.07 17.5821 153.423 19.0585 152.434 20.6734C152.12 21.1985 151.668 21.6278 151.128 21.9148C150.588 22.2018 149.979 22.3355 149.368 22.3016C148.757 22.2677 148.167 22.0673 147.662 21.7222C147.157 21.3772 146.756 20.9005 146.502 20.3438C145.484 18.2148 145.032 14.3821 147.263 12.7639C147.736 12.4021 148.297 12.1711 148.887 12.0943C149.478 12.0174 150.079 12.0974 150.629 12.3262C151.179 12.555 151.659 12.9244 152.021 13.3975C152.383 13.8706 152.614 14.4307 152.691 15.0214Z" fill="#7F3E3B"/>
<path d="M147.365 16.8934C146.4 16.4682 146.492 14.9489 146.785 14.3096C145.668 14.6919 144.053 14.9127 143.763 13.7757C143.473 12.6387 144.459 12.2762 143.856 11.304C143.252 10.3318 145.174 9.27391 146.07 10.6449C146.967 12.0159 149.181 11.4029 150.612 10.0945C151.653 9.14208 153.176 10.3713 152.572 11.6138C152.572 11.6138 155.703 11.4128 155.08 13.5384C154.458 15.6641 153.578 15.7366 153.779 17.2493C153.917 18.2709 154.036 20.3471 152.81 20.6405C151.327 20.9799 147.629 19.665 147.365 16.8934Z" fill="#263238"/>
<path opacity="0.2" d="M147.346 19.6649C147.062 19.8692 146.769 20.0867 146.469 20.324L146.485 20.3603C146.778 20.9779 147.247 21.495 147.833 21.8466C148.021 21.6653 148.127 21.0556 148.476 21.0655C149.521 21.0952 151.541 20.6569 151.877 19.4771L147.346 19.6649Z" fill="black"/>
<path d="M148.16 16.8571C148.232 17.4265 148.145 18.0048 147.909 18.528C147.613 19.1311 147.145 18.7455 146.963 18.004C146.799 17.3449 146.756 16.2211 147.184 15.8915C147.613 15.562 148.077 16.1057 148.16 16.8571Z" fill="#7F3E3B"/>
<path d="M148.661 47.7073C148.661 47.7073 150.846 67.5864 152.177 75.0345C153.637 83.1911 161.197 108.791 161.197 108.791L165.857 107.803C165.857 107.803 160.653 83.8502 159.941 75.776C159.18 67.0096 157.634 47.7073 157.634 47.7073H148.661Z" fill="#005AFF"/>
<path opacity="0.3" d="M148.661 47.7073C148.661 47.7073 150.846 67.5864 152.177 75.0345C153.637 83.1911 161.197 108.791 161.197 108.791L165.857 107.803C165.857 107.803 160.653 83.8502 159.941 75.776C159.216 67.4447 159.216 67.4611 157.634 47.7073H148.661Z" fill="black"/>
<path d="M160.156 107.226C160.136 107.226 160.947 108.926 160.947 108.926L166.203 107.803L165.831 106.214L160.156 107.226Z" fill="#263238"/>
<path opacity="0.2" d="M150.252 54.7927C153.64 55.4518 152.787 68.1893 152.124 74.7377C151.32 70.1239 150.223 61.2026 149.488 54.885C149.724 54.7673 149.994 54.7347 150.252 54.7927Z" fill="black"/>
<path d="M143.724 47.7074C143.724 47.7074 142.616 67.1515 142.593 75.0906C142.567 83.3296 144.406 110.354 144.406 110.354H148.815C148.815 110.354 150.002 83.8207 150.509 75.7168C151.063 66.8812 152.872 47.7041 152.872 47.7041L143.724 47.7074Z" fill="#005AFF"/>
<path opacity="0.3" d="M143.724 47.7074C143.724 47.7074 142.616 67.1515 142.593 75.0906C142.567 83.3296 144.406 110.354 144.406 110.354H148.815C148.815 110.354 150.002 83.8207 150.509 75.7168C151.063 66.8812 152.872 47.7041 152.872 47.7041L143.724 47.7074Z" fill="black"/>
<path d="M143.628 108.604C143.608 108.604 143.806 110.433 143.806 110.433H149.165L149.372 108.785L143.628 108.604Z" fill="#263238"/>
<path d="M149.237 29.3638C148.71 29.4132 148.265 29.4429 147.781 29.4561C147.296 29.4693 146.835 29.4791 146.364 29.4759C145.414 29.4759 144.465 29.4165 143.51 29.3111C142.539 29.2111 141.577 29.0459 140.629 28.8167C139.625 28.5808 138.65 28.2349 137.722 27.7852L137.614 27.7292C137.41 27.6298 137.228 27.4912 137.079 27.3212C136.929 27.1513 136.814 26.9534 136.741 26.739C136.668 26.5245 136.639 26.2978 136.654 26.0718C136.669 25.8458 136.729 25.6251 136.829 25.4223C136.875 25.3288 136.929 25.2394 136.991 25.1553C137.384 24.634 137.832 24.1557 138.326 23.7283C138.77 23.3328 139.215 22.9802 139.664 22.6441C140.56 21.9685 141.476 21.372 142.396 20.7919C143.315 20.2119 144.254 19.6747 145.2 19.1441C146.146 18.6135 147.098 18.1357 148.087 17.6776C148.304 17.5907 148.546 17.5837 148.768 17.6579C148.99 17.7321 149.178 17.8827 149.299 18.0828C149.421 18.2829 149.467 18.5196 149.431 18.7507C149.394 18.9819 149.276 19.1925 149.099 19.3452C148.272 19.9812 147.418 20.6107 146.591 21.2566C145.764 21.9025 144.943 22.5386 144.122 23.1911C143.302 23.8437 142.521 24.5094 141.773 25.1685C141.4 25.4981 141.041 25.8276 140.721 26.1868C140.434 26.4789 140.174 26.7966 139.944 27.136L139.215 24.4995C139.933 24.7659 140.675 24.9634 141.43 25.0894C142.238 25.2267 143.054 25.3213 143.872 25.3728C144.706 25.4256 145.549 25.4552 146.396 25.4552C146.822 25.4552 147.247 25.4552 147.669 25.4552C148.09 25.4552 148.535 25.4223 148.904 25.4025H148.947C149.446 25.402 149.926 25.5897 150.292 25.9282C150.658 26.2666 150.882 26.7308 150.921 27.2278C150.959 27.7248 150.808 28.2179 150.499 28.6085C150.189 28.999 149.743 29.2582 149.25 29.3341L149.237 29.3638Z" fill="#7F3E3B"/>
<path d="M151.083 17.1635L149.435 17.5294C149.435 17.5294 147.23 17.2558 146.726 18.9168L148.044 20.0307L150.061 20.3603C150.38 20.4099 150.707 20.3568 150.994 20.2087L151.508 19.9417C151.625 19.8816 151.725 19.793 151.798 19.6842C151.872 19.5753 151.917 19.4497 151.93 19.3189L152.052 18.0006C152.064 17.8758 152.046 17.7499 151.999 17.6334C151.953 17.517 151.879 17.4134 151.784 17.3315C151.689 17.2495 151.576 17.1914 151.454 17.1622C151.332 17.133 151.205 17.1334 151.083 17.1635Z" fill="#7F3E3B"/>
<path d="M147.866 31.2885C145.095 32.0597 141.934 31.0974 141.934 31.0974L143.098 24.8918C143.098 24.8918 145.849 24.6479 147.57 24.6116C151.996 24.5062 152.862 29.9044 147.866 31.2885Z" fill="#005AFF"/>
</svg>
