<svg width="200" height="47" viewBox="0 0 200 47" fill="none" xmlns="http://www.w3.org/2000/svg">
<path d="M46.4695 45.9222C36.3784 45.9222 27.4674 39.386 24.505 29.802L15.5087 0.760742H32.4868L46.4695 45.9222ZM9.8302 45.9222C14.5369 45.9222 18.3525 42.1304 18.3525 37.4569C18.3525 32.7833 14.5369 28.9866 9.8302 28.9866C5.12349 28.9866 1.30792 32.7786 1.30792 37.4522C1.30792 42.1256 5.12349 45.9175 9.83007 45.9175L9.8302 45.9222ZM69.4532 30.608L68.3392 27.6077H62.0162L60.926 30.608H57.2668L63.5188 14.6915H66.7703L73.2071 30.608H69.4532ZM65.1777 18.9005L63.0874 24.6073H67.2728L65.1824 18.9005H65.1777ZM94.3282 32.3331H93.3043C91.7165 32.3331 90.1617 31.6932 89.0432 30.295L88.9389 30.1764C87.8487 30.6979 86.5737 30.9728 85.2323 30.9728C80.3644 30.9728 76.729 27.3799 76.729 22.6496C76.729 17.9191 80.3693 14.35 85.2323 14.35C90.0954 14.35 93.6883 17.9191 93.6883 22.6496C93.6883 25.0811 92.7356 27.1951 91.1667 28.6977L94.3282 32.3379V32.3331ZM85.2323 27.7164C85.7301 27.7164 86.2087 27.6501 86.64 27.5127L83.4785 23.8535H87.0003L88.9342 26.1049C89.7305 25.2186 90.1855 24.0147 90.1855 22.6496C90.1855 19.763 88.0715 17.6015 85.2275 17.6015C82.3836 17.6015 80.227 19.782 80.227 22.6496C80.227 25.5171 82.3885 27.7213 85.2275 27.7213L85.2323 27.7164ZM105.983 30.9683C102.21 30.9683 99.3902 28.3519 99.3902 24.6262V14.6915H102.846V24.4699C102.846 26.4464 104.139 27.7214 105.983 27.7214C107.827 27.7214 109.097 26.4464 109.097 24.4699V14.6915H112.553V24.6262C112.553 28.3566 109.733 30.9683 105.983 30.9683ZM128.891 30.608L127.777 27.6077H121.454L120.364 30.608H116.7L122.957 14.6915H126.208L132.64 30.608H128.891ZM124.616 18.9005L122.521 24.6073H126.706L124.616 18.9005ZM147.619 14.6915H151.008V30.608H148.121L140.911 20.6732V30.608H137.546V14.6915H140.642L147.619 24.3987V14.6915ZM164.985 30.9681C160.122 30.9681 156.482 27.3754 156.482 22.6449C156.482 17.9146 160.122 14.3454 164.985 14.3454C169.848 14.3454 173.446 17.9146 173.446 22.6449C173.446 27.3754 169.83 30.9681 164.985 30.9681ZM164.985 27.7166C167.83 27.7166 169.944 25.5363 169.944 22.6449C169.944 19.7536 167.83 17.597 164.985 17.597C162.141 17.597 159.985 19.7774 159.985 22.6449C159.985 25.5126 162.146 27.7166 164.985 27.7166ZM196.373 14.6909H199.965L195.055 30.6075H191.984L188.438 21.6966L184.983 30.6075H181.911L176.911 14.6909H180.546L183.685 25.2846L187.87 14.8711H189.031L193.302 25.2609L196.373 14.6862V14.6909Z" fill="white"/>
</svg>
