<svg width="518" height="500" viewBox="0 0 518 500" fill="none" xmlns="http://www.w3.org/2000/svg">
<g clip-path="url(#clip0_413_363)">
<path d="M196.96 41.39H62.3099C39.4619 41.39 20.9399 59.912 20.9399 82.76V426.84C20.9399 449.688 39.4619 468.21 62.3099 468.21H196.96C219.808 468.21 238.33 449.688 238.33 426.84V82.76C238.33 59.912 219.808 41.39 196.96 41.39Z" fill="#E0E0E0"/>
<path d="M197 468.21L200.14 468.02C201.426 467.941 202.705 467.777 203.97 467.53L205.16 467.35C205.57 467.28 205.98 467.15 206.41 467.04L209.18 466.33C213.942 464.805 218.4 462.456 222.35 459.39L223.25 458.71L224.09 457.95L225.83 456.37C226.43 455.84 226.93 455.19 227.49 454.6C228.05 454.01 228.65 453.4 229.15 452.71C230.241 451.332 231.243 449.886 232.15 448.38C232.59 447.6 233.15 446.85 233.53 446C233.91 445.15 234.34 444.3 234.76 443.44C235.18 442.58 235.45 441.63 235.76 440.72L236.27 439.32C236.44 438.85 236.53 438.32 236.67 437.86C236.91 436.86 237.2 435.86 237.41 434.86C237.62 433.86 237.72 432.79 237.88 431.74C238.32 427.51 238.16 423.01 238.19 418.33C238.19 408.963 238.19 398.8 238.19 387.84C238.19 365.96 238.19 341.05 238.19 313.51C238.19 258.44 238.19 192.86 238.13 120.05V85.41C238.13 83.06 238.04 80.73 237.89 78.41C237.374 73.7113 236.058 69.1355 234 64.88C229.807 56.1743 222.674 49.2292 213.86 45.27C209.418 43.2907 204.662 42.1093 199.81 41.78C197.38 41.61 194.92 41.64 192.45 41.64H62.34C51.9101 41.6354 41.8691 45.5992 34.2547 52.7269C26.6404 59.8547 22.0231 69.6125 21.34 80.02C21.16 82.55 21.21 85.11 21.2 87.66V140.44C21.2 180.07 21.2 218.29 21.2 254.7C21.2 291.11 21.2 325.7 21.2 358.1C21.2 374.287 21.2 389.907 21.2 404.96C21.2 412.467 21.2 419.827 21.2 427.04C21.2 427.94 21.29 428.83 21.33 429.72L21.4 431.06L21.6 432.37C21.73 433.25 21.87 434.12 22 435C22.13 435.88 22.43 436.7 22.64 437.55C23.0844 439.25 23.6355 440.92 24.29 442.55C24.6 443.36 25.02 444.12 25.38 444.9C25.7273 445.686 26.1213 446.451 26.56 447.19C29.8789 453.033 34.5794 457.974 40.25 461.58C45.6137 464.984 51.6854 467.115 58 467.81C59.54 467.9 61.07 467.99 62.59 468.04H93L149.12 468.09H184.58L149.12 468.14H93H62.6C61.07 468.09 59.53 468 57.97 467.91C51.5675 467.219 45.4092 465.067 39.97 461.62C34.2494 457.982 29.5049 453.001 26.15 447.11C25.7281 446.428 25.3442 445.724 25 445C24.63 444.21 24.21 443.44 23.89 442.62C23.2292 440.991 22.6747 439.321 22.23 437.62C22.01 436.76 21.77 435.91 21.58 435.04C21.39 434.17 21.31 433.28 21.17 432.39L20.97 431.06L20.9 429.72C20.85 428.82 20.81 427.92 20.76 427.02C20.76 419.813 20.76 412.45 20.76 404.93C20.76 389.897 20.76 374.277 20.76 358.07C20.76 325.69 20.76 291.07 20.76 254.67C20.76 218.27 20.76 180.04 20.76 140.41C20.76 130.503 20.76 120.503 20.76 110.41V87.67C20.76 85.12 20.76 82.57 20.9 79.99C21.6002 69.4542 26.2788 59.5783 33.9881 52.3629C41.6974 45.1476 51.8609 41.1321 62.42 41.13H192.4C194.87 41.13 197.32 41.13 199.79 41.27C204.697 41.6124 209.506 42.8105 214 44.81C220.615 47.8083 226.335 52.4763 230.599 58.3552C234.863 64.234 237.524 71.1213 238.32 78.34C238.47 80.7 238.6 83.07 238.56 85.41V92.41C238.56 101.743 238.56 110.957 238.56 120.05C238.56 192.86 238.56 258.44 238.51 313.51C238.51 341.05 238.51 365.96 238.51 387.84C238.51 398.78 238.51 408.943 238.51 418.33C238.51 423.01 238.63 427.5 238.17 431.77C238.01 432.83 237.85 433.87 237.69 434.91C237.53 435.95 237.19 436.91 236.95 437.91C236.81 438.4 236.71 438.91 236.55 439.37C236.39 439.83 236.2 440.31 236.03 440.78C235.66 441.7 235.4 442.65 234.96 443.51L233.72 446.08C233.33 446.93 232.78 447.69 232.33 448.47C231.423 449.979 230.421 451.428 229.33 452.81C228.82 453.5 228.2 454.08 227.66 454.71C227.12 455.34 226.59 455.95 225.98 456.48L224.24 458.06L223.39 458.83L222.49 459.5C218.514 462.562 214.033 464.904 209.25 466.42L206.47 467.12C206.059 467.241 205.642 467.341 205.22 467.42L204.03 467.6C202.762 467.838 201.479 467.992 200.19 468.06L197 468.21Z" fill="#263238"/>
<path d="M193.48 51.65H64.3201C45.8573 51.65 30.8901 66.6171 30.8901 85.08V421.29C30.8901 439.753 45.8573 454.72 64.3201 454.72H193.48C211.943 454.72 226.91 439.753 226.91 421.29V85.08C226.91 66.6171 211.943 51.65 193.48 51.65Z" fill="white"/>
<g opacity="0.3">
<path d="M238.33 432.3L216.86 377.43C216.737 377.095 216.696 376.735 216.74 376.38C216.785 376.026 216.915 375.687 217.117 375.393C217.32 375.099 217.591 374.858 217.906 374.691C218.222 374.523 218.573 374.434 218.93 374.43H238.33V432.3Z" fill="black"/>
</g>
<path d="M200.1 155.12C201.417 155.027 202.722 154.812 204 154.48C207.665 153.425 210.768 150.972 212.64 147.65C213.283 146.529 213.768 145.324 214.08 144.07C214.249 143.413 214.373 142.744 214.45 142.07C214.45 141.36 214.55 140.65 214.53 139.89C214.53 138.38 214.53 136.8 214.53 135.17C214.53 133.54 214.53 131.81 214.44 130.1C214.041 126.394 212.228 122.984 209.38 120.58C207.847 119.275 206.049 118.32 204.11 117.78C202.042 117.266 199.906 117.077 197.78 117.22L59.21 117.37C55.9556 117.369 52.8 118.488 50.2726 120.538C47.7453 122.588 46.0001 125.445 45.33 128.63C45.0678 130.216 44.9672 131.824 45.03 133.43V138.32C44.9574 139.904 45.0378 141.491 45.27 143.06C45.5605 144.579 46.0868 146.044 46.83 147.4C48.3501 150.062 50.6847 152.165 53.49 153.4C54.8707 153.997 56.334 154.382 57.83 154.54C59.3 154.66 60.89 154.6 62.41 154.62H80.41L142.71 154.74L184.71 154.9L196.12 155L184.71 155.1L142.71 155.26L80.41 155.37H62.41C60.87 155.37 59.36 155.37 57.74 155.3C56.1348 155.133 54.5639 154.725 53.08 154.09C50.0661 152.752 47.5628 150.48 45.94 147.61C45.1365 146.156 44.5694 144.583 44.26 142.95L44.08 141.71L44.01 140.46C44.01 139.64 44.01 138.84 44.01 138.03V133.14C43.94 131.467 44.0472 129.791 44.33 128.14C45.0464 124.722 46.9176 121.654 49.6291 119.452C52.3406 117.251 55.7272 116.049 59.22 116.05L197.79 116.2C198.9 116.2 199.98 116.2 201.09 116.26C202.184 116.329 203.267 116.516 204.32 116.82C206.348 117.412 208.224 118.436 209.82 119.82C212.815 122.403 214.675 126.059 215 130C215.12 131.81 215 133.48 215.05 135.13C215.1 136.78 215.05 138.34 215.05 139.85C215.123 142.366 214.561 144.861 213.416 147.103C212.271 149.345 210.581 151.263 208.5 152.68C207.149 153.59 205.655 154.266 204.08 154.68L203.17 154.9C202.89 154.9 202.62 154.98 202.38 155.01C201.967 155.082 201.549 155.122 201.13 155.13H200.37C200.28 155.145 200.188 155.142 200.1 155.12Z" fill="#4F60FF"/>
<path d="M180.86 83.81C180.86 83.81 180.53 83.81 179.99 84.02C179.221 84.251 178.548 84.7246 178.07 85.37C177.729 85.8386 177.51 86.3843 177.431 86.9584C177.353 87.5325 177.418 88.117 177.62 88.66C177.87 89.3187 178.314 89.8859 178.893 90.2861C179.473 90.6864 180.161 90.9008 180.865 90.9008C181.569 90.9008 182.257 90.6864 182.837 90.2861C183.416 89.8859 183.86 89.3187 184.11 88.66C184.311 88.1162 184.374 87.5312 184.294 86.9571C184.214 86.383 183.992 85.8377 183.65 85.37C183.181 84.7162 182.51 84.2349 181.74 84C181.19 83.84 180.86 83.83 180.86 83.79C181.164 83.703 181.486 83.703 181.79 83.79C182.642 83.9638 183.404 84.4353 183.94 85.12C184.347 85.6305 184.617 86.2361 184.726 86.8798C184.834 87.5236 184.777 88.1843 184.56 88.8C184.289 89.5637 183.789 90.2248 183.127 90.6924C182.466 91.1599 181.675 91.411 180.865 91.411C180.055 91.411 179.264 91.1599 178.603 90.6924C177.941 90.2248 177.441 89.5637 177.17 88.8C176.949 88.1856 176.888 87.5247 176.995 86.8804C177.102 86.2362 177.372 85.6301 177.78 85.12C178.32 84.4347 179.085 83.9633 179.94 83.79C180.242 83.7098 180.561 83.7167 180.86 83.81Z" fill="#4F60FF"/>
<path d="M191.44 83.81C191.44 83.81 191.11 83.81 190.56 84.02C189.793 84.2496 189.122 84.7237 188.65 85.37C188.266 85.8865 188.033 86.4996 187.978 87.1408C187.922 87.782 188.046 88.426 188.336 89.0008C188.625 89.5756 189.069 90.0585 189.617 90.3957C190.165 90.7329 190.796 90.9109 191.44 90.91C192.144 90.9069 192.831 90.6901 193.41 90.2884C193.988 89.8866 194.431 89.3188 194.68 88.66C194.882 88.1171 194.947 87.5325 194.869 86.9584C194.79 86.3843 194.571 85.8386 194.23 85.37C193.756 84.7171 193.082 84.2363 192.31 84C191.77 83.84 191.44 83.83 191.44 83.79C191.74 83.7033 192.059 83.7033 192.36 83.79C193.215 83.9633 193.98 84.4347 194.52 85.12C194.928 85.6301 195.198 86.2362 195.305 86.8805C195.411 87.5247 195.351 88.1856 195.13 88.8C194.859 89.5637 194.359 90.2248 193.697 90.6924C193.035 91.16 192.245 91.411 191.435 91.411C190.625 91.411 189.834 91.16 189.173 90.6924C188.511 90.2248 188.01 89.5637 187.74 88.8C187.523 88.1843 187.466 87.5236 187.574 86.8798C187.683 86.2361 187.953 85.6305 188.36 85.12C188.896 84.4354 189.658 83.9639 190.51 83.79C190.816 83.7095 191.138 83.7164 191.44 83.81Z" fill="#4F60FF"/>
<path d="M202 83.81C202 83.81 201.68 83.81 201.13 84.02C200.363 84.2496 199.692 84.7237 199.22 85.37C198.836 85.8861 198.604 86.4988 198.548 87.1395C198.492 87.7802 198.616 88.4238 198.905 88.9985C199.193 89.5731 199.636 90.0561 200.184 90.3936C200.731 90.7312 201.362 90.9099 202.005 90.9099C202.648 90.9099 203.279 90.7312 203.826 90.3936C204.373 90.0561 204.816 89.5731 205.105 88.9985C205.394 88.4238 205.518 87.7802 205.462 87.1395C205.406 86.4988 205.174 85.8861 204.79 85.37C204.323 84.718 203.656 84.2368 202.89 84C202.34 83.84 202.01 83.83 202.01 83.79C202.314 83.703 202.636 83.703 202.94 83.79C203.794 83.9657 204.559 84.4366 205.1 85.12C205.505 85.6314 205.774 86.2374 205.88 86.8811C205.987 87.5249 205.928 88.1851 205.71 88.8C205.439 89.5637 204.939 90.2248 204.277 90.6924C203.615 91.1599 202.825 91.411 202.015 91.411C201.205 91.411 200.414 91.1599 199.753 90.6924C199.091 90.2248 198.59 89.5637 198.32 88.8C198.101 88.1851 198.043 87.5249 198.149 86.8811C198.256 86.2374 198.525 85.6314 198.93 85.12C199.471 84.4366 200.236 83.9657 201.09 83.79C201.389 83.7112 201.704 83.7181 202 83.81Z" fill="#4F60FF"/>
<path d="M55.7799 82L51.3299 86.58C51.0973 86.8158 50.9668 87.1337 50.9668 87.465C50.9668 87.7963 51.0973 88.1142 51.3299 88.35L55.7799 92.03C56.0193 92.2557 56.3359 92.3814 56.6649 92.3814C56.994 92.3814 57.3105 92.2557 57.5499 92.03C57.7802 91.793 57.9091 91.4755 57.9091 91.145C57.9091 90.8145 57.7802 90.497 57.5499 90.26L53.0899 86.58V88.35L57.5499 83.77C57.7846 83.5353 57.9165 83.2169 57.9165 82.885C57.9165 82.5531 57.7846 82.2347 57.5499 82C57.3152 81.7653 56.9969 81.6334 56.6649 81.6334C56.333 81.6334 56.0147 81.7653 55.7799 82Z" fill="#4F60FF"/>
<path d="M67.4601 135.55C67.4595 136.232 67.2491 136.897 66.8573 137.455C66.4655 138.013 65.9115 138.437 65.2704 138.669C64.6294 138.901 63.9324 138.93 63.2742 138.752C62.616 138.574 62.0285 138.198 61.5916 137.675C61.1546 137.151 60.8894 136.506 60.832 135.827C60.7745 135.147 60.9276 134.467 61.2704 133.878C61.6133 133.288 62.1293 132.819 62.7482 132.533C63.3672 132.247 64.0592 132.159 64.7301 132.28C65.4938 132.424 66.1838 132.829 66.6818 133.425C67.1798 134.022 67.455 134.773 67.4601 135.55C67.4794 135.702 67.5535 135.842 67.6686 135.943C67.7837 136.045 67.9318 136.101 68.0851 136.101C68.2385 136.101 68.3866 136.045 68.5017 135.943C68.6167 135.842 68.6908 135.702 68.7101 135.55C68.6993 134.617 68.4071 133.71 67.8718 132.946C67.3365 132.182 66.5831 131.598 65.7101 131.27C64.8243 130.944 63.8592 130.9 62.9475 131.144C62.0357 131.388 61.2219 131.909 60.6181 132.635C60.0142 133.36 59.6498 134.255 59.5749 135.196C59.5001 136.137 59.7185 137.078 60.2001 137.89C60.7115 138.752 61.4919 139.421 62.4212 139.796C63.3504 140.171 64.3771 140.23 65.3431 139.964C66.3092 139.698 67.161 139.122 67.7676 138.324C68.3741 137.527 68.7018 136.552 68.7001 135.55C68.6739 135.405 68.5975 135.273 68.4841 135.178C68.3708 135.084 68.2278 135.032 68.0801 135.032C67.9324 135.032 67.7895 135.084 67.6761 135.178C67.5628 135.273 67.4863 135.405 67.4601 135.55Z" fill="#4F60FF"/>
<path d="M66.3801 138.88L67.8701 140.53L68.0901 140.77C68.2077 140.885 68.3656 140.949 68.5301 140.949C68.6945 140.949 68.8524 140.885 68.9701 140.77C69.0855 140.651 69.1501 140.491 69.1501 140.325C69.1501 140.159 69.0855 139.999 68.9701 139.88L67.4801 138.23L67.2701 138C67.1519 137.882 66.9919 137.816 66.8251 137.816C66.6582 137.816 66.4982 137.882 66.3801 138C66.2675 138.119 66.2048 138.276 66.2048 138.44C66.2048 138.604 66.2675 138.761 66.3801 138.88Z" fill="#4F60FF"/>
<path d="M63.9199 188.88C64.7576 188.722 65.583 188.505 66.3899 188.23C67.2989 187.856 68.1247 187.305 68.8199 186.61C69.648 185.808 70.2651 184.813 70.6163 183.715C70.9676 182.617 71.0422 181.449 70.8334 180.315C70.6246 179.181 70.139 178.116 69.4196 177.215C68.7002 176.314 67.7694 175.605 66.7099 175.15C65.8388 174.773 64.8993 174.579 63.9499 174.58H54.1399C52.7035 174.604 51.3101 175.074 50.1517 175.923C48.9934 176.773 48.1274 177.962 47.6731 179.324C47.2188 180.687 47.1987 182.158 47.6154 183.532C48.0322 184.907 48.8653 186.119 49.9999 187C50.6368 187.487 51.3497 187.865 52.1099 188.12C52.8201 188.338 53.5572 188.456 54.2999 188.47C57.2999 188.47 59.6999 188.57 61.3699 188.63C62.2416 188.607 63.1133 188.677 63.9699 188.84C63.1124 188.996 62.2412 189.063 61.3699 189.04C59.6999 189.1 57.2899 189.16 54.2999 189.2C53.4791 189.217 52.6602 189.113 51.8699 188.89C51.0125 188.625 50.2049 188.219 49.4799 187.69C48.1514 186.703 47.1682 185.323 46.6704 183.744C46.1726 182.166 46.1857 180.471 46.7077 178.901C47.2296 177.33 48.2339 175.965 49.5774 174.999C50.9209 174.033 52.5351 173.515 54.1899 173.52H63.9999C65.5426 173.538 67.0459 174.009 68.3227 174.875C69.5995 175.741 70.5931 176.963 71.1799 178.39C71.8305 179.996 71.9256 181.774 71.4499 183.44C71.0628 184.795 70.3083 186.017 69.2699 186.97C68.491 187.681 67.571 188.219 66.5699 188.55C65.9457 188.753 65.296 188.868 64.6399 188.89C64.4017 188.935 64.1569 188.931 63.9199 188.88Z" fill="#4F60FF"/>
<path d="M207 188.88C207.838 188.722 208.663 188.505 209.47 188.23C210.381 187.854 211.21 187.304 211.91 186.61C212.915 185.605 213.597 184.322 213.866 182.927C214.135 181.531 213.98 180.087 213.42 178.78C212.713 177.154 211.416 175.857 209.79 175.15C208.919 174.773 207.979 174.579 207.03 174.58H197.22C196.222 174.584 195.236 174.803 194.33 175.224C193.425 175.644 192.621 176.254 191.973 177.014C191.325 177.774 190.85 178.664 190.578 179.625C190.307 180.586 190.246 181.594 190.4 182.58C190.676 184.329 191.605 185.909 193 187C193.639 187.483 194.352 187.861 195.11 188.12C195.82 188.337 196.557 188.455 197.3 188.47C200.3 188.47 202.71 188.57 204.38 188.63C205.248 188.606 206.117 188.677 206.97 188.84C206.116 188.996 205.248 189.063 204.38 189.04C202.71 189.1 200.29 189.16 197.3 189.2C195.568 189.26 193.868 188.727 192.48 187.69C191.151 186.703 190.168 185.323 189.67 183.744C189.173 182.166 189.186 180.471 189.708 178.901C190.23 177.33 191.234 175.965 192.577 174.999C193.921 174.033 195.535 173.515 197.19 173.52H207C208.543 173.535 210.048 174.005 211.325 174.871C212.602 175.738 213.595 176.962 214.18 178.39C214.831 179.996 214.926 181.774 214.45 183.44C214.117 184.626 213.497 185.712 212.646 186.603C211.796 187.494 210.739 188.162 209.57 188.55C208.946 188.753 208.296 188.868 207.64 188.89C207.428 188.925 207.211 188.921 207 188.88Z" fill="#4F60FF"/>
<path d="M128.68 188.88C128.68 188.82 129.13 188.88 129.94 188.65C131.128 188.402 132.237 187.866 133.17 187.09C134.359 186.106 135.196 184.764 135.557 183.263C135.917 181.763 135.782 180.186 135.17 178.77C134.652 177.565 133.811 176.527 132.74 175.77C131.569 174.944 130.173 174.497 128.74 174.49H123.85L113.04 174.54H88.2899C87.2791 174.548 86.2819 174.774 85.367 175.204C84.4521 175.634 83.6411 176.257 82.9899 177.03C82.3642 177.788 81.9076 178.67 81.6506 179.619C81.3937 180.568 81.3423 181.56 81.4999 182.53C81.6492 183.47 81.9931 184.368 82.5098 185.167C83.0264 185.966 83.7042 186.648 84.4999 187.17C85.2679 187.676 86.133 188.017 87.0399 188.17C87.4851 188.253 87.9369 188.297 88.3899 188.3H89.8299L110.05 188.41L123.68 188.57L127.38 188.67C127.816 188.653 128.253 188.69 128.68 188.78C128.251 188.856 127.815 188.889 127.38 188.88L123.68 188.98L110.05 189.14L89.8299 189.26H88.3899C87.8773 189.256 87.3658 189.212 86.8599 189.13C84.9192 188.774 83.1822 187.704 81.9905 186.131C80.7988 184.558 80.2388 182.597 80.4206 180.632C80.6024 178.667 81.5129 176.842 82.9729 175.514C84.4329 174.187 86.3368 173.454 88.3099 173.46H113.06L123.87 173.51H128.77C130.363 173.547 131.908 174.066 133.2 175C134.364 175.852 135.268 177.012 135.81 178.35C136.282 179.537 136.457 180.82 136.32 182.09C136.203 183.096 135.888 184.068 135.392 184.95C134.895 185.833 134.229 186.608 133.43 187.23C132.431 188.015 131.239 188.52 129.98 188.69C129.648 188.728 129.312 188.728 128.98 188.69C128.893 188.772 128.791 188.836 128.68 188.88Z" fill="#4F60FF"/>
<path d="M175.07 188.88C175.395 188.782 175.731 188.722 176.07 188.7C176.985 188.531 177.86 188.192 178.65 187.7C179.89 186.948 180.879 185.845 181.49 184.53C181.887 183.673 182.11 182.745 182.146 181.801C182.182 180.857 182.031 179.915 181.7 179.03C181.19 177.671 180.271 176.504 179.069 175.691C177.866 174.877 176.441 174.458 174.99 174.49H172.99H168.75H149.87C148.321 174.501 146.819 175.025 145.6 175.98C144.443 176.902 143.612 178.17 143.228 179.599C142.845 181.028 142.93 182.543 143.47 183.92C143.985 185.218 144.877 186.333 146.03 187.12C146.591 187.485 147.195 187.778 147.83 187.99C148.457 188.176 149.106 188.28 149.76 188.3H153.76L160.94 188.37C165.33 188.37 168.88 188.47 171.33 188.53C172.56 188.53 173.51 188.6 174.16 188.63C174.497 188.612 174.835 188.649 175.16 188.74C174.833 188.817 174.496 188.851 174.16 188.84C173.51 188.84 172.56 188.91 171.33 188.94C168.88 189 165.33 189.06 160.94 189.1L153.76 189.17H149.76C148.244 189.159 146.764 188.707 145.5 187.87C144.177 186.981 143.15 185.717 142.55 184.24C141.922 182.661 141.818 180.923 142.254 179.28C142.689 177.638 143.642 176.18 144.97 175.12C146.369 174.016 148.097 173.41 149.88 173.4H168.76H173H175C175.692 173.403 176.381 173.494 177.05 173.67C178.165 173.958 179.202 174.491 180.084 175.231C180.967 175.97 181.674 176.897 182.153 177.944C182.632 178.991 182.871 180.132 182.854 181.284C182.836 182.435 182.561 183.568 182.05 184.6C181.353 185.986 180.246 187.124 178.88 187.86C178.031 188.323 177.094 188.603 176.13 188.68C175.791 188.806 175.432 188.874 175.07 188.88Z" fill="#4F60FF"/>
<path d="M64.5799 216.38H64.2599H63.3199C62.0974 216.422 60.8862 216.631 59.7199 217C57.8217 217.637 56.1062 218.725 54.7199 220.17C52.8651 222.152 51.737 224.704 51.5199 227.41C51.5199 239.74 51.5899 257.57 51.6399 279.6C51.6399 282.36 51.6399 285.18 51.6399 288.06V292.43C51.5871 293.899 51.6506 295.371 51.8299 296.83C52.3033 299.795 53.8085 302.497 56.0799 304.46C58.4351 306.497 61.4462 307.615 64.5599 307.61L105.94 307.56H200.75C202.769 307.598 204.768 307.157 206.583 306.272C208.398 305.387 209.977 304.084 211.19 302.47C212.403 300.884 213.212 299.028 213.55 297.06C213.767 295.048 213.837 293.022 213.76 291C213.76 282.813 213.76 274.75 213.76 266.81C213.76 258.87 213.76 251.087 213.76 243.46C213.76 239.64 213.76 235.87 213.76 232.14C213.76 231.21 213.76 230.26 213.76 229.36C213.736 228.468 213.626 227.58 213.43 226.71C213.029 224.984 212.269 223.363 211.2 221.95C210.155 220.563 208.839 219.405 207.331 218.545C205.823 217.685 204.155 217.142 202.43 216.95C201.565 216.874 200.698 216.844 199.83 216.86H191.98H171.89L135.84 216.8L83.6299 216.64L69.4399 216.54L65.7499 216.49H64.8099H64.4899C64.596 216.474 64.7038 216.474 64.8099 216.49H65.7499L69.4399 216.44L83.6299 216.34L135.84 216.17L172 216H192.09H199.94C200.841 215.977 201.742 216.004 202.64 216.08C205.947 216.45 209.008 218.009 211.252 220.466C213.496 222.924 214.771 226.113 214.84 229.44C214.84 230.38 214.84 231.3 214.84 232.24C214.84 235.967 214.84 239.74 214.84 243.56C214.84 251.193 214.84 258.977 214.84 266.91C214.84 274.843 214.84 282.907 214.84 291.1V294.18C214.866 295.238 214.789 296.297 214.61 297.34C214.24 299.469 213.366 301.478 212.06 303.2C210.748 304.94 209.043 306.345 207.084 307.301C205.126 308.257 202.969 308.736 200.79 308.7H105.98L64.5999 308.65C61.2905 308.636 58.0964 307.433 55.5999 305.26C53.1854 303.169 51.5938 300.287 51.1099 297.13C50.9875 296.373 50.924 295.607 50.9199 294.84C50.9199 294.09 50.9199 293.35 50.9199 292.61V288.24C50.9199 285.36 50.9199 282.54 50.9199 279.78C50.9899 257.73 50.9699 239.92 51.1399 227.56C51.3491 225.154 52.2675 222.865 53.7789 220.981C55.2902 219.098 57.3266 217.705 59.6299 216.98C60.8189 216.632 62.051 216.453 63.2899 216.45H64.2299C64.3422 216.408 64.4603 216.385 64.5799 216.38Z" fill="#4F60FF"/>
<path d="M55.6401 222.59C55.7701 222.34 89.5401 240.42 131.05 262.97C172.56 285.52 206.12 303.97 205.98 304.28C205.84 304.59 172.08 286.45 130.56 263.89C89.0401 241.33 55.5001 222.84 55.6401 222.59Z" fill="#4F60FF"/>
<path d="M207.41 225.34C207.54 225.6 173.35 242.86 131.05 263.9C88.75 284.94 54.33 301.78 54.21 301.52C54.09 301.26 88.27 284 130.58 263C172.89 242 207.29 225.08 207.41 225.34Z" fill="#4F60FF"/>
<path d="M95.64 341C95.9685 340.909 96.3025 340.839 96.64 340.79C97.5738 340.571 98.4329 340.109 99.13 339.45C99.6763 338.939 100.108 338.319 100.398 337.63C100.688 336.94 100.828 336.197 100.81 335.45C100.778 334.476 100.473 333.53 99.9305 332.721C99.3878 331.911 98.6289 331.27 97.74 330.87C97.2367 330.655 96.7041 330.517 96.16 330.46C95.62 330.46 94.98 330.46 94.36 330.46H90.46L81.85 330.51H62.12C61.3488 330.519 60.5903 330.707 59.9036 331.058C59.217 331.409 58.6209 331.914 58.1619 332.534C57.7029 333.153 57.3935 333.871 57.2578 334.63C57.1222 335.389 57.164 336.17 57.38 336.91C57.5978 337.615 57.969 338.263 58.467 338.808C58.9649 339.352 59.5772 339.78 60.26 340.06C60.9304 340.328 61.6482 340.457 62.37 340.44H64.67L80.79 340.55C85.37 340.55 89.08 340.65 91.65 340.71C92.93 340.71 93.93 340.78 94.6 340.81C94.937 340.796 95.2741 340.833 95.6 340.92C95.2719 340.994 94.9361 341.027 94.6 341.02C93.93 341.02 92.93 341.09 91.65 341.12C89.08 341.18 85.37 341.24 80.79 341.28L64.67 341.39H62.37C61.5193 341.418 60.6719 341.272 59.88 340.96C58.6217 340.419 57.5865 339.463 56.9466 338.252C56.3066 337.041 56.1003 335.647 56.362 334.302C56.6236 332.958 57.3375 331.743 58.385 330.86C59.4325 329.978 60.7505 329.48 62.12 329.45H81.85H90.46H94.36C95 329.45 95.58 329.45 96.24 329.45C96.8622 329.529 97.469 329.7 98.04 329.96C99.0383 330.425 99.8834 331.165 100.477 332.093C101.07 333.021 101.387 334.099 101.39 335.2C101.387 336.019 101.207 336.827 100.862 337.57C100.517 338.312 100.015 338.971 99.39 339.5C98.6229 340.17 97.6783 340.604 96.67 340.75C96.4104 340.771 96.1496 340.771 95.89 340.75C95.8287 340.853 95.7428 340.939 95.64 341Z" fill="#4F60FF"/>
<path d="M119.07 424.87C119.971 424.778 120.866 424.631 121.75 424.43C124.269 423.766 126.481 422.25 128.01 420.14C129.105 418.633 129.793 416.87 130.01 415.02C130.112 413.953 130.142 412.881 130.1 411.81C130.1 410.69 130.1 409.52 130.1 408.3C130.1 403.46 130.05 397.94 130.02 391.84C129.99 385.74 130.02 379.06 129.96 371.89C129.96 370.99 129.96 370.09 129.96 369.18C129.96 368.27 129.96 367.33 129.91 366.46C129.658 363.645 128.321 361.037 126.183 359.188C124.045 357.339 121.272 356.393 118.45 356.55H65.9799C64.8717 356.569 63.7713 356.74 62.7099 357.06C61.6645 357.402 60.6741 357.894 59.7699 358.52C57.9747 359.781 56.6071 361.561 55.8499 363.62C54.9999 365.62 55.2 367.85 55.17 370.1C55.14 372.35 55.17 374.55 55.17 376.74C55.17 385.52 55.17 393.99 55.17 402.05V413.83C55.2334 416.489 56.2685 419.032 58.0797 420.98C59.8909 422.927 62.3527 424.144 64.9999 424.4C65.8199 424.46 66.6799 424.46 67.5299 424.46H69.9999H79.5699L108.47 424.63L116.32 424.73L118.32 424.78C118.554 424.775 118.789 424.792 119.02 424.83C118.79 424.876 118.555 424.896 118.32 424.89L116.32 424.94L108.47 425.04L79.5699 425.2H69.9999H67.4799C66.6299 425.2 65.7799 425.2 64.8699 425.2C62.0128 424.933 59.3512 423.633 57.3848 421.543C55.4183 419.454 54.2823 416.718 54.1899 413.85C54.1899 410.03 54.1899 406.09 54.1899 402.05C54.1899 393.99 54.1899 385.52 54.1899 376.74V370.1C54.1899 368.98 54.1899 367.9 54.1899 366.72C54.2359 365.536 54.4757 364.367 54.8999 363.26C55.7255 361.002 57.2226 359.051 59.1899 357.67C60.1824 356.981 61.2707 356.442 62.42 356.07C63.5805 355.714 64.786 355.525 65.9999 355.51H118.47C119.506 355.496 120.542 355.586 121.56 355.78C122.565 355.99 123.539 356.326 124.46 356.78C126.261 357.715 127.795 359.091 128.92 360.78C129.994 362.425 130.644 364.312 130.81 366.27C130.88 367.27 130.86 368.15 130.86 369.07C130.86 369.99 130.86 370.88 130.86 371.78C130.86 378.95 130.86 385.63 130.8 391.73C130.74 397.83 130.74 403.35 130.72 408.19C130.72 409.41 130.72 410.58 130.72 411.7C130.748 412.795 130.704 413.891 130.59 414.98C130.32 416.9 129.567 418.721 128.4 420.27C126.794 422.419 124.476 423.925 121.86 424.52C121.205 424.683 120.534 424.77 119.86 424.78C119.602 424.847 119.336 424.877 119.07 424.87Z" fill="#4F60FF"/>
<path d="M134.73 396.3C133.771 395.496 132.866 394.631 132.02 393.71C130.31 392.03 127.84 389.55 124.54 386.83C122.8 385.334 120.677 384.354 118.41 384C117.165 383.795 115.895 383.795 114.65 384C113.344 384.245 112.097 384.741 110.98 385.46C108.556 387.102 106.51 389.244 104.98 391.74L102.37 395.68C101.473 397.087 100.412 398.383 99.2099 399.54C98.5773 400.159 97.8233 400.64 96.9955 400.954C96.1676 401.267 95.2839 401.405 94.3999 401.36C92.7065 401.1 91.1535 400.267 89.9999 399C87.7199 396.78 86.0999 394.19 83.7699 392.79C83.2198 392.445 82.624 392.179 81.9999 392C81.3813 391.854 80.7434 391.806 80.1099 391.86C78.8654 391.976 77.6627 392.369 76.5899 393.01C74.6672 394.27 73.0261 395.915 71.7699 397.84L65.9399 406.2C65.2499 407.2 64.6999 407.95 64.3199 408.45C64.1436 408.727 63.9318 408.979 63.6899 409.2C63.7995 408.894 63.951 408.605 64.14 408.34C64.47 407.79 64.9599 407 65.6099 405.98C66.8999 403.98 68.77 400.98 71.17 397.41C72.4539 395.362 74.1582 393.61 76.17 392.27C77.3361 391.567 78.6446 391.133 79.9999 391C80.7289 390.929 81.4645 390.973 82.1799 391.13C82.9108 391.316 83.6113 391.605 84.2599 391.99C86.8699 393.56 88.53 396.22 90.7 398.29C91.7009 399.366 93.0368 400.071 94.4899 400.29C95.2289 400.318 95.9658 400.194 96.6541 399.923C97.3425 399.653 97.9676 399.244 98.4899 398.72C99.6284 397.62 100.635 396.392 101.49 395.06L104.11 391.13C105.72 388.528 107.872 386.304 110.42 384.61C111.639 383.836 112.998 383.309 114.42 383.06C115.769 382.864 117.141 382.894 118.48 383.15C120.878 383.566 123.112 384.643 124.93 386.26C127.507 388.503 129.948 390.897 132.24 393.43C133.05 394.32 133.66 395.03 134.07 395.52C134.32 395.753 134.542 396.015 134.73 396.3Z" fill="#4F60FF"/>
<path d="M102.55 375.93C102.45 375.93 102.45 375.27 102.12 374.16C101.648 372.614 100.686 371.262 99.38 370.31C98.4952 369.656 97.4664 369.224 96.38 369.05C95.1479 368.842 93.8829 368.959 92.71 369.39C91.3766 369.888 90.2268 370.781 89.4138 371.95C88.6009 373.118 88.1635 374.507 88.16 375.93C88.1674 377.403 88.636 378.837 89.5 380.03C90.3075 381.141 91.4239 381.989 92.71 382.47C93.8069 382.882 94.9891 383.015 96.1501 382.856C97.311 382.697 98.4141 382.252 99.36 381.56C100.669 380.606 101.631 379.251 102.1 377.7C102.43 376.59 102.43 375.93 102.53 375.93C102.682 376.544 102.682 377.186 102.53 377.8C102.178 379.518 101.228 381.055 99.85 382.14C98.8981 382.904 97.7767 383.429 96.58 383.67C95.1949 383.946 93.761 383.842 92.43 383.37C90.9421 382.858 89.6472 381.901 88.72 380.63C87.7702 379.352 87.2297 377.817 87.1697 376.226C87.1097 374.635 87.533 373.063 88.3839 371.717C89.2348 370.372 90.4734 369.315 91.9364 368.687C93.3995 368.06 95.0184 367.89 96.58 368.2C97.7745 368.442 98.8949 368.963 99.85 369.72C101.229 370.808 102.179 372.349 102.53 374.07C102.69 374.679 102.697 375.318 102.55 375.93Z" fill="#4F60FF"/>
<path d="M207.46 412.28C207.37 412.28 207.36 411.62 207.03 410.51C206.566 408.96 205.607 407.604 204.3 406.65C203.409 406.007 202.383 405.576 201.3 405.39C200.071 405.179 198.807 405.299 197.64 405.74C196.315 406.246 195.175 407.142 194.371 408.31C193.566 409.477 193.136 410.862 193.136 412.28C193.136 413.698 193.566 415.083 194.371 416.251C195.175 417.418 196.315 418.314 197.64 418.82C198.739 419.226 199.92 419.355 201.081 419.194C202.241 419.034 203.343 418.589 204.29 417.9C205.594 416.948 206.553 415.596 207.02 414.05C207.35 412.94 207.36 412.27 207.45 412.28C207.616 412.889 207.616 413.531 207.45 414.14C207.099 415.861 206.15 417.402 204.77 418.49C203.817 419.251 202.696 419.772 201.5 420.01C200.04 420.307 198.526 420.183 197.134 419.652C195.742 419.121 194.531 418.204 193.64 417.01C192.627 415.652 192.08 414.004 192.08 412.31C192.08 410.616 192.627 408.968 193.64 407.61C194.57 406.341 195.864 405.385 197.35 404.87C198.681 404.398 200.115 404.294 201.5 404.57C202.698 404.807 203.821 405.332 204.77 406.1C206.148 407.185 207.098 408.722 207.45 410.44C207.613 411.042 207.617 411.676 207.46 412.28Z" fill="#4F60FF"/>
<path d="M186.6 412.28C186.51 412.28 186.5 411.62 186.17 410.51C185.706 408.96 184.747 407.604 183.44 406.65C182.55 406.006 181.523 405.575 180.44 405.39C179.211 405.179 177.947 405.299 176.78 405.74C175.455 406.246 174.315 407.142 173.511 408.31C172.706 409.477 172.276 410.862 172.276 412.28C172.276 413.698 172.706 415.083 173.511 416.251C174.315 417.418 175.455 418.314 176.78 418.82C177.948 419.257 179.211 419.375 180.44 419.16C181.526 418.984 182.554 418.552 183.44 417.9C184.744 416.948 185.703 415.596 186.17 414.05C186.5 412.94 186.51 412.27 186.6 412.28C186.764 412.889 186.764 413.531 186.6 414.14C186.249 415.861 185.299 417.402 183.92 418.49C182.962 419.249 181.838 419.77 180.64 420.01C179.18 420.307 177.666 420.183 176.274 419.652C174.882 419.121 173.67 418.204 172.78 417.01C171.78 415.647 171.237 414.001 171.23 412.31C171.229 410.616 171.776 408.967 172.79 407.61C173.714 406.339 175.005 405.383 176.49 404.87C177.821 404.398 179.255 404.294 180.64 404.57C181.84 404.809 182.965 405.334 183.92 406.1C185.298 407.185 186.248 408.722 186.6 410.44C186.758 411.043 186.758 411.677 186.6 412.28Z" fill="#4F60FF"/>
<path d="M163.41 412.28C163.31 412.28 163.31 411.62 162.98 410.51C162.507 408.961 161.546 407.607 160.24 406.65C159.294 405.958 158.191 405.513 157.03 405.354C155.869 405.195 154.687 405.328 153.59 405.74C152.302 406.217 151.184 407.066 150.38 408.18C149.51 409.368 149.041 410.802 149.041 412.275C149.041 413.748 149.51 415.182 150.38 416.37C151.181 417.489 152.299 418.343 153.59 418.82C154.762 419.255 156.028 419.373 157.26 419.16C158.346 418.986 159.375 418.554 160.26 417.9C161.563 416.944 162.524 415.594 163 414.05C163.33 412.94 163.33 412.27 163.43 412.28C163.583 412.891 163.583 413.529 163.43 414.14C163.079 415.861 162.129 417.402 160.75 418.49C159.795 419.247 158.674 419.768 157.48 420.01C155.918 420.32 154.299 420.15 152.836 419.523C151.373 418.895 150.135 417.838 149.284 416.493C148.433 415.147 148.01 413.575 148.07 411.984C148.13 410.393 148.67 408.858 149.62 407.58C150.545 406.311 151.836 405.355 153.32 404.84C154.654 404.368 156.092 404.264 157.48 404.54C158.677 404.781 159.798 405.306 160.75 406.07C162.128 407.155 163.078 408.692 163.43 410.41C163.575 411.026 163.569 411.668 163.41 412.28Z" fill="#4F60FF"/>
<path d="M204.24 379.64C204.698 379.57 205.145 379.442 205.57 379.26C206.164 378.99 206.668 378.556 207.023 378.008C207.377 377.46 207.567 376.822 207.57 376.17C207.563 375.711 207.459 375.258 207.266 374.841C207.073 374.425 206.795 374.053 206.45 373.75C206.06 373.408 205.594 373.164 205.09 373.04C204.824 372.979 204.553 372.949 204.28 372.95H203.36L194.86 373.03C182.28 373.12 164.86 373.18 145.69 373.18C144.978 373.252 144.315 373.576 143.821 374.093C143.327 374.611 143.034 375.288 142.995 376.003C142.956 376.718 143.175 377.423 143.61 377.99C144.046 378.558 144.67 378.952 145.37 379.1C146.42 379.1 147.64 379.1 148.75 379.1H161.8L183.91 379.21L198.82 379.38L202.87 379.48C203.342 379.471 203.814 379.504 204.28 379.58C203.815 379.663 203.343 379.7 202.87 379.69L198.82 379.79L183.91 379.95L161.8 380.06H148.75C147.59 380.06 146.52 380.06 145.27 380.06C144.209 380.004 143.214 379.529 142.503 378.74C141.792 377.95 141.424 376.911 141.48 375.85C141.536 374.789 142.011 373.794 142.8 373.083C143.59 372.372 144.629 372.004 145.69 372.06C164.89 372.06 182.28 372.11 194.86 372.21L203.36 372.29H204.28C205.239 372.254 206.174 372.597 206.882 373.245C207.59 373.893 208.014 374.794 208.063 375.752C208.112 376.711 207.781 377.65 207.142 378.367C206.503 379.083 205.608 379.519 204.65 379.58C204.36 379.67 204.24 379.66 204.24 379.64Z" fill="#4F60FF"/>
<path d="M204.24 394.1C204.695 394.018 205.14 393.89 205.57 393.72C206.065 393.489 206.5 393.147 206.84 392.72C207.291 392.125 207.534 391.397 207.53 390.65C207.523 390.191 207.419 389.738 207.226 389.321C207.033 388.905 206.755 388.533 206.41 388.23C205.805 387.714 205.035 387.431 204.24 387.43H203.32L194.82 387.51C182.24 387.6 164.82 387.66 145.65 387.66C145.14 387.663 144.639 387.796 144.195 388.046C143.75 388.296 143.377 388.655 143.11 389.09C142.846 389.526 142.698 390.022 142.678 390.531C142.659 391.04 142.77 391.545 143 392C143.226 392.439 143.557 392.816 143.963 393.097C144.37 393.378 144.839 393.554 145.33 393.61C146.38 393.61 147.6 393.61 148.71 393.61H161.76L183.87 393.72L198.78 393.88L202.83 393.98C203.303 393.963 203.776 394 204.24 394.09C203.774 394.166 203.302 394.199 202.83 394.19L198.78 394.29L183.87 394.45L161.76 394.57H148.71C147.55 394.57 146.48 394.57 145.23 394.57C144.169 394.514 143.174 394.039 142.463 393.25C141.752 392.46 141.384 391.421 141.44 390.36C141.496 389.299 141.971 388.304 142.76 387.593C143.55 386.882 144.589 386.514 145.65 386.57C164.85 386.57 182.24 386.63 194.82 386.72L203.32 386.8H204.24C204.558 386.803 204.874 386.846 205.18 386.93C205.765 387.083 206.302 387.382 206.74 387.8C207.421 388.434 207.837 389.303 207.902 390.231C207.967 391.159 207.676 392.077 207.09 392.8C206.702 393.245 206.211 393.589 205.66 393.8C205.323 393.924 204.969 393.998 204.61 394.02C204.492 394.067 204.367 394.094 204.24 394.1Z" fill="#4F60FF"/>
<path d="M203.41 335.57C203.41 335.86 185.5 336.09 163.41 336.09C141.32 336.09 123.41 335.86 123.41 335.57C123.41 335.28 141.32 335.05 163.41 335.05C185.5 335.05 203.41 335.28 203.41 335.57Z" fill="#4F60FF"/>
<path d="M450.373 413.179C489.566 373.986 489.567 310.442 450.374 271.249C411.18 232.056 347.636 232.056 308.443 271.249C269.25 310.442 269.25 373.986 308.443 413.179C347.636 452.372 411.18 452.372 450.373 413.179Z" fill="#F5F5F5"/>
<path d="M279 342.22C279 342.22 279 341.67 279 340.59C279 340.05 279 339.38 279 338.59C279 337.8 279 336.86 279.12 335.82C279.733 325.252 282.046 314.852 285.97 305.02C287.914 300.111 290.255 295.369 292.97 290.84C299.578 279.772 308.228 270.06 318.46 262.22C330.906 252.721 345.403 246.269 360.79 243.38C369.334 241.775 378.05 241.284 386.72 241.92C391.254 242.245 395.76 242.873 400.21 243.8C404.771 244.783 409.263 246.059 413.66 247.62C432.381 254.432 448.665 266.635 460.46 282.69C463.541 286.866 466.286 291.28 468.67 295.89C469.25 297.06 469.9 298.2 470.42 299.41L472.05 303.01C473.05 305.46 474.05 307.91 474.83 310.44C476.545 315.512 477.842 320.716 478.71 326C480.463 336.729 480.463 347.671 478.71 358.4C477.864 363.696 476.583 368.914 474.88 374C474.08 376.53 473.08 379 472.11 381.44C471.14 383.88 469.97 386.25 468.73 388.55C466.343 393.161 463.598 397.578 460.52 401.76C448.725 417.821 432.436 430.028 413.71 436.84C409.313 438.401 404.821 439.677 400.26 440.66C387.269 443.366 373.875 443.508 360.83 441.08C345.444 438.191 330.95 431.735 318.51 422.23C308.264 414.391 299.606 404.671 293 393.59C290.283 389.062 287.942 384.32 286 379.41C282.078 369.581 279.765 359.185 279.15 348.62C279.06 347.62 279.05 346.62 279.03 345.85C279.01 345.08 279.03 344.39 279.03 343.85C279.03 342.77 279.03 342.22 279.03 342.22C279.03 342.22 279.03 342.77 279.1 343.85C279.1 344.39 279.1 345.06 279.16 345.85C279.22 346.64 279.21 347.57 279.31 348.62C279.989 359.162 282.352 369.526 286.31 379.32C288.254 384.21 290.595 388.932 293.31 393.44C299.916 404.46 308.556 414.125 318.77 421.92C331.179 431.361 345.623 437.772 360.95 440.64C369.463 442.227 378.145 442.704 386.78 442.06C391.291 441.74 395.775 441.112 400.2 440.18C404.742 439.201 409.215 437.925 413.59 436.36C432.219 429.575 448.421 417.424 460.15 401.44C463.209 397.28 465.937 392.886 468.31 388.3C469.54 386 470.59 383.61 471.67 381.22C472.75 378.83 473.67 376.34 474.43 373.82C476.121 368.766 477.395 363.582 478.24 358.32C479.079 352.99 479.517 347.605 479.55 342.21C479.512 336.812 479.074 331.424 478.24 326.09C477.396 320.834 476.122 315.657 474.43 310.61C473.63 308.08 472.63 305.61 471.66 303.21C471.12 302.01 470.59 300.82 470.05 299.63C469.51 298.44 468.88 297.3 468.3 296.13C465.914 291.546 463.172 287.156 460.1 283C448.373 267.02 432.175 254.872 413.55 248.09C409.176 246.523 404.702 245.247 400.16 244.27C387.234 241.571 373.906 241.415 360.92 243.81C345.596 246.681 331.153 253.087 318.74 262.52C308.523 270.315 299.88 279.98 293.27 291C290.553 295.51 288.212 300.236 286.27 305.13C282.309 314.923 279.945 325.288 279.27 335.83C279.17 336.88 279.14 337.83 279.12 338.6C279.1 339.37 279.12 340.06 279.06 340.6C279.07 341.67 279 342.22 279 342.22Z" fill="#263238"/>
<path d="M337.82 358.6L332.74 358.82L314.42 398.58L285.42 413.02L286.8 427.93C286.8 427.93 322.47 421.35 331.36 416.38C340.25 411.41 351.59 379.06 351.59 379.06C351.65 379.29 339.59 358.6 339.59 358.6" fill="#FFBF9D"/>
<path d="M287.13 394.94L283.42 391.04C282.706 390.581 281.869 390.347 281.02 390.37L269.25 390.73C268.154 390.838 267.097 391.191 266.155 391.762C265.214 392.333 264.412 393.108 263.81 394.03L259.53 401.31C259.53 401.31 256.65 406.31 257.02 407.5C257.172 408.014 257.511 408.453 257.969 408.731C258.428 409.008 258.974 409.104 259.5 409C259.5 409 259.91 411.3 260.68 411.77C261.119 411.994 261.6 412.125 262.092 412.156C262.583 412.187 263.076 412.117 263.54 411.95C263.743 412.388 264.072 412.756 264.486 413.005C264.899 413.255 265.378 413.375 265.86 413.35C266.067 413.341 266.273 413.304 266.47 413.24C267.86 412.82 268.47 410.11 268.47 410.11L274.47 409.01C274.47 409.01 283.04 414.74 286.06 418.49C289.08 422.24 296.99 419.38 296.99 419.38L299.99 405.23L287.13 394.94Z" fill="#FFBF9D"/>
<path d="M278.46 396.63C277.629 396.898 276.763 397.043 275.89 397.06C274.27 397.24 271.97 397.31 269.39 397.64L269.67 397.44C269.222 398.409 268.711 399.348 268.14 400.25C266.577 402.738 264.672 404.993 262.48 406.95C261.607 407.819 260.593 408.532 259.48 409.06C259.41 408.96 260.48 408.13 262.07 406.56C264.112 404.535 265.92 402.288 267.46 399.86C268.016 398.983 268.52 398.075 268.97 397.14L269.05 396.95H269.25C271.9 396.65 274.19 396.68 275.81 396.63C276.691 396.535 277.579 396.535 278.46 396.63Z" fill="#FF9A6C"/>
<path d="M278.73 402.25C278.039 402.59 277.288 402.791 276.52 402.84C274.602 403.098 272.655 403.03 270.76 402.64L271.18 402.4C270.933 403.125 270.646 403.837 270.32 404.53C269.261 406.749 267.756 408.727 265.9 410.34C265.177 411.058 264.317 411.623 263.37 412C263.31 411.9 264.24 411.24 265.54 410C267.228 408.332 268.618 406.387 269.65 404.25C269.966 403.599 270.246 402.931 270.49 402.25L270.61 401.94L270.91 402.01C275.32 402.91 278.71 402 278.73 402.25Z" fill="#FF9A6C"/>
<path d="M293.67 405.15L283.18 400.27C281.772 399.494 280.213 399.03 278.61 398.91C276.884 399.057 275.219 399.612 273.75 400.53L268.1 403.45C267.775 403.571 267.507 403.81 267.35 404.12C267.319 404.345 267.347 404.575 267.433 404.786C267.519 404.997 267.66 405.181 267.84 405.32C269.3 406.704 271.212 407.511 273.222 407.592C275.232 407.673 277.204 407.022 278.77 405.76C279.531 408.283 280.729 410.652 282.31 412.76C284.01 414.76 286.64 416.18 289.23 415.71" fill="#FFBF9D"/>
<path d="M289.23 415.7C289.23 415.7 289.13 415.75 288.94 415.79C288.661 415.855 288.376 415.888 288.09 415.89C286.99 415.895 285.905 415.63 284.93 415.12C283.417 414.332 282.135 413.164 281.21 411.73C280.068 409.894 279.145 407.931 278.46 405.88L278.99 406.01C278.148 406.716 277.174 407.248 276.126 407.575C275.077 407.903 273.974 408.02 272.88 407.92C271.69 407.84 270.53 407.516 269.47 406.97C268.929 406.678 268.422 406.326 267.96 405.92C267.709 405.715 267.481 405.484 267.28 405.23C267.149 405.074 267.054 404.891 267.002 404.694C266.95 404.497 266.943 404.29 266.98 404.09C267.028 403.923 267.108 403.768 267.217 403.632C267.325 403.497 267.458 403.384 267.61 403.3C267.86 403.15 268.07 403.05 268.29 402.93L269.6 402.26L272.16 400.94C273.753 400.005 275.452 399.263 277.22 398.73C278.925 398.423 280.684 398.69 282.22 399.49C283.64 400.14 284.91 400.77 286.1 401.33L291.69 404.06C292.387 404.365 293.056 404.73 293.69 405.15C292.96 404.938 292.25 404.66 291.57 404.32L285.88 401.81L282 400.05C280.584 399.333 278.97 399.105 277.41 399.4C275.709 399.939 274.075 400.67 272.54 401.58L269.99 402.91L268.68 403.59C268.23 403.82 267.77 404.04 267.75 404.27C267.73 404.5 268.06 405.02 268.5 405.37C268.915 405.739 269.371 406.058 269.86 406.32C270.832 406.817 271.892 407.12 272.98 407.21C275.007 407.401 277.028 406.791 278.61 405.51L278.97 405.2L279.13 405.65C279.776 407.665 280.641 409.604 281.71 411.43C282.567 412.813 283.752 413.964 285.16 414.78C286.403 415.463 287.814 415.782 289.23 415.7Z" fill="#FF9A6C"/>
<path d="M435 271.05C435.65 262.93 437.48 254.91 437.72 246.77C437.96 238.63 436.39 230.01 431.12 223.77C425.85 217.53 416.12 214.66 409.2 218.92L407.37 225.74C407.85 257.27 405.37 289.11 405.82 320.64C405.88 324.78 408.97 328.73 410.6 332.55C412.23 336.37 415.77 339.65 419.91 339.68C425.33 339.68 429.25 334.48 431.27 329.46C438.58 311.27 433.39 290.64 435 271.05Z" fill="#263238"/>
<path d="M418.27 227.57C417.325 225.429 416.057 223.446 414.51 221.69C413.729 220.819 412.761 220.134 411.679 219.688C410.597 219.241 409.429 219.044 408.26 219.11C407.709 219.14 407.175 219.311 406.709 219.607C406.243 219.903 405.861 220.314 405.6 220.8C405.491 221.046 405.44 221.313 405.451 221.582C405.462 221.85 405.536 222.113 405.666 222.348C405.796 222.584 405.978 222.786 406.199 222.939C406.42 223.092 406.674 223.191 406.94 223.23L407.16 223.44C409.453 225.76 411.787 228.033 414.16 230.26C414.727 230.86 415.407 231.342 416.16 231.68C416.537 231.847 416.952 231.906 417.361 231.849C417.769 231.793 418.153 231.623 418.47 231.36C419.42 230.4 418.87 228.78 418.27 227.57Z" fill="#4F60FF"/>
<path d="M422.32 235.86C414.89 225.41 404.39 218.97 391.61 217.86C384.4 217.25 381.31 218.55 376.02 219.6C370.732 220.498 365.928 223.227 362.45 227.31C358.45 232.31 354.92 237.93 353.79 244.24C352.705 250.273 352.634 256.444 353.58 262.5C355.113 270.285 357.917 277.765 361.88 284.64L372.88 286.74C382.07 287.68 391.38 288.61 400.49 287.12C409.6 285.63 418.64 281.4 423.98 273.87C431.37 263.43 429.75 246.32 422.32 235.86Z" fill="#263238"/>
<path d="M407.49 234.75L385.87 224.41L380.02 224.69C366.96 223.85 357.02 237.64 356.17 248.21C355.28 259.96 354.65 274.34 355.93 283.13C358.5 300.8 373.27 303.26 373.27 303.26C373.27 303.26 372.34 312.52 371.83 318.36L406.01 318.22L413.01 241.11C413.06 239.55 412.519 238.028 411.496 236.849C410.472 235.67 409.042 234.92 407.49 234.75Z" fill="#FFBF9D"/>
<path d="M382.33 280.82C382.26 279.919 381.862 279.076 381.21 278.45C380.614 277.867 379.844 277.495 379.017 277.39C378.191 277.285 377.352 277.454 376.63 277.87C375.876 278.373 375.269 279.068 374.874 279.884C374.478 280.7 374.308 281.606 374.38 282.51C374.725 283.072 375.186 283.554 375.733 283.923C376.28 284.293 376.899 284.54 377.55 284.65C377.755 284.68 377.962 284.7 378.17 284.71C379.205 284.772 380.225 284.444 381.03 283.79C381.461 283.429 381.802 282.972 382.028 282.457C382.253 281.942 382.357 281.382 382.33 280.82Z" fill="#FF9A6C"/>
<path d="M359.85 264.27C359.836 264.859 360.053 265.431 360.455 265.862C360.857 266.294 361.411 266.551 362 266.58C362.287 266.607 362.577 266.577 362.852 266.491C363.127 266.405 363.382 266.264 363.602 266.078C363.822 265.891 364.002 265.663 364.132 265.406C364.263 265.148 364.34 264.868 364.36 264.58C364.374 263.99 364.157 263.417 363.756 262.984C363.354 262.551 362.8 262.291 362.21 262.26C361.923 262.234 361.633 262.266 361.358 262.353C361.082 262.441 360.828 262.582 360.608 262.769C360.388 262.956 360.208 263.186 360.078 263.443C359.947 263.701 359.87 263.982 359.85 264.27Z" fill="#263238"/>
<path d="M359.75 254.36C360.03 254.66 361.75 253.36 364.19 253.45C366.63 253.54 368.39 254.73 368.66 254.45C368.79 254.32 368.51 253.79 367.74 253.21C366.698 252.466 365.451 252.064 364.17 252.06C362.905 252.041 361.666 252.422 360.63 253.15C359.88 253.7 359.62 254.23 359.75 254.36Z" fill="#263238"/>
<path d="M374.05 274.44C374.05 274.3 372.55 274.02 370.1 273.67C369.48 273.6 368.89 273.47 368.79 273.04C368.747 272.399 368.901 271.761 369.23 271.21C369.837 269.71 370.47 268.14 371.13 266.5C373.77 259.79 375.69 254.28 375.42 254.17C375.15 254.06 372.79 259.42 370.15 266.17L368.33 270.91C367.927 271.656 367.8 272.52 367.97 273.35C368.059 273.567 368.195 273.762 368.368 273.921C368.54 274.08 368.746 274.199 368.97 274.27C369.315 274.371 369.671 274.424 370.03 274.43C372.5 274.55 374 274.58 374.05 274.44Z" fill="#263238"/>
<path d="M373.24 303.24C381.547 303.475 389.755 301.397 396.95 297.24C396.95 297.24 390.49 309.39 372.86 307.51L373.24 303.24Z" fill="#FF9A6C"/>
<path d="M381.19 276.21C380.79 276.21 380.75 278.83 378.47 280.67C376.19 282.51 373.37 282.19 373.35 282.56C373.35 282.73 373.97 283.08 375.16 283.13C376.708 283.172 378.22 282.666 379.43 281.7C380.594 280.776 381.351 279.434 381.54 277.96C381.65 276.86 381.37 276.2 381.19 276.21Z" fill="#263238"/>
<path d="M361.15 245.92C361.56 246.52 363.42 246.15 365.6 246.36C367.78 246.57 369.6 247.16 370.06 246.64C370.27 246.38 370.06 245.8 369.3 245.19C368.272 244.442 367.058 243.993 365.791 243.89C364.525 243.788 363.254 244.037 362.12 244.61C361.29 245.09 361 245.63 361.15 245.92Z" fill="#263238"/>
<path d="M384.69 264.93C384.662 265.519 384.406 266.074 383.977 266.479C383.548 266.883 382.98 267.106 382.39 267.1C382.101 267.108 381.814 267.058 381.545 266.953C381.276 266.848 381.031 266.69 380.824 266.489C380.617 266.288 380.452 266.047 380.34 265.781C380.228 265.515 380.17 265.229 380.17 264.94C380.193 264.351 380.446 263.795 380.874 263.389C381.301 262.984 381.871 262.762 382.46 262.77C382.749 262.762 383.037 262.812 383.306 262.917C383.576 263.022 383.822 263.179 384.03 263.38C384.237 263.582 384.403 263.822 384.516 264.089C384.63 264.355 384.689 264.641 384.69 264.93Z" fill="#263238"/>
<path d="M392.63 255.65C392.34 255.93 390.69 254.58 388.26 254.46C385.83 254.34 383.99 255.46 383.74 255.16C383.61 255.02 383.93 254.5 384.74 253.98C385.828 253.3 387.1 252.975 388.38 253.05C389.644 253.114 390.855 253.576 391.84 254.37C392.55 255 392.78 255.52 392.63 255.65Z" fill="#263238"/>
<path d="M391.7 247.78C391.2 248.31 389.35 247.64 387.1 247.5C384.85 247.36 382.91 247.66 382.5 247.06C382.32 246.77 382.65 246.23 383.5 245.75C384.678 245.183 385.985 244.937 387.288 245.039C388.592 245.141 389.845 245.587 390.92 246.33C391.7 246.94 391.93 247.52 391.7 247.78Z" fill="#263238"/>
<path d="M407.94 270.44C407.94 269.12 409.52 266.05 410.82 265.86C414.29 265.37 420.53 265.72 420.48 274.52C420.4 286.52 408.34 283.99 408.32 283.65C408.3 283.31 407.87 275 407.94 270.44Z" fill="#FFBF9D"/>
<path d="M411.67 279.27C411.72 279.27 411.88 279.42 412.23 279.59C412.731 279.791 413.29 279.791 413.79 279.59C415.07 279.13 416.15 277.12 416.22 274.95C416.259 273.921 416.067 272.896 415.66 271.95C415.547 271.574 415.346 271.23 415.073 270.949C414.799 270.667 414.462 270.454 414.09 270.33C413.849 270.264 413.593 270.285 413.366 270.389C413.139 270.493 412.957 270.674 412.85 270.9C412.69 271.23 412.76 271.47 412.7 271.49C412.64 271.51 412.44 271.29 412.54 270.8C412.606 270.498 412.776 270.229 413.02 270.04C413.184 269.917 413.372 269.828 413.571 269.778C413.77 269.728 413.977 269.719 414.18 269.75C414.671 269.854 415.128 270.08 415.508 270.407C415.889 270.734 416.182 271.151 416.36 271.62C416.862 272.667 417.102 273.82 417.06 274.98C416.97 277.4 415.71 279.66 413.97 280.16C413.647 280.251 413.307 280.267 412.976 280.209C412.645 280.15 412.332 280.017 412.06 279.82C411.69 279.57 411.62 279.3 411.67 279.27Z" fill="#FF9A6C"/>
<path d="M411.31 265.93L408.05 268.88C395.76 255.41 372.22 222.17 373.52 224.15C379.664 222.32 386.168 222.055 392.44 223.38C402.09 225.71 420.29 231.86 419.23 243.38C418.17 254.9 411.31 265.93 411.31 265.93Z" fill="#263238"/>
<path d="M428.89 264.47C428.869 264.229 428.822 263.991 428.75 263.76C428.581 263.093 428.35 262.444 428.06 261.82C426.98 259.504 425.403 257.456 423.44 255.82C420.529 253.434 417.232 251.564 413.69 250.29C409.77 248.72 405.33 247.4 401.02 245.19C396.952 243.162 393.133 240.669 389.64 237.76C386.789 235.378 384.158 232.744 381.78 229.89C380.184 227.958 378.701 225.934 377.34 223.83C376.9 223.13 376.54 222.55 376.25 222.1C376.135 221.889 375.997 221.692 375.84 221.51C375.917 221.738 376.021 221.957 376.15 222.16C376.37 222.58 376.68 223.16 377.15 223.96C378.442 226.127 379.882 228.202 381.46 230.17C383.809 233.08 386.431 235.759 389.29 238.17C392.798 241.133 396.649 243.665 400.76 245.71C405.12 247.94 409.6 249.25 413.49 250.79C416.993 252.015 420.266 253.82 423.17 256.13C425.116 257.696 426.714 259.651 427.86 261.87C428.62 263.51 428.82 264.48 428.89 264.47Z" fill="#455A64"/>
<path d="M425.27 266.11C425.366 265.22 425.271 264.32 424.99 263.47C424.255 261.099 422.819 259.007 420.87 257.47C418.5 255.47 415 254.04 411.14 252.87C406.93 251.75 402.858 250.163 399 248.14C395.162 246.06 391.598 243.51 388.39 240.55C385.771 238.125 383.399 235.445 381.31 232.55C379.903 230.596 378.621 228.555 377.47 226.44C377.1 225.74 376.81 225.16 376.57 224.7C376.48 224.489 376.362 224.29 376.22 224.11C376.273 224.333 376.353 224.548 376.46 224.75C376.67 225.22 376.93 225.82 377.26 226.55C378.329 228.724 379.562 230.814 380.95 232.8C383.008 235.771 385.371 238.519 388 241C391.219 244.021 394.816 246.612 398.7 248.71C402.604 250.762 406.731 252.359 411 253.47C414.85 254.6 418.28 255.92 420.61 257.86C422.522 259.308 423.971 261.282 424.78 263.54C425.023 264.379 425.187 265.24 425.27 266.11Z" fill="#455A64"/>
<path d="M409.53 286.18C409.53 286.1 410.53 286.03 412.37 285.69C414.922 285.137 417.316 284.012 419.37 282.4C422.351 279.956 424.706 276.836 426.24 273.3C428.175 268.981 429.369 264.366 429.77 259.65C430.254 254.947 429.697 250.194 428.14 245.73C426.863 242.082 424.987 238.672 422.59 235.64C418.47 230.46 414.88 228.25 415.03 228.09C415.261 228.189 415.476 228.321 415.67 228.48C416.07 228.77 416.67 229.15 417.4 229.75C419.47 231.389 421.358 233.246 423.03 235.29C425.538 238.33 427.5 241.781 428.83 245.49C429.595 247.684 430.141 249.948 430.46 252.25C430.754 254.733 430.788 257.24 430.56 259.73C430.15 264.533 428.912 269.229 426.9 273.61C425.293 277.228 422.825 280.397 419.71 282.84C417.585 284.457 415.102 285.538 412.47 285.99C411.759 286.107 411.04 286.174 410.32 286.19C410.058 286.227 409.791 286.224 409.53 286.18Z" fill="#455A64"/>
<path d="M372.5 314.67L405.84 311.07L411.94 316.62L388.14 330.61L377.64 336.05L367.27 332.9L363.99 326.72L372.5 314.67Z" fill="#FFBF9D"/>
<path d="M327.57 355.26C327.57 355.26 338.02 335.2 340.57 330.82C344.98 323.35 353.21 319.12 353.21 319.12L372.47 314.67C372.47 314.67 370.47 324.32 382.47 324.98C397.72 325.83 407.18 311.21 407.18 311.21C407.18 311.21 424.6 313 429.4 315C434.2 317 447.79 322.7 449.78 340.77L454.44 370.26L417.69 373.06L418.2 412.32L418.38 434.71C401.97 441.54 377.49 445.45 354.53 439.3C353.14 438.92 353.86 422.97 350.66 406.65L344.6 392C342.152 386.125 340.706 379.882 340.32 373.53C340.09 369.35 340.2 366.19 340.2 366.19C340.2 366.19 330.77 362.92 327.57 355.26Z" fill="#4F60FF"/>
<path d="M356.52 426.14L418.13 407.65L417.69 373.08L449.06 370.69C449.06 370.69 446.56 388.6 446.19 397.79C445.67 411 439.31 429.47 435.06 433.38C430.81 437.29 354.88 441.56 354.88 441.56L356.52 426.14Z" fill="#FFBF9D"/>
<path d="M321.58 437C321.819 437.417 322.177 437.754 322.608 437.967C323.039 438.181 323.523 438.262 324 438.2C324.204 438.159 324.405 438.102 324.6 438.03C325.95 437.47 325.6 434.66 325.6 434.66L332.16 433.06C332.16 433.06 341.22 437.96 344.58 441.42C347.94 444.88 355.58 441.27 355.58 441.27L357.2 426.91L344.11 416.8C344.11 416.8 344.91 417.4 343.91 415.4C342.91 413.4 339.12 414.48 339.12 414.48C338.45 413.48 335.91 413.33 335.91 413.33L325.28 415.39C324.198 415.601 323.178 416.052 322.293 416.71C321.409 417.367 320.684 418.215 320.17 419.19L316.17 426.71C316.17 426.71 314.17 432.07 314.66 433.24C314.865 433.729 315.245 434.124 315.726 434.348C316.207 434.572 316.754 434.608 317.26 434.45C317.26 434.45 318.05 437.81 318.96 437.86C319.872 437.745 320.754 437.46 321.56 437.02L321.58 437Z" fill="#FFBF9D"/>
<path d="M343.61 425.08C343.61 425.2 342.17 425.18 339.89 425.45C336.924 425.826 334.024 426.606 331.27 427.77C329.757 428.41 328.299 429.172 326.91 430.05C325.67 430.88 324.36 431.58 324.02 432.56C323.945 432.771 323.926 432.998 323.964 433.219C324.003 433.44 324.098 433.647 324.24 433.82C324.46 434.108 324.759 434.327 325.1 434.45C325.411 434.522 325.732 434.543 326.05 434.51C326.05 434.51 325.74 434.83 325.05 434.7C324.628 434.613 324.246 434.392 323.96 434.07C323.758 433.85 323.617 433.581 323.55 433.29C323.484 432.999 323.494 432.696 323.58 432.41C323.815 431.763 324.24 431.201 324.8 430.8C325.35 430.37 325.93 429.93 326.58 429.51C327.987 428.59 329.473 427.797 331.02 427.14C333.829 425.939 336.815 425.206 339.86 424.97C341.108 424.818 342.373 424.855 343.61 425.08Z" fill="#FF9A6C"/>
<path d="M344.89 431.86C344.89 432.07 340.52 432.22 335.18 432.95C329.84 433.68 325.58 434.67 325.53 434.47C326.401 434.057 327.322 433.758 328.27 433.58C330.518 433.019 332.794 432.581 335.09 432.27C337.384 431.955 339.695 431.775 342.01 431.73C342.972 431.647 343.94 431.691 344.89 431.86Z" fill="#FF9A6C"/>
<path d="M321.62 436.74C321.507 436.372 321.433 435.993 321.4 435.61C321.252 434.57 321.169 433.521 321.15 432.47C321.132 431.734 321.176 430.999 321.28 430.27C321.414 429.415 321.709 428.594 322.15 427.85C323.081 426.148 324.338 424.646 325.85 423.43C327.34 422.197 329 421.186 330.78 420.43C332.252 419.884 333.788 419.528 335.35 419.37C336.68 419.22 337.75 419.16 338.49 419.13C338.871 419.072 339.259 419.072 339.64 419.13C338.249 419.444 336.839 419.675 335.42 419.82C333.906 420.041 332.423 420.437 331 421C329.301 421.764 327.711 422.749 326.27 423.93C324.823 425.096 323.608 426.524 322.69 428.14C321.945 429.448 321.574 430.936 321.62 432.44C321.58 435.09 321.77 436.73 321.62 436.74Z" fill="#FF9A6C"/>
<path d="M335.6 416.09C335.6 416.19 334.01 416.36 331.47 416.85C328.93 417.34 325.1 417.91 323.11 421.48C320.92 424.77 319.11 427.85 318.35 430.31C317.988 431.652 317.754 433.024 317.65 434.41C317.527 434.043 317.476 433.656 317.5 433.27C317.478 432.227 317.61 431.185 317.89 430.18C318.51 427.59 320.34 424.4 322.55 421.1C323.091 420.265 323.736 419.502 324.47 418.83C325.187 418.222 326.011 417.754 326.9 417.45C328.356 416.94 329.861 416.582 331.39 416.38C332.776 416.105 334.19 416.008 335.6 416.09Z" fill="#FF9A6C"/>
<path d="M342.08 439.31C341.838 439.193 341.61 439.048 341.4 438.88L339.5 437.57C337.111 435.997 334.633 434.561 332.08 433.27H332.23L325.68 434.92L325.89 434.62C325.955 435.161 325.955 435.709 325.89 436.25C325.849 436.853 325.63 437.431 325.26 437.91C325.029 438.147 324.733 438.31 324.41 438.38C324.112 438.484 323.796 438.528 323.48 438.51C322.831 438.458 322.222 438.179 321.76 437.72C321.643 437.606 321.536 437.482 321.44 437.35L321.37 437.25V437.2L321.77 437.31L321.57 437.41C321.29 437.54 321.02 437.67 320.73 437.78C320.44 437.898 320.143 437.998 319.84 438.08C319.679 438.12 319.515 438.151 319.35 438.17C319.141 438.206 318.926 438.182 318.73 438.1C318.414 437.9 318.164 437.611 318.01 437.27C317.852 436.985 317.719 436.687 317.61 436.38C317.384 435.778 317.194 435.164 317.04 434.54L317.45 434.78C317.007 434.915 316.535 434.925 316.087 434.808C315.639 434.692 315.231 434.454 314.91 434.12C314.571 433.769 314.372 433.307 314.35 432.82C314.347 432.383 314.39 431.947 314.48 431.52C314.853 429.848 315.341 428.204 315.94 426.6L318.06 422.6C318.513 421.74 318.963 420.89 319.41 420.05C319.821 419.172 320.323 418.341 320.91 417.57C321.538 416.824 322.314 416.218 323.19 415.79C324.043 415.398 324.95 415.135 325.88 415.01L335.88 413.09H335.96C336.572 413.143 337.178 413.253 337.77 413.42C338.404 413.569 338.973 413.92 339.39 414.42L339.01 414.33C339.538 414.039 340.129 413.88 340.731 413.868C341.334 413.856 341.931 413.99 342.47 414.26C343.414 414.843 344.098 415.767 344.38 416.84L344.29 416.71L353.29 423.63L355.72 425.55C356.014 425.757 356.289 425.992 356.54 426.25C356.219 426.082 355.915 425.884 355.63 425.66L353.12 423.86C350.9 422.22 347.79 419.92 343.97 417.12L343.91 417.07V416.98C343.651 416.049 343.051 415.249 342.23 414.74C341.771 414.522 341.266 414.417 340.758 414.435C340.25 414.452 339.753 414.591 339.31 414.84L339.09 414.96L338.93 414.75C338.578 414.383 338.12 414.134 337.62 414.04C337.072 413.883 336.509 413.783 335.94 413.74H336L326 415.74C325.128 415.855 324.279 416.101 323.48 416.47C322.69 416.864 321.989 417.415 321.42 418.09C320.864 418.824 320.388 419.615 320 420.45L318.66 423L316.53 427C315.943 428.569 315.462 430.176 315.09 431.81C315.009 432.188 314.965 432.573 314.96 432.96C314.982 433.29 315.12 433.602 315.35 433.84C315.588 434.08 315.887 434.25 316.215 434.333C316.542 434.416 316.887 434.408 317.21 434.31L317.54 434.23L317.62 434.55C317.768 435.149 317.949 435.74 318.16 436.32C318.309 436.839 318.584 437.313 318.96 437.7C319.053 437.713 319.147 437.713 319.24 437.7L319.64 437.62C319.919 437.548 320.193 437.458 320.46 437.35C320.72 437.25 320.99 437.13 321.25 437.01L321.44 436.92L321.84 437.03L321.9 437.11C321.969 437.221 322.053 437.322 322.15 437.41C322.504 437.771 322.976 437.991 323.48 438.03C323.727 438.055 323.977 438.025 324.21 437.94C324.434 437.899 324.639 437.791 324.8 437.63C325.3 436.78 325.48 435.781 325.31 434.81V434.56L325.53 434.51L332.1 432.95H332.19H332.26C334.81 434.29 337.269 435.796 339.62 437.46C340.44 438.05 341.05 438.53 341.46 438.87C341.68 438.998 341.887 439.145 342.08 439.31Z" fill="#FF9A6C"/>
<path d="M250.43 441.26L229.76 387C229.58 386.527 229.518 386.018 229.578 385.516C229.639 385.014 229.821 384.534 230.108 384.118C230.396 383.701 230.78 383.361 231.228 383.126C231.676 382.892 232.174 382.769 232.68 382.77H299C299.593 382.771 300.173 382.94 300.674 383.256C301.174 383.573 301.575 384.025 301.83 384.56L321.7 436.33L363.38 437.03C364.208 437.03 365.001 437.359 365.586 437.944C366.171 438.529 366.5 439.323 366.5 440.15C366.5 440.978 366.171 441.771 365.586 442.356C365.001 442.941 364.208 443.27 363.38 443.27H253.34C252.709 443.269 252.092 443.076 251.573 442.717C251.053 442.358 250.655 441.85 250.43 441.26Z" fill="#455A64"/>
<path d="M278.51 413C278.51 413.86 278.255 414.701 277.777 415.417C277.299 416.132 276.62 416.69 275.825 417.019C275.03 417.348 274.155 417.434 273.311 417.266C272.468 417.099 271.692 416.684 271.084 416.076C270.476 415.468 270.061 414.692 269.894 413.849C269.726 413.005 269.812 412.13 270.141 411.335C270.47 410.54 271.028 409.861 271.743 409.383C272.459 408.905 273.3 408.65 274.16 408.65C275.314 408.65 276.42 409.108 277.236 409.924C278.052 410.74 278.51 411.846 278.51 413Z" fill="white"/>
<path d="M349.71 333.11C349.82 333.17 348.82 335.04 347.42 338.11C343.744 346.216 341.339 354.841 340.29 363.68C339.88 367.07 339.76 369.18 339.64 369.18C339.555 368.688 339.531 368.188 339.57 367.69C339.57 366.69 339.57 365.34 339.77 363.63C340.561 354.688 343.013 345.973 347 337.93C347.76 336.39 348.43 335.17 348.93 334.35C349.133 333.904 349.396 333.486 349.71 333.11Z" fill="#263238"/>
<path d="M454.44 370.28C454.191 370.345 453.937 370.385 453.68 370.4L451.47 370.61L443.23 371.3L415.07 373.43H414.71V373.07C414.47 369.33 414.22 365.38 413.96 361.32C413.56 354.25 413.22 347.51 413.11 341.37C412.747 335.856 414.005 330.357 416.73 325.55C418.582 322.336 421.312 319.717 424.6 318C425.496 317.55 426.434 317.189 427.4 316.92C427.724 316.802 428.059 316.718 428.4 316.67C428.4 316.77 427.01 317.06 424.73 318.26C421.546 320.04 418.922 322.672 417.15 325.86C414.545 330.604 413.371 336.002 413.77 341.4C413.91 347.52 414.27 354.25 414.67 361.32C414.92 365.38 415.17 369.32 415.4 373.06L415.01 372.73L443.19 370.86L451.44 370.39L453.66 370.29C453.919 370.255 454.181 370.252 454.44 370.28Z" fill="#263238"/>
<path d="M385.35 394.3C384.921 394.202 384.508 394.047 384.12 393.84C383.644 393.645 383.182 393.414 382.74 393.15C382.141 392.83 381.56 392.476 381 392.09C379.552 391.08 378.211 389.924 377 388.64C375.508 387.051 374.203 385.296 373.11 383.41C372.052 381.51 371.21 379.497 370.6 377.41C370.118 375.7 369.823 373.943 369.72 372.17C369.673 371.504 369.673 370.836 369.72 370.17C369.715 369.658 369.752 369.146 369.83 368.64C369.848 368.201 369.929 367.766 370.07 367.35C370.22 367.35 369.98 369.22 370.27 372.17C370.439 373.898 370.774 375.606 371.27 377.27C371.895 379.299 372.733 381.257 373.77 383.11C374.835 384.948 376.089 386.671 377.51 388.25C378.683 389.53 379.976 390.695 381.37 391.73C383.7 393.42 385.42 394.16 385.35 394.3Z" fill="#263238"/>
<g opacity="0.3">
<path d="M265.1 314.84H332.05C338.529 314.84 343.78 309.588 343.78 303.11V152.74C343.78 146.262 338.529 141.01 332.05 141.01H265.1C258.622 141.01 253.37 146.262 253.37 152.74V303.11C253.37 309.588 258.622 314.84 265.1 314.84Z" fill="black"/>
</g>
<path d="M264.45 310.47H326C333.97 310.47 340.43 304.009 340.43 296.04V139C340.43 131.031 333.97 124.57 326 124.57H264.45C256.481 124.57 250.02 131.031 250.02 139V296.04C250.02 304.009 256.481 310.47 264.45 310.47Z" fill="white"/>
<path d="M268.12 124.56H322.34C327.114 124.56 331.692 126.456 335.068 129.832C338.444 133.208 340.34 137.786 340.34 142.56V196.56C340.34 203.482 337.59 210.121 332.696 215.016C327.801 219.91 321.162 222.66 314.24 222.66H276.24C272.812 222.661 269.418 221.987 266.251 220.676C263.083 219.365 260.206 217.442 257.782 215.018C255.358 212.595 253.435 209.717 252.124 206.55C250.813 203.382 250.139 199.988 250.14 196.56V142.56C250.14 137.79 252.034 133.214 255.405 129.839C258.776 126.464 263.35 124.565 268.12 124.56Z" fill="#F5F5F5"/>
<path d="M325.01 154.62H262.59C258.746 154.62 255.63 157.736 255.63 161.58V165.33C255.63 169.174 258.746 172.29 262.59 172.29H325.01C328.854 172.29 331.97 169.174 331.97 165.33V161.58C331.97 157.736 328.854 154.62 325.01 154.62Z" fill="#E0E0E0"/>
<path d="M319.14 139.39C319.476 139.39 319.805 139.49 320.085 139.677C320.364 139.863 320.582 140.129 320.711 140.439C320.839 140.75 320.873 141.092 320.807 141.422C320.742 141.751 320.58 142.054 320.342 142.292C320.105 142.53 319.802 142.692 319.472 142.757C319.142 142.823 318.8 142.789 318.49 142.661C318.179 142.532 317.913 142.314 317.727 142.034C317.54 141.755 317.44 141.426 317.44 141.09C317.44 140.639 317.619 140.207 317.938 139.888C318.257 139.569 318.689 139.39 319.14 139.39Z" fill="#263238"/>
<path d="M324 139.39C324.336 139.39 324.665 139.49 324.945 139.677C325.224 139.863 325.442 140.129 325.571 140.439C325.699 140.75 325.733 141.092 325.667 141.422C325.602 141.751 325.44 142.054 325.202 142.292C324.964 142.53 324.661 142.692 324.332 142.757C324.002 142.823 323.66 142.789 323.349 142.661C323.039 142.532 322.773 142.314 322.587 142.034C322.4 141.755 322.3 141.426 322.3 141.09C322.303 140.64 322.483 140.209 322.801 139.891C323.119 139.573 323.55 139.393 324 139.39Z" fill="#263238"/>
<path d="M328.9 142.79C329.839 142.79 330.6 142.029 330.6 141.09C330.6 140.151 329.839 139.39 328.9 139.39C327.961 139.39 327.2 140.151 327.2 141.09C327.2 142.029 327.961 142.79 328.9 142.79Z" fill="#263238"/>
<path d="M261.42 138.54L259.37 140.65C259.252 140.768 259.186 140.928 259.186 141.095C259.186 141.262 259.252 141.422 259.37 141.54L261.42 143.23C261.538 143.345 261.696 143.409 261.86 143.409C262.024 143.409 262.182 143.345 262.3 143.23C262.358 143.172 262.404 143.104 262.436 143.028C262.467 142.953 262.483 142.872 262.483 142.79C262.483 142.708 262.467 142.627 262.436 142.552C262.404 142.476 262.358 142.408 262.3 142.35L260.25 140.65V141.54L262.3 139.42C262.358 139.362 262.404 139.294 262.436 139.218C262.467 139.143 262.483 139.062 262.483 138.98C262.483 138.898 262.467 138.817 262.436 138.742C262.404 138.666 262.358 138.598 262.3 138.54C262.182 138.425 262.024 138.361 261.86 138.361C261.696 138.361 261.538 138.425 261.42 138.54Z" fill="#263238"/>
<path d="M263.93 163.26C263.932 163.56 263.84 163.853 263.667 164.098C263.494 164.343 263.249 164.527 262.966 164.627C262.683 164.726 262.376 164.734 262.088 164.65C261.8 164.567 261.546 164.395 261.36 164.16C261.18 163.929 261.074 163.649 261.054 163.357C261.035 163.065 261.103 162.773 261.25 162.52C261.411 162.247 261.657 162.036 261.95 161.917C262.244 161.798 262.568 161.78 262.873 161.864C263.178 161.948 263.447 162.131 263.638 162.383C263.829 162.635 263.932 162.944 263.93 163.26C263.945 163.349 263.99 163.43 264.059 163.488C264.128 163.547 264.215 163.579 264.305 163.579C264.395 163.579 264.482 163.547 264.551 163.488C264.62 163.43 264.665 163.349 264.68 163.26C264.675 162.812 264.535 162.375 264.278 162.008C264.021 161.64 263.659 161.359 263.24 161.2C262.817 161.047 262.357 161.027 261.923 161.143C261.488 161.26 261.1 161.506 260.81 161.85C260.517 162.197 260.34 162.626 260.302 163.078C260.264 163.531 260.367 163.984 260.598 164.374C260.829 164.765 261.175 165.075 261.589 165.26C262.003 165.446 262.465 165.498 262.91 165.41C263.408 165.311 263.856 165.043 264.178 164.651C264.501 164.259 264.678 163.768 264.68 163.26C264.665 163.171 264.62 163.09 264.551 163.032C264.482 162.973 264.395 162.941 264.305 162.941C264.215 162.941 264.128 162.973 264.059 163.032C263.99 163.09 263.945 163.171 263.93 163.26Z" fill="#263238"/>
<path d="M263.46 164.86L264.15 165.62L264.25 165.73C264.284 165.765 264.324 165.793 264.369 165.812C264.414 165.83 264.462 165.84 264.51 165.84C264.56 165.841 264.61 165.832 264.656 165.813C264.703 165.794 264.745 165.766 264.78 165.73C264.847 165.658 264.884 165.563 264.884 165.465C264.884 165.367 264.847 165.272 264.78 165.2L264.09 164.44L263.99 164.33C263.956 164.295 263.916 164.267 263.871 164.248C263.827 164.23 263.779 164.22 263.73 164.22C263.629 164.221 263.533 164.261 263.46 164.33C263.393 164.402 263.356 164.497 263.356 164.595C263.356 164.693 263.393 164.788 263.46 164.86Z" fill="#263238"/>
<path d="M263.75 187.85H259.24C258.791 187.851 258.347 187.764 257.932 187.593C257.517 187.423 257.14 187.172 256.822 186.855C256.505 186.538 256.253 186.162 256.081 185.747C255.909 185.333 255.82 184.889 255.82 184.44C255.823 183.535 256.184 182.667 256.825 182.028C257.466 181.389 258.335 181.03 259.24 181.03H263.75C264.654 181.03 265.522 181.389 266.161 182.029C266.801 182.668 267.16 183.536 267.16 184.44C267.16 185.344 266.801 186.212 266.161 186.851C265.522 187.491 264.654 187.85 263.75 187.85Z" fill="#4F60FF"/>
<path d="M329.72 187.85H325.2C324.296 187.85 323.428 187.491 322.789 186.851C322.149 186.212 321.79 185.344 321.79 184.44C321.786 183.99 321.871 183.543 322.041 183.126C322.211 182.709 322.461 182.329 322.778 182.009C323.095 181.69 323.473 181.436 323.888 181.262C324.304 181.089 324.75 181 325.2 181H329.72C330.625 181 331.492 181.359 332.131 181.999C332.771 182.638 333.13 183.506 333.13 184.41C333.134 184.86 333.049 185.307 332.879 185.724C332.71 186.141 332.459 186.521 332.142 186.841C331.825 187.16 331.448 187.414 331.032 187.588C330.616 187.761 330.171 187.85 329.72 187.85Z" fill="#E0E0E0"/>
<path d="M293.62 187.85H275C274.552 187.851 274.107 187.764 273.692 187.593C273.277 187.423 272.9 187.172 272.582 186.855C272.265 186.538 272.013 186.162 271.841 185.747C271.669 185.333 271.58 184.889 271.58 184.44C271.578 183.989 271.664 183.542 271.835 183.125C272.005 182.708 272.257 182.328 272.575 182.009C272.893 181.689 273.27 181.435 273.687 181.262C274.103 181.089 274.549 181 275 181H293.62C294.525 181 295.392 181.359 296.031 181.999C296.671 182.638 297.03 183.506 297.03 184.41C297.034 184.86 296.949 185.307 296.779 185.724C296.61 186.141 296.359 186.521 296.042 186.841C295.725 187.16 295.348 187.414 294.932 187.588C294.516 187.761 294.07 187.85 293.62 187.85Z" fill="#EBEBEB"/>
<path d="M315 187.85H303.36C302.456 187.85 301.588 187.491 300.949 186.851C300.309 186.212 299.95 185.344 299.95 184.44C299.95 183.536 300.309 182.668 300.949 182.029C301.588 181.389 302.456 181.03 303.36 181.03H315C315.905 181.03 316.774 181.389 317.415 182.028C318.056 182.667 318.418 183.535 318.42 184.44C318.42 184.889 318.332 185.333 318.16 185.747C317.988 186.162 317.736 186.538 317.418 186.855C317.1 187.172 316.723 187.423 316.308 187.593C315.893 187.764 315.449 187.851 315 187.85Z" fill="#455A64"/>
<path d="M279.45 253.14H263.99C262.598 253.14 261.47 254.268 261.47 255.66C261.47 257.052 262.598 258.18 263.99 258.18H279.45C280.842 258.18 281.97 257.052 281.97 255.66C281.97 254.268 280.842 253.14 279.45 253.14Z" fill="#4F60FF"/>
<path d="M329.31 290.89C329.31 291.568 329.109 292.232 328.732 292.796C328.355 293.36 327.82 293.799 327.193 294.059C326.566 294.318 325.876 294.386 325.211 294.254C324.546 294.122 323.935 293.795 323.455 293.315C322.975 292.836 322.648 292.224 322.516 291.559C322.384 290.894 322.452 290.204 322.711 289.577C322.971 288.951 323.41 288.415 323.975 288.038C324.539 287.661 325.202 287.46 325.88 287.46C326.79 287.46 327.662 287.821 328.306 288.465C328.949 289.108 329.31 289.98 329.31 290.89Z" fill="#4F60FF"/>
<path d="M319.46 290.89C319.462 291.571 319.262 292.237 318.885 292.804C318.508 293.371 317.972 293.813 317.343 294.075C316.715 294.337 316.023 294.407 315.355 294.275C314.687 294.143 314.073 293.817 313.591 293.336C313.109 292.855 312.78 292.242 312.647 291.575C312.513 290.907 312.581 290.215 312.841 289.586C313.101 288.957 313.542 288.419 314.108 288.04C314.674 287.662 315.339 287.46 316.02 287.46C316.931 287.46 317.804 287.821 318.449 288.464C319.094 289.107 319.457 289.979 319.46 290.89Z" fill="#4F60FF"/>
<path d="M308.86 290.89C308.86 291.568 308.659 292.232 308.282 292.796C307.905 293.36 307.369 293.799 306.743 294.059C306.116 294.318 305.426 294.386 304.761 294.254C304.095 294.122 303.484 293.795 303.005 293.315C302.525 292.836 302.198 292.224 302.066 291.559C301.934 290.894 302.001 290.204 302.261 289.577C302.521 288.951 302.96 288.415 303.524 288.038C304.088 287.661 304.752 287.46 305.43 287.46C306.34 287.46 307.212 287.821 307.855 288.465C308.499 289.108 308.86 289.98 308.86 290.89Z" fill="#4F60FF"/>
<path d="M329.54 275.84H302.54C302.329 275.84 302.119 275.798 301.924 275.717C301.729 275.637 301.551 275.518 301.402 275.368C301.252 275.219 301.134 275.041 301.053 274.846C300.972 274.651 300.93 274.441 300.93 274.23C300.93 274.019 300.972 273.809 301.053 273.614C301.134 273.419 301.252 273.241 301.402 273.092C301.551 272.942 301.729 272.823 301.924 272.743C302.119 272.662 302.329 272.62 302.54 272.62H329.54C329.965 272.623 330.372 272.793 330.672 273.095C330.972 273.397 331.14 273.805 331.14 274.23C331.14 274.655 330.972 275.063 330.672 275.365C330.372 275.667 329.965 275.837 329.54 275.84Z" fill="#263238"/>
<path d="M329.54 282.5H302.54C302.329 282.5 302.119 282.458 301.924 282.377C301.729 282.297 301.551 282.178 301.402 282.028C301.252 281.879 301.134 281.701 301.053 281.506C300.972 281.311 300.93 281.101 300.93 280.89C300.933 280.464 301.103 280.056 301.405 279.754C301.706 279.453 302.114 279.283 302.54 279.28H329.54C329.965 279.283 330.372 279.453 330.672 279.755C330.972 280.057 331.14 280.465 331.14 280.89C331.14 281.315 330.972 281.723 330.672 282.025C330.372 282.327 329.965 282.497 329.54 282.5Z" fill="#263238"/>
<path d="M324.23 197.69H265.55C261.927 197.69 258.99 200.627 258.99 204.25V236.46C258.99 240.083 261.927 243.02 265.55 243.02H324.23C327.853 243.02 330.79 240.083 330.79 236.46V204.25C330.79 200.627 327.853 197.69 324.23 197.69Z" fill="white"/>
<path d="M291.22 216.28C293.866 216.28 296.01 214.135 296.01 211.49C296.01 208.845 293.866 206.7 291.22 206.7C288.575 206.7 286.43 208.845 286.43 211.49C286.43 214.135 288.575 216.28 291.22 216.28Z" fill="#455A64"/>
<path d="M330.8 237.18V221.09C329.023 218.895 327.03 216.885 324.85 215.09C321.29 212.27 316.99 210.39 312.69 210.85C307.12 211.46 302.36 215.85 299.09 221.05C297.49 223.59 295.83 226.62 293.09 227.15C291.01 227.56 288.96 226.3 287.31 224.81C285.66 223.32 284.15 221.53 282.22 220.56C278.35 218.56 273.87 220.43 270.1 222.62C266.139 224.928 262.405 227.606 258.95 230.62V237.14C258.95 240.36 261.24 242.98 264.06 242.98H325.65C328.51 243 330.8 240.4 330.8 237.18Z" fill="#455A64"/>
<path d="M324.24 243C324.991 242.954 325.731 242.803 326.44 242.55C327.294 242.237 328.071 241.746 328.72 241.11C329.616 240.249 330.238 239.143 330.51 237.93C330.665 237.211 330.722 236.474 330.68 235.74C330.68 234.96 330.68 234.13 330.68 233.28C330.68 231.56 330.68 229.69 330.68 227.69C330.68 223.69 330.68 219.12 330.68 214.08C330.68 211.55 330.68 208.91 330.68 206.16C330.789 204.78 330.654 203.392 330.28 202.06C329.793 200.726 328.874 199.593 327.67 198.84C327.053 198.46 326.377 198.186 325.67 198.03C324.937 197.902 324.193 197.855 323.45 197.89H318.7H308.95H265.55C264.165 197.891 262.819 198.347 261.72 199.19C260.621 200.032 259.83 201.213 259.47 202.55C259.27 203.445 259.196 204.364 259.25 205.28V216.36C259.25 219.99 259.25 223.55 259.25 227.04V234.77C259.224 235.597 259.244 236.425 259.31 237.25C259.52 238.844 260.332 240.296 261.58 241.31C262.798 242.296 264.335 242.801 265.9 242.73H275.09H291.59L315.49 242.81L321.99 242.86H323.67C324.06 242.86 324.25 242.86 324.25 242.86H323.67H321.99L315.49 242.91L291.59 242.99H275.09H265.9C264.228 243.065 262.585 242.528 261.28 241.48C259.942 240.392 259.067 238.838 258.83 237.13C258.757 236.282 258.734 235.431 258.76 234.58V232.03C258.76 230.33 258.76 228.6 258.76 226.85V216.42C258.76 212.79 258.76 209.09 258.76 205.34C258.707 204.38 258.788 203.418 259 202.48C259.394 201.039 260.252 199.768 261.442 198.864C262.631 197.96 264.086 197.473 265.58 197.48H308.98H323.4C324.174 197.449 324.948 197.503 325.71 197.64C326.47 197.803 327.195 198.101 327.85 198.52C329.135 199.324 330.113 200.535 330.63 201.96C330.878 202.65 331.01 203.377 331.02 204.11C331.02 204.81 331.02 205.51 331.02 206.2C331.02 208.95 331.02 211.59 331.02 214.12C331.02 219.12 331.02 223.72 331.02 227.73C331.02 229.73 331.02 231.6 331.02 233.32C331.02 234.17 331.02 235 331.02 235.78C331.052 236.532 330.985 237.285 330.82 238.02C330.561 239.09 330.038 240.078 329.299 240.893C328.56 241.709 327.629 242.327 326.59 242.69C326.055 242.878 325.496 242.992 324.93 243.03L324.24 243Z" fill="#263238"/>
<path d="M285.25 265.58H267.45C262.717 265.58 258.88 269.417 258.88 274.15V288.74C258.88 293.473 262.717 297.31 267.45 297.31H285.25C289.983 297.31 293.82 293.473 293.82 288.74V274.15C293.82 269.417 289.983 265.58 285.25 265.58Z" fill="white"/>
<path d="M281 274.74C281 275.418 280.799 276.082 280.422 276.646C280.045 277.21 279.509 277.649 278.883 277.909C278.256 278.169 277.566 278.237 276.901 278.104C276.236 277.972 275.624 277.645 275.145 277.165C274.665 276.686 274.338 276.075 274.206 275.409C274.074 274.744 274.142 274.054 274.401 273.427C274.661 272.801 275.1 272.265 275.665 271.888C276.229 271.511 276.892 271.31 277.57 271.31C278.479 271.313 279.35 271.675 279.993 272.318C280.635 272.96 280.998 273.831 281 274.74Z" fill="#4F60FF"/>
<path d="M267.69 297.31H285C286.158 297.31 287.304 297.082 288.374 296.638C289.443 296.195 290.415 295.545 291.233 294.726C292.052 293.907 292.7 292.935 293.142 291.865C293.585 290.794 293.811 289.648 293.81 288.49V277.84C292.548 277.383 291.211 277.169 289.87 277.21C287.818 277.323 285.867 278.134 284.34 279.51C282.92 280.73 281.89 282.17 280.58 283.46C279.693 284.448 278.478 285.081 277.16 285.24C273.79 285.47 272.38 281.75 269.16 281.03C267.615 280.75 266.02 281.037 264.67 281.84C263.508 282.572 262.471 283.487 261.6 284.55L258.9 287.55V288.5C258.9 290.833 259.826 293.071 261.473 294.723C263.121 296.374 265.357 297.305 267.69 297.31Z" fill="#4F60FF"/>
<path d="M285.32 297.31C285.32 297.31 285.74 297.31 286.52 297.16C287.649 297 288.733 296.605 289.7 296C291.236 295.034 292.42 293.6 293.08 291.91C293.93 289.96 293.57 287.47 293.63 284.79C293.69 282.11 293.63 279.16 293.63 276.01C293.759 274.404 293.579 272.788 293.1 271.25C292.523 269.668 291.476 268.3 290.1 267.33C288.632 266.32 286.881 265.805 285.1 265.86H267.37C265.392 265.862 263.481 266.572 261.98 267.86C260.52 269.115 259.552 270.848 259.25 272.75C259.134 273.685 259.094 274.628 259.13 275.57V278.39C259.13 280.25 259.13 282.07 259.13 283.85V289C259.168 290.599 259.664 292.154 260.56 293.48C261.406 294.714 262.57 295.696 263.93 296.32C265.183 296.892 266.554 297.159 267.93 297.1L280.66 297.18L284.12 297.23L280.66 297.28L267.93 297.36C266.494 297.436 265.062 297.168 263.75 296.58C262.267 295.908 261.003 294.833 260.103 293.476C259.203 292.12 258.703 290.537 258.66 288.91C258.66 287.23 258.66 285.5 258.66 283.72C258.66 281.94 258.66 280.12 258.66 278.26V275.44C258.613 274.472 258.65 273.502 258.77 272.54C259.106 270.492 260.158 268.629 261.738 267.283C263.318 265.937 265.324 265.196 267.4 265.19H285C286.882 265.138 288.732 265.688 290.28 266.76C291.751 267.787 292.868 269.244 293.48 270.93C293.99 272.568 294.167 274.292 294 276C294 279.15 294 282.09 294 284.78C294 286.12 294 287.4 294 288.61C294.012 289.773 293.798 290.928 293.37 292.01C292.675 293.743 291.432 295.201 289.83 296.16C288.83 296.766 287.711 297.152 286.55 297.29C286.142 297.34 285.73 297.347 285.32 297.31Z" fill="#263238"/>
<path d="M264.11 310.47L262.75 310.42C261.419 310.3 260.113 309.99 258.87 309.5C256.835 308.709 255.018 307.444 253.57 305.81C251.561 303.59 250.311 300.788 250 297.81C249.87 296.13 249.94 294.38 249.91 292.53C249.88 290.68 249.91 288.74 249.91 286.71C249.91 282.71 249.91 278.25 249.91 273.52C249.91 264.05 249.91 253.28 249.91 241.36C249.91 217.53 249.91 189.16 249.91 157.65C249.91 153.72 249.91 149.73 249.91 145.65C249.91 143.65 249.91 141.65 249.96 139.56C250.158 136.39 251.278 133.346 253.183 130.804C255.087 128.262 257.693 126.331 260.68 125.25C262.709 124.539 264.85 124.2 267 124.25H323.06C324.205 124.227 325.351 124.274 326.49 124.39C328.775 124.674 330.975 125.436 332.946 126.627C334.917 127.817 336.615 129.41 337.93 131.3C339.234 133.173 340.121 135.305 340.53 137.55C340.83 139.767 340.927 142.006 340.82 144.24V170.4C340.82 187.54 340.82 204.08 340.82 219.84C340.82 235.6 340.82 250.56 340.82 264.58C340.82 271.58 340.82 278.35 340.82 284.85C340.82 288.103 340.82 291.29 340.82 294.41C340.885 295.962 340.795 297.516 340.55 299.05C340.244 300.549 339.711 301.992 338.97 303.33C338.237 304.632 337.298 305.807 336.19 306.81C335.13 307.808 333.914 308.625 332.59 309.23C331.326 309.831 329.977 310.236 328.59 310.43C327.229 310.579 325.859 310.629 324.49 310.58H309.33H285.05L269.7 310.53L285.05 310.48H309.33H324.49C325.825 310.519 327.162 310.466 328.49 310.32C329.878 310.145 331.229 309.746 332.49 309.14C333.779 308.547 334.965 307.75 336 306.78C337.071 305.794 337.982 304.647 338.7 303.38C339.358 301.996 339.796 300.519 340 299C340.23 297.488 340.314 295.958 340.25 294.43C340.25 291.31 340.25 288.123 340.25 284.87C340.25 278.37 340.25 271.6 340.25 264.6C340.25 250.6 340.25 235.6 340.25 219.86C340.25 204.12 340.25 187.56 340.25 170.42V144.29C340.345 142.086 340.248 139.877 339.96 137.69C339.557 135.533 338.698 133.488 337.44 131.69C336.159 129.854 334.504 128.309 332.584 127.156C330.665 126.003 328.523 125.268 326.3 125C325.18 124.896 324.055 124.853 322.93 124.87H266.87C264.779 124.821 262.697 125.16 260.73 125.87C257.834 126.915 255.306 128.784 253.456 131.246C251.607 133.708 250.517 136.657 250.32 139.73C250.22 141.73 250.32 143.79 250.27 145.79V157.79C250.27 189.3 250.27 217.67 250.21 241.5C250.21 253.42 250.21 264.19 250.21 273.66C250.21 278.39 250.21 282.8 250.21 286.85C250.21 288.85 250.21 290.85 250.21 292.67C250.21 294.49 250.15 296.29 250.27 297.93C250.568 300.872 251.789 303.645 253.76 305.85C255.187 307.474 256.975 308.741 258.98 309.55C260.624 310.151 262.36 310.462 264.11 310.47Z" fill="#263238"/>
<path d="M294.89 356.21C294.75 356.21 294.63 345.97 294.63 333.34C294.63 320.71 294.75 310.47 294.89 310.47C295.03 310.47 295.15 320.7 295.15 333.34C295.15 345.98 295 356.21 294.89 356.21Z" fill="#263238"/>
<path d="M298.66 123C298.66 123.961 298.375 124.901 297.841 125.7C297.307 126.499 296.548 127.122 295.66 127.49C294.772 127.858 293.795 127.954 292.852 127.767C291.909 127.579 291.043 127.116 290.364 126.437C289.684 125.757 289.221 124.891 289.034 123.948C288.846 123.005 288.942 122.028 289.31 121.14C289.678 120.252 290.301 119.493 291.1 118.959C291.899 118.425 292.839 118.14 293.8 118.14C295.089 118.14 296.325 118.652 297.237 119.563C298.148 120.475 298.66 121.711 298.66 123Z" fill="#263238"/>
<path d="M295.23 360.01C297.914 360.01 300.09 357.834 300.09 355.15C300.09 352.466 297.914 350.29 295.23 350.29C292.546 350.29 290.37 352.466 290.37 355.15C290.37 357.834 292.546 360.01 295.23 360.01Z" fill="#263238"/>
<path d="M238.33 103C238.58 102.985 238.83 102.985 239.08 103H241.23L249.14 102.92L275.22 102.84H286.22C287.892 102.823 289.524 103.349 290.871 104.339C292.218 105.329 293.207 106.729 293.69 108.33C293.956 109.262 294.064 110.232 294.01 111.2C294.01 112.11 294.01 112.98 294.01 113.82C294.01 117.12 293.95 119.82 293.93 121.72C293.93 122.62 293.93 123.33 293.93 123.87C293.935 124.121 293.919 124.372 293.88 124.62C293.852 124.371 293.852 124.119 293.88 123.87C293.88 123.33 293.88 122.62 293.83 121.72C293.83 119.8 293.83 117.12 293.74 113.82C293.74 112.98 293.74 112.11 293.74 111.2C293.784 110.271 293.672 109.342 293.41 108.45C293.108 107.481 292.607 106.585 291.939 105.82C291.271 105.056 290.45 104.439 289.53 104.01C287.6 103.01 285.21 103.42 282.81 103.34H275.38L249.3 103.27L241.39 103.19H239.24C238.93 103.165 238.624 103.101 238.33 103Z" fill="#263238"/>
</g>
<defs>
<clipPath id="clip0_413_363">
<rect width="518" height="500" fill="white"/>
</clipPath>
</defs>
</svg>
