<svg width="452" height="36" viewBox="0 0 452 36" fill="none" xmlns="http://www.w3.org/2000/svg">
<g clip-path="url(#clip0_909_2022)">
<path d="M29.4725 19.5829C30.1055 20.6906 30.4615 22.0752 30.4615 23.6972V23.7763C30.4615 25.4378 30.145 26.9411 29.4725 28.2862C28.8 29.6312 27.8505 30.7389 26.6637 31.6884C25.4373 32.5983 23.9736 33.3103 22.2329 33.8246C20.4923 34.3389 18.5538 34.5763 16.4176 34.5763C13.1736 34.5763 10.1275 34.1411 7.31866 33.2312C4.50987 32.3213 2.09668 30.9763 0.0791016 29.1961L5.77581 22.4312C7.51646 23.7763 9.33624 24.7257 11.2351 25.2796C13.134 25.873 15.0329 26.1499 16.9318 26.1499C17.9209 26.1499 18.5934 26.0312 19.0286 25.7939C19.4637 25.5565 19.6615 25.2005 19.6615 24.8049V24.7257C19.6615 24.251 19.345 23.895 18.7121 23.5785C18.0791 23.262 16.9318 22.9455 15.2307 22.629C13.4505 22.273 11.7494 21.8378 10.1275 21.3631C8.50548 20.8884 7.0813 20.2554 5.85493 19.5038C4.62855 18.7521 3.63954 17.8027 2.92745 16.6554C2.13624 15.429 1.7802 14.0049 1.7802 12.3433V12.2642C1.7802 10.7609 2.05712 9.33672 2.65053 8.03123C3.24394 6.72573 4.11427 5.57848 5.26152 4.62903C6.40877 3.64002 7.83295 2.88837 9.49449 2.33453C11.156 1.78068 13.0945 1.50376 15.3099 1.50376C18.3956 1.50376 21.1253 1.8598 23.4198 2.61145C25.7538 3.32354 27.811 4.43123 29.6703 5.89496L24.4879 13.0554C22.9846 11.9477 21.3626 11.1565 19.7011 10.6422C18 10.1279 16.4176 9.89057 14.9538 9.89057C14.1626 9.89057 13.5692 10.0093 13.2132 10.2466C12.8176 10.484 12.6593 10.8005 12.6593 11.1961V11.2752C12.6593 11.7103 12.9362 12.0664 13.5297 12.3829C14.1231 12.6994 15.2308 13.0158 16.8923 13.3323C18.9099 13.6884 20.7692 14.1235 22.4308 14.6378C24.0923 15.1521 25.5165 15.8246 26.7428 16.6158C27.8901 17.4862 28.8395 18.4356 29.4725 19.5829ZM29.8681 11.1169H39.2439V33.9829H49.8857V11.1169H59.2615V2.09716H29.8681V11.1169ZM153.455 0.119141L136.325 33.9829H146.532L153.455 20.295L160.418 33.9829H170.624L153.455 0.119141ZM105.745 0.119141L122.914 33.9829H112.708L105.785 20.295L98.8615 33.9829H91.9384H88.6549H79.7934L73.7802 24.884H73.7011H71.5253V33.9829H60.8835V2.09716H76.3516C79.2 2.09716 81.5341 2.41365 83.3934 3.08617C85.2132 3.71914 86.7165 4.62903 87.8242 5.73672C88.8132 6.68617 89.5253 7.79387 90 9.02024C90.4747 10.2466 90.7121 11.6708 90.7121 13.2928V13.3719C90.7121 15.706 90.1582 17.684 89.011 19.2664C87.9033 20.8884 86.3604 22.1543 84.422 23.1038L89.9604 31.1741L105.745 0.119141ZM80.1099 14.084C80.1099 13.0554 79.7538 12.3038 79.0022 11.7895C78.2901 11.2752 77.3011 11.0378 76.0351 11.0378H71.4066V17.2884H75.9956C77.2615 17.2884 78.2901 17.0114 79.0022 16.4576C79.7143 15.9038 80.1099 15.1521 80.1099 14.1631V14.084ZM136.563 2.09716L129.6 15.8246L122.637 2.09716H112.431L129.6 35.9609L146.73 2.09716H136.563Z" fill="#FC4C02"/>
<path opacity="0.8" d="M415.171 28.8864C419.307 28.8864 422 26.7703 422 23.5962C422 19.6525 418.377 18.5624 415.427 17.7288C413.664 17.2158 412.381 16.8631 412.381 15.9974C412.381 15.228 413.183 14.6508 414.529 14.6508C415.972 14.6508 417.094 15.4524 417.671 17.1196L421.711 15.9333C420.91 12.9195 417.96 10.9316 414.529 10.9316C410.842 10.9316 408.117 13.1439 408.117 16.0616C408.117 19.4922 411.163 20.4861 414.048 21.2877C416.068 21.9289 417.736 22.4099 417.736 23.7565C417.736 24.6221 416.774 25.1351 415.171 25.1351C412.99 25.1351 411.836 24.1092 411.291 21.8327L407.219 22.9229C407.957 26.7703 410.842 28.8864 415.171 28.8864Z" fill="black"/>
<path opacity="0.8" d="M398.118 28.8864C401.324 28.8864 403.825 27.6039 405.46 25.039L402.222 22.5061C401.036 24.2374 399.785 25.039 398.118 25.039C396.034 25.039 394.752 23.6603 394.623 21.2556H406.005V19.909C406.005 14.5547 402.767 10.9316 398.022 10.9316C393.309 10.9316 390.006 14.6188 390.006 19.909C390.006 25.2955 393.309 28.8864 398.118 28.8864ZM394.623 18.0174C394.784 16.0616 396.162 14.7791 398.054 14.7791C400.138 14.7791 401.388 15.9654 401.549 18.0174H394.623Z" fill="black"/>
<path opacity="0.8" d="M379.592 36.1002C384.53 36.1002 387.672 33.1505 387.672 28.4374V11.4124H383.247V12.759H383.183C382.157 11.6689 380.554 11.0918 378.662 11.0918C374.27 11.0918 371.063 14.8431 371.063 19.8768C371.063 25.1029 374.238 28.8542 378.662 28.8542C380.522 28.8542 382.349 28.1168 383.183 27.0266H383.247V28.2771C383.247 30.6176 381.9 32.0604 379.624 32.0604C377.797 32.0604 376.642 31.3871 375.296 29.5275L371.833 32.1245C373.468 34.5933 376.354 36.1002 379.592 36.1002ZM379.528 24.6541C377.091 24.6541 375.648 22.8906 375.648 19.8768C375.648 16.9912 377.059 15.2599 379.528 15.2599C381.58 15.2599 383.087 16.7347 383.087 18.8188V21.0952C383.087 23.1792 381.612 24.6541 379.528 24.6541Z" fill="black"/>
<path opacity="0.8" d="M353.357 28.4055H357.942V18.338C357.942 16.3822 359.096 15.1638 361.02 15.1638C363.008 15.1638 364.098 16.3181 364.098 18.338V28.4055H368.683V17.5364C368.683 13.4966 366.182 10.9316 362.463 10.9316C360.571 10.9316 358.775 11.7011 357.782 12.9195H357.717V11.4126H353.357V28.4055Z" fill="black"/>
<path opacity="0.8" d="M342.949 28.8864C346.155 28.8864 348.656 27.6039 350.291 25.039L347.053 22.5061C345.866 24.2374 344.616 25.039 342.949 25.039C340.865 25.039 339.582 23.6603 339.454 21.2556H350.836V19.909C350.836 14.5547 347.598 10.9316 342.852 10.9316C338.139 10.9316 334.837 14.6188 334.837 19.909C334.837 25.2955 338.139 28.8864 342.949 28.8864ZM339.454 18.0174C339.614 16.0616 340.993 14.7791 342.884 14.7791C344.969 14.7791 346.219 15.9654 346.379 18.0174H339.454Z" fill="black"/>
<path opacity="0.8" d="M327.745 28.4053H332.33V5H327.745V28.4053Z" fill="black"/>
<path opacity="0.8" d="M319.98 28.4053H324.565V5H319.98V28.4053Z" fill="black"/>
<path opacity="0.8" d="M308.327 28.8864C310.379 28.8864 311.95 28.2452 312.783 27.0589H312.848V28.4055H316.952V17.3761C316.952 13.4004 314.258 10.9316 309.994 10.9316C306.082 10.9316 303.069 13.176 302.556 16.5425L306.756 17.4723C307.076 15.741 308.231 14.747 309.994 14.747C311.469 14.747 312.335 15.3241 312.335 16.3181C312.335 17.2158 311.501 17.6967 308.808 18.338C304.447 19.396 302.748 20.935 302.748 23.7885C302.748 26.8665 304.96 28.8864 308.327 28.8864ZM309.225 25.039C307.846 25.039 307.141 24.526 307.141 23.5C307.141 22.6022 307.846 22.0892 309.898 21.5442C311.437 21.0953 312.142 20.7106 312.431 20.1976H312.495V22.6664C312.495 24.0771 311.148 25.039 309.225 25.039Z" fill="black"/>
<path opacity="0.8" d="M284.85 28.4053H289.434V18.3378C289.434 16.382 290.589 15.1637 292.512 15.1637C294.5 15.1637 295.59 16.3179 295.59 18.3378V28.4053H300.175V17.2157C300.175 13.4964 297.674 10.9315 293.955 10.9315C292.096 10.9315 290.428 11.701 289.499 12.9193H289.434V5H284.85V28.4053Z" fill="black"/>
<path opacity="0.8" d="M273.669 28.8868C278.574 28.8868 282.101 25.6164 282.678 20.5506L278.029 19.7491C277.58 22.8912 276.041 24.5584 273.669 24.5584C270.431 24.5584 268.507 21.801 268.507 17.1841C268.507 12.5672 270.431 9.80983 273.669 9.80983C275.945 9.80983 277.484 11.4129 277.965 14.2665L282.614 13.497C282.069 8.71972 278.478 5.48145 273.669 5.48145C267.641 5.48145 263.762 10.0984 263.762 17.1841C263.762 24.2698 267.641 28.8868 273.669 28.8868Z" fill="black"/>
<path opacity="0.8" d="M229.868 28.4055H234.293V18.1135C234.293 16.286 235.351 15.0997 237.018 15.0997C238.653 15.0997 239.743 16.1578 239.743 18.0174V28.4055H243.975V18.1135C243.975 16.286 245.066 15.0997 246.733 15.0997C248.368 15.0997 249.458 16.1578 249.458 18.0174V28.4055H253.883V17.1517C253.883 13.7852 251.446 10.9316 247.598 10.9316C245.643 10.9316 244.168 11.7011 243.046 13.0157H242.982C242.052 11.6691 240.256 10.9316 238.621 10.9316C236.826 10.9316 235.126 11.6691 234.164 12.9195H234.1V11.4126H229.868V28.4055Z" fill="black"/>
<path opacity="0.8" d="M218.215 28.8864C220.267 28.8864 221.838 28.2452 222.672 27.0589H222.736V28.4055H226.84V17.3761C226.84 13.4004 224.147 10.9316 219.882 10.9316C215.971 10.9316 212.957 13.176 212.444 16.5425L216.644 17.4723C216.965 15.741 218.119 14.747 219.882 14.747C221.357 14.747 222.223 15.3241 222.223 16.3181C222.223 17.2158 221.389 17.6967 218.696 18.338C214.336 19.396 212.636 20.935 212.636 23.7885C212.636 26.8665 214.849 28.8864 218.215 28.8864ZM219.113 25.039C217.734 25.039 217.029 24.526 217.029 23.5C217.029 22.6022 217.734 22.0892 219.786 21.5442C221.325 21.0953 222.03 20.7106 222.319 20.1976H222.383V22.6664C222.383 24.0771 221.036 25.039 219.113 25.039Z" fill="black"/>
<path opacity="0.8" d="M203.021 28.8864C206.228 28.8864 208.728 27.6039 210.364 25.039L207.125 22.5061C205.939 24.2374 204.689 25.039 203.021 25.039C200.937 25.039 199.655 23.6603 199.527 21.2556H210.909V19.909C210.909 14.5547 207.67 10.9316 202.925 10.9316C198.212 10.9316 194.91 14.6188 194.91 19.909C194.91 25.2955 198.212 28.8864 203.021 28.8864ZM199.527 18.0174C199.687 16.0616 201.066 14.7791 202.957 14.7791C205.041 14.7791 206.292 15.9654 206.452 18.0174H199.527Z" fill="black"/>
<path opacity="0.8" d="M185.509 28.4054H190.254V10.3224H196.73V5.96191H179V10.3224H185.509V28.4054Z" fill="black"/>
</g>
<defs>
<clipPath id="clip0_909_2022">
<rect width="452" height="36" fill="white"/>
</clipPath>
</defs>
</svg>
