<svg width="32" height="32" viewBox="0 0 32 32" fill="none" xmlns="http://www.w3.org/2000/svg">
<g filter="url(#filter0_ii_915_1857)">
<path d="M3 9C3 8.73478 3.10536 8.48043 3.29289 8.29289C3.48043 8.10536 3.73478 8 4 8H28C28.2652 8 28.5196 8.10536 28.7071 8.29289C28.8946 8.48043 29 8.73478 29 9V20C29 20.2652 28.8946 20.5196 28.7071 20.7071C28.5196 20.8946 28.2652 21 28 21H4C3.73478 21 3.48043 20.8946 3.29289 20.7071C3.10536 20.5196 3 20.2652 3 20V9Z" fill="url(#paint0_linear_915_1857)"/>
</g>
<path d="M3 9C3 8.73478 3.10536 8.48043 3.29289 8.29289C3.48043 8.10536 3.73478 8 4 8H28C28.2652 8 28.5196 8.10536 28.7071 8.29289C28.8946 8.48043 29 8.73478 29 9V20C29 20.2652 28.8946 20.5196 28.7071 20.7071C28.5196 20.8946 28.2652 21 28 21H4C3.73478 21 3.48043 20.8946 3.29289 20.7071C3.10536 20.5196 3 20.2652 3 20V9Z" fill="url(#paint1_linear_915_1857)"/>
<path d="M3 9C3 8.73478 3.10536 8.48043 3.29289 8.29289C3.48043 8.10536 3.73478 8 4 8H28C28.2652 8 28.5196 8.10536 28.7071 8.29289C28.8946 8.48043 29 8.73478 29 9V20C29 20.2652 28.8946 20.5196 28.7071 20.7071C28.5196 20.8946 28.2652 21 28 21H4C3.73478 21 3.48043 20.8946 3.29289 20.7071C3.10536 20.5196 3 20.2652 3 20V9Z" fill="url(#paint2_radial_915_1857)"/>
<path fill-rule="evenodd" clip-rule="evenodd" d="M24.4749 21.0004H19.5249L28.9999 11.5254V16.4754L24.4749 21.0004Z" fill="url(#paint3_linear_915_1857)"/>
<path fill-rule="evenodd" clip-rule="evenodd" d="M24.4749 21.0004H19.5249L28.9999 11.5254V16.4754L24.4749 21.0004Z" fill="url(#paint4_linear_915_1857)"/>
<path fill-rule="evenodd" clip-rule="evenodd" d="M24.4749 21.0004H19.5249L28.9999 11.5254V16.4754L24.4749 21.0004Z" fill="url(#paint5_linear_915_1857)"/>
<path fill-rule="evenodd" clip-rule="evenodd" d="M14.4749 21H9.5249L22.5249 8H27.4749L14.4749 21Z" fill="url(#paint6_linear_915_1857)"/>
<path fill-rule="evenodd" clip-rule="evenodd" d="M14.4749 21H9.5249L22.5249 8H27.4749L14.4749 21Z" fill="url(#paint7_linear_915_1857)"/>
<path fill-rule="evenodd" clip-rule="evenodd" d="M14.4749 21H9.5249L22.5249 8H27.4749L14.4749 21Z" fill="url(#paint8_linear_915_1857)"/>
<path fill-rule="evenodd" clip-rule="evenodd" d="M4.475 21H4C3.73478 21 3.48043 20.8946 3.29289 20.7071C3.10536 20.5196 3 20.2652 3 20V17.525L12.525 8H17.475L4.475 21Z" fill="url(#paint9_linear_915_1857)"/>
<path fill-rule="evenodd" clip-rule="evenodd" d="M4.475 21H4C3.73478 21 3.48043 20.8946 3.29289 20.7071C3.10536 20.5196 3 20.2652 3 20V17.525L12.525 8H17.475L4.475 21Z" fill="url(#paint10_linear_915_1857)"/>
<path fill-rule="evenodd" clip-rule="evenodd" d="M4.475 21H4C3.73478 21 3.48043 20.8946 3.29289 20.7071C3.10536 20.5196 3 20.2652 3 20V17.525L12.525 8H17.475L4.475 21Z" fill="url(#paint11_linear_915_1857)"/>
<path fill-rule="evenodd" clip-rule="evenodd" d="M4.475 21H4C3.73478 21 3.48043 20.8946 3.29289 20.7071C3.10536 20.5196 3 20.2652 3 20V17.525L12.525 8H17.475L4.475 21Z" fill="url(#paint12_linear_915_1857)"/>
<path fill-rule="evenodd" clip-rule="evenodd" d="M7.475 8H4C3.73478 8 3.48043 8.10536 3.29289 8.29289C3.10536 8.48043 3 8.73478 3 9V12.475L7.475 8Z" fill="url(#paint13_linear_915_1857)"/>
<path fill-rule="evenodd" clip-rule="evenodd" d="M7.475 8H4C3.73478 8 3.48043 8.10536 3.29289 8.29289C3.10536 8.48043 3 8.73478 3 9V12.475L7.475 8Z" fill="url(#paint14_linear_915_1857)"/>
<path fill-rule="evenodd" clip-rule="evenodd" d="M7.475 8H4C3.73478 8 3.48043 8.10536 3.29289 8.29289C3.10536 8.48043 3 8.73478 3 9V12.475L7.475 8Z" fill="url(#paint15_linear_915_1857)"/>
<path fill-rule="evenodd" clip-rule="evenodd" d="M26 21H24V30H26V21Z" fill="url(#paint16_linear_915_1857)"/>
<path fill-rule="evenodd" clip-rule="evenodd" d="M26 21H24V30H26V21Z" fill="url(#paint17_radial_915_1857)"/>
<path fill-rule="evenodd" clip-rule="evenodd" d="M8 21H6V30H8V21Z" fill="url(#paint18_linear_915_1857)"/>
<path fill-rule="evenodd" clip-rule="evenodd" d="M8 21H6V30H8V21Z" fill="url(#paint19_radial_915_1857)"/>
<path d="M6 7.5C6 7.10218 6.15804 6.72064 6.43934 6.43934C6.72064 6.15804 7.10218 6 7.5 6C7.89782 6 8.27936 6.15804 8.56066 6.43934C8.84196 6.72064 9 7.10218 9 7.5V8H6V7.5Z" fill="url(#paint20_linear_915_1857)"/>
<path d="M23 7.5C23 7.10218 23.158 6.72064 23.4393 6.43934C23.7206 6.15804 24.1022 6 24.5 6C24.8978 6 25.2794 6.15804 25.5607 6.43934C25.842 6.72064 26 7.10218 26 7.5V8H23V7.5Z" fill="url(#paint21_linear_915_1857)"/>
<g filter="url(#filter1_f_915_1857)">
<path d="M7.34689 21.5H7.34589C7.215 21.5 7.10889 21.6061 7.10889 21.737V29.263C7.10889 29.3939 7.215 29.5 7.34589 29.5H7.34689C7.47778 29.5 7.58389 29.3939 7.58389 29.263V21.737C7.58389 21.6061 7.47778 21.5 7.34689 21.5Z" fill="#DFD0E9"/>
</g>
<g filter="url(#filter2_f_915_1857)">
<path d="M25.238 21.5H25.237C25.1061 21.5 25 21.6061 25 21.737V29.263C25 29.3939 25.1061 29.5 25.237 29.5H25.238C25.3689 29.5 25.475 29.3939 25.475 29.263V21.737C25.475 21.6061 25.3689 21.5 25.238 21.5Z" fill="#DFD0E9"/>
</g>
<defs>
<filter id="filter0_ii_915_1857" x="2.5" y="7.5" width="27" height="14" filterUnits="userSpaceOnUse" color-interpolation-filters="sRGB">
<feFlood flood-opacity="0" result="BackgroundImageFix"/>
<feBlend mode="normal" in="SourceGraphic" in2="BackgroundImageFix" result="shape"/>
<feColorMatrix in="SourceAlpha" type="matrix" values="0 0 0 0 0 0 0 0 0 0 0 0 0 0 0 0 0 0 127 0" result="hardAlpha"/>
<feOffset dx="0.5" dy="-0.5"/>
<feGaussianBlur stdDeviation="0.375"/>
<feComposite in2="hardAlpha" operator="arithmetic" k2="-1" k3="1"/>
<feColorMatrix type="matrix" values="0 0 0 0 0.831373 0 0 0 0 0.494118 0 0 0 0 0.282353 0 0 0 1 0"/>
<feBlend mode="normal" in2="shape" result="effect1_innerShadow_915_1857"/>
<feColorMatrix in="SourceAlpha" type="matrix" values="0 0 0 0 0 0 0 0 0 0 0 0 0 0 0 0 0 0 127 0" result="hardAlpha"/>
<feOffset dx="-0.5" dy="0.5"/>
<feGaussianBlur stdDeviation="0.375"/>
<feComposite in2="hardAlpha" operator="arithmetic" k2="-1" k3="1"/>
<feColorMatrix type="matrix" values="0 0 0 0 1 0 0 0 0 1 0 0 0 0 0.415686 0 0 0 1 0"/>
<feBlend mode="normal" in2="effect1_innerShadow_915_1857" result="effect2_innerShadow_915_1857"/>
</filter>
<filter id="filter1_f_915_1857" x="6.45889" y="20.85" width="1.7751" height="9.3" filterUnits="userSpaceOnUse" color-interpolation-filters="sRGB">
<feFlood flood-opacity="0" result="BackgroundImageFix"/>
<feBlend mode="normal" in="SourceGraphic" in2="BackgroundImageFix" result="shape"/>
<feGaussianBlur stdDeviation="0.325" result="effect1_foregroundBlur_915_1857"/>
</filter>
<filter id="filter2_f_915_1857" x="24.35" y="20.85" width="1.7751" height="9.3" filterUnits="userSpaceOnUse" color-interpolation-filters="sRGB">
<feFlood flood-opacity="0" result="BackgroundImageFix"/>
<feBlend mode="normal" in="SourceGraphic" in2="BackgroundImageFix" result="shape"/>
<feGaussianBlur stdDeviation="0.325" result="effect1_foregroundBlur_915_1857"/>
</filter>
<linearGradient id="paint0_linear_915_1857" x1="25.846" y1="9.985" x2="8.5" y2="18.625" gradientUnits="userSpaceOnUse">
<stop stop-color="#F7D142"/>
<stop offset="1" stop-color="#FCB545"/>
</linearGradient>
<linearGradient id="paint1_linear_915_1857" x1="3" y1="14.011" x2="3.79" y2="14.011" gradientUnits="userSpaceOnUse">
<stop stop-color="#A57C4B"/>
<stop offset="1" stop-color="#A57C4B" stop-opacity="0"/>
</linearGradient>
<radialGradient id="paint2_radial_915_1857" cx="0" cy="0" r="1" gradientUnits="userSpaceOnUse" gradientTransform="translate(4.688 8) scale(12.0629 1.90436)">
<stop offset="0.136" stop-color="#FBBC43"/>
<stop offset="1" stop-color="#FBBC43" stop-opacity="0"/>
</radialGradient>
<linearGradient id="paint3_linear_915_1857" x1="27.6069" y1="11.5254" x2="18.4099" y2="17.9824" gradientUnits="userSpaceOnUse">
<stop stop-color="#353138"/>
<stop offset="1" stop-color="#503B62"/>
</linearGradient>
<linearGradient id="paint4_linear_915_1857" x1="22.0779" y1="21.0004" x2="22.0779" y2="20.3124" gradientUnits="userSpaceOnUse">
<stop stop-color="#4B2867"/>
<stop offset="1" stop-color="#4B2867" stop-opacity="0"/>
</linearGradient>
<linearGradient id="paint5_linear_915_1857" x1="28.9999" y1="14.4914" x2="25.7429" y2="14.4914" gradientUnits="userSpaceOnUse">
<stop stop-color="#353139"/>
<stop offset="0.166" stop-color="#413D46"/>
<stop offset="0.456" stop-color="#413D46" stop-opacity="0"/>
</linearGradient>
<linearGradient id="paint6_linear_915_1857" x1="24.8359" y1="8" x2="11.4259" y2="21" gradientUnits="userSpaceOnUse">
<stop stop-color="#353138"/>
<stop offset="1" stop-color="#503B62"/>
</linearGradient>
<linearGradient id="paint7_linear_915_1857" x1="14.3619" y1="21" x2="14.3619" y2="20.056" gradientUnits="userSpaceOnUse">
<stop stop-color="#4B2867"/>
<stop offset="1" stop-color="#4B2867" stop-opacity="0"/>
</linearGradient>
<linearGradient id="paint8_linear_915_1857" x1="23.3429" y1="8" x2="23.3429" y2="12.069" gradientUnits="userSpaceOnUse">
<stop stop-color="#353139"/>
<stop offset="0.166" stop-color="#413D46"/>
<stop offset="0.422" stop-color="#413D46" stop-opacity="0"/>
</linearGradient>
<linearGradient id="paint9_linear_915_1857" x1="15.347" y1="8" x2="2.327" y2="18.178" gradientUnits="userSpaceOnUse">
<stop stop-color="#353138"/>
<stop offset="1" stop-color="#503B62"/>
</linearGradient>
<linearGradient id="paint10_linear_915_1857" x1="6.9" y1="21" x2="6.9" y2="20.056" gradientUnits="userSpaceOnUse">
<stop stop-color="#4B2867"/>
<stop offset="1" stop-color="#4B2867" stop-opacity="0"/>
</linearGradient>
<linearGradient id="paint11_linear_915_1857" x1="14.143" y1="8" x2="14.143" y2="12.069" gradientUnits="userSpaceOnUse">
<stop stop-color="#353139"/>
<stop offset="0.166" stop-color="#413D46"/>
<stop offset="0.422" stop-color="#413D46" stop-opacity="0"/>
</linearGradient>
<linearGradient id="paint12_linear_915_1857" x1="3" y1="15.114" x2="3.75" y2="15.114" gradientUnits="userSpaceOnUse">
<stop stop-color="#2F2C32"/>
<stop offset="1" stop-color="#2F2C32" stop-opacity="0"/>
</linearGradient>
<linearGradient id="paint13_linear_915_1857" x1="6.817" y1="8" x2="2.473" y2="11.05" gradientUnits="userSpaceOnUse">
<stop stop-color="#353138"/>
<stop offset="1" stop-color="#503B62"/>
</linearGradient>
<linearGradient id="paint14_linear_915_1857" x1="6.445" y1="8" x2="6.445" y2="9.401" gradientUnits="userSpaceOnUse">
<stop stop-color="#353139"/>
<stop offset="0.166" stop-color="#413D46"/>
<stop offset="0.422" stop-color="#413D46" stop-opacity="0"/>
</linearGradient>
<linearGradient id="paint15_linear_915_1857" x1="3" y1="10.449" x2="4" y2="10.449" gradientUnits="userSpaceOnUse">
<stop stop-color="#2F2C32"/>
<stop offset="1" stop-color="#2F2C32" stop-opacity="0"/>
</linearGradient>
<linearGradient id="paint16_linear_915_1857" x1="24" y1="23.938" x2="25" y2="23.938" gradientUnits="userSpaceOnUse">
<stop stop-color="#857C8C"/>
<stop offset="1" stop-color="#B9A7C4"/>
</linearGradient>
<radialGradient id="paint17_radial_915_1857" cx="0" cy="0" r="1" gradientUnits="userSpaceOnUse" gradientTransform="translate(25 29.594) rotate(-90) scale(8.79687 5.25369)">
<stop offset="0.913" stop-color="#7E5E91" stop-opacity="0"/>
<stop offset="0.993" stop-color="#7E5E91"/>
</radialGradient>
<linearGradient id="paint18_linear_915_1857" x1="6" y1="23.938" x2="7" y2="23.938" gradientUnits="userSpaceOnUse">
<stop stop-color="#857C8C"/>
<stop offset="1" stop-color="#B9A7C4"/>
</linearGradient>
<radialGradient id="paint19_radial_915_1857" cx="0" cy="0" r="1" gradientUnits="userSpaceOnUse" gradientTransform="translate(7 29.594) rotate(-90) scale(8.79687 5.25369)">
<stop offset="0.913" stop-color="#7E5E91" stop-opacity="0"/>
<stop offset="0.993" stop-color="#7E5E91"/>
</radialGradient>
<linearGradient id="paint20_linear_915_1857" x1="7.5" y1="6" x2="7.5" y2="8" gradientUnits="userSpaceOnUse">
<stop offset="0.563" stop-color="#CB1E72"/>
<stop offset="1" stop-color="#E61C31"/>
</linearGradient>
<linearGradient id="paint21_linear_915_1857" x1="24.5" y1="6" x2="24.5" y2="8" gradientUnits="userSpaceOnUse">
<stop offset="0.563" stop-color="#CB1E72"/>
<stop offset="1" stop-color="#E61C31"/>
</linearGradient>
</defs>
</svg>
