<svg width="775" height="450" viewBox="0 0 775 450" fill="none" xmlns="http://www.w3.org/2000/svg">
<path opacity="0.1" d="M679.698 314.474C689.002 434.582 605.01 394.701 484.902 404.004C364.795 413.307 254.054 468.272 244.751 348.164C156.406 177.5 325.272 123.148 445.38 113.845C565.487 104.542 725.906 12.5 679.698 314.474Z" fill="#4F60FF"/>
<path d="M469.5 258C473.157 248.697 491.5 199.268 491.5 199.268L528.823 212.738C528.823 212.738 506.898 290.978 484.5 304C462.102 317.022 381.532 232.87 374.458 230.511C367.383 228.152 366.141 229.698 356.251 225.064C349.283 223.132 333.079 211.379 335.136 209.873C337.194 208.367 347.708 215.998 350.503 215.168C348.182 214.524 325.159 197.053 325.926 194.861C327.184 191.267 349.541 207.473 350.154 205.323C347.574 202.958 329.297 189.399 327.419 185.608C323.372 177.442 347.263 194.294 354.912 199.268C356.36 199.295 344.581 186.556 342.07 182.32C340.477 179.633 342.99 179.095 344.096 180.108C345.202 181.121 352.176 186.832 358.781 192.205C364.002 195.671 371.695 201.824 371.695 201.824C371.695 201.824 365.647 189.319 368.988 188.495C372.33 187.671 369.561 187.84 376.29 196.039C383.019 204.238 386.277 214.005 386.277 214.005C386.277 214.005 465.843 267.303 469.5 258Z" fill="#F1D2B7"/>
<path d="M372.767 205.258C372.01 206.604 371.217 210.432 374.099 214.967" stroke="#C18147" stroke-linecap="round"/>
<path d="M367.672 212.971C365.544 212.233 359.807 211.514 353.88 214.548" stroke="#C18147" stroke-linecap="round"/>
<path d="M378.224 224.413C379.548 223.683 381.605 223.344 382.961 219.99" stroke="#C18147" stroke-linecap="round"/>
<path d="M601.817 259.818C601.817 247.5 599.064 238.642 599.064 238.642L610.924 198.911C611.038 198.472 611.127 198.234 611.127 198.234L610.924 198.911C610.108 202.084 608.028 215.8 628.976 227C652.827 239.753 642.279 348.123 650.976 356.5L615.487 360C613.597 322.379 601.817 272.137 601.817 259.818Z" fill="#F1D2B7"/>
<path d="M610.976 105H500.976L504.164 199.913L600.614 203L610.976 105Z" fill="#2B2B2B"/>
<path d="M643 252L603 258.939L603.759 275.257L605.5 284.5L643 252Z" fill="#D5A880" stroke="#D5A880"/>
<path d="M490.198 95.2203C499.598 58.3384 518.566 46.0634 529.493 40.4245C559.905 24.7301 562.772 55.9842 555.86 54.0224C548.948 52.0606 508.86 118.762 506.095 124.647C503.331 130.533 505.277 190.698 513.571 211.297C521.865 231.896 524.882 247.685 524.882 270.245C524.882 288.294 517.154 302.191 518.537 312C515.081 308.076 505.957 296.894 497.11 283.554C486.051 266.878 490.198 221.494 490.198 203.838C490.198 186.182 478.448 141.323 490.198 95.2203Z" fill="#383838"/>
<path d="M486.662 261.936C481.278 258.096 478.094 264.436 470.594 251.936C481 221 487.006 197.127 499 186C506 182 515.518 178.25 528.047 178.25H570.357C603.493 183.369 627.282 178.25 644.975 251.203C630.708 261.34 608.738 277.6 602.255 271.974C601.213 281.261 600.475 290.582 600.475 310C600.475 346 602.488 335.658 607.475 361L493.43 371C493.43 301.119 490.135 293.593 487.674 272.705C487.196 268.655 486.86 265.108 486.662 261.936Z" fill="#4F60FF"/>
<path d="M529.976 178.807V163.548L570.976 152V178.807C569.308 188.239 564 199 549 197.5C529.976 195.598 531.829 184.124 529.976 178.807Z" fill="#F1D2B7"/>
<path d="M569.976 156.5L529.976 163.439L530.735 179.757L533 187.5L569.976 156.5Z" fill="#D5A880" stroke="#D5A880"/>
<path d="M541.008 170C530.957 165.486 511.25 153.073 508.605 140.993L503.976 86.6853L541.008 62.0001L585.976 105.023L583.331 148.136C561.641 162.806 548.283 169.53 541.008 170Z" fill="#F1D2B7"/>
<path d="M546.455 102.187C546.58 101.473 547.136 100.91 547.851 100.791C560.112 98.7496 566.383 101.078 570.676 104.976C570.856 105.139 570.929 105.388 570.873 105.624V105.624C570.748 106.145 570.088 106.332 569.666 106.002C565.635 102.85 558.154 102.244 548.586 104.213C547.363 104.465 546.241 103.418 546.455 102.187V102.187Z" fill="#383838"/>
<ellipse cx="559.5" cy="113.5" rx="8.5" ry="5.5" fill="white"/>
<ellipse cx="522" cy="113.5" rx="7" ry="5.5" fill="white"/>
<path d="M532.731 102.243C532.625 101.477 532.045 100.858 531.286 100.712C521.26 98.7839 516.436 99.818 512.321 103.57C512.165 103.712 512.097 103.926 512.136 104.132V104.132C512.234 104.641 512.905 104.829 513.325 104.527C516.286 102.401 521.992 102.73 530.559 104.303C531.795 104.529 532.903 103.487 532.731 102.243V102.243Z" fill="#383838"/>
<ellipse cx="558.5" cy="114" rx="4.5" ry="5" fill="#6C4B41"/>
<ellipse cx="524" cy="114" rx="4" ry="5" fill="#6C4B41"/>
<circle cx="560" cy="111" r="1" fill="white"/>
<circle cx="526" cy="111" r="1" fill="white"/>
<path d="M516 110.953C518.667 108.509 525 105.297 529 112" stroke="#383838" stroke-width="2" stroke-linecap="round"/>
<path d="M551 111.826C554 108.695 561.6 104.546 568 113" stroke="#383838" stroke-width="2" stroke-linecap="round"/>
<path d="M539 117L533 135.559C533.5 136.59 535.4 138.498 539 137.879" stroke="#C18147" stroke-width="1.5" stroke-linecap="round"/>
<path d="M552.679 148.535C552.766 150.392 545.832 155.389 540.507 155.639C535.182 155.889 532.613 152.488 532.526 150.631C532.439 148.773 536.077 149.317 541.402 149.067C546.727 148.817 552.591 146.677 552.679 148.535Z" fill="#EE9873"/>
<path d="M532.275 150.033C535.629 152.917 551.774 152.78 560.9 144" stroke="#C18147" stroke-width="1.5" stroke-linecap="round"/>
<path d="M488.976 118.454C515.095 114.13 539.478 81.3189 548.404 65.4538L534.501 59.043C528.467 63.3108 510.765 66.6722 500.976 79C491.187 91.3278 489.959 113.191 488.976 118.454Z" fill="#393939"/>
<path d="M573.512 175.013C581.629 158.243 583.658 116.963 583.658 98.4188L597.707 96.0001C604.576 118.575 581.316 163.726 581.316 187.914C581.316 212.101 586 241.127 581.316 245.964C575.024 252.464 547.754 269.346 564.145 249.995C577.258 234.515 575.853 220.433 573.512 215.326C570.129 208.876 565.394 191.784 573.512 175.013Z" fill="#2B2B2B"/>
<path d="M579.732 121.748C556.801 106.961 543.356 75.838 539.5 62.1246L542.811 48L582.476 79C595.712 99.6178 602.663 136.534 579.732 121.748Z" fill="#383838"/>
<path d="M610.975 80.5C601.575 49.9594 576.493 36.5 561.976 36.5C528.904 36.5001 534.18 52.5483 541.091 50.9238C548.003 49.2993 580.653 104.532 583.417 109.406C586.182 114.279 579.27 162.202 570.976 179.259C562.682 196.317 578.415 203.36 578.415 222.042C578.415 236.988 574.476 271 583.976 282.5C587.432 279.251 581.476 266 599.841 240.99C610.312 226.731 618.5 187.121 618.5 172.5C618.5 157.879 622.725 118.676 610.975 80.5Z" fill="#383838"/>
<path d="M501.762 214.407C498.208 219.767 486.594 233.436 486.594 261.936" stroke="#2634B6"/>
<path d="M595.96 252C597.59 258.222 601.278 271.082 603.002 272.753" stroke="#2634B6"/>
<path d="M582.976 123.5C584.976 124.333 591.176 126.3 599.976 127.5" stroke="#2B2B2B"/>
<path d="M505.976 112C504.682 112.833 500.67 114.8 494.976 116" stroke="#2B2B2B"/>
<path d="M550.476 40L548.476 43L550.476 46.5L546.476 51L548.476 56L541.976 64L543.976 70" stroke="#2B2B2B" stroke-linecap="round"/>
<path d="M582.476 187.5C580.31 191.667 576.476 204 578.476 220" stroke="#2B2B2B" stroke-linecap="round"/>
<path opacity="0.5" d="M732.5 349.5L376 382.5" stroke="#383838"/>
<g filter="url(#filter0_d_896_2802)">
<rect x="35" y="76.772" width="333.337" height="225.228" fill="white"/>
</g>
<path d="M190.407 118.815L186.654 116.647V120.982L190.407 118.815ZM133.35 119.19H187.029V118.439H133.35V119.19Z" fill="#9A9A9A"/>
<path d="M325.544 118.815L321.79 116.647V120.982L325.544 118.815ZM269.237 119.19H322.166V118.439H269.237V119.19Z" fill="#9A9A9A"/>
<path d="M325.544 190.888L321.79 188.72V193.055L325.544 190.888ZM269.237 191.263H322.166V190.512H269.237V191.263Z" fill="#9A9A9A"/>
<path d="M230.198 259.957L232.365 256.204L228.03 256.204L230.198 259.957ZM229.822 213.41L229.822 256.579L230.573 256.579L230.573 213.41L229.822 213.41Z" fill="#9A9A9A"/>
<path d="M190.407 190.888L186.653 188.72L186.653 193.055L190.407 190.888ZM121.337 190.888L121.337 190.512L121.337 190.888ZM90.9315 143.59L90.9315 160.857L91.6823 160.857L91.6823 143.59L90.9315 143.59ZM121.337 191.263L187.029 191.263L187.029 190.512L121.337 190.512L121.337 191.263ZM90.9315 160.857C90.9315 177.65 104.545 191.263 121.337 191.263L121.337 190.512C104.959 190.512 91.6823 177.235 91.6823 160.857L90.9315 160.857Z" fill="#9A9A9A"/>
<rect opacity="0.2" x="54.5195" y="94.0395" width="78.8298" height="49.5502" rx="3.00304" fill="#4F60FF"/>
<rect opacity="0.2" x="54.5195" y="233.681" width="92.3435" height="49.5502" rx="3.00304" fill="#4F60FF"/>
<rect opacity="0.2" x="190.407" y="94.0395" width="78.8298" height="49.5502" rx="3.00304" fill="#4F60FF"/>
<rect opacity="0.2" x="325.544" y="93.2888" width="27.0274" height="50.3009" rx="3.00304" fill="#4F60FF"/>
<rect opacity="0.2" x="325.544" y="163.86" width="27.0274" height="50.3009" rx="3.00304" fill="#4F60FF"/>
<rect opacity="0.2" x="190.407" y="259.957" width="78.8298" height="23.2736" rx="3.00304" fill="#4F60FF"/>
<rect opacity="0.2" x="190.407" y="163.109" width="78.8298" height="49.5502" rx="3.00304" fill="#4F60FF"/>
<rect opacity="0.5" x="60.7461" y="98.3212" width="25.9929" height="38.9893" rx="1.50152" fill="#4F60FF"/>
<rect opacity="0.5" x="91.0713" y="98.3212" width="37.2565" height="6.93143" rx="1.50152" fill="#4F60FF"/>
<rect opacity="0.5" x="195.042" y="98.3212" width="37.2565" height="6.93143" rx="1.50152" fill="#4F60FF"/>
<rect opacity="0.5" x="195.042" y="268.659" width="37.2565" height="6.93143" rx="1.50152" fill="#4F60FF"/>
<rect opacity="0.5" x="328.547" y="98.5441" width="12.7629" height="6.75684" rx="1.50152" fill="#4F60FF"/>
<rect opacity="0.5" x="328.547" y="169.115" width="12.7629" height="6.75684" rx="1.50152" fill="#4F60FF"/>
<rect opacity="0.5" x="328.547" y="106.802" width="21.0213" height="22.5228" rx="1.50152" fill="#4F60FF"/>
<rect opacity="0.5" x="328.547" y="177.374" width="21.0213" height="9.75988" rx="1.50152" fill="#4F60FF"/>
<rect opacity="0.5" x="328.547" y="189.386" width="21.0213" height="9.75988" rx="1.50152" fill="#4F60FF"/>
<rect opacity="0.5" x="328.473" y="133.844" width="20.7943" height="6.065" rx="1.50152" fill="#4F60FF"/>
<rect opacity="0.5" x="328.473" y="204.416" width="20.7943" height="6.065" rx="1.50152" fill="#4F60FF"/>
<rect opacity="0.5" x="239.23" y="268.659" width="18.195" height="6.93143" rx="1.50152" fill="#4F60FF"/>
<rect opacity="0.5" x="195.042" y="167.635" width="37.2565" height="6.93143" rx="1.50152" fill="#4F60FF"/>
<rect opacity="0.5" x="195.042" y="107.852" width="70.1808" height="29.4586" rx="1.50152" fill="#4F60FF"/>
<rect opacity="0.5" x="195.042" y="177.166" width="70.1808" height="13.8629" rx="1.50152" fill="#4F60FF"/>
<rect opacity="0.5" x="195.042" y="193.628" width="70.1808" height="13.8629" rx="1.50152" fill="#4F60FF"/>
<rect opacity="0.5" x="91.0713" y="107.852" width="37.2565" height="6.93143" rx="1.50152" fill="#4F60FF"/>
<rect opacity="0.5" x="91.0713" y="118.249" width="37.2565" height="19.0614" rx="1.50152" fill="#4F60FF"/>
<path opacity="0.8" d="M112.794 255.577C111.876 255.577 111.175 255.336 110.692 254.852C110.208 254.362 109.966 253.629 109.966 252.655V248.083H111.196V252.592C111.196 253.223 111.336 253.682 111.617 253.969C111.904 254.25 112.296 254.39 112.794 254.39C113.291 254.39 113.68 254.25 113.96 253.969C114.241 253.682 114.381 253.223 114.381 252.592V248.083H115.6V252.655C115.6 253.629 115.362 254.362 114.885 254.852C114.409 255.336 113.712 255.577 112.794 255.577ZM118.723 255.546C118.31 255.546 117.918 255.476 117.546 255.336C117.175 255.188 116.845 254.957 116.558 254.642L117.294 253.854C117.686 254.295 118.184 254.516 118.786 254.516C119.074 254.516 119.28 254.477 119.407 254.4C119.54 254.316 119.606 254.165 119.606 253.948C119.606 253.843 119.575 253.759 119.512 253.696C119.449 253.626 119.329 253.563 119.154 253.507C118.986 253.451 118.737 253.391 118.408 253.328C117.918 253.23 117.525 253.069 117.231 252.845C116.937 252.62 116.789 252.267 116.789 251.783C116.789 251.468 116.873 251.198 117.042 250.974C117.21 250.742 117.438 250.564 117.725 250.438C118.012 250.312 118.331 250.248 118.681 250.248C119.074 250.248 119.431 250.308 119.753 250.427C120.076 250.539 120.356 250.718 120.594 250.963L119.932 251.794C119.764 251.611 119.575 251.482 119.364 251.405C119.154 251.328 118.934 251.289 118.702 251.289C118.443 251.289 118.257 251.335 118.145 251.426C118.04 251.517 117.988 251.625 117.988 251.752C117.988 251.843 118.012 251.92 118.061 251.983C118.117 252.046 118.222 252.105 118.376 252.161C118.531 252.217 118.755 252.281 119.049 252.351C119.61 252.484 120.044 252.676 120.352 252.929C120.661 253.181 120.815 253.535 120.815 253.99C120.815 254.502 120.619 254.891 120.226 255.157C119.841 255.416 119.34 255.546 118.723 255.546ZM123.957 255.556C123.221 255.556 122.626 255.336 122.17 254.894C121.715 254.446 121.487 253.784 121.487 252.908C121.487 252.361 121.589 251.892 121.792 251.499C121.995 251.1 122.279 250.795 122.643 250.585C123.008 250.368 123.424 250.259 123.894 250.259C124.363 250.259 124.763 250.375 125.092 250.606C125.421 250.83 125.674 251.138 125.849 251.531C126.024 251.923 126.112 252.365 126.112 252.855V253.128H122.654C122.682 253.633 122.815 253.994 123.053 254.211C123.291 254.421 123.6 254.526 123.978 254.526C124.307 254.526 124.577 254.449 124.787 254.295C124.998 254.134 125.18 253.896 125.334 253.58L126.206 254.19C125.947 254.673 125.628 255.024 125.25 255.241C124.878 255.451 124.447 255.556 123.957 255.556ZM122.706 252.214H124.945C124.889 251.885 124.766 251.632 124.577 251.457C124.395 251.275 124.16 251.184 123.873 251.184C123.565 251.184 123.309 251.268 123.106 251.436C122.909 251.604 122.776 251.864 122.706 252.214ZM127.231 255.441V250.385H128.303L128.377 251.1C128.503 250.848 128.699 250.644 128.965 250.49C129.238 250.336 129.526 250.259 129.827 250.259C129.946 250.259 130.055 250.266 130.153 250.28C130.251 250.294 130.335 250.312 130.405 250.333V251.478C130.314 251.45 130.205 251.429 130.079 251.415C129.96 251.394 129.82 251.384 129.659 251.384C129.315 251.384 129.021 251.496 128.776 251.72C128.538 251.944 128.419 252.26 128.419 252.666V255.441H127.231ZM111.869 270.598C111.063 270.598 110.478 270.378 110.113 269.936C109.756 269.488 109.577 268.892 109.577 268.149H110.534C110.534 268.661 110.646 269.039 110.87 269.285C111.094 269.53 111.427 269.652 111.869 269.652C112.317 269.652 112.65 269.53 112.867 269.285C113.085 269.039 113.193 268.661 113.193 268.149V263.083H114.171V268.149C114.171 268.892 113.988 269.488 113.624 269.936C113.267 270.378 112.682 270.598 111.869 270.598ZM117.716 270.556C117.253 270.556 116.84 270.448 116.476 270.231C116.118 270.006 115.834 269.694 115.624 269.295C115.421 268.896 115.319 268.433 115.319 267.908C115.319 267.382 115.421 266.923 115.624 266.531C115.834 266.131 116.118 265.823 116.476 265.606C116.84 265.382 117.253 265.27 117.716 265.27C118.178 265.27 118.588 265.382 118.946 265.606C119.31 265.823 119.594 266.131 119.797 266.531C120.007 266.923 120.112 267.382 120.112 267.908C120.112 268.433 120.007 268.896 119.797 269.295C119.594 269.694 119.31 270.006 118.946 270.231C118.588 270.448 118.178 270.556 117.716 270.556ZM117.716 269.694C118.143 269.694 118.49 269.537 118.756 269.222C119.03 268.899 119.166 268.461 119.166 267.908C119.166 267.354 119.03 266.92 118.756 266.604C118.49 266.289 118.143 266.131 117.716 266.131C117.288 266.131 116.938 266.289 116.665 266.604C116.398 266.92 116.265 267.354 116.265 267.908C116.265 268.461 116.398 268.899 116.665 269.222C116.938 269.537 117.288 269.694 117.716 269.694ZM123.392 270.556C122.916 270.556 122.496 270.455 122.131 270.252C121.767 270.048 121.483 269.751 121.28 269.358C121.077 268.959 120.975 268.479 120.975 267.918C120.975 267.379 121.077 266.913 121.28 266.52C121.483 266.121 121.76 265.813 122.11 265.595C122.468 265.378 122.877 265.27 123.34 265.27C123.802 265.27 124.195 265.385 124.517 265.616C124.846 265.841 125.095 266.142 125.263 266.52C125.439 266.899 125.526 267.312 125.526 267.761V268.013H121.9C121.914 268.573 122.054 269.001 122.32 269.295C122.594 269.582 122.955 269.726 123.403 269.726C123.76 269.726 124.055 269.638 124.286 269.463C124.524 269.288 124.724 269.025 124.885 268.675L125.6 269.148C125.361 269.638 125.057 269.996 124.685 270.22C124.321 270.444 123.89 270.556 123.392 270.556ZM121.952 267.256H124.601C124.545 266.892 124.405 266.597 124.181 266.373C123.957 266.149 123.673 266.037 123.329 266.037C122.965 266.037 122.664 266.142 122.425 266.352C122.187 266.555 122.03 266.857 121.952 267.256Z" fill="black"/>
<path d="M82.139 277.94C92.2898 277.94 100.519 269.711 100.519 259.561C100.519 249.41 92.2898 241.181 82.139 241.181C71.9882 241.181 63.7593 249.41 63.7593 259.561C63.7593 269.711 71.9882 277.94 82.139 277.94Z" fill="#872322"/>
<path d="M86.3209 272.318C85.446 271.174 79.0341 271.174 78.1616 272.318C79.0365 271.174 79.9518 265.392 79.3266 264.575C79.9518 265.39 84.5307 265.39 85.156 264.575C84.5307 265.392 85.4484 271.174 86.3209 272.318Z" fill="#9E6B42"/>
<path d="M91.7461 275.03C91.7651 275.753 87.5928 278.012 82.0629 278.012C76.5331 278.012 72.5676 275.796 72.5747 275.03C72.5842 273.804 74.5099 271.811 74.5099 271.811C74.5099 271.811 76.942 270.692 78.5016 270.385C79.6356 270.164 80.8124 271.735 82.1034 271.735C83.468 271.735 84.8231 270.178 86.0094 270.423C87.4906 270.73 89.8109 271.811 89.8109 271.811C89.8109 271.811 91.7128 273.804 91.7461 275.03Z" fill="#084424"/>
<mask id="mask0_896_2802" style="mask-type:luminance" maskUnits="userSpaceOnUse" x="72" y="270" width="20" height="9">
<path d="M91.7461 275.03C91.7651 275.753 87.5928 278.012 82.0629 278.012C76.5331 278.012 72.5676 275.796 72.5747 275.03C72.5842 273.804 74.5099 271.811 74.5099 271.811C74.5099 271.811 76.942 270.692 78.5016 270.385C79.6356 270.164 80.8124 271.735 82.1034 271.735C83.468 271.735 84.8231 270.178 86.0094 270.423C87.4906 270.73 89.8109 271.811 89.8109 271.811C89.8109 271.811 91.7128 273.804 91.7461 275.03Z" fill="white"/>
</mask>
<g mask="url(#mask0_896_2802)">
<path d="M78.1738 270.48L82.1893 279.683L86.3022 270.48L82.2439 271.205L78.1738 270.48Z" fill="#C8DDD9"/>
</g>
<path d="M79.0535 269.22L82.2439 271.205L82.2487 273.214L78.1738 270.48L79.0535 269.22Z" fill="#E6EAE9"/>
<path d="M85.4104 269.22L82.2318 271.205L82.2271 273.214L86.3019 270.48L85.4104 269.22Z" fill="#E6EAE9"/>
<mask id="mask1_896_2802" style="mask-type:luminance" maskUnits="userSpaceOnUse" x="72" y="270" width="20" height="9">
<path d="M91.7461 275.03C91.7651 275.753 87.5928 278.012 82.0629 278.012C76.5331 278.012 72.5676 275.796 72.5747 275.03C72.5842 273.804 74.5099 271.811 74.5099 271.811C74.5099 271.811 76.942 270.692 78.5016 270.385C79.6356 270.164 80.9527 271.205 82.2436 271.205C83.6083 271.205 84.8255 270.176 86.0094 270.423C87.4906 270.73 89.8109 271.811 89.8109 271.811C89.8109 271.811 91.7128 273.804 91.7461 275.03Z" fill="white"/>
</mask>
<g mask="url(#mask1_896_2802)">
<path d="M82.9949 273.081L83.3801 272.584L82.2318 271.205L80.8505 272.655L81.3308 273.138L80.7935 279.795L82.2437 282.191L83.6939 279.795L82.9949 273.081Z" fill="#3CB7EB"/>
</g>
<path d="M73.5014 258.241C74.2102 258.164 74.6658 257.007 74.519 255.658C74.3722 254.308 73.6787 253.276 72.9699 253.353C72.2611 253.43 71.8055 254.587 71.9523 255.937C72.099 257.286 72.7926 258.318 73.5014 258.241Z" fill="#9E6B42"/>
<path d="M74.258 254.96C74.258 254.96 73.2262 253.232 72.2515 255.072" stroke="#804639" stroke-width="0.40541" stroke-miterlimit="10"/>
<path d="M73.9228 254.654C73.9228 254.654 72.9196 255.407 72.7793 256.941" stroke="#935C2C" stroke-width="0.40541" stroke-miterlimit="10"/>
<path d="M92.4892 255.878C92.636 254.528 92.1804 253.372 91.4716 253.294C90.7628 253.217 90.0692 254.249 89.9225 255.599C89.7757 256.948 90.2313 258.105 90.9401 258.182C91.6489 258.259 92.3424 257.228 92.4892 255.878Z" fill="#9E6B42"/>
<path d="M90.1846 254.896C90.1846 254.896 91.2164 253.168 92.1911 255.008M90.5174 254.59C90.5174 254.59 91.5207 255.343 91.6609 256.877" stroke="#935C2C" stroke-width="0.40541" stroke-miterlimit="10"/>
<path d="M90.0133 257.473C90.0133 262.204 86.5114 266.912 82.2344 266.912C77.9575 266.912 74.4556 262.204 74.4556 257.473V250.363C74.4556 245.631 77.9575 241.761 82.2344 241.761C86.5114 241.761 90.0133 245.631 90.0133 250.363V257.473Z" fill="#A97347"/>
<path d="M79.367 260.847L78.9082 261.348" stroke="#250305" stroke-width="0.675684" stroke-miterlimit="10" stroke-linecap="round"/>
<path d="M85.3774 260.847L85.8387 261.348" stroke="#250305" stroke-width="0.675684" stroke-miterlimit="10" stroke-linecap="round"/>
<path d="M85.5701 261.089C85.009 261.686 83.7751 262.102 82.3439 262.102C80.9175 262.102 79.686 261.691 79.1226 261.096" stroke="#250305" stroke-width="0.675684" stroke-miterlimit="10" stroke-linecap="round"/>
<path d="M74.4527 257.024C74.2839 257.761 73.9012 258.253 73.4186 258.246C72.703 258.236 72.0397 257.131 71.9374 255.781C71.8376 254.428 72.3369 253.341 73.0524 253.351C73.6634 253.36 74.234 254.166 74.4527 255.243V254.711C74.4218 254.677 74.3909 254.644 74.3576 254.613C74.4171 254.428 74.4504 254.231 74.4527 254.026V253.95C74.4361 253.123 73.9273 252.417 73.207 252.115C73.3472 251.855 73.4257 251.558 73.4257 251.242C73.4257 250.225 72.6007 249.4 71.5832 249.4C70.5657 249.4 69.7407 250.225 69.7407 251.242C69.7407 251.951 70.1425 252.566 70.7297 252.873C70.5181 253.194 70.3945 253.577 70.3945 253.988C70.3945 254.578 70.6489 255.11 71.0507 255.481C70.9865 255.678 70.9508 255.888 70.9508 256.106C70.9508 256.915 71.4239 257.611 72.1086 257.939C72.1086 257.958 72.1062 257.977 72.1062 257.999C72.1062 258.769 72.6055 259.42 73.2949 259.653C73.3758 260.388 73.9987 260.959 74.7547 260.959C74.8593 260.959 74.9615 260.947 75.059 260.928C74.6691 259.827 74.4527 258.652 74.4527 257.478V257.024ZM94.499 251.86C94.499 251.337 94.3088 250.857 93.995 250.486C94.2185 250.127 94.3469 249.706 94.3469 249.252C94.3469 248.755 94.1923 248.297 93.9308 247.918C93.9855 247.719 94.0188 247.51 94.0188 247.291C94.0188 246.402 93.5243 245.629 92.7968 245.23C92.8182 245.101 92.8325 244.973 92.8325 244.837C92.8325 243.539 91.7817 242.489 90.4836 242.489C90.2102 242.489 89.9463 242.538 89.7038 242.624C89.516 241.716 88.7124 241.034 87.7472 241.034C87.2313 241.034 86.7606 241.231 86.4063 241.554C86.2637 240.846 85.6361 240.311 84.8848 240.311C84.6708 240.311 84.4688 240.354 84.2833 240.432C83.8934 240.144 83.4132 239.973 82.8925 239.973C82.2292 239.973 81.6325 240.249 81.2046 240.691C80.7339 240.263 80.1086 239.999 79.4215 239.999C78.4111 239.999 77.5339 240.563 77.0845 241.393C76.9181 241.352 76.7446 241.331 76.5663 241.331C75.3253 241.331 74.322 242.336 74.322 243.575C74.322 244.519 74.9068 245.327 75.7342 245.658C77.1273 243.316 79.5237 241.763 82.234 241.763C86.5133 241.763 90.0129 245.634 90.0129 250.365V250.897C90.1436 250.938 90.2768 250.966 90.4146 250.983C90.417 250.985 90.4194 250.988 90.4218 250.99C90.3029 251.256 90.234 251.551 90.234 251.86C90.234 252.364 90.4099 252.828 90.7047 253.194C90.4408 253.315 90.2078 253.496 90.0129 253.715V255.065C90.2459 254.047 90.7998 253.299 91.3894 253.289C92.105 253.28 92.6066 254.366 92.5044 255.719C92.4045 257.072 91.7412 258.175 91.0233 258.184C90.562 258.191 90.1912 257.742 90.0129 257.06V257.476C90.0129 258.667 89.7894 259.858 89.39 260.97C90.2292 260.849 90.8759 260.129 90.8759 259.256C90.8759 259.247 90.8735 259.235 90.8735 259.225C91.6247 259.035 92.1811 258.358 92.1811 257.547C92.1811 257.509 92.1787 257.471 92.1763 257.435C93.0464 257.152 93.6812 256.289 93.6812 255.272C93.6812 254.723 93.4981 254.221 93.1938 253.829C93.9594 253.503 94.499 252.745 94.499 251.86Z" fill="#250305"/>
<path d="M72.2584 250.36C73.5189 250.36 74.5407 249.338 74.5407 248.078C74.5407 246.817 73.5189 245.796 72.2584 245.796C70.9979 245.796 69.9761 246.817 69.9761 248.078C69.9761 249.338 70.9979 250.36 72.2584 250.36Z" fill="#250305"/>
<path d="M74.1652 248.556C75.6345 248.556 76.8255 247.365 76.8255 245.895C76.8255 244.426 75.6345 243.235 74.1652 243.235C72.6959 243.235 71.5049 244.426 71.5049 245.895C71.5049 247.365 72.6959 248.556 74.1652 248.556Z" fill="#250305"/>
<path d="M76.0339 248.182C77.5216 248.182 78.7275 246.976 78.7275 245.489C78.7275 244.001 77.5216 242.795 76.0339 242.795C74.5463 242.795 73.3403 244.001 73.3403 245.489C73.3403 246.976 74.5463 248.182 76.0339 248.182Z" fill="#250305"/>
<path d="M73.597 252.291C74.6015 252.291 75.4158 251.476 75.4158 250.472C75.4158 249.467 74.6015 248.653 73.597 248.653C72.5926 248.653 71.7783 249.467 71.7783 250.472C71.7783 251.476 72.5926 252.291 73.597 252.291Z" fill="#250305"/>
<path d="M74.077 249.897C75.0815 249.897 75.8957 249.082 75.8957 248.078C75.8957 247.073 75.0815 246.259 74.077 246.259C73.0726 246.259 72.2583 247.073 72.2583 248.078C72.2583 249.082 73.0726 249.897 74.077 249.897Z" fill="#250305"/>
<path d="M73.364 253.648C74.2411 253.648 74.9521 252.937 74.9521 252.06C74.9521 251.183 74.2411 250.472 73.364 250.472C72.4869 250.472 71.7759 251.183 71.7759 252.06C71.7759 252.937 72.4869 253.648 73.364 253.648Z" fill="#250305"/>
<path d="M73.7965 255.044C74.4648 255.044 75.0066 254.502 75.0066 253.834C75.0066 253.165 74.4648 252.623 73.7965 252.623C73.1282 252.623 72.5864 253.165 72.5864 253.834C72.5864 254.502 73.1282 255.044 73.7965 255.044Z" fill="#250305"/>
<path d="M72.5866 255.044C73.2549 255.044 73.7967 254.502 73.7967 253.834C73.7967 253.165 73.2549 252.623 72.5866 252.623C71.9182 252.623 71.3765 253.165 71.3765 253.834C71.3765 254.502 71.9182 255.044 72.5866 255.044Z" fill="#250305"/>
<path d="M73.2307 256.822C74.0369 256.822 74.6905 256.168 74.6905 255.362C74.6905 254.556 74.0369 253.902 73.2307 253.902C72.4245 253.902 71.771 254.556 71.771 255.362C71.771 256.168 72.4245 256.822 73.2307 256.822Z" fill="#250305"/>
<path d="M74.0419 255.574C74.3649 255.574 74.6267 255.312 74.6267 254.989C74.6267 254.666 74.3649 254.404 74.0419 254.404C73.7189 254.404 73.457 254.666 73.457 254.989C73.457 255.312 73.7189 255.574 74.0419 255.574Z" fill="#250305"/>
<path d="M91.644 256.175C92.6563 256.175 93.477 255.355 93.477 254.342C93.477 253.33 92.6563 252.509 91.644 252.509C90.6317 252.509 89.811 253.33 89.811 254.342C89.811 255.355 90.6317 256.175 91.644 256.175Z" fill="#250305"/>
<path d="M90.4936 252.248C91.2158 252.248 91.8012 251.662 91.8012 250.94C91.8012 250.218 91.2158 249.633 90.4936 249.633C89.7715 249.633 89.186 250.218 89.186 250.94C89.186 251.662 89.7715 252.248 90.4936 252.248Z" fill="#250305"/>
<path d="M90.5624 253.674C91.1756 253.674 91.6726 253.177 91.6726 252.564C91.6726 251.951 91.1756 251.454 90.5624 251.454C89.9492 251.454 89.4521 251.951 89.4521 252.564C89.4521 253.177 89.9492 253.674 90.5624 253.674Z" fill="#250305"/>
<path d="M78.9055 246.601C80.3931 246.601 81.5991 245.395 81.5991 243.908C81.5991 242.42 80.3931 241.214 78.9055 241.214C77.4179 241.214 76.2119 242.42 76.2119 243.908C76.2119 245.395 77.4179 246.601 78.9055 246.601Z" fill="#250305"/>
<path d="M83.3824 246.449C84.5431 246.449 85.484 245.508 85.484 244.348C85.484 243.187 84.5431 242.246 83.3824 242.246C82.2217 242.246 81.2808 243.187 81.2808 244.348C81.2808 245.508 82.2217 246.449 83.3824 246.449Z" fill="#250305"/>
<path d="M86.5942 246.556C87.7562 246.556 88.6982 245.614 88.6982 244.452C88.6982 243.29 87.7562 242.348 86.5942 242.348C85.4322 242.348 84.4902 243.29 84.4902 244.452C84.4902 245.614 85.4322 246.556 86.5942 246.556Z" fill="#250305"/>
<path d="M88.8481 247.474C90.0102 247.474 90.9522 246.532 90.9522 245.37C90.9522 244.208 90.0102 243.266 88.8481 243.266C87.6861 243.266 86.7441 244.208 86.7441 245.37C86.7441 246.532 87.6861 247.474 88.8481 247.474Z" fill="#250305"/>
<path d="M90.4385 250.484C91.6005 250.484 92.5425 249.542 92.5425 248.38C92.5425 247.218 91.6005 246.276 90.4385 246.276C89.2765 246.276 88.3345 247.218 88.3345 248.38C88.3345 249.542 89.2765 250.484 90.4385 250.484Z" fill="#250305"/>
<path d="M90.812 251.632C91.1187 249.397 91.1449 247.001 90.0109 244.98C88.1565 241.675 83.5396 239.954 79.8974 240.936C74.4579 242.405 71.9782 246.471 72.0377 249.916C72.0947 253.146 74.2082 256.118 74.2082 256.118C74.2082 256.118 74.251 248.886 75.7987 246.792C77.6959 244.226 81.4023 246.038 82.4079 245.37C83.4112 244.702 85.0849 244.017 87.4266 245.622C88.4869 246.347 90.4174 248.47 90.1036 254.692C90.6956 252.262 90.8429 254.114 90.9761 253.52C91.1425 252.792 90.7098 252.371 90.812 251.632Z" fill="#250305"/>
<path d="M80.6226 250.976C80.6226 250.976 80.7058 250.348 80.247 250.265C79.7858 250.182 76.6833 250.51 76.2553 250.66C75.787 250.824 75.7989 251.52 75.7989 251.52C75.7989 251.52 78.918 250.931 80.6226 250.976ZM83.5777 250.194C83.5777 250.194 86.9323 249.68 88.0282 250.469C88.3634 250.712 88.0948 251.183 88.0948 251.183C88.0948 251.183 85.1421 250.555 83.6895 250.919C83.3543 251.002 83.5777 250.194 83.5777 250.194Z" fill="#250305"/>
<path d="M82.8025 252.412L82.1606 253.417L82.2439 257.64L84.084 257.599L83.8748 258.978L82.4531 259.649" stroke="#855A38" stroke-width="0.945957" stroke-miterlimit="10"/>
<path opacity="0.5" d="M80.2394 254.582C80.1229 254.751 79.8685 255.082 78.8439 255.288C78.366 255.386 77.2249 255.017 76.9538 254.371C76.7708 253.936 78.0023 253.137 78.8653 253.137C79.298 253.137 80.0373 253.593 80.344 253.767C80.5294 253.872 80.4771 254.24 80.2394 254.582Z" fill="#DCCCC8"/>
<path d="M76.8853 254.226C76.8853 254.226 76.9542 253.793 77.4059 253.427C78.0003 252.944 79.6359 252.702 80.3444 253.767C80.3468 253.767 77.9836 253.28 76.8853 254.226Z" fill="#250305"/>
<path d="M78.8463 255.291C79.3847 255.291 79.8211 254.854 79.8211 254.316C79.8211 253.778 79.3847 253.341 78.8463 253.341C78.308 253.341 77.8716 253.778 77.8716 254.316C77.8716 254.854 78.308 255.291 78.8463 255.291Z" fill="#250305"/>
<path opacity="0.5" d="M84.1363 254.582C84.2528 254.751 84.5072 255.082 85.5319 255.288C86.0097 255.386 87.1509 255.017 87.4219 254.371C87.605 253.936 86.3735 253.137 85.5105 253.137C85.0778 253.137 84.3384 253.593 84.0317 253.767C83.8463 253.872 83.8986 254.24 84.1363 254.582Z" fill="#DCCCC8"/>
<path d="M87.4909 254.226C87.4909 254.226 87.4219 253.793 86.9702 253.427C86.3759 252.944 84.7402 252.702 84.0317 253.767C84.0294 253.767 86.3925 253.28 87.4909 254.226Z" fill="#250305"/>
<path d="M85.5294 255.291C86.0678 255.291 86.5042 254.854 86.5042 254.316C86.5042 253.778 86.0678 253.341 85.5294 253.341C84.9911 253.341 84.5547 253.778 84.5547 254.316C84.5547 254.854 84.9911 255.291 85.5294 255.291Z" fill="#250305"/>
<path d="M368.043 184.623C365.271 182.811 364.193 185.378 364 186.888L368.621 200.475C374.782 206.514 386.874 217.46 385.95 212.93C384.795 207.269 371.509 186.888 368.043 184.623Z" fill="#F1D2B7"/>
<defs>
<filter id="filter0_d_896_2802" x="31.997" y="73.769" width="339.343" height="231.234" filterUnits="userSpaceOnUse" color-interpolation-filters="sRGB">
<feFlood flood-opacity="0" result="BackgroundImageFix"/>
<feColorMatrix in="SourceAlpha" type="matrix" values="0 0 0 0 0 0 0 0 0 0 0 0 0 0 0 0 0 0 127 0" result="hardAlpha"/>
<feOffset/>
<feGaussianBlur stdDeviation="1.50152"/>
<feComposite in2="hardAlpha" operator="out"/>
<feColorMatrix type="matrix" values="0 0 0 0 0 0 0 0 0 0 0 0 0 0 0 0 0 0 0.25 0"/>
<feBlend mode="normal" in2="BackgroundImageFix" result="effect1_dropShadow_896_2802"/>
<feBlend mode="normal" in="SourceGraphic" in2="effect1_dropShadow_896_2802" result="shape"/>
</filter>
</defs>
</svg>
