<svg width="49" height="36" viewBox="0 0 49 36" fill="none" xmlns="http://www.w3.org/2000/svg">
<rect width="48.7765" height="36" fill="white"/>
<path d="M28.6837 21.591C28.8512 21.1332 29.4989 21.1332 29.6664 21.591L30.1669 22.9576C30.5593 24.0297 31.1809 25.0033 31.9881 25.8105C32.7954 26.6178 33.769 27.2393 34.841 27.6318L36.2076 28.1322C36.6662 28.2997 36.6662 28.9474 36.2076 29.1149L34.841 29.6153C33.769 30.0078 32.7954 30.6293 31.9881 31.4366C31.1809 32.2438 30.5593 33.2174 30.1669 34.2895L29.6664 35.6561C29.4989 36.1146 28.8512 36.1146 28.6837 35.6561L28.1833 34.2895C27.7908 33.2174 27.1693 32.2438 26.3621 31.4366C25.5548 30.6293 24.5812 30.0078 23.5091 29.6153L22.1426 29.1149C21.6847 28.9474 21.6847 28.2997 22.1426 28.1322L23.5091 27.6318C24.5812 27.2393 25.5548 26.6178 26.3621 25.8105C27.1693 25.0033 27.7908 24.0297 28.1833 22.9576L28.6837 21.591Z" fill="url(#paint0_linear_886_4358)"/>
<path d="M33.7371 0.241302C33.8548 -0.080434 34.31 -0.080434 34.4277 0.241302L34.7793 1.2016C35.0551 1.95495 35.4918 2.63909 36.0591 3.20636C36.6264 3.77363 37.3105 4.21037 38.0639 4.48615L39.0242 4.83781C39.3464 4.95551 39.3464 5.41065 39.0242 5.52836L38.0639 5.88001C37.3105 6.1558 36.6264 6.59254 36.0591 7.15981C35.4918 7.72707 35.0551 8.41122 34.7793 9.16456L34.4277 10.1249C34.31 10.4471 33.8548 10.4471 33.7371 10.1249L33.3855 9.16456C33.1097 8.41122 32.6729 7.72707 32.1057 7.15981C31.5384 6.59254 30.8542 6.1558 30.1009 5.88001L29.1406 5.52836C28.8189 5.41065 28.8189 4.95551 29.1406 4.83781L30.1009 4.48615C30.8542 4.21037 31.5384 3.77363 32.1057 3.20636C32.6729 2.63909 33.1097 1.95495 33.3855 1.2016L33.7371 0.241302Z" fill="url(#paint1_linear_886_4358)"/>
<path d="M18.7453 3.72925C18.958 3.14765 19.7808 3.14765 19.9936 3.72925L20.6293 5.46518C21.1278 6.82699 21.9173 8.06372 22.9427 9.08916C23.9682 10.1146 25.2049 10.9041 26.5667 11.4026L28.3026 12.0383C28.8851 12.2511 28.8851 13.0738 28.3026 13.2866L26.5667 13.9223C25.2049 14.4208 23.9682 15.2103 22.9427 16.2358C21.9173 17.2612 21.1278 18.4979 20.6293 19.8598L19.9936 21.5957C19.7808 22.1782 18.958 22.1782 18.7453 21.5957L18.1096 19.8598C17.6111 18.4979 16.8216 17.2612 15.7961 16.2358C14.7707 15.2103 13.5339 14.4208 12.1721 13.9223L10.4362 13.2866C9.8546 13.0738 9.8546 12.2511 10.4362 12.0383L12.1721 11.4026C13.5339 10.9041 14.7707 10.1146 15.7961 9.08916C16.8216 8.06372 17.6111 6.82699 18.1096 5.46518L18.7453 3.72925Z" fill="url(#paint2_linear_886_4358)"/>
<defs>
<linearGradient id="paint0_linear_886_4358" x1="24.6329" y1="0" x2="24.6329" y2="36" gradientUnits="userSpaceOnUse">
<stop offset="0.414" stop-color="#FFDE30"/>
<stop offset="1" stop-color="#FFB800"/>
</linearGradient>
<linearGradient id="paint1_linear_886_4358" x1="24.6329" y1="0" x2="24.6329" y2="36" gradientUnits="userSpaceOnUse">
<stop stop-color="#FFDE30"/>
<stop offset="1" stop-color="#FFCD4D"/>
</linearGradient>
<linearGradient id="paint2_linear_886_4358" x1="19.3698" y1="3.29305" x2="19.3698" y2="22.0326" gradientUnits="userSpaceOnUse">
<stop offset="0.425" stop-color="#FFDE30"/>
<stop offset="1" stop-color="#F4BB2A"/>
</linearGradient>
</defs>
</svg>
